<svg width="361" height="459" viewBox="0 0 361 459" fill="none" xmlns="http://www.w3.org/2000/svg">
<g filter="url(#filter0_f_395_654)">
<path d="M115.519 158.52L107.768 105.796L120.053 85.4157L150.948 70.3484L212.118 79.3095L220.01 109.98L229.025 143.689L221.741 144.76C197.669 105.275 182.74 107.469 161.247 110.629C131.331 115.028 118.219 145.121 118.28 159.971L115.519 158.52Z" fill="#0D323B"/>
<path d="M98.508 443.152L65.0727 215.736C67.147 212.972 73.8426 208.915 92.7518 206.135C115.267 202.825 120.594 202.246 122.685 207.266L156.121 434.682C152.619 438.475 145.44 446.701 128.487 449.194C111.534 451.686 100.467 448.806 98.508 443.152Z" fill="#14525F"/>
<path d="M92.9805 410.159L59.5451 182.743C61.6194 179.979 68.315 175.922 87.2242 173.142C109.739 169.831 115.067 169.253 117.158 174.272L150.593 401.689C147.091 405.482 139.912 413.708 122.959 416.201C106.007 418.693 94.9392 415.813 92.9805 410.159Z" fill="#14525F"/>
<path d="M95.9046 448.453C96.2584 450.859 99.9528 452.979 101.336 453.186L155.638 445.202C156.3 445.105 157.147 443.505 158.241 439.902C159.335 436.299 157.96 433.388 155.944 433.479C154.885 435.479 149.789 437.874 145.967 439.248C140.184 441.328 132.061 441.293 123.452 442.558C116.565 443.571 102.35 446.276 98.3311 441.949C97.5366 442.681 95.5508 446.046 95.9046 448.453Z" fill="#143A46"/>
<path d="M102.323 436.449L71.5326 227.023C71.3265 225.621 70.6894 222.408 70.4864 210.851C70.3056 200.566 73.9583 216.355 75.4421 226.448L104.996 427.464C105.367 429.987 104.996 427.464 106.356 436.716C106.974 440.921 102.29 440.75 102.323 436.449Z" fill="#143A46"/>
<path d="M113.436 438.407L81.8477 223.555C81.6363 222.117 80.9868 218.82 80.7406 206.969C80.5214 196.423 84.2349 212.626 85.7572 222.981L116.077 429.204C116.457 431.793 116.077 429.204 117.472 438.695C118.106 443.01 113.419 442.817 113.436 438.407Z" fill="#143A46"/>
<path d="M125.355 436.655L93.7666 221.803C93.5552 220.365 92.9058 217.067 92.6595 205.217C92.4403 194.671 96.1538 210.874 97.6761 221.228L127.996 427.452C128.376 430.04 127.996 427.451 129.391 436.943C130.025 441.257 125.337 441.065 125.355 436.655Z" fill="#143A46"/>
<path d="M137.275 434.903L105.687 220.051C105.475 218.613 104.826 215.315 104.579 203.465C104.36 192.919 108.074 209.122 109.596 219.476L139.916 425.7C140.296 428.288 139.916 425.699 141.311 435.191C141.945 439.505 137.257 439.313 137.275 434.903Z" fill="#143A46"/>
<path d="M147.354 429.829L116.563 220.402C116.357 219 115.72 215.787 115.517 204.23C115.336 193.946 118.989 209.735 120.473 219.827L150.027 420.843C150.397 423.366 150.027 420.843 151.387 430.095C152.005 434.3 147.32 434.13 147.354 429.829Z" fill="#143A46"/>
<path d="M86.08 183.759C100.809 182.708 112.259 179.295 117.866 179.086L118.397 182.696L60.7844 191.166L59.8999 185.15L58.9269 178.532L73.7155 173.284C74.4375 176.661 78.4372 184.304 86.08 183.759Z" fill="#214959"/>
<path d="M86.08 183.759C100.809 182.708 112.259 179.295 117.866 179.086L118.397 182.696L60.7844 191.166L59.8999 185.15L58.9269 178.532L73.7155 173.284C74.4375 176.661 78.4372 184.304 86.08 183.759Z" fill="#15515D"/>
<path d="M108.953 371.548C117.567 388.721 126.711 409.503 151.875 405.804L156.828 439.495L98.5537 448.063L85.1497 356.892L63.7031 211.02L79.1091 208.755C86.928 260.385 103.906 361.486 108.953 371.548Z" fill="#A59292" fill-opacity="0.1"/>
<path d="M96.7224 196.33C111.452 195.28 114.647 195.539 120.254 195.329L120.784 198.939L63.1719 207.409L62.2873 201.393L61.3143 194.775L76.103 189.528C76.8249 192.905 89.0796 196.876 96.7224 196.33Z" fill="#15515D"/>
<path d="M58.665 195.165C58.3112 192.759 61.2389 189.665 62.5044 189.069L116.806 181.085C117.468 180.988 118.74 182.276 120.824 185.412C122.909 188.547 122.43 191.732 120.473 192.224C118.883 190.614 113.314 189.787 109.258 189.571C103.122 189.244 95.352 191.615 86.7433 192.881C79.8563 193.893 65.464 195.395 62.8606 200.695C61.8892 200.223 59.0188 197.572 58.665 195.165Z" fill="#143A46"/>
<path d="M56.3664 179.523C56.0126 177.117 58.9403 174.023 60.2058 173.427L114.507 165.443C115.169 165.346 116.441 166.634 118.526 169.77C120.611 172.905 120.132 176.09 118.174 176.582C116.585 174.972 111.015 174.145 106.96 173.929C100.823 173.602 93.0534 175.973 84.4447 177.239C77.5577 178.251 63.1654 179.753 60.562 185.053C59.5906 184.581 56.7202 181.93 56.3664 179.523Z" fill="#143A46"/>
<path d="M60.965 210.808C60.6112 208.402 63.539 205.308 64.8044 204.712L119.106 196.728C119.768 196.631 121.04 197.919 123.125 201.055C125.209 204.19 124.73 207.375 122.773 207.867C121.183 206.257 115.614 205.43 111.559 205.214C105.422 204.887 97.6521 207.258 89.0433 208.524C82.1563 209.537 67.7641 211.038 65.1606 216.338C64.1892 215.866 61.3188 213.215 60.965 210.808Z" fill="#143A46"/>
<rect x="53.9739" y="144.84" width="58.9011" height="26.7563" transform="rotate(-8.36385 53.9739 144.84)" fill="#143A46"/>
<path d="M56.673 167.799L53.5772 146.742L112.063 135.012L113.656 145.841C99.8814 147.252 81.0386 149.466 73.9312 151.74C66.8238 154.014 64.7216 162.723 66.6062 166.339L56.673 167.799Z" fill="#236472"/>
<path d="M66.3785 141.788C56.3129 143.268 60.9765 137.255 56.4884 138.94C48.5418 140.108 47.6291 143.438 47.5239 146.404C47.4187 149.37 49.7765 150.99 51.5424 150.73C58.7088 148.857 74.8958 144.838 82.3126 143.748C89.7294 142.657 101.797 141.293 107.654 141.251C108.154 141.588 118.526 142.162 117.988 138.503C117.192 133.088 111.674 136.972 107.123 137.642C97.102 139.115 76.4442 140.308 66.3785 141.788Z" fill="#154A56"/>
<path d="M82.8911 161.487C72.8255 162.967 59.7432 165.095 55.2551 166.779C52.6947 167.77 51.521 169.91 51.4158 172.876C51.3106 175.841 53.6684 177.461 55.4343 177.202C62.6007 175.329 78.7877 171.31 86.2045 170.219C93.6213 169.129 105.689 167.765 111.546 167.723C112.046 168.059 123.363 168.71 121.703 163.771C119.145 156.157 119.085 157.99 114.192 158.114C104.082 158.371 92.9567 160.007 82.8911 161.487Z" fill="#15515D"/>
<path d="M70.201 167.786C60.1353 169.266 64.7989 163.253 60.3108 164.937C52.3643 166.106 51.4515 169.436 51.3463 172.402C51.2411 175.367 53.6731 178.075 55.439 177.815C62.6054 175.942 78.8111 172.051 86.2279 170.961C93.6447 169.871 105.796 168.494 111.653 168.452C112.154 168.788 122.349 168.16 121.81 164.5C121.014 159.086 115.497 162.97 110.946 163.639C100.924 165.113 80.2666 166.306 70.201 167.786Z" fill="#154A56"/>
<path d="M265.386 418.617L231.951 191.201C234.025 188.437 240.721 184.38 259.63 181.6C282.145 178.289 287.473 177.711 289.564 182.73L322.999 410.147C319.497 413.94 312.318 422.166 295.365 424.659C278.413 427.151 267.345 424.271 265.386 418.617Z" fill="#14525F"/>
<path d="M259.86 385.626L226.424 158.209C228.499 155.446 235.194 151.388 254.104 148.608C276.619 145.298 281.946 144.719 284.037 149.739L317.472 377.155C313.971 380.948 306.791 389.174 289.839 391.667C272.886 394.159 261.819 391.279 259.86 385.626Z" fill="#14525F"/>
<path d="M262.783 423.918C263.137 426.325 266.831 428.445 268.215 428.651L322.516 420.668C323.178 420.571 324.025 418.971 325.119 415.368C326.213 411.765 324.838 408.853 322.822 408.945C321.763 410.944 316.667 413.34 312.846 414.714C307.063 416.794 298.939 416.759 290.331 418.024C283.444 419.037 269.228 421.741 265.21 417.415C264.415 418.147 262.429 421.512 262.783 423.918Z" fill="#143A46"/>
<path d="M269.202 411.914L238.412 202.488C238.206 201.086 237.569 197.872 237.366 186.316C237.185 176.031 240.838 191.82 242.322 201.913L271.875 402.929C272.246 405.452 271.876 402.929 273.236 412.18C273.854 416.386 269.169 416.215 269.202 411.914Z" fill="#143A46"/>
<path d="M280.315 413.873L248.727 199.021C248.516 197.583 247.866 194.286 247.62 182.435C247.401 171.889 251.114 188.092 252.637 198.446L282.956 404.67C283.337 407.258 282.957 404.67 284.352 414.161C284.986 418.476 280.298 418.283 280.315 413.873Z" fill="#143A46"/>
<path d="M292.234 412.12L260.646 197.268C260.434 195.83 259.785 192.533 259.539 180.682C259.319 170.136 263.033 186.339 264.555 196.693L294.875 402.917C295.255 405.505 294.875 402.917 296.27 412.408C296.904 416.723 292.217 416.53 292.234 412.12Z" fill="#143A46"/>
<path d="M304.154 410.368L272.566 195.516C272.354 194.078 271.705 190.78 271.459 178.93C271.239 168.384 274.953 184.587 276.475 194.941L306.795 401.164C307.175 403.753 306.795 401.164 308.19 410.656C308.824 414.97 304.137 414.778 304.154 410.368Z" fill="#143A46"/>
<path d="M314.232 405.295L283.442 195.868C283.236 194.466 282.599 191.253 282.396 179.696C282.215 169.412 285.868 185.2 287.352 195.293L316.905 396.309C317.276 398.832 316.906 396.309 318.266 405.561C318.884 409.766 314.199 409.596 314.232 405.295Z" fill="#143A46"/>
<path d="M252.958 159.225C267.688 158.174 279.138 154.761 284.745 154.552L285.275 158.161L227.663 166.632L226.778 160.615L225.805 153.997L240.594 148.75C241.316 152.127 245.316 159.77 252.958 159.225Z" fill="#214959"/>
<path d="M252.958 159.225C267.688 158.174 279.138 154.761 284.745 154.552L285.275 158.161L227.663 166.632L226.778 160.615L225.805 153.997L240.594 148.75C241.316 152.127 245.316 159.77 252.958 159.225Z" fill="#15515D"/>
<path d="M275.832 347.012C284.446 364.185 293.59 384.968 318.754 381.268L323.707 414.959L265.433 423.527L252.029 332.357L230.582 186.484L245.988 184.219C253.807 235.85 270.785 336.951 275.832 347.012Z" fill="#A59292" fill-opacity="0.1"/>
<path d="M263.602 171.797C278.331 170.746 281.526 171.005 287.133 170.796L287.664 174.405L230.051 182.876L229.167 176.859L228.194 170.242L242.982 164.994C243.704 168.371 255.959 172.342 263.602 171.797Z" fill="#15515D"/>
<path d="M225.544 170.631C225.191 168.224 228.118 165.131 229.384 164.535L283.685 156.551C284.347 156.454 285.619 157.742 287.704 160.878C289.789 164.013 289.31 167.198 287.352 167.69C285.763 166.08 280.193 165.253 276.138 165.037C270.001 164.709 262.231 167.081 253.623 168.347C246.736 169.359 232.343 170.861 229.74 176.16C228.769 175.689 225.898 173.038 225.544 170.631Z" fill="#143A46"/>
<path d="M223.244 154.988C222.891 152.582 225.818 149.488 227.084 148.892L281.385 140.909C282.047 140.811 283.319 142.099 285.404 145.235C287.488 148.37 287.01 151.555 285.052 152.048C283.463 150.437 277.893 149.61 273.838 149.394C267.701 149.067 259.931 151.438 251.323 152.704C244.436 153.717 230.043 155.218 227.44 160.518C226.469 160.046 223.598 157.395 223.244 154.988Z" fill="#143A46"/>
<path d="M227.844 186.273C227.491 183.866 230.418 180.772 231.684 180.176L285.985 172.193C286.647 172.095 287.919 173.384 290.004 176.519C292.089 179.655 291.61 182.839 289.653 183.332C288.063 181.722 282.493 180.894 278.438 180.678C272.301 180.351 264.531 182.723 255.923 183.988C249.036 185.001 234.643 186.502 232.04 191.802C231.069 191.33 228.198 188.679 227.844 186.273Z" fill="#143A46"/>
<rect x="220.854" y="120.305" width="58.9011" height="26.7563" transform="rotate(-8.36385 220.854 120.305)" fill="#143A46"/>
<path d="M223.553 143.264L220.457 122.207L278.943 110.477L280.535 121.306C266.761 122.716 247.919 124.931 240.811 127.205C233.704 129.479 231.601 138.188 233.486 141.804L223.553 143.264Z" fill="#236472"/>
<path d="M245.879 110.479C235.814 111.959 222.731 114.087 218.243 115.772C215.683 116.763 214.509 118.902 214.404 121.868C214.299 124.833 216.657 126.454 218.423 126.194C225.589 124.321 241.776 120.302 249.193 119.212C256.61 118.121 268.677 116.757 274.534 116.715C275.034 117.051 286.351 117.702 284.691 112.763C282.133 105.149 282.073 106.982 277.18 107.107C267.07 107.364 255.945 108.999 245.879 110.479Z" fill="#15515D"/>
<path d="M233.259 117.252C223.193 118.732 227.857 112.72 223.369 114.404C215.422 115.572 214.509 118.903 214.404 121.868C214.299 124.834 216.657 126.454 218.423 126.195C225.589 124.321 241.776 120.303 249.193 119.212C256.61 118.122 268.677 116.757 274.534 116.716C275.035 117.052 285.407 117.627 284.868 113.967C284.072 108.552 278.555 112.437 274.003 113.106C263.982 114.579 243.325 115.773 233.259 117.252Z" fill="#154A56"/>
<path d="M249.772 136.951C239.706 138.431 226.624 140.56 222.136 142.244C219.576 143.235 218.402 145.374 218.297 148.34C218.191 151.306 220.549 152.926 222.315 152.666C229.482 150.793 245.669 146.774 253.085 145.684C260.502 144.593 272.569 143.229 278.427 143.187C278.927 143.523 290.243 144.174 288.584 139.235C286.025 131.621 285.966 133.454 281.073 133.579C270.963 133.836 259.838 135.471 249.772 136.951Z" fill="#15515D"/>
<path d="M237.082 143.25C227.016 144.73 231.68 138.717 227.192 140.402C219.245 141.57 218.332 144.9 218.227 147.866C218.122 150.832 220.554 153.539 222.32 153.28C229.486 151.407 245.692 147.516 253.109 146.425C260.526 145.335 272.677 143.958 278.534 143.917C279.034 144.253 289.229 143.624 288.691 139.965C287.895 134.55 282.378 138.434 277.826 139.104C267.805 140.577 247.147 141.77 237.082 143.25Z" fill="#154A56"/>
<path d="M110.477 115.021L48.8908 124.075L44.4681 93.9937L44.1143 91.5872L43.7605 89.1807L105.346 80.1262L110.477 115.021Z" fill="#143A46"/>
<path d="M276.781 91.1853L215.195 100.24L210.772 70.1583L210.418 67.7517L210.064 65.3452L271.65 56.2907L276.781 91.1853Z" fill="#143A46"/>
<path d="M48.7139 122.872L43.7605 89.1807L51.707 88.0123C55.1225 92.837 63.9201 102.186 68.2671 104.017C70.4307 104.928 72.948 108.246 109.061 105.395L109.769 110.208L110.388 114.419L48.7139 122.872Z" fill="#15515D"/>
<path d="M215.105 99.6276L210.064 65.3452L218.096 64.1643C221.554 69.0763 230.456 78.5965 234.853 80.4634C237.041 81.3925 239.589 84.7704 276.093 81.9052L276.813 86.8027L277.443 91.088L215.105 99.6276Z" fill="#15515D"/>
<path d="M216.751 99.1154L274.459 91.3307C278.218 90.8236 282.338 89.2469 287.381 92.042C295.396 96.4834 296.883 101.546 293.251 110.886C292.243 113.476 274.059 120.343 273.376 108.658L227.024 115.524C230.371 125.504 212.805 125.419 209.249 124.058C206.2 122.891 202.906 116.937 202.347 112.717C201.869 109.1 204.811 100.726 216.751 99.1154Z" fill="#206474"/>
<path d="M220.144 115.494C219.159 113.253 215.699 112.869 215.155 113.769C215.42 112.5 218.267 110.376 220.187 111.185C222.351 112.096 224.169 113.168 223.721 116.812C223.412 119.316 218.365 120.263 216.79 120.289C217.746 119.124 221.16 117.803 220.144 115.494Z" fill="#15515D"/>
<path d="M216.791 120.289C208.798 116.547 209.433 113.503 210.739 111.345C211.86 109.493 215.521 107.053 218.906 107.071C216.588 106.647 209.741 107.312 208.576 110.433C207.411 113.555 205.09 118.936 216.791 120.289Z" fill="#15515D"/>
<path d="M281.179 107.519C281.153 105.083 284.161 103.379 285.032 103.989C284.264 102.932 280.777 102.101 279.354 103.592C277.751 105.272 276.531 106.964 278.452 110.124C279.771 112.296 284.784 111.189 286.237 110.598C284.879 109.905 281.206 110.03 281.179 107.519Z" fill="#15515D"/>
<path d="M286.236 110.598C292.002 104.047 290.159 101.51 288.069 100.044C286.277 98.7875 281.914 97.9856 278.822 99.325C280.768 98.0305 287.312 95.962 289.672 98.364C292.032 100.766 296.386 104.784 286.236 110.598Z" fill="#15515D"/>
<path d="M243.053 101.061C234.047 102.386 225.571 104.861 219.478 106.371L243.98 102.769L272.455 98.5825C268.394 98.565 252.059 99.7373 243.053 101.061Z" fill="#15515D"/>
<path d="M223.233 108.893C221.961 107.605 219.067 106.637 218.155 106.566L234.71 104.132C234.637 105.168 235.771 107.664 243.541 108.98C251.312 110.296 261.024 108.254 273.209 108.306L226.943 115.723C226.236 113.983 224.505 110.181 223.233 108.893Z" fill="#15515D"/>
<path d="M115.433 157.932L109.504 108.404C115.977 100.281 133.479 81.8917 152.409 78.1251C171.34 74.3585 180.032 77.342 183.005 79.1586C167.597 80.1946 162.088 87.684 158.02 93.2807C153.519 99.4743 156.156 109.74 157.363 111.816C143.589 113.842 123.769 127.204 118.082 157.543L115.433 157.932Z" fill="#124049"/>
<path d="M78.9995 135.016C68.9339 136.496 55.8516 138.624 51.3635 140.308C48.8031 141.299 47.6294 143.439 47.5242 146.404C47.419 149.37 49.7768 150.99 51.5427 150.731C58.7091 148.858 74.8961 144.839 82.3129 143.748C89.7297 142.658 101.797 141.293 107.654 141.252C108.155 141.588 119.471 142.238 117.811 137.3C115.253 129.686 115.194 131.519 110.301 131.643C100.19 131.9 89.0651 133.536 78.9995 135.016Z" fill="#15515D"/>
<path d="M90.9628 111.13L88.0439 91.2763L99.9637 89.5238C109.174 81.6136 118.059 65.3512 153.818 60.0938C182.955 55.8099 203.031 66.5852 211.878 73.07L225.122 71.1228L226.626 81.3505L228.041 90.9766L210.823 93.508C184.462 75.2568 172.453 76.4077 156.56 78.7443C143.67 80.6394 128.836 83.4351 109.505 108.404L90.9628 111.13Z" fill="#15515D"/>
<path d="M65.8785 142.554C55.433 144.09 60.3104 138.108 55.6457 139.806C47.3993 141.019 46.4294 144.32 46.2993 147.255C46.1691 150.19 48.6019 151.776 50.4344 151.507C57.8771 149.603 74.6866 145.511 82.3832 144.38C90.0799 143.248 102.6 141.812 108.672 141.73C109.188 142.059 119.937 142.553 119.405 138.937C118.618 133.585 112.87 137.468 108.147 138.162C97.7482 139.691 76.324 141.018 65.8785 142.554Z" fill="#154A56"/>
<path d="M48.3715 122.642L106.08 114.858C109.839 114.35 113.958 112.774 119.002 115.569C127.016 120.01 128.504 125.073 124.871 134.413C123.864 137.003 105.68 143.87 104.997 132.185L58.6449 139.051C61.9911 149.031 44.4259 148.946 40.87 147.585C37.8208 146.418 34.5263 140.464 33.9678 136.244C33.4892 132.627 36.4319 124.253 48.3715 122.642Z" fill="#206474"/>
<path d="M51.7646 139.019C50.7789 136.779 47.3196 136.394 46.7753 137.294C47.0399 136.026 49.8875 133.901 51.8076 134.71C53.9712 135.621 55.7898 136.693 55.341 140.337C55.0326 142.841 49.9851 143.788 48.4105 143.815C49.3668 142.65 52.7806 141.328 51.7646 139.019Z" fill="#15515D"/>
<path d="M48.4102 143.815C40.418 140.073 41.0528 137.03 42.3591 134.871C43.4791 133.02 47.1404 130.58 50.5256 130.597C48.2081 130.173 41.3603 130.838 40.1956 133.96C39.0309 137.081 36.7101 142.462 48.4102 143.815Z" fill="#15515D"/>
<path d="M112.801 131.046C112.775 128.609 115.782 126.905 116.653 127.516C115.886 126.458 112.399 125.627 110.976 127.118C109.373 128.798 108.153 130.491 110.073 133.651C111.393 135.822 116.406 134.715 117.859 134.124C116.5 133.431 112.828 133.557 112.801 131.046Z" fill="#15515D"/>
<path d="M117.857 134.124C123.622 127.573 121.78 125.035 119.69 123.57C117.897 122.313 113.535 121.511 110.443 122.851C112.389 121.556 118.933 119.488 121.292 121.89C123.652 124.292 128.007 128.31 117.857 134.124Z" fill="#15515D"/>
<path d="M74.6744 124.588C65.6683 125.912 57.1923 128.387 51.1001 129.898L75.6019 126.295L104.077 122.109C100.015 122.091 83.6805 123.264 74.6744 124.588Z" fill="#15515D"/>
<path d="M54.8534 132.419C53.5816 131.131 50.6881 130.164 49.7756 130.093L66.3309 127.659C66.2576 128.694 67.3914 131.191 75.162 132.507C82.9326 133.823 92.6449 131.78 104.83 131.833L58.5637 139.25C57.8568 137.51 56.1252 133.708 54.8534 132.419Z" fill="#15515D"/>
<path d="M39.653 84.2538L38.5916 77.0342L106.137 67.1034L107.199 74.323L39.653 84.2538Z" fill="#143A46"/>
<path d="M206.531 59.7191L205.47 52.4995L273.015 42.5688L274.077 49.7883L206.531 59.7191Z" fill="#143A46"/>
<path d="M39.2136 90.4648L35.6802 84.8379L111.172 73.7388L108.746 80.2419L39.2136 90.4648Z" fill="#15515D"/>
<path d="M206.091 65.9291L202.557 60.3022L278.05 49.2032L275.623 55.7063L206.091 65.9291Z" fill="#15515D"/>
<path d="M32.6323 77.9098L15.1877 55.8892L290.006 15.4847L278.313 41.7892L32.6323 77.9098Z" fill="#15515D"/>
<path d="M32.6323 77.9098L15.1877 55.8892L43.6629 51.7027C50.3153 54.0027 58.3324 64.0513 95.9824 62.4496C133.632 60.8479 239.197 42.6231 281.976 34.4897L278.975 41.6919L32.6323 77.9098Z" fill="#F0E3E3" fill-opacity="0.07"/>
<path d="M147.594 68.3841L141.984 53.2285L163.837 50.0156L162.825 66.1448L147.594 68.3841Z" fill="#154854"/>
<path d="M147.594 68.3844L141.984 53.2288L144.632 52.8394C144.898 54.6443 146.727 58.8008 151.919 60.9876C157.112 63.1744 161.441 62.8657 162.957 62.438L162.825 66.1451L147.594 68.3844Z" fill="#143B46"/>
<path d="M14.99 59.6061L3 46.6177L299.671 3.00032L292.585 18.7934L14.99 59.6061Z" fill="#154854"/>
<path d="M15.0909 59.5913L3 46.6177L33.4618 42.1391C40.1533 44.5973 40.7865 45.2294 78.5578 43.8066C116.329 42.3837 253.313 19.7424 296.186 11.503L292.513 18.804L15.0909 59.5913Z" fill="#226C7C"/>
</g>
<defs>
<filter id="filter0_f_395_654" x="0" y="0.000488281" width="328.506" height="456.185" filterUnits="userSpaceOnUse" color-interpolation-filters="sRGB">
<feFlood flood-opacity="0" result="BackgroundImageFix"/>
<feBlend mode="normal" in="SourceGraphic" in2="BackgroundImageFix" result="shape"/>
<feGaussianBlur stdDeviation="1.5" result="effect1_foregroundBlur_395_654"/>
</filter>
</defs>
</svg>
