<svg width="370" height="477" viewBox="0 0 370 477" fill="none" xmlns="http://www.w3.org/2000/svg">
<path d="M171.54 366.555L292.147 136.699C288.351 130.945 274.73 118.836 233.816 96.1732C185.101 69.189 173.517 63.0767 167.492 67.6508L10.1684 373.129C16.8216 381.683 38.7939 389.851 86.5816 383.388C134.369 376.925 165.629 372.105 171.54 366.555Z" fill="#004F53"/>
<path d="M157.124 358.702L264.72 148.812C265.44 147.407 267.452 144.356 270.11 131.235C272.476 119.558 261.446 134.012 256.261 144.127L152.986 345.587C151.69 348.116 152.985 345.587 148.233 354.859C146.073 359.074 156.373 363.697 157.124 358.702Z" fill="#026A70"/>
<path d="M157.124 358.702L264.72 148.812C265.44 147.407 267.452 144.356 270.11 131.235C272.476 119.558 261.446 134.012 256.261 144.127L152.986 345.587C151.69 348.116 152.985 345.587 148.233 354.859C146.073 359.074 156.373 363.697 157.124 358.702Z" fill="#DAD0C6"/>
<path d="M121.759 369.15L229.355 159.26C230.075 157.855 232.087 154.804 234.745 141.682C237.111 130.005 226.081 144.459 220.896 154.575L117.621 356.035C116.325 358.564 117.62 356.034 112.868 365.307C110.708 369.522 121.008 374.145 121.759 369.15Z" fill="#026A70"/>
<path d="M37.9044 369.264L145.5 159.375C146.22 157.97 148.232 154.919 150.89 141.797C153.256 130.12 142.226 144.574 137.041 154.689L33.7666 356.15C32.4702 358.678 33.7656 356.149 29.0132 365.422C26.8531 369.637 37.1536 374.26 37.9044 369.264Z" fill="#026A70"/>
<path d="M61.9254 370.387L169.521 160.497C170.241 159.092 172.253 156.041 174.911 142.92C177.277 131.243 166.247 145.697 161.062 155.812L57.7876 357.272C56.4912 359.801 57.7866 357.272 53.0342 366.544C50.8741 370.759 61.1746 375.383 61.9254 370.387Z" fill="#026A70"/>
<path d="M90.3119 369.193L197.908 159.303C198.628 157.898 200.64 154.847 203.298 141.725C205.664 130.048 194.634 144.502 189.449 154.617L86.174 356.078C84.8777 358.607 86.173 356.077 81.4207 365.35C79.2606 369.565 89.5611 374.188 90.3119 369.193Z" fill="#026A70"/>
<path d="M169.3 240.677C136.247 226.203 113.309 207.549 100.525 202.581L95.4608 212.46L220.116 281.508L228.556 265.043L237.84 246.933L209.105 220.447C203.845 229.512 186.451 248.187 169.3 240.677Z" fill="#DAD0C6" fill-opacity="0.61"/>
<path d="M169.3 240.677C136.247 226.203 113.309 207.549 100.525 202.581L95.4608 212.46L220.116 281.508L228.556 265.043L237.84 246.933L209.105 220.447C203.845 229.512 186.451 248.187 169.3 240.677Z" fill="#00393C"/>
<path d="M131.261 268.228C98.2084 253.754 90.5209 252.003 77.7368 247.036L72.6727 256.914L197.328 325.962L205.768 309.498L215.052 291.387L186.317 264.901C181.057 273.966 148.412 275.738 131.261 268.228Z" fill="#00393C"/>
<path d="M220.782 294.56C224.158 287.975 220.652 276.872 218.349 274.187L100.858 209.108C99.4251 208.314 95.107 210.995 86.9418 218.311C78.7766 225.626 76.5063 235.079 80.5234 238.009C85.921 234.657 99.7192 236.638 109.356 239.182C123.94 243.032 139.446 255.849 158.072 266.166C172.973 274.42 204.766 289.917 205.178 307.056C207.933 306.468 217.406 301.146 220.782 294.56Z" fill="#026A70"/>
<path d="M242.726 251.753C246.102 245.168 242.596 234.065 240.293 231.38L122.802 166.3C121.369 165.507 117.051 168.188 108.886 175.503C100.72 182.819 98.4501 192.272 102.467 195.201C107.865 191.849 121.663 193.831 131.3 196.375C145.884 200.225 161.389 213.042 180.016 223.359C194.917 231.613 226.71 247.11 227.122 264.249C229.877 263.661 239.35 258.339 242.726 251.753Z" fill="#026A70"/>
<path d="M198.839 337.369C202.215 330.783 198.708 319.681 196.405 316.996L78.9143 251.916C77.4815 251.122 73.1634 253.804 64.9982 261.119C56.833 268.434 54.5627 277.887 58.5798 280.817C63.9774 277.465 77.7756 279.446 87.4128 281.991C101.996 285.841 117.502 298.657 136.129 308.975C151.03 317.229 182.823 332.725 183.235 349.865C185.989 349.277 195.463 343.955 198.839 337.369Z" fill="#026A70"/>
<rect width="144.139" height="81.4065" transform="matrix(-0.874767 -0.484544 -0.456182 0.889886 285.102 154.734)" fill="#004F53"/>
<path d="M254.462 218.092L284.002 160.468L160.782 81.4434L145.59 111.079C176.045 125.835 217.405 146.832 231.478 158.855C245.551 170.878 241.181 197.347 232.97 206.188L254.462 218.092Z" fill="#00393C"/>
<path d="M200.344 179.658C222.123 191.722 250.211 207.985 258.834 216.284C263.722 221.106 264.173 228.12 261.268 236.658C258.363 245.195 251.173 247.977 247.352 245.861C232.716 234.936 199.433 210.863 183.386 201.974C167.338 193.085 140.793 179.79 127.25 175.107C125.732 175.676 98.7901 168.712 107.883 155.924C121.903 136.209 120.095 141.481 131.313 145.649C154.494 154.261 178.565 167.595 200.344 179.658Z" fill="#026A70"/>
<path d="M223.095 207.508C244.874 219.571 240.439 198.795 249.062 207.094C266.256 216.618 264.837 226.825 261.933 235.362C259.028 243.9 250.511 249.725 246.69 247.609C232.054 236.683 198.592 212.961 182.544 204.072C166.497 195.183 139.77 181.788 126.227 177.105C124.709 177.673 101.726 167.936 106.86 157.922C114.456 143.104 123.132 158.479 132.979 163.933C154.661 175.944 201.316 195.444 223.095 207.508Z" fill="#015358"/>
<path d="M237.482 107.217C259.261 119.28 287.349 135.543 295.972 143.843C300.86 148.664 301.311 155.679 298.406 164.216C295.501 172.754 288.311 175.536 284.49 173.42C269.855 162.494 236.571 138.421 220.524 129.532C204.476 120.643 177.931 107.349 164.388 102.666C162.871 103.234 135.928 96.2701 145.022 83.4827C159.042 63.7675 157.233 69.0397 168.452 73.2077C191.632 81.8197 215.703 95.1532 237.482 107.217Z" fill="#026A70"/>
<path d="M259.911 138.94C282.512 151.458 277.549 130.603 286.567 139.08C304.409 148.963 303.154 159.132 300.34 167.601C297.525 176.07 290.197 178.697 286.232 176.5C270.989 165.271 236.339 140.507 219.686 131.282C203.032 122.058 175.514 108.208 161.515 103.24C159.968 103.775 134.509 96.8101 139.582 86.9124C147.09 72.2678 156.301 87.8161 166.52 93.4766C189.021 105.94 237.311 126.421 259.911 138.94Z" fill="#015358"/>
<path d="M321.67 95.8066L196.065 28.6389C187.884 24.264 180.001 16.5582 165.334 20.5968C142.026 27.0143 133.199 40.2899 131.709 69.7499C131.296 77.9206 166.189 111.67 180.179 78.8858L280.415 134.585C262.056 160.433 302.894 173.879 312.588 172.769C320.901 171.818 334.865 157.409 340.642 145.812C345.593 135.872 347.658 109.703 321.67 95.8066Z" fill="#006368"/>
<path d="M296.409 139.856C301.074 134.237 309.507 135.837 309.815 138.826C310.548 135.004 306.197 126.728 300.884 127.537C294.898 128.449 289.541 130.088 286.713 140.827C284.77 148.206 295.473 154.84 299.098 156.143C298.116 152.076 291.6 145.648 296.409 139.856Z" fill="#00393C"/>
<path d="M299.095 156.144C321.609 151.703 323.368 142.53 322.63 135.357C321.997 129.206 316.094 119.396 308.223 116.807C314.05 117.404 329.229 124.637 328.616 134.445C328.004 144.252 327.673 161.404 299.095 156.144Z" fill="#00393C"/>
<path d="M163.286 69.5562C165.933 62.6307 160.767 55.4273 158.098 56.4894C161.002 54.0728 169.973 54.4206 171.69 59.7806C173.625 65.82 174.659 71.5966 166.848 79.1093C161.48 84.272 151.027 77.2097 148.285 74.3917C152.171 73.4757 160.558 76.6949 163.286 69.5562Z" fill="#00393C"/>
<path d="M148.283 74.3926C141.864 51.2228 148.833 45.4226 155.238 42.8733C160.73 40.6875 171.702 41.801 177.452 48.0293C174.313 42.8223 161.328 31.8245 153.304 36.834C145.279 41.8435 130.911 49.9076 148.283 74.3926Z" fill="#00393C"/>
<path d="M258.586 80.8567C278.072 91.6504 295.107 105.314 307.635 114.367L254.621 85.0023L193.01 50.8752C202.451 53.9907 239.1 70.063 258.586 80.8567Z" fill="#00393C" fill-opacity="0.658824"/>
<path d="M296.252 118.63C300.57 115.948 308.31 115.444 310.502 115.953L274.682 96.1118C273.753 99.1204 268.471 105.355 249.048 103.052C229.624 100.749 209.263 87.3564 180.94 78.0099L280.393 135.212C283.88 130.802 291.934 121.311 296.252 118.63Z" fill="#015358"/>
<path d="M152.66 314.68C168.22 325.293 180.277 340.264 182.83 345.847C179.564 354.521 173.899 365.856 166.915 369.564C159.931 373.271 127.472 378.478 112.769 378.883C115.446 364.046 116.384 330.333 98.7213 314.175C81.0588 298.017 58.7378 295.157 49.7851 295.747L59.3758 279.553C84.4819 273.162 137.1 304.068 152.66 314.68Z" fill="#00393C"/>
<path d="M135.639 131.136L166.345 137.574M166.345 137.574L180.559 131.823M166.345 137.574L179.369 162.977" stroke="#00393C" stroke-width="3"/>
</svg>
