<svg width="196" height="62" viewBox="0 0 196 62" fill="none" xmlns="http://www.w3.org/2000/svg">
<g filter="url(#filter0_f_0_1)">
<path d="M4.00033 31.9272C4.00033 32.8485 11.9338 28.5363 15.9006 26.265C15.8046 23.8338 15.6702 18.8945 15.9006 18.5874C16.1885 18.2035 8.12703 10.334 6.01569 11.6776C3.90436 13.0212 6.3036 19.2592 6.97539 21.6585C3.90436 23.8658 4.00033 30.7756 4.00033 31.9272Z" fill="#00657D"/>
<path d="M16.2841 26.1685C17.2054 25.4008 21.2425 25.5607 23.2899 25.8806H24.2496C24.1856 23.3534 22.4454 18.395 15.9962 18.7789C7.93475 19.2587 15.1325 27.1282 16.2841 26.1685Z" fill="#00657D"/>
<path d="M57.7543 35.9304C57.6364 35.3915 58.4912 33.1012 58.9334 32.0234C62.3722 32.2929 69.3474 32.0249 68.8758 32.8872C68.2863 33.965 61.4388 41.8583 60.1124 42.5319C58.786 43.2055 57.9017 36.6041 57.7543 35.9304Z" fill="#00657D"/>
<path d="M41.0997 11.688C40.6686 13.1934 42.8601 15.1765 44.6923 15.9002C47.7101 15.9002 53.6594 15.2923 53.3146 12.8606C52.8834 9.82088 48.8065 3.63989 48.9675 4.01646C49.5783 5.44486 43.6864 5.89816 43.6864 8.7931C43.6864 10.4044 41.6386 9.80632 41.0997 11.688Z" fill="#00657D"/>
<path d="M16.6684 18.8754C28.1848 20.123 23.0984 18.8754 40.085 16.0923C62.0069 7.27829 83.4007 14.3934 92.0046 19.5472C92.0076 19.5489 92.0106 19.5509 92.0138 19.5531C92.1959 19.6773 93.0603 20.5753 93.0603 21.1787C93.0603 21.9464 90.3637 22.2004 89.1255 24.0577C88.9336 24.3457 88.3578 25.2094 88.8376 25.3054C90.5971 24.5376 93.7566 22.8041 94.02 23.7698C94.3079 24.8255 86.2784 29.0162 82.3117 30.5837C80.0724 31.1595 72.6379 33.1749 55.8241 34.7104C41.3326 34.7104 33.687 29.9439 25.1137 26.361C21.051 24.6655 13.6742 20.7948 16.6684 18.8754Z" fill="#00657D"/>
<path d="M7.32792 14.0602C6.98929 14.408 8.0925 14.7867 10.007 16.0598C10.8639 16.6296 11.3569 16.1806 10.5423 15.5518C9.15004 14.4772 7.64899 13.7303 7.32792 14.0602Z" fill="#00657D"/>
<path d="M46.2875 7.91758C45.9489 8.26545 47.0521 8.64407 48.9666 9.91726C49.8234 10.4871 50.3165 10.038 49.5019 9.40926C48.1096 8.33458 46.6086 7.58775 46.2875 7.91758Z" fill="#00657D"/>
<path d="M45.7474 10.1422C45.5375 10.3622 46.0941 10.4977 47.1126 11.0171C48.0311 11.4856 48.4003 11.1274 47.496 10.6321C46.6687 10.179 45.9345 9.94617 45.7474 10.1422Z" fill="#00657D"/>
<path d="M44.9025 11.718C44.824 11.8981 45.4348 12.309 46.5297 12.8842C47.1822 13.227 47.5989 12.8112 47.0035 12.3767C46.1703 11.7684 45.0666 11.3412 44.9025 11.718Z" fill="#00657D"/>
<path d="M6.97715 27.509C7.12875 27.9702 7.97505 27.1676 9.98986 26.0599C10.8916 25.5642 10.7218 24.9193 9.78737 25.3502C8.19027 26.0869 6.83341 27.0717 6.97715 27.509Z" fill="#00657D"/>
<path d="M7.63293 16.4762C7.69053 16.4155 7.75538 16.3751 7.82641 16.3526C8.7216 16.0698 6.98662 17.1571 7.63293 16.4762Z" fill="#00657D"/>
<path d="M7.426 24.515C7.38538 24.4201 7.37333 24.328 7.3863 24.2387C7.54215 23.1658 7.85263 25.5117 7.426 24.515Z" fill="#00657D"/>
<path d="M62.8723 35.374C63.0125 35.0785 62.8876 34.895 62.3396 34.9026C61.6482 34.9121 62.576 35.9987 62.8723 35.374Z" fill="#00657D"/>
<path d="M65.2287 34.9249C65.2287 35.2201 65.0296 35.6294 64.6972 36.1058C64.0251 37.0695 63.2168 36.329 64.0432 35.4939C64.7523 34.7774 65.2287 34.4681 65.2287 34.9249Z" fill="#00657D"/>
<ellipse cx="85.9583" cy="21.5627" rx="1.91939" ry="1.82342" fill="#00657D"/>
<circle cx="85.9581" cy="21.4664" r="0.575818" fill="#00657D"/>
<path d="M85.9606 27.4401C84.5425 27.6156 86.1506 24.9209 86.9867 24.8725C88.6676 24.7752 85.7667 26.3604 85.9606 27.4401Z" fill="#00657D"/>
<path d="M80.3465 28.514C80.3873 28.5594 80.4199 28.596 80.3566 28.539C78.0476 26.4614 75.0778 22.5887 79.1446 21.2744C76.6745 22.871 79.8681 27.7483 80.3103 28.4551C80.3259 28.48 80.3381 28.4998 80.3465 28.514Z" fill="#00657D"/>
<path d="M73.5787 24.4415C72.8286 26.3609 73.5898 28.2803 74.0586 28.7601C74.1211 28.4722 73.8765 25.5595 74.4424 24.6335C75.4981 22.906 76.3768 20.7925 76.6497 20.3148C77.0336 19.643 77.0292 18.9712 76.8417 17.7236C76.6811 19.9309 74.5163 22.0423 73.5787 24.4415Z" fill="#00657D"/>
</g>
<g filter="url(#filter1_f_0_1)">
<path d="M101.972 46.4897C101.972 47.411 109.905 43.0988 113.872 40.8275C113.776 38.3963 113.641 33.457 113.872 33.1499C114.16 32.766 106.098 24.8965 103.987 26.2401C101.876 27.5837 104.275 33.8217 104.947 36.221C101.876 38.4283 101.972 45.3381 101.972 46.4897Z" fill="#00657D"/>
<path d="M114.255 40.731C115.176 39.9633 119.214 40.1232 121.261 40.4431H122.221C122.157 37.9159 120.416 32.9575 113.967 33.3414C105.906 33.8212 113.104 41.6907 114.255 40.731Z" fill="#00657D"/>
<path d="M155.726 50.4929C155.608 49.954 156.462 47.6637 156.905 46.5859C160.343 46.8554 167.319 46.5874 166.847 47.4497C166.257 48.5275 159.41 56.4208 158.084 57.0944C156.757 57.768 155.873 51.1666 155.726 50.4929Z" fill="#00657D"/>
<path d="M139.071 26.2505C138.64 27.7559 140.831 29.739 142.664 30.4627C145.681 30.4627 151.631 29.8548 151.286 27.4231C150.855 24.3834 146.778 18.2024 146.939 18.579C147.55 20.0074 141.658 20.4607 141.658 23.3556C141.658 24.9669 139.61 24.3688 139.071 26.2505Z" fill="#00657D"/>
<path d="M114.64 33.4379C126.156 34.6855 121.07 33.4379 138.056 30.6548C159.978 21.8408 181.372 28.9559 189.976 34.1097C189.979 34.1114 189.982 34.1134 189.985 34.1156C190.167 34.2398 191.032 35.1378 191.032 35.7412C191.032 36.5089 188.335 36.7629 187.097 38.6202C186.905 38.9082 186.329 39.7719 186.809 39.8679C188.568 39.1001 191.728 37.3666 191.991 38.3323C192.279 39.388 184.25 43.5787 180.283 45.1462C178.044 45.722 170.609 47.7374 153.795 49.2729C139.304 49.2729 131.658 44.5064 123.085 40.9235C119.022 39.228 111.645 35.3573 114.64 33.4379Z" fill="#00657D"/>
<path d="M105.299 28.6227C104.96 28.9705 106.064 29.3492 107.978 30.6223C108.835 31.1921 109.328 30.7431 108.514 30.1143C107.121 29.0397 105.62 28.2928 105.299 28.6227Z" fill="#00657D"/>
<path d="M144.259 22.4801C143.92 22.828 145.023 23.2066 146.938 24.4798C147.795 25.0496 148.288 24.6005 147.473 23.9718C146.081 22.8971 144.58 22.1502 144.259 22.4801Z" fill="#00657D"/>
<path d="M143.719 24.7047C143.509 24.9247 144.065 25.0602 145.084 25.5796C146.002 26.0481 146.372 25.6899 145.467 25.1946C144.64 24.7415 143.906 24.5087 143.719 24.7047Z" fill="#00657D"/>
<path d="M142.874 26.2805C142.795 26.4606 143.406 26.8715 144.501 27.4467C145.153 27.7895 145.57 27.3737 144.975 26.9392C144.141 26.3309 143.038 25.9037 142.874 26.2805Z" fill="#00657D"/>
<path d="M104.948 42.0725C105.1 42.5337 105.946 41.731 107.961 40.6234C108.863 40.1277 108.693 39.4827 107.759 39.9137C106.161 40.6504 104.805 41.6352 104.948 42.0725Z" fill="#00657D"/>
<path d="M105.604 31.0387C105.662 30.978 105.727 30.9376 105.798 30.9151C106.693 30.6323 104.958 31.7196 105.604 31.0387Z" fill="#00657D"/>
<path d="M105.397 39.0775C105.356 38.9826 105.344 38.8905 105.357 38.8012C105.513 37.7283 105.824 40.0742 105.397 39.0775Z" fill="#00657D"/>
<path d="M160.844 49.9365C160.984 49.641 160.859 49.4575 160.311 49.4651C159.619 49.4746 160.547 50.5612 160.844 49.9365Z" fill="#00657D"/>
<path d="M163.2 49.4874C163.2 49.7826 163.001 50.1919 162.668 50.6683C161.996 51.632 161.188 50.8915 162.014 50.0564C162.723 49.3399 163.2 49.0306 163.2 49.4874Z" fill="#00657D"/>
<ellipse cx="183.93" cy="36.1252" rx="1.91939" ry="1.82342" fill="#00657D"/>
<circle cx="183.929" cy="36.0289" r="0.575818" fill="#00657D"/>
<path d="M183.932 42.0026C182.514 42.1781 184.122 39.4834 184.958 39.435C186.639 39.3377 183.738 40.9229 183.932 42.0026Z" fill="#00657D"/>
<path d="M178.318 43.0765C178.358 43.1219 178.391 43.1585 178.328 43.1015C176.019 41.0239 173.049 37.1512 177.116 35.8369C174.646 37.4335 177.839 42.3108 178.281 43.0176C178.297 43.0425 178.309 43.0623 178.318 43.0765Z" fill="#00657D"/>
<path d="M171.55 39.004C170.8 40.9234 171.561 42.8428 172.03 43.3226C172.092 43.0347 171.848 40.122 172.414 39.196C173.469 37.4685 174.348 35.355 174.621 34.8773C175.005 34.2055 175 33.5337 174.813 32.2861C174.652 34.4934 172.488 36.6048 171.55 39.004Z" fill="#00657D"/>
</g>
<defs>
<filter id="filter0_f_0_1" x="0" y="0" width="98.0276" height="46.5801" filterUnits="userSpaceOnUse" color-interpolation-filters="sRGB">
<feFlood flood-opacity="0" result="BackgroundImageFix"/>
<feBlend mode="normal" in="SourceGraphic" in2="BackgroundImageFix" result="shape"/>
<feGaussianBlur stdDeviation="2" result="effect1_foregroundBlur_0_1"/>
</filter>
<filter id="filter1_f_0_1" x="97.9712" y="14.5625" width="98.0277" height="46.5801" filterUnits="userSpaceOnUse" color-interpolation-filters="sRGB">
<feFlood flood-opacity="0" result="BackgroundImageFix"/>
<feBlend mode="normal" in="SourceGraphic" in2="BackgroundImageFix" result="shape"/>
<feGaussianBlur stdDeviation="2" result="effect1_foregroundBlur_0_1"/>
</filter>
</defs>
</svg>
