<svg width="142" height="64" viewBox="0 0 142 64" fill="none" xmlns="http://www.w3.org/2000/svg">
<g filter="url(#filter0_f_479_253)">
<path d="M2.00051 44.7779C2.00051 46.1891 14.1526 39.5838 20.2287 36.1048C20.0817 32.3808 19.8759 24.8151 20.2287 24.3447C20.6697 23.7567 8.32157 11.7025 5.08754 13.7606C1.8535 15.8186 5.52854 25.3737 6.55756 29.0487C1.85351 32.4298 2.00051 43.0139 2.00051 44.7779Z" fill="#5599A9"/>
<path d="M20.8159 35.9559C22.2272 34.7799 28.411 35.0249 31.5471 35.5149H33.0171C32.9191 31.6438 30.2534 24.0487 20.3749 24.6368C8.02681 25.3718 19.0519 37.4259 20.8159 35.9559Z" fill="#5599A9"/>
<path d="M84.338 50.9084C84.1574 50.0829 85.4667 46.5747 86.144 44.9238C91.4114 45.3366 102.096 44.9261 101.373 46.2468C100.47 47.8978 89.9817 59.9884 87.9499 61.0202C85.9182 62.052 84.5637 51.9402 84.338 50.9084Z" fill="#5599A9"/>
<path d="M58.828 13.7761C58.1677 16.082 61.5245 19.1196 64.331 20.2282C68.9535 20.2282 78.0664 19.297 77.5381 15.5722C76.8777 10.9161 70.6329 1.4484 70.8795 2.02521C71.815 4.21316 62.7902 4.9075 62.7902 9.34183C62.7902 11.8099 59.6535 10.8938 58.828 13.7761Z" fill="#5599A9"/>
<path d="M21.4041 24.7853C39.0443 26.6963 31.2532 24.7853 57.2725 20.5222C90.8513 7.02144 123.621 17.92 136.8 25.8143C136.805 25.817 136.81 25.82 136.814 25.8234C137.093 26.0137 138.417 27.3891 138.417 28.3133C138.417 29.4893 134.287 29.8784 132.39 32.7234C132.096 33.1644 131.214 34.4874 131.949 34.6344C134.644 33.4584 139.484 30.8031 139.887 32.2824C140.328 33.8994 128.029 40.3184 121.953 42.7195C118.523 43.6015 107.135 46.6885 81.3807 49.0405C59.1835 49.0405 47.4724 41.7395 34.3402 36.2514C28.1172 33.6544 16.8176 27.7253 21.4041 24.7853Z" fill="#5599A9"/>
<path d="M7.09788 17.4087C6.48775 18.0354 8.93337 18.7274 12.8629 21.6379C13.6898 22.2504 14.3121 21.719 13.5656 21.0107C11.1579 18.7261 7.71319 16.7765 7.09788 17.4087Z" fill="#5599A9"/>
<path d="M66.7744 8.00045C66.1643 8.62723 68.6099 9.31918 72.5394 12.2297C73.3663 12.8422 73.9886 12.3108 73.2421 11.6025C70.8344 9.31786 67.3897 7.36834 66.7744 8.00045Z" fill="#5599A9"/>
<path d="M65.9467 11.4089C65.5182 11.8579 67.1748 12.0772 69.8124 13.7646C70.6809 14.3203 71.1752 13.8774 70.3471 13.2631C68.5302 11.9152 66.3612 10.9744 65.9467 11.4089Z" fill="#5599A9"/>
<path d="M64.6531 13.8217C64.516 14.1364 65.7532 14.9115 67.8983 15.9954C68.5562 16.3279 69.0603 15.8753 68.5244 15.3691C67.2684 14.1826 64.951 13.138 64.6531 13.8217Z" fill="#5599A9"/>
<path d="M6.56008 38.0115C6.83322 38.8424 8.57868 36.9949 12.9776 34.8591C13.9033 34.4097 13.7203 33.6121 12.747 33.9459C9.60725 35.0225 6.28461 37.1734 6.56008 38.0115Z" fill="#5599A9"/>
<path d="M7.56442 21.11C7.41368 21.2688 7.82196 21.7447 8.50584 22.3529C9.34536 23.0997 10.2257 22.151 9.33516 21.466C8.61637 20.9131 7.97189 20.6807 7.56442 21.11Z" fill="#5599A9"/>
<path d="M7.24814 33.4245C7.3739 33.7183 8.45827 33.3448 9.83725 32.7069C10.8565 32.2354 10.3793 30.9988 9.32999 31.3991C7.90728 31.9418 6.90252 32.6171 7.24814 33.4245Z" fill="#5599A9"/>
<path d="M92.1779 50.0574C92.3927 49.6048 92.2013 49.3237 91.362 49.3353C90.3029 49.3499 91.724 51.0144 92.1779 50.0574Z" fill="#5599A9"/>
<path d="M95.787 49.3702C95.787 50.4016 94.2008 52.3407 92.225 54.3398C91.3991 55.1754 90.4559 54.2959 91.2016 53.388C93.623 50.44 95.787 48.1655 95.787 49.3702Z" fill="#5599A9"/>
<mask id="path-15-inside-1_479_253" fill="white">
<ellipse cx="127.541" cy="28.9014" rx="2.94003" ry="2.79303"/>
</mask>
<ellipse cx="127.541" cy="28.9014" rx="2.94003" ry="2.79303" fill="#5599A9"/>
<path d="M126.481 28.9014C126.481 28.044 127.151 27.6945 127.541 27.6945V35.6945C131.178 35.6945 134.481 32.844 134.481 28.9014H126.481ZM127.541 27.6945C127.93 27.6945 128.601 28.044 128.601 28.9014H120.601C120.601 32.844 123.904 35.6945 127.541 35.6945V27.6945ZM128.601 28.9014C128.601 29.7589 127.93 30.1084 127.541 30.1084V22.1084C123.904 22.1084 120.601 24.9589 120.601 28.9014H128.601ZM127.541 30.1084C127.151 30.1084 126.481 29.7589 126.481 28.9014H134.481C134.481 24.9589 131.178 22.1084 127.541 22.1084V30.1084Z" fill="#00657D" mask="url(#path-15-inside-1_479_253)"/>
<circle cx="127.54" cy="28.7551" r="0.882009" fill="#5599A9"/>
<path d="M127.543 37.9045C125.371 38.1733 127.834 34.0457 129.115 33.9715C131.69 33.8225 127.246 36.2507 127.543 37.9045Z" fill="#5599A9"/>
<path d="M118.943 39.5492C119.006 39.6187 119.055 39.6747 118.958 39.5875C115.422 36.4052 110.873 30.4732 117.102 28.46C113.319 30.9055 118.21 38.3763 118.888 39.4589C118.912 39.4972 118.93 39.5274 118.943 39.5492Z" fill="#5599A9"/>
<path d="M108.576 33.3126C107.427 36.2526 108.593 39.1926 109.311 39.9276C109.407 39.4866 109.032 35.025 109.899 33.6066C111.516 30.9605 112.862 27.7232 113.28 26.9915C113.868 25.9625 113.862 24.9335 113.574 23.0225C113.328 26.4035 110.012 29.6375 108.576 33.3126Z" fill="#5599A9"/>
</g>
<defs>
<filter id="filter0_f_479_253" x="0" y="0" width="141.899" height="63.0938" filterUnits="userSpaceOnUse" color-interpolation-filters="sRGB">
<feFlood flood-opacity="0" result="BackgroundImageFix"/>
<feBlend mode="normal" in="SourceGraphic" in2="BackgroundImageFix" result="shape"/>
<feGaussianBlur stdDeviation="1" result="effect1_foregroundBlur_479_253"/>
</filter>
</defs>
</svg>
