<svg width="144" height="64" viewBox="0 0 144 64" fill="none" xmlns="http://www.w3.org/2000/svg">
<g filter="url(#filter0_f_927_645)">
<path d="M2.58584 44.7789C2.58584 46.1901 14.7988 39.5848 20.9052 36.1058C20.7575 32.3817 20.5507 24.8161 20.9052 24.3457C21.3484 23.7576 8.93852 11.7035 5.68831 13.7615C2.4381 15.8196 6.13152 25.3747 7.16569 29.0497C2.4381 32.4307 2.58584 43.0148 2.58584 44.7789Z" fill="#296674"/>
<path d="M21.4954 35.9569C22.9136 34.7808 29.1284 35.0258 32.2802 35.5158H33.7575C33.659 31.6448 30.9801 24.0497 21.0521 24.6377C8.64224 25.3727 19.7225 37.4269 21.4954 35.9569Z" fill="#296674"/>
<path d="M85.3351 50.9084C85.1536 50.0829 86.4695 46.5747 87.1501 44.9238C92.4439 45.3366 103.182 44.9261 102.456 46.2468C101.548 47.8978 91.0071 59.9884 88.9652 61.0202C86.9233 62.052 85.562 51.9402 85.3351 50.9084Z" fill="#296674"/>
<path d="M59.6976 13.7761C59.0339 16.082 62.4075 19.1196 65.2281 20.2282C69.8737 20.2282 79.0322 19.297 78.5013 15.5722C77.8376 10.9161 71.5615 1.4484 71.8094 2.02521C72.7496 4.21316 63.6796 4.9075 63.6796 9.34183C63.6796 11.8099 60.5272 10.8938 59.6976 13.7761Z" fill="#296674"/>
<path d="M22.0864 24.7863C39.8149 26.6973 31.9848 24.7863 58.1343 20.5232C91.8811 7.02242 124.815 17.9209 138.06 25.8153C138.065 25.818 138.069 25.821 138.074 25.8244C138.354 26.0146 139.685 27.3901 139.685 28.3143C139.685 29.4903 135.534 29.8794 133.628 32.7243C133.332 33.1653 132.446 34.4884 133.185 34.6354C135.893 33.4593 140.757 30.804 141.162 32.2833C141.606 33.9004 129.245 40.3194 123.139 42.7204C119.691 43.6025 108.247 46.6895 82.3631 49.0415C60.0548 49.0415 48.2851 41.7404 35.0873 36.2524C28.8331 33.6553 17.477 27.7263 22.0864 24.7863Z" fill="#296674"/>
<path d="M7.70869 17.4077C7.09472 18.0353 9.55976 18.7282 13.518 21.6483C14.3456 22.2589 14.9665 21.7263 14.2193 21.0196C11.799 18.7307 8.32797 16.7747 7.70869 17.4077Z" fill="#296674"/>
<path d="M67.684 7.99948C67.0701 8.62707 69.5351 9.32 73.4933 12.2401C74.321 12.8507 74.9419 12.3181 74.1946 11.6114C71.7743 9.3225 68.3033 7.36646 67.684 7.99948Z" fill="#296674"/>
<path d="M66.8519 11.4079C66.4204 11.8579 68.0933 12.0771 70.7539 13.7744C71.6227 14.3287 72.1159 13.8848 71.2875 13.2718C69.4588 11.9187 67.2695 10.9724 66.8519 11.4079Z" fill="#296674"/>
<path d="M65.5519 13.8227C65.414 14.1378 66.6609 14.9146 68.8221 16.0009C69.48 16.3315 69.9828 15.8789 69.4469 15.3741C68.1855 14.1859 65.8516 13.1382 65.5519 13.8227Z" fill="#296674"/>
<path d="M7.16825 38.0105C7.44284 38.8417 9.19797 36.9929 13.6218 34.8563C14.5504 34.4077 14.3688 33.61 13.3926 33.9427C10.2353 35.0186 6.89122 37.1719 7.16825 38.0105Z" fill="#296674"/>
<path d="M8.17762 21.1109C8.02523 21.2707 8.44131 21.7513 9.13596 22.3647C9.97819 23.1085 10.8566 22.1578 9.96552 21.4734C9.23979 20.9159 8.58869 20.68 8.17762 21.1109Z" fill="#296674"/>
<path d="M7.85976 33.4245C7.9865 33.7192 9.08204 33.3427 10.4735 32.7016C11.4953 32.2307 11.0209 30.995 9.96851 31.3929C8.52996 31.9367 7.51108 32.614 7.85976 33.4245Z" fill="#296674"/>
<path d="M93.2118 50.0639C93.4317 49.6081 93.2413 49.3247 92.3943 49.3363C91.3328 49.3509 92.7504 51.02 93.2118 50.0639Z" fill="#296674"/>
<path d="M96.8415 49.3702C96.8415 50.4045 95.2385 52.3515 93.2451 54.3565C92.4167 55.1897 91.4747 54.3072 92.2225 53.401C94.6603 50.4467 96.8415 48.1637 96.8415 49.3702Z" fill="#296674"/>
<mask id="path-15-inside-1_927_645" fill="white">
<ellipse cx="128.754" cy="28.9024" rx="2.95474" ry="2.79303"/>
</mask>
<ellipse cx="128.754" cy="28.9024" rx="2.95474" ry="2.79303" fill="#296674"/>
<path d="M127.709 28.9024C127.709 28.0267 128.392 27.6954 128.754 27.6954V35.6954C132.38 35.6954 135.709 32.8632 135.709 28.9024H127.709ZM128.754 27.6954C129.116 27.6954 129.799 28.0267 129.799 28.9024H121.799C121.799 32.8632 125.128 35.6954 128.754 35.6954V27.6954ZM129.799 28.9024C129.799 29.7781 129.116 30.1094 128.754 30.1094V22.1094C125.128 22.1094 121.799 24.9416 121.799 28.9024H129.799ZM128.754 30.1094C128.392 30.1094 127.709 29.7781 127.709 28.9024H135.709C135.709 24.9416 132.38 22.1094 128.754 22.1094V30.1094Z" fill="#00657D" mask="url(#path-15-inside-1_927_645)"/>
<ellipse cx="128.753" cy="28.7551" rx="0.886422" ry="0.882009" fill="#296674"/>
<path d="M128.757 37.9045C126.574 38.1733 129.049 34.0457 130.336 33.9715C132.924 33.8225 128.458 36.2507 128.757 37.9045Z" fill="#296674"/>
<path d="M120.113 39.5483C120.176 39.6177 120.226 39.6738 120.129 39.5865C116.575 36.4042 112.003 30.4722 118.263 28.459C114.461 30.9045 119.377 38.3753 120.058 39.4579C120.082 39.4962 120.101 39.5265 120.113 39.5483Z" fill="#296674"/>
<path d="M109.695 33.3116C108.54 36.2516 109.712 39.1917 110.434 39.9267C110.53 39.4857 110.153 35.0241 111.025 33.6056C112.65 30.9596 114.002 27.7222 114.423 26.9905C115.013 25.9615 115.007 24.9325 114.718 23.0215C114.471 26.4025 111.138 29.6366 109.695 33.3116Z" fill="#296674"/>
</g>
<defs>
<filter id="filter0_f_927_645" x="0.585327" y="0" width="142.589" height="63.0938" filterUnits="userSpaceOnUse" color-interpolation-filters="sRGB">
<feFlood flood-opacity="0" result="BackgroundImageFix"/>
<feBlend mode="normal" in="SourceGraphic" in2="BackgroundImageFix" result="shape"/>
<feGaussianBlur stdDeviation="1" result="effect1_foregroundBlur_927_645"/>
</filter>
</defs>
</svg>
