<svg width="137" height="64" viewBox="0 0 137 64" fill="none" xmlns="http://www.w3.org/2000/svg">
<g filter="url(#filter0_f_479_519)">
<path d="M132.804 43.9558C132.804 45.2739 121.454 39.1043 115.778 35.8547C115.916 32.3763 116.108 25.3096 115.778 24.8703C115.366 24.321 126.9 13.062 129.921 14.9842C132.942 16.9065 129.509 25.8314 128.548 29.2641C132.942 32.4221 132.804 42.3081 132.804 43.9558Z" fill="#1A5A69"/>
<path d="M115.23 35.7179C113.912 34.6195 108.136 34.8483 105.207 35.306H103.834C103.925 31.6903 106.415 24.5961 115.642 25.1454C127.176 25.8319 116.878 37.091 115.23 35.7179Z" fill="#1A5A69"/>
<path d="M55.8976 49.6826C56.0663 48.9116 54.8434 45.6348 54.2108 44.0928C49.2907 44.4783 39.3112 44.0949 39.986 45.3285C40.8294 46.8705 50.6262 58.1637 52.5239 59.1275C54.4216 60.0913 55.6868 50.6464 55.8976 49.6826Z" fill="#1A5A69"/>
<path d="M79.7247 14.9994C80.3415 17.1532 77.2062 19.9905 74.5848 21.0259C70.2671 21.0259 61.7553 20.1561 62.2487 16.677C62.8655 12.3281 68.6985 3.48478 68.4681 4.02354C67.5943 6.06719 76.0239 6.71574 76.0239 10.8576C76.0239 13.1629 78.9537 12.3072 79.7247 14.9994Z" fill="#1A5A69"/>
<path d="M114.679 25.2831C98.2026 27.068 105.48 25.2831 81.1766 21.3012C49.8125 8.69087 19.2039 18.8706 6.89413 26.2442C6.88989 26.2467 6.88553 26.2496 6.88104 26.2527C6.62043 26.4304 5.38377 27.7152 5.38377 28.5784C5.38377 29.6769 9.24178 30.0403 11.0133 32.6976C11.2879 33.1095 12.1118 34.3453 11.4252 34.4826C8.90795 33.3841 4.38754 30.9039 4.0107 32.2857C3.59879 33.796 15.0867 39.7917 20.762 42.0344C23.9658 42.8582 34.6025 45.7416 58.6585 47.9385C79.3916 47.9385 90.3303 41.119 102.596 35.9929C108.409 33.5672 118.963 28.0292 114.679 25.2831Z" fill="#1A5A69"/>
<path d="M128.043 18.3929C128.603 18.9674 126.413 19.6005 122.863 22.1927C122.032 22.7995 121.429 22.2824 122.186 21.5856C124.423 19.527 127.484 17.8184 128.043 18.3929Z" fill="#1A5A69"/>
<path d="M72.3024 9.60578C72.8616 10.1803 70.6725 10.8134 67.1223 13.4056C66.2912 14.0124 65.688 13.4953 66.4451 12.7985C68.6817 10.7399 71.7432 9.03128 72.3024 9.60578Z" fill="#1A5A69"/>
<path d="M73.0763 12.7866C73.4648 13.1937 72.0181 13.3986 69.6796 14.852C68.8038 15.3963 68.332 14.9679 69.1714 14.3691C70.8228 13.1912 72.7046 12.397 73.0763 12.7866Z" fill="#1A5A69"/>
<path d="M74.2849 15.0427C74.411 15.3321 73.2932 16.0382 71.3471 17.0259C70.6898 17.3595 70.2 16.9122 70.7459 16.4169C71.9343 15.3386 74.0127 14.4178 74.2849 15.0427Z" fill="#1A5A69"/>
<path d="M128.546 37.6363C128.296 38.3979 126.721 36.7505 122.78 34.8036C121.857 34.3478 122.036 33.5737 123.005 33.9223C125.865 34.9519 128.796 36.8746 128.546 37.6363Z" fill="#1A5A69"/>
<path d="M127.607 21.8502C127.726 21.9751 127.474 22.31 127.01 22.7519C126.197 23.5269 125.321 22.5674 126.267 21.9612C126.81 21.6131 127.287 21.5127 127.607 21.8502Z" fill="#1A5A69"/>
<path d="M127.903 33.3531C127.796 33.6023 126.951 33.3375 125.832 32.8406C124.806 32.3848 125.28 31.1659 126.314 31.6041C127.449 32.0851 128.196 32.6682 127.903 33.3531Z" fill="#1A5A69"/>
<path d="M48.5746 48.8877C48.3741 48.465 48.5528 48.2024 49.3368 48.2132C50.326 48.2269 48.9986 49.7815 48.5746 48.8877Z" fill="#1A5A69"/>
<path d="M45.204 48.245C45.204 49.1443 46.4949 50.7823 48.1678 52.515C48.9838 53.3602 49.9071 52.5003 49.1558 51.5971C47.0317 49.0434 45.204 47.175 45.204 48.245Z" fill="#1A5A69"/>
<mask id="path-15-inside-1_479_519" fill="white">
<ellipse cx="2.74612" cy="2.60881" rx="2.74612" ry="2.60881" transform="matrix(-1 0 0 1 18.2913 26.5186)"/>
</mask>
<ellipse cx="2.74612" cy="2.60881" rx="2.74612" ry="2.60881" transform="matrix(-1 0 0 1 18.2913 26.5186)" fill="#1A5A69"/>
<path d="M16.799 29.1274C16.799 28.1682 16.0418 27.7362 15.5451 27.7362V35.7362C12.0152 35.7362 8.79902 32.9682 8.79902 29.1274H16.799ZM15.5451 27.7362C15.0485 27.7362 14.2913 28.1682 14.2913 29.1274H22.2913C22.2913 32.9682 19.0751 35.7362 15.5451 35.7362V27.7362ZM14.2913 29.1274C14.2913 30.0866 15.0485 30.5186 15.5451 30.5186V22.5186C19.0751 22.5186 22.2913 25.2866 22.2913 29.1274H14.2913ZM15.5451 30.5186C16.0418 30.5186 16.799 30.0866 16.799 29.1274H8.79902C8.79902 25.2866 12.0152 22.5186 15.5451 22.5186V30.5186Z" fill="#00657D" mask="url(#path-15-inside-1_479_519)"/>
<circle cx="0.823835" cy="0.823835" r="0.823835" transform="matrix(-1 0 0 1 16.3694 28.166)" fill="#1A5A69"/>
<path d="M15.5424 37.5369C17.5713 37.788 15.2706 33.9326 14.0744 33.8633C11.6695 33.7241 15.8198 35.9922 15.5424 37.5369Z" fill="#1A5A69"/>
<path d="M23.5747 39.0727C23.5164 39.1376 23.4698 39.1899 23.5603 39.1084C26.8638 36.136 31.1128 30.5953 25.2943 28.7148C28.8283 30.9991 24.2592 37.9771 23.6265 38.9883C23.6042 39.0241 23.5867 39.0524 23.5747 39.0727Z" fill="#1A5A69"/>
<path d="M33.2588 33.2462C34.332 35.9923 33.243 38.7384 32.5722 39.4249C32.4828 39.013 32.8327 34.8457 32.023 33.5208C30.5127 31.0493 29.2555 28.0254 28.865 27.342C28.3158 26.3809 28.3221 25.4197 28.5904 23.6348C28.8201 26.7928 31.9173 29.8135 33.2588 33.2462Z" fill="#1A5A69"/>
</g>
<defs>
<filter id="filter0_f_479_519" x="-0.00012207" y="0" width="136.805" height="63.1963" filterUnits="userSpaceOnUse" color-interpolation-filters="sRGB">
<feFlood flood-opacity="0" result="BackgroundImageFix"/>
<feBlend mode="normal" in="SourceGraphic" in2="BackgroundImageFix" result="shape"/>
<feGaussianBlur stdDeviation="2" result="effect1_foregroundBlur_479_519"/>
</filter>
</defs>
</svg>
