<svg width="138" height="64" viewBox="0 0 138 64" fill="none" xmlns="http://www.w3.org/2000/svg">
<g filter="url(#filter0_f_927_1162)">
<path d="M133.448 43.9558C133.448 45.2739 122.041 39.1043 116.337 35.8547C116.475 32.3763 116.669 25.3096 116.337 24.8703C115.923 24.321 127.515 13.062 130.551 14.9842C133.586 16.9065 130.137 25.8314 129.171 29.2641C133.586 32.4221 133.448 42.3081 133.448 43.9558Z" fill="#1A5A69"/>
<path d="M115.786 35.7179C114.462 34.6195 108.657 34.8483 105.713 35.306H104.333C104.425 31.6903 106.927 24.5961 116.2 25.1454C127.792 25.8319 117.442 37.091 115.786 35.7179Z" fill="#1A5A69"/>
<path d="M56.1572 49.6836C56.3267 48.9126 55.0976 45.6358 54.4619 44.0938C49.5173 44.4793 39.4878 44.0959 40.1659 45.3295C41.0136 46.8715 50.8594 58.1647 52.7666 59.1285C54.6738 60.0922 55.9453 50.6473 56.1572 49.6836Z" fill="#1A5A69"/>
<path d="M80.1035 14.9994C80.7234 17.1532 77.5723 19.9905 74.9378 21.0259C70.5986 21.0259 62.0442 20.1561 62.5401 16.677C63.16 12.3281 69.0221 3.48478 68.7906 4.02354C67.9124 6.06719 76.3842 6.71574 76.3842 10.8576C76.3842 13.1629 79.3286 12.3072 80.1035 14.9994Z" fill="#1A5A69"/>
<path d="M115.233 25.2831C98.6738 27.068 105.987 25.2831 81.5627 21.3012C50.0417 8.69087 19.28 18.8706 6.90861 26.2442C6.90435 26.2467 6.89996 26.2496 6.89545 26.2527C6.63354 26.4304 5.39069 27.7152 5.39069 28.5784C5.39069 29.6769 9.26801 30.0403 11.0484 32.6976C11.3244 33.1095 12.1523 34.3453 11.4624 34.4826C8.9325 33.3841 4.38948 30.9039 4.01076 32.2857C3.59678 33.796 15.1422 39.7917 20.8459 42.0344C24.0657 42.8582 34.7556 45.7416 58.9319 47.9385C79.7688 47.9385 90.7623 41.119 103.09 35.9929C108.931 33.5672 119.538 28.0292 115.233 25.2831Z" fill="#1A5A69"/>
<path d="M128.664 18.3939C129.227 18.9692 127.02 19.6032 123.443 22.2048C122.611 22.8098 122.009 22.2916 122.767 21.5963C125.015 19.5334 128.101 17.8184 128.664 18.3939Z" fill="#1A5A69"/>
<path d="M72.6442 9.60481C73.207 10.1801 70.9998 10.8142 67.4228 13.4158C66.591 14.0207 65.9889 13.5026 66.7468 12.8073C68.9956 10.7444 72.0812 9.02939 72.6442 9.60481Z" fill="#1A5A69"/>
<path d="M73.422 12.7875C73.8134 13.1956 72.3516 13.4006 69.9916 14.8633C69.1157 15.4062 68.6445 14.9772 69.4841 14.3797C71.1469 13.1965 73.0475 12.397 73.422 12.7875Z" fill="#1A5A69"/>
<path d="M74.6366 15.0427C74.7634 15.3325 73.6365 16.0403 71.6753 17.0303C71.0181 17.362 70.5295 16.9148 71.0755 16.4208C72.2691 15.3408 74.3626 14.417 74.6366 15.0427Z" fill="#1A5A69"/>
<path d="M129.169 37.6353C128.918 38.3972 127.334 36.7485 123.37 34.8007C122.445 34.3459 122.623 33.5716 123.594 33.919C126.47 34.9481 129.421 36.8731 129.169 37.6353Z" fill="#1A5A69"/>
<path d="M128.226 21.8502C128.346 21.9761 128.088 22.3157 127.614 22.7631C126.797 23.5347 125.924 22.5736 126.869 21.9669C127.419 21.6142 127.902 21.5109 128.226 21.8502Z" fill="#1A5A69"/>
<path d="M128.523 33.3531C128.415 33.6031 127.56 33.3357 126.43 32.8354C125.401 32.3801 125.872 31.1621 126.91 31.5974C128.06 32.0797 128.819 32.665 128.523 33.3531Z" fill="#1A5A69"/>
<path d="M48.8 48.8928C48.5945 48.4671 48.7724 48.2024 49.5635 48.2132C50.555 48.2268 49.2309 49.7859 48.8 48.8928Z" fill="#1A5A69"/>
<path d="M45.4102 48.245C45.4102 49.1472 46.7159 50.7928 48.405 52.5317C49.2236 53.3745 50.1459 52.5117 49.3926 51.6101C47.2532 49.0498 45.4102 47.1732 45.4102 48.245Z" fill="#1A5A69"/>
<mask id="path-15-inside-1_927_1162" fill="white">
<ellipse cx="2.75986" cy="2.60881" rx="2.75986" ry="2.60881" transform="matrix(-1 0 0 1 18.3627 26.5195)"/>
</mask>
<ellipse cx="2.75986" cy="2.60881" rx="2.75986" ry="2.60881" transform="matrix(-1 0 0 1 18.3627 26.5195)" fill="#1A5A69"/>
<path d="M16.843 29.1283C16.843 28.1509 16.0726 27.7372 15.6028 27.7372V35.7372C12.0846 35.7372 8.84296 32.9874 8.84296 29.1283H16.843ZM15.6028 27.7372C15.133 27.7372 14.3627 28.1509 14.3627 29.1283H22.3627C22.3627 32.9874 19.1211 35.7372 15.6028 35.7372V27.7372ZM14.3627 29.1283C14.3627 30.1058 15.133 30.5195 15.6028 30.5195V22.5195C19.1211 22.5195 22.3627 25.2693 22.3627 29.1283H14.3627ZM15.6028 30.5195C16.0726 30.5195 16.843 30.1058 16.843 29.1283H8.84296C8.84296 25.2693 12.0846 22.5195 15.6028 22.5195V30.5195Z" fill="#00657D" mask="url(#path-15-inside-1_927_1162)"/>
<ellipse cx="0.827957" cy="0.823835" rx="0.827957" ry="0.823835" transform="matrix(-1 0 0 1 16.4314 28.166)" fill="#1A5A69"/>
<path d="M15.6002 37.5359C17.6392 37.787 15.327 33.9316 14.1248 33.8624C11.7079 33.7231 15.879 35.9912 15.6002 37.5359Z" fill="#1A5A69"/>
<path d="M23.6727 39.0727C23.614 39.1376 23.5672 39.1899 23.6582 39.1084C26.9782 36.136 31.2485 30.5953 25.4008 28.7148C28.9525 30.9991 24.3605 37.9771 23.7247 38.9883C23.7023 39.0241 23.6847 39.0524 23.6727 39.0727Z" fill="#1A5A69"/>
<path d="M33.4051 33.2462C34.4837 35.9923 33.3893 38.7384 32.7152 39.4249C32.6253 39.013 32.9769 34.8457 32.1632 33.5208C30.6453 31.0493 29.3819 28.0254 28.9894 27.342C28.4374 26.3809 28.4437 25.4197 28.7134 23.6348C28.9442 26.7928 32.057 29.8135 33.4051 33.2462Z" fill="#1A5A69"/>
</g>
<defs>
<filter id="filter0_f_927_1162" x="-6.10352e-05" y="0" width="137.449" height="63.1973" filterUnits="userSpaceOnUse" color-interpolation-filters="sRGB">
<feFlood flood-opacity="0" result="BackgroundImageFix"/>
<feBlend mode="normal" in="SourceGraphic" in2="BackgroundImageFix" result="shape"/>
<feGaussianBlur stdDeviation="2" result="effect1_foregroundBlur_927_1162"/>
</filter>
</defs>
</svg>
