<svg width="823" height="305" viewBox="0 0 823 305" fill="none" xmlns="http://www.w3.org/2000/svg">
<path d="M49.11 24.4163C37.8863 30.6796 40.477 24.4163 -3 24.4163V305H823C794.692 232.963 797.734 218.016 764.617 184.206C757.163 176.597 709.96 165.184 691.327 164.233C672.694 163.281 649.092 136.65 624.248 132.845C599.404 129.041 563.38 151.868 557.169 160.428C550.958 168.988 524.872 184.206 506.239 178.499C487.606 172.793 394.441 176.597 385.746 178.499C377.05 180.402 347.238 199.424 317.425 211.789C287.612 224.154 254.073 204.18 254.073 191.815C254.073 179.451 257.799 179.451 254.073 146.161C250.346 112.871 229.229 93.8488 214.322 86.2398C199.416 78.6307 210.25 47.4195 181.75 24.4163C153.25 1.41315 122.4 -16.483 49.11 24.4163Z" fill="#051B2A"/>
</svg>
