<svg xmlns="http://www.w3.org/2000/svg" fill="none" viewBox="0 2.67841674 1278.326797385621 733.212" style="max-height: 500px" width="1278.326797385621" height="733.212">
<g filter="url(#filter0_f_0_1)">
<path fill="#0D323B" d="M176.519 367.52L168.768 314.796L181.053 294.416L211.948 279.348L273.118 288.31L281.01 318.98L290.025 352.689L282.741 353.76C258.669 314.275 243.74 316.469 222.247 319.629C192.331 324.028 179.219 354.121 179.28 368.971L176.519 367.52Z"/>
<path fill="#14525F" d="M159.508 652.151L126.073 424.735C128.147 421.971 134.843 417.914 153.752 415.134C176.267 411.824 181.594 411.245 183.685 416.265L217.121 643.681C213.619 647.474 206.44 655.7 189.487 658.193C172.534 660.685 161.467 657.805 159.508 652.151Z"/>
<path fill="#14525F" d="M153.98 619.158L120.545 391.742C122.619 388.978 129.315 384.921 148.224 382.141C170.739 378.83 176.067 378.252 178.158 383.271L211.593 610.688C208.091 614.481 200.912 622.707 183.959 625.2C167.007 627.692 155.939 624.812 153.98 619.158Z"/>
<path fill="#143A46" d="M156.905 657.452C157.258 659.858 160.953 661.978 162.336 662.185L216.638 654.201C217.3 654.104 218.147 652.504 219.241 648.901C220.335 645.299 218.96 642.387 216.944 642.478C215.885 644.478 210.789 646.873 206.967 648.247C201.184 650.327 193.061 650.292 184.452 651.558C177.565 652.57 163.35 655.275 159.331 650.948C158.537 651.68 156.551 655.045 156.905 657.452Z"/>
<path fill="#143A46" d="M163.323 645.448L132.533 436.022C132.327 434.62 131.689 431.407 131.486 419.85C131.306 409.565 134.958 425.354 136.442 435.447L165.996 636.463C166.367 638.986 165.996 636.463 167.356 645.715C167.974 649.92 163.29 649.749 163.323 645.448Z"/>
<path fill="#143A46" d="M174.436 647.406L142.848 432.554C142.636 431.116 141.987 427.819 141.741 415.968C141.521 405.422 145.235 421.625 146.757 431.98L177.077 638.203C177.457 640.792 177.077 638.203 178.472 647.694C179.106 652.009 174.419 651.816 174.436 647.406Z"/>
<path fill="#143A46" d="M186.355 645.653L154.767 430.801C154.555 429.363 153.906 426.066 153.659 414.215C153.44 403.67 157.154 419.872 158.676 430.227L188.996 636.45C189.376 639.039 188.996 636.45 190.391 645.942C191.025 650.256 186.337 650.064 186.355 645.653Z"/>
<path fill="#143A46" d="M198.275 643.901L166.687 429.049C166.475 427.611 165.826 424.314 165.579 412.463C165.36 401.918 169.074 418.12 170.596 428.475L200.916 634.698C201.296 637.287 200.916 634.698 202.311 644.19C202.945 648.504 198.257 648.312 198.275 643.901Z"/>
<path fill="#143A46" d="M208.354 638.827L177.563 429.401C177.357 427.999 176.72 424.785 176.517 413.229C176.336 402.944 179.989 418.733 181.473 428.826L211.027 629.842C211.397 632.365 211.027 629.842 212.387 639.094C213.005 643.299 208.32 643.128 208.354 638.827Z"/>
<path fill="#214959" d="M147.08 392.758C161.809 391.707 173.259 388.294 178.866 388.085L179.397 391.695L121.784 400.165L120.9 394.149L119.927 387.531L134.716 382.283C135.437 385.66 139.437 393.303 147.08 392.758Z"/>
<path fill="#15515D" d="M147.08 392.758C161.809 391.707 173.259 388.294 178.866 388.085L179.397 391.695L121.784 400.165L120.9 394.149L119.927 387.531L134.716 382.283C135.437 385.66 139.437 393.303 147.08 392.758Z"/>
<path fill-opacity="0.1" fill="#A59292" d="M169.953 580.548C178.567 597.72 187.711 618.503 212.875 614.803L217.828 648.494L159.554 657.062L146.15 565.892L124.703 420.02L140.109 417.755C147.928 469.385 164.906 570.486 169.953 580.548Z"/>
<path fill="#15515D" d="M157.722 405.329C172.452 404.278 175.647 404.538 181.254 404.328L181.784 407.938L124.172 416.408L123.287 410.392L122.314 403.774L137.103 398.526C137.825 401.903 150.08 405.874 157.722 405.329Z"/>
<path fill="#143A46" d="M119.665 404.164C119.311 401.757 122.239 398.663 123.504 398.068L177.806 390.084C178.468 389.987 179.74 391.275 181.824 394.41C183.909 397.546 183.43 400.73 181.473 401.223C179.883 399.613 174.314 398.785 170.258 398.569C164.122 398.242 156.352 400.614 147.743 401.879C140.856 402.892 126.464 404.393 123.861 409.693C122.889 409.221 120.019 406.57 119.665 404.164Z"/>
<path fill="#143A46" d="M117.366 388.522C117.013 386.116 119.94 383.022 121.206 382.426L175.507 374.442C176.169 374.345 177.441 375.633 179.526 378.769C181.611 381.904 181.132 385.089 179.174 385.581C177.585 383.971 172.015 383.144 167.96 382.928C161.823 382.601 154.053 384.972 145.445 386.238C138.558 387.25 124.165 388.752 121.562 394.052C120.591 393.58 117.72 390.929 117.366 388.522Z"/>
<path fill="#143A46" d="M121.965 419.807C121.611 417.401 124.539 414.307 125.804 413.711L180.106 405.728C180.768 405.63 182.04 406.918 184.125 410.054C186.209 413.189 185.73 416.374 183.773 416.866C182.183 415.256 176.614 414.429 172.559 414.213C166.422 413.886 158.652 416.257 150.043 417.523C143.156 418.536 128.764 420.037 126.161 425.337C125.189 424.865 122.319 422.214 121.965 419.807Z"/>
<rect fill="#143A46" transform="rotate(-8.36385 114.974 353.84)" height="26.7563" width="58.9011" y="353.84" x="114.974"/>
<path fill="#236472" d="M117.673 376.799L114.577 355.742L173.063 344.012L174.656 354.841C160.881 356.252 142.039 358.466 134.931 360.74C127.824 363.014 125.722 371.723 127.606 375.339L117.673 376.799Z"/>
<path fill="#154A56" d="M127.379 350.788C117.313 352.267 121.976 346.255 117.488 347.939C109.542 349.107 108.629 352.438 108.524 355.404C108.419 358.369 110.777 359.989 112.542 359.73C119.709 357.857 135.896 353.838 143.313 352.747C150.729 351.657 162.797 350.292 168.654 350.251C169.154 350.587 179.526 351.162 178.988 347.502C178.192 342.088 172.674 345.972 168.123 346.641C158.102 348.114 137.444 349.308 127.379 350.788Z"/>
<path fill="#15515D" d="M143.891 370.487C133.825 371.966 120.743 374.095 116.255 375.779C113.695 376.77 112.521 378.909 112.416 381.875C112.311 384.841 114.668 386.461 116.434 386.201C123.601 384.328 139.788 380.309 147.204 379.219C154.621 378.128 166.689 376.764 172.546 376.722C173.046 377.059 184.363 377.709 182.703 372.771C180.145 365.156 180.085 366.989 175.192 367.114C165.082 367.371 153.957 369.007 143.891 370.487Z"/>
<path fill="#154A56" d="M131.201 376.785C121.135 378.265 125.799 372.253 121.311 373.937C113.364 375.105 112.452 378.435 112.346 381.401C112.241 384.367 114.673 387.075 116.439 386.815C123.605 384.942 139.811 381.051 147.228 379.961C154.645 378.87 166.796 377.493 172.653 377.452C173.154 377.788 183.349 377.159 182.81 373.5C182.014 368.085 176.497 371.97 171.946 372.639C161.924 374.112 141.267 375.305 131.201 376.785Z"/>
<path fill="#14525F" d="M326.386 627.617L292.951 400.201C295.025 397.437 301.721 393.38 320.63 390.6C343.145 387.289 348.472 386.711 350.563 391.73L383.999 619.147C380.497 622.94 373.318 631.166 356.365 633.659C339.413 636.151 328.345 633.271 326.386 627.617Z"/>
<path fill="#14525F" d="M320.86 594.625L287.424 367.209C289.499 364.445 296.194 360.388 315.103 357.607C337.619 354.297 342.946 353.719 345.037 358.738L378.472 586.155C374.971 589.948 367.791 598.174 350.839 600.666C333.886 603.159 322.818 600.279 320.86 594.625Z"/>
<path fill="#143A46" d="M323.783 632.918C324.137 635.325 327.831 637.445 329.215 637.651L383.516 629.668C384.178 629.571 385.025 627.971 386.119 624.368C387.213 620.765 385.838 617.853 383.822 617.945C382.763 619.944 377.667 622.34 373.846 623.714C368.063 625.794 359.939 625.759 351.331 627.024C344.444 628.037 330.228 630.741 326.21 626.415C325.415 627.147 323.429 630.512 323.783 632.918Z"/>
<path fill="#143A46" d="M330.202 620.913L299.412 411.487C299.206 410.085 298.569 406.871 298.366 395.315C298.185 385.03 301.838 400.819 303.321 410.912L332.875 611.928C333.246 614.451 332.876 611.928 334.236 621.179C334.854 625.385 330.169 625.214 330.202 620.913Z"/>
<path fill="#143A46" d="M341.315 622.873L309.727 408.021C309.516 406.583 308.866 403.286 308.62 391.435C308.401 380.889 312.114 397.092 313.636 407.446L343.956 613.67C344.337 616.258 343.956 613.67 345.351 623.161C345.986 627.476 341.298 627.283 341.315 622.873Z"/>
<path fill="#143A46" d="M353.234 621.12L321.646 406.268C321.434 404.83 320.785 401.533 320.539 389.682C320.319 379.136 324.033 395.339 325.555 405.693L355.875 611.917C356.255 614.505 355.875 611.917 357.27 621.408C357.904 625.723 353.216 625.53 353.234 621.12Z"/>
<path fill="#143A46" d="M365.154 619.367L333.566 404.515C333.354 403.077 332.705 399.78 332.459 387.929C332.239 377.383 335.953 393.586 337.475 403.941L367.795 610.164C368.175 612.753 367.795 610.164 369.19 619.655C369.824 623.97 365.137 623.777 365.154 619.367Z"/>
<path fill="#143A46" d="M375.232 614.294L344.442 404.868C344.236 403.466 343.599 400.252 343.396 388.696C343.215 378.411 346.868 394.2 348.351 404.293L377.905 605.309C378.276 607.832 377.906 605.308 379.266 614.56C379.884 618.766 375.199 618.595 375.232 614.294Z"/>
<path fill="#214959" d="M313.958 368.225C328.688 367.174 340.138 363.761 345.745 363.552L346.275 367.161L288.663 375.632L287.778 369.615L286.805 362.997L301.594 357.75C302.316 361.127 306.316 368.77 313.958 368.225Z"/>
<path fill="#15515D" d="M313.958 368.225C328.688 367.174 340.138 363.761 345.745 363.552L346.275 367.161L288.663 375.632L287.778 369.615L286.805 362.997L301.594 357.75C302.316 361.127 306.316 368.77 313.958 368.225Z"/>
<path fill-opacity="0.1" fill="#A59292" d="M336.832 556.012C345.446 573.184 354.59 593.967 379.754 590.267L384.707 623.958L326.433 632.526L313.028 541.356L291.582 395.483L306.988 393.218C314.807 444.849 331.785 545.95 336.832 556.012Z"/>
<path fill="#15515D" d="M324.602 380.797C339.331 379.746 342.526 380.005 348.133 379.796L348.664 383.405L291.051 391.876L290.167 385.859L289.194 379.242L303.982 373.994C304.704 377.371 316.959 381.342 324.602 380.797Z"/>
<path fill="#143A46" d="M286.544 379.63C286.191 377.224 289.118 374.13 290.384 373.534L344.685 365.551C345.347 365.453 346.619 366.742 348.704 369.877C350.789 373.012 350.31 376.197 348.352 376.69C346.763 375.08 341.193 374.252 337.138 374.036C331.001 373.709 323.231 376.081 314.623 377.346C307.736 378.359 293.343 379.86 290.74 385.16C289.769 384.688 286.898 382.037 286.544 379.63Z"/>
<path fill="#143A46" d="M284.244 363.988C283.891 361.581 286.818 358.488 288.084 357.892L342.385 349.908C343.047 349.811 344.319 351.099 346.404 354.234C348.488 357.37 348.01 360.554 346.052 361.047C344.463 359.437 338.893 358.61 334.838 358.393C328.701 358.066 320.931 360.438 312.323 361.704C305.436 362.716 291.043 364.218 288.44 369.517C287.469 369.046 284.598 366.394 284.244 363.988Z"/>
<path fill="#143A46" d="M288.844 395.272C288.491 392.866 291.418 389.772 292.684 389.176L346.985 381.192C347.647 381.095 348.919 382.383 351.004 385.519C353.089 388.654 352.61 391.839 350.653 392.331C349.063 390.721 343.493 389.894 339.438 389.678C333.301 389.351 325.531 391.722 316.923 392.988C310.036 394 295.643 395.502 293.04 400.802C292.069 400.33 289.198 397.679 288.844 395.272Z"/>
<rect fill="#143A46" transform="rotate(-8.36385 281.854 329.305)" height="26.7563" width="58.9011" y="329.305" x="281.854"/>
<path fill="#236472" d="M284.553 352.264L281.457 331.207L339.943 319.477L341.535 330.306C327.761 331.716 308.918 333.931 301.811 336.205C294.704 338.479 292.601 347.188 294.486 350.804L284.553 352.264Z"/>
<path fill="#15515D" d="M306.879 319.479C296.814 320.959 283.731 323.087 279.243 324.771C276.683 325.762 275.509 327.902 275.404 330.867C275.299 333.833 277.657 335.453 279.423 335.194C286.589 333.32 302.776 329.302 310.193 328.211C317.61 327.121 329.677 325.756 335.534 325.715C336.034 326.051 347.351 326.701 345.691 321.763C343.133 314.149 343.073 315.982 338.18 316.106C328.07 316.363 316.945 317.999 306.879 319.479Z"/>
<path fill="#154A56" d="M294.259 326.252C284.193 327.732 288.857 321.72 284.369 323.404C276.422 324.572 275.509 327.903 275.404 330.868C275.299 333.834 277.657 335.454 279.423 335.195C286.589 333.321 302.776 329.303 310.193 328.212C317.61 327.122 329.677 325.757 335.534 325.716C336.035 326.052 346.407 326.627 345.868 322.967C345.072 317.552 339.555 321.437 335.003 322.106C324.982 323.579 304.325 324.773 294.259 326.252Z"/>
<path fill="#15515D" d="M310.772 345.951C300.706 347.431 287.624 349.56 283.136 351.244C280.576 352.235 279.402 354.374 279.297 357.34C279.192 360.306 281.549 361.926 283.315 361.666C290.482 359.793 306.669 355.774 314.085 354.684C321.502 353.593 333.57 352.229 339.427 352.187C339.927 352.523 351.244 353.174 349.584 348.235C347.025 340.621 346.966 342.454 342.073 342.579C331.963 342.836 320.838 344.471 310.772 345.951Z"/>
<path fill="#154A56" d="M298.082 352.25C288.016 353.73 292.68 347.717 288.192 349.402C280.245 350.57 279.332 353.9 279.227 356.866C279.122 359.832 281.554 362.539 283.32 362.28C290.486 360.407 306.692 356.516 314.109 355.425C321.526 354.335 333.677 352.958 339.534 352.917C340.034 353.253 350.229 352.624 349.691 348.965C348.895 343.55 343.378 347.434 338.826 348.104C328.805 349.577 308.147 350.77 298.082 352.25Z"/>
<path fill="#143A46" d="M171.477 324.021L109.891 333.075L105.468 302.994L105.114 300.587L104.76 298.181L166.346 289.126L171.477 324.021Z"/>
<path fill="#143A46" d="M337.781 300.185L276.195 309.239L271.772 279.158L271.418 276.751L271.064 274.345L332.65 265.29L337.781 300.185Z"/>
<path fill="#15515D" d="M109.714 331.872L104.76 298.181L112.707 297.012C116.122 301.837 124.92 311.186 129.267 313.017C131.431 313.928 133.948 317.246 170.061 314.395L170.769 319.208L171.388 323.419L109.714 331.872Z"/>
<path fill="#15515D" d="M276.105 308.627L271.064 274.345L279.096 273.164C282.554 278.076 291.456 287.596 295.853 289.463C298.041 290.392 300.589 293.77 337.093 290.905L337.813 295.802L338.443 300.087L276.105 308.627Z"/>
<path fill="#206474" d="M277.751 308.115L335.459 300.33C339.218 299.823 343.338 298.246 348.381 301.041C356.396 305.483 357.883 310.546 354.251 319.885C353.243 322.476 335.059 329.342 334.376 317.657L288.024 324.524C291.371 334.504 273.805 334.419 270.249 333.058C267.2 331.891 263.906 325.937 263.347 321.717C262.869 318.099 265.811 309.726 277.751 308.115Z"/>
<path fill="#15515D" d="M281.144 324.493C280.158 322.252 276.699 321.868 276.155 322.768C276.419 321.499 279.267 319.375 281.187 320.184C283.351 321.095 285.169 322.167 284.721 325.811C284.412 328.315 279.365 329.262 277.79 329.288C278.746 328.123 282.16 326.802 281.144 324.493Z"/>
<path fill="#15515D" d="M277.791 329.289C269.798 325.547 270.433 322.503 271.739 320.344C272.86 318.493 276.521 316.053 279.906 316.07C277.588 315.646 270.741 316.311 269.576 319.433C268.411 322.554 266.09 327.936 277.791 329.289Z"/>
<path fill="#15515D" d="M342.179 316.519C342.153 314.083 345.161 312.378 346.032 312.989C345.264 311.931 341.777 311.1 340.354 312.591C338.751 314.271 337.531 315.964 339.452 319.124C340.772 321.295 345.784 320.188 347.237 319.597C345.879 318.905 342.206 319.03 342.179 316.519Z"/>
<path fill="#15515D" d="M347.236 319.598C353.002 313.047 351.159 310.509 349.069 309.044C347.277 307.787 342.914 306.985 339.822 308.325C341.768 307.03 348.312 304.961 350.672 307.363C353.032 309.765 357.386 313.784 347.236 319.598Z"/>
<path fill="#15515D" d="M304.053 310.06C295.047 311.385 286.571 313.86 280.478 315.37L304.98 311.768L333.455 307.582C329.394 307.564 313.059 308.736 304.053 310.06Z"/>
<path fill="#15515D" d="M284.233 317.892C282.961 316.604 280.068 315.636 279.155 315.565L295.71 313.131C295.637 314.167 296.771 316.663 304.542 317.979C312.312 319.296 322.024 317.253 334.21 317.305L287.943 324.722C287.236 322.982 285.505 319.18 284.233 317.892Z"/>
<path fill="#124049" d="M176.433 366.932L170.504 317.404C176.977 309.281 194.479 290.892 213.409 287.125C232.34 283.359 241.032 286.342 244.005 288.159C228.597 289.195 223.088 296.684 219.02 302.281C214.519 308.474 217.156 318.74 218.363 320.816C204.589 322.842 184.769 336.204 179.082 366.543L176.433 366.932Z"/>
<path fill="#15515D" d="M140 344.015C129.934 345.495 116.852 347.623 112.363 349.307C109.803 350.298 108.629 352.438 108.524 355.403C108.419 358.369 110.777 359.989 112.543 359.73C119.709 357.857 135.896 353.838 143.313 352.747C150.73 351.657 162.797 350.292 168.654 350.251C169.155 350.587 180.471 351.237 178.811 346.299C176.253 338.685 176.194 340.518 171.301 340.642C161.19 340.899 150.065 342.535 140 344.015Z"/>
<path fill="#15515D" d="M151.963 320.13L149.044 300.276L160.964 298.523C170.174 290.613 179.059 274.351 214.818 269.093C243.955 264.809 264.031 275.585 272.878 282.069L286.122 280.122L287.626 290.35L289.041 299.976L271.823 302.507C245.462 284.256 233.453 285.407 217.56 287.744C204.67 289.639 189.836 292.435 170.505 317.404L151.963 320.13Z"/>
<path fill="#154A56" d="M126.878 351.554C116.433 353.09 121.31 347.108 116.646 348.806C108.399 350.019 107.429 353.32 107.299 356.255C107.169 359.19 109.602 360.776 111.434 360.507C118.877 358.603 135.687 354.511 143.383 353.38C151.08 352.248 163.6 350.812 169.672 350.73C170.188 351.059 180.937 351.553 180.405 347.937C179.618 342.585 173.87 346.468 169.147 347.162C158.748 348.691 137.324 350.018 126.878 351.554Z"/>
<path fill="#206474" d="M109.372 331.642L167.08 323.858C170.839 323.35 174.958 321.774 180.002 324.569C188.016 329.01 189.504 334.073 185.871 343.413C184.864 346.003 166.68 352.87 165.997 341.185L119.645 348.051C122.991 358.031 105.426 357.946 101.87 356.585C98.8208 355.418 95.5263 349.464 94.9678 345.244C94.4892 341.627 97.4319 333.253 109.372 331.642Z"/>
<path fill="#15515D" d="M112.765 348.018C111.779 345.778 108.32 345.393 107.775 346.293C108.04 345.025 110.887 342.9 112.808 343.709C114.971 344.62 116.79 345.692 116.341 349.336C116.033 351.84 110.985 352.787 109.41 352.814C110.367 351.649 113.781 350.327 112.765 348.018Z"/>
<path fill="#15515D" d="M109.41 352.815C101.418 349.073 102.053 346.029 103.359 343.87C104.479 342.019 108.14 339.579 111.526 339.597C109.208 339.172 102.36 339.838 101.196 342.959C100.031 346.081 97.7101 351.462 109.41 352.815Z"/>
<path fill="#15515D" d="M173.801 340.045C173.775 337.609 176.782 335.904 177.653 336.515C176.886 335.458 173.399 334.626 171.976 336.118C170.373 337.798 169.153 339.49 171.073 342.65C172.393 344.822 177.406 343.715 178.859 343.123C177.5 342.431 173.828 342.556 173.801 340.045Z"/>
<path fill="#15515D" d="M178.857 343.124C184.622 336.573 182.78 334.035 180.69 332.57C178.897 331.313 174.535 330.511 171.443 331.851C173.389 330.556 179.933 328.488 182.292 330.89C184.652 333.292 189.007 337.31 178.857 343.124Z"/>
<path fill="#15515D" d="M135.674 333.587C126.668 334.911 118.192 337.386 112.1 338.897L136.602 335.294L165.077 331.108C161.015 331.09 144.68 332.263 135.674 333.587Z"/>
<path fill="#15515D" d="M115.853 341.419C114.582 340.131 111.688 339.164 110.776 339.093L127.331 336.659C127.258 337.694 128.391 340.191 136.162 341.507C143.933 342.823 153.645 340.78 165.83 340.833L119.564 348.25C118.857 346.51 117.125 342.708 115.853 341.419Z"/>
<path fill="#143A46" d="M100.653 293.253L99.5916 286.033L167.137 276.102L168.199 283.322L100.653 293.253Z"/>
<path fill="#143A46" d="M267.531 268.719L266.47 261.499L334.015 251.568L335.077 258.788L267.531 268.719Z"/>
<path fill="#15515D" d="M100.214 299.464L96.6802 293.837L172.172 282.738L169.746 289.241L100.214 299.464Z"/>
<path fill="#15515D" d="M267.091 274.929L263.557 269.302L339.05 258.203L336.623 264.706L267.091 274.929Z"/>
<path fill="#15515D" d="M93.6323 286.909L76.1877 264.889L351.006 224.484L339.313 250.789L93.6323 286.909Z"/>
<path fill-opacity="0.07" fill="#F0E3E3" d="M93.6323 286.909L76.1877 264.889L104.663 260.702C111.315 263.002 119.332 273.051 156.982 271.449C194.632 269.847 300.197 251.623 342.976 243.489L339.975 250.691L93.6323 286.909Z"/>
<path fill="#154854" d="M208.594 277.383L202.984 262.228L224.837 259.015L223.825 275.144L208.594 277.383Z"/>
<path fill="#143B46" d="M208.594 277.384L202.984 262.229L205.632 261.839C205.898 263.644 207.727 267.801 212.919 269.988C218.112 272.174 222.441 271.866 223.957 271.438L223.825 275.145L208.594 277.384Z"/>
<path fill="#154854" d="M75.99 268.606L64 255.617L360.671 212L353.585 227.793L75.99 268.606Z"/>
<path fill="#226C7C" d="M76.0909 268.591L64 255.617L94.4618 251.139C101.153 253.597 101.787 254.229 139.558 252.806C177.329 251.383 314.313 228.742 357.186 220.503L353.513 227.803L76.0909 268.591Z"/>
</g>
<g filter="url(#filter1_f_0_1)">
<path fill="#1C2A3A" d="M404 630.955C437.817 564.825 467.563 534.828 478.209 528.096L469.285 549.701C542.554 463.657 616.919 410.208 644.943 394.239L644.943 407.39C666.391 391.108 718.212 356.477 753.907 348.211C789.602 339.945 834.535 322.223 852.539 314.395L852.539 336.469L888.704 314.395L1017.86 157.993L1056.85 123.237L965.73 252.398C939.053 252.398 946.787 265.862 953.988 272.594L917.823 324.727L917.823 348.211L888.704 375.452L888.704 394.239L917.823 375.452L903.264 394.239L917.823 394.239L888.704 414.905L852.539 478.781L867.099 494.749L753.907 528.096L631.792 612.168L404 630.955ZM477.269 562.852C524.988 500.479 600.167 445.12 631.792 425.238L631.792 435.101C661.1 415.562 675.002 415.061 678.29 417.253L621.929 460.933L587.643 477.371C561.341 486.013 507.485 543.909 483.845 571.776C485.601 567.588 486.826 564.41 487.8 561.885C490.211 555.632 491.079 553.382 494.647 549.701L477.269 562.852ZM803.223 428.055C789.603 428.525 696.137 437.918 642.125 498.976C665.452 478.623 729.296 437.918 798.057 437.918L803.223 428.055ZM779.27 409.738C786.785 378.551 818.409 361.988 833.282 357.604L847.842 351.028L833.282 372.633L814.965 380.148L822.01 389.072L789.133 405.041L807.92 383.436C798.526 383.436 784.906 400.97 779.27 409.738Z" clip-rule="evenodd" fill-rule="evenodd"/>
<path fill="#26374B" d="M478.209 528.096L478.671 528.287L479.271 526.833L477.941 527.674L478.209 528.096ZM404 630.955L403.555 630.727L403.146 631.527L404.041 631.453L404 630.955ZM469.285 549.701L468.823 549.51L469.665 550.025L469.285 549.701ZM644.943 394.239L645.443 394.239L645.443 393.379L644.695 393.805L644.943 394.239ZM644.943 407.39L644.443 407.39L644.443 408.397L645.245 407.788L644.943 407.39ZM753.907 348.211L754.02 348.698L753.907 348.211ZM852.539 314.395L853.039 314.395L853.039 313.632L852.339 313.936L852.539 314.395ZM852.539 336.469L852.039 336.469L852.039 337.36L852.799 336.896L852.539 336.469ZM888.704 314.395L888.964 314.821L889.036 314.778L889.089 314.713L888.704 314.395ZM1017.86 157.993L1017.53 157.62L1017.5 157.645L1017.48 157.675L1017.86 157.993ZM1056.85 123.237L1057.26 123.526L1056.51 122.864L1056.85 123.237ZM965.73 252.398L965.73 252.898L965.989 252.898L966.139 252.686L965.73 252.398ZM953.988 272.594L954.399 272.879L954.646 272.524L954.33 272.228L953.988 272.594ZM917.823 324.727L917.413 324.442L917.323 324.571L917.323 324.727L917.823 324.727ZM917.823 348.211L918.165 348.576L918.323 348.428L918.323 348.211L917.823 348.211ZM888.704 375.452L888.362 375.087L888.204 375.235L888.204 375.452L888.704 375.452ZM888.704 394.239L888.204 394.239L888.204 395.157L888.975 394.659L888.704 394.239ZM917.823 375.452L918.219 375.759L917.552 375.032L917.823 375.452ZM903.264 394.239L902.868 393.933L902.243 394.739L903.264 394.739L903.264 394.239ZM917.823 394.239L918.113 394.647L919.392 393.739L917.823 393.739L917.823 394.239ZM888.704 414.905L888.414 414.497L888.323 414.562L888.269 414.659L888.704 414.905ZM852.539 478.781L852.104 478.534L851.925 478.85L852.169 479.117L852.539 478.781ZM867.099 494.749L867.24 495.229L868.007 495.003L867.468 494.413L867.099 494.749ZM753.907 528.096L753.766 527.617L753.689 527.639L753.624 527.684L753.907 528.096ZM631.792 612.168L631.833 612.666L631.966 612.655L632.075 612.58L631.792 612.168ZM631.792 425.238L632.292 425.238L632.292 424.333L631.526 424.814L631.792 425.238ZM477.269 562.852L476.872 562.548L477.571 563.251L477.269 562.852ZM631.792 435.101L631.292 435.101L631.292 436.035L632.07 435.517L631.792 435.101ZM678.29 417.253L678.596 417.648L679.146 417.223L678.567 416.837L678.29 417.253ZM621.929 460.933L622.145 461.384L622.193 461.361L622.235 461.328L621.929 460.933ZM587.643 477.371L587.799 477.846L587.83 477.836L587.859 477.822L587.643 477.371ZM483.845 571.776L483.384 571.583L484.226 572.099L483.845 571.776ZM487.8 561.885L487.333 561.705L487.8 561.885ZM494.647 549.701L495.006 550.049L494.346 549.303L494.647 549.701ZM642.125 498.976L641.75 498.645L642.454 499.353L642.125 498.976ZM803.223 428.055L803.666 428.287L804.065 427.526L803.206 427.556L803.223 428.055ZM798.057 437.918L798.057 438.418L798.359 438.418L798.5 438.15L798.057 437.918ZM833.282 357.604L833.424 358.084L833.457 358.074L833.488 358.06L833.282 357.604ZM779.27 409.738L778.784 409.621L779.69 410.008L779.27 409.738ZM847.842 351.028L848.257 351.308L849.24 349.848L847.636 350.573L847.842 351.028ZM833.282 372.633L833.472 373.096L833.612 373.039L833.697 372.913L833.282 372.633ZM814.965 380.148L814.775 379.686L814.162 379.937L814.573 380.458L814.965 380.148ZM822.01 389.072L822.229 389.522L822.788 389.25L822.403 388.762L822.01 389.072ZM789.133 405.041L788.756 404.713L789.351 405.491L789.133 405.041ZM807.92 383.436L808.297 383.764L809.017 382.936L807.92 382.936L807.92 383.436ZM477.941 527.674C472.546 531.085 462.406 540.32 449.399 556.943C436.383 573.578 420.476 597.637 403.555 630.727L404.445 631.183C421.341 598.143 437.214 574.138 450.187 557.559C463.169 540.969 473.225 531.839 478.476 528.519L477.941 527.674ZM469.747 549.892L478.671 528.287L477.746 527.905L468.823 549.51L469.747 549.892ZM644.695 393.805C616.618 409.804 542.209 463.291 468.904 549.377L469.665 550.025C542.899 464.023 617.219 410.612 645.19 394.674L644.695 393.805ZM645.443 407.39L645.443 394.239L644.443 394.239L644.443 407.39L645.443 407.39ZM753.794 347.724C735.87 351.875 713.938 362.631 693.831 374.363C673.713 386.1 655.379 398.84 644.64 406.992L645.245 407.788C655.955 399.658 674.255 386.942 694.334 375.227C714.424 363.506 736.249 352.814 754.02 348.698L753.794 347.724ZM852.339 313.936C834.345 321.76 789.445 339.468 753.794 347.724L754.02 348.698C789.759 340.422 834.724 322.685 852.738 314.853L852.339 313.936ZM853.039 336.469L853.039 314.395L852.039 314.395L852.039 336.469L853.039 336.469ZM888.443 313.968L852.278 336.043L852.799 336.896L888.964 314.821L888.443 313.968ZM1017.48 157.675L888.318 314.076L889.089 314.713L1018.25 158.312L1017.48 157.675ZM1056.51 122.864L1017.53 157.62L1018.2 158.366L1057.18 123.611L1056.51 122.864ZM966.139 252.686L1057.26 123.526L1056.44 122.949L965.322 252.109L966.139 252.686ZM954.33 272.228C952.554 270.568 950.753 268.5 949.462 266.341C948.165 264.172 947.42 261.974 947.651 260.03C947.877 258.132 949.049 256.369 951.841 255.059C954.657 253.737 959.09 252.898 965.73 252.898L965.73 251.898C959.031 251.898 954.427 252.741 951.416 254.154C948.38 255.579 946.933 257.602 946.658 259.912C946.389 262.176 947.26 264.606 948.604 266.855C949.955 269.114 951.822 271.253 953.647 272.959L954.33 272.228ZM918.234 325.012L954.399 272.879L953.578 272.309L917.413 324.442L918.234 325.012ZM918.323 348.211L918.323 324.727L917.323 324.727L917.323 348.211L918.323 348.211ZM889.045 375.817L918.165 348.576L917.482 347.846L888.362 375.087L889.045 375.817ZM889.204 394.239L889.204 375.452L888.204 375.452L888.204 394.239L889.204 394.239ZM917.552 375.032L888.433 393.819L888.975 394.659L918.094 375.872L917.552 375.032ZM903.659 394.545L918.219 375.759L917.428 375.146L902.868 393.933L903.659 394.545ZM917.823 393.739L903.264 393.739L903.264 394.739L917.823 394.739L917.823 393.739ZM888.993 415.313L918.113 394.647L917.534 393.831L888.414 414.497L888.993 415.313ZM852.974 479.027L889.139 415.151L888.269 414.659L852.104 478.534L852.974 479.027ZM867.468 494.413L852.908 478.444L852.169 479.117L866.729 495.086L867.468 494.413ZM754.048 528.576L867.24 495.229L866.957 494.27L753.766 527.617L754.048 528.576ZM632.075 612.58L754.191 528.508L753.624 527.684L631.508 611.756L632.075 612.58ZM404.041 631.453L631.833 612.666L631.751 611.67L403.959 630.457L404.041 631.453ZM631.526 424.814C599.877 444.713 524.642 500.109 476.872 562.548L477.667 563.156C525.334 500.85 600.458 445.528 632.058 425.661L631.526 424.814ZM632.292 435.101L632.292 425.238L631.292 425.238L631.292 435.101L632.292 435.101ZM678.567 416.837C677.621 416.206 676.014 415.825 673.749 415.87C671.468 415.915 668.459 416.394 664.653 417.55C657.041 419.862 646.194 424.899 631.515 434.685L632.07 435.517C646.698 425.764 657.456 420.781 664.944 418.507C668.688 417.369 671.603 416.912 673.769 416.87C675.951 416.826 677.315 417.204 678.013 417.669L678.567 416.837ZM622.235 461.328L678.596 417.648L677.984 416.858L621.623 460.538L622.235 461.328ZM587.859 477.822L622.145 461.384L621.713 460.482L587.427 476.921L587.859 477.822ZM484.226 572.099C496.038 558.175 515.401 536.747 535.093 517.724C544.94 508.212 554.862 499.307 563.959 492.244C573.068 485.172 581.309 479.979 587.799 477.846L587.487 476.896C580.825 479.085 572.471 484.37 563.346 491.454C554.21 498.548 544.259 507.479 534.398 517.005C514.677 536.056 495.292 557.509 483.464 571.452L484.226 572.099ZM487.333 561.705C486.36 564.23 485.137 567.402 483.384 571.583L484.306 571.969C486.065 567.774 487.293 564.591 488.266 562.065L487.333 561.705ZM494.288 549.353C490.643 553.113 489.746 555.448 487.333 561.705L488.266 562.065C490.676 555.815 491.514 553.651 495.006 550.049L494.288 549.353ZM477.571 563.251L494.949 550.1L494.346 549.303L476.968 562.453L477.571 563.251ZM642.499 499.307C669.422 468.873 706.196 451.297 737.971 441.272C769.745 431.248 796.471 428.788 803.24 428.555L803.206 427.556C796.355 427.792 769.538 430.264 737.671 440.318C705.805 450.372 668.84 468.022 641.75 498.645L642.499 499.307ZM798.057 437.418C729.128 437.418 665.17 478.206 641.796 498.599L642.454 499.353C665.734 479.041 729.465 438.418 798.057 438.418L798.057 437.418ZM802.78 427.823L797.614 437.686L798.5 438.15L803.666 428.287L802.78 427.823ZM833.141 357.124C825.647 359.333 813.963 364.599 803.204 373.23C792.443 381.862 782.575 393.888 778.784 409.621L779.756 409.855C783.48 394.401 793.181 382.552 803.83 374.01C814.48 365.466 826.045 360.258 833.424 358.084L833.141 357.124ZM847.636 350.573L833.077 357.148L833.488 358.06L848.048 351.484L847.636 350.573ZM833.697 372.913L848.257 351.308L847.428 350.749L832.868 372.354L833.697 372.913ZM815.155 380.611L833.472 373.096L833.093 372.171L814.775 379.686L815.155 380.611ZM822.403 388.762L815.358 379.838L814.573 380.458L821.618 389.382L822.403 388.762ZM789.351 405.491L822.229 389.522L821.792 388.622L788.915 404.591L789.351 405.491ZM807.543 383.108L788.756 404.713L789.51 405.369L808.297 383.764L807.543 383.108ZM779.69 410.008C782.496 405.644 787.29 399.096 792.546 393.646C795.174 390.921 797.905 388.483 800.549 386.729C803.204 384.97 805.716 383.936 807.92 383.936L807.92 382.936C805.427 382.936 802.715 384.094 799.997 385.896C797.269 387.704 794.482 390.198 791.826 392.952C786.514 398.461 781.68 405.064 778.849 409.467L779.69 410.008Z"/>
<path fill="#1C2A3A" d="M562.28 462.811L510.616 511.187C529.09 449.19 597.036 261.79 697.077 3L609.717 285.274L562.28 462.811Z"/>
<path fill="#1C2A3A" d="M763.3 353.847L744.513 359.483C750.776 315.333 798.526 202.142 832.812 99.2832C822.792 129.342 794.862 222.338 763.3 353.847Z"/>
<path fill="#1C2A3A" d="M756.256 136.857L563.22 84.2532L563.22 78.1475L756.256 136.857Z"/>
<path fill="#1C2A3A" d="M734.65 286.213L416.211 197.445L420.438 186.173L734.65 286.213Z"/>
<path fill="#1C2A3A" d="M874.144 209.186L730.423 169.783L730.423 163.628L874.144 209.186Z"/>
<path stroke="#26374B" d="M694.728 9.10644L577.309 81.4363"/>
<path fill="#1C2A3A" d="M597.506 123.236L577.779 88.4805C565.098 98.1871 539.736 122.861 539.736 143.902C543.493 137.953 554.671 125.491 569.325 123.236C567.29 126.681 563.22 135.354 563.22 142.493C566.351 140.771 574.304 137.327 581.067 137.327L579.658 148.129L577.779 148.129L577.779 162.689C581.537 164.943 585.294 164.568 586.703 164.098C589.365 161.437 597.318 157.053 607.839 160.81L626.156 152.826L626.156 160.81L629.444 152.826L636.958 145.781C637.898 142.18 640.34 134.039 642.594 130.281C645.413 125.585 659.033 127.463 664.199 130.281C669.366 133.1 671.714 138.266 659.033 152.826L668.427 152.826L668.427 157.992L675.941 157.992C678.29 165.977 681.577 183.636 675.941 190.4C672.81 191.965 666.924 197.539 668.427 207.308C668.427 201.672 674.532 196.506 678.29 196.506C682.047 196.506 691.441 184.294 691.441 177.719C691.441 171.143 694.728 152.826 710.697 152.826L721.5 127.463C688.153 137.327 641.185 125.115 641.185 105.858L597.506 123.236Z"/>
<path fill="#1C2A3A" d="M422.787 198.854C411.891 219.143 411.045 241.437 411.985 250.048C422.787 240.185 436.877 237.367 429.832 258.972C444.862 253.805 453.316 264.138 447.68 271.183C445.835 273.49 443.537 275.645 441.33 277.715C436.794 281.969 432.642 285.863 433.59 289.97C442.092 282.885 442.899 283.667 444.368 285.091C445.334 286.027 446.587 287.241 450.498 286.683C458.388 285.555 464.118 286.213 465.997 286.683C468.252 294.197 454.725 296.389 447.68 296.546C471.633 307.818 492.769 304.061 495.117 300.303C506.013 297.297 514.687 284.96 517.661 279.168C517.661 293.07 510.46 306.252 506.859 311.106C515.501 311.106 535.509 297.015 544.433 289.97L544.433 300.303C527.9 308.945 529.403 320.499 532.221 325.196C532.221 319.56 540.362 315.333 544.433 313.924L547.72 317.211C567.447 307.348 584.825 287.152 584.355 279.168C583.885 271.183 596.097 258.972 600.794 258.972C604.551 258.972 607.995 281.516 609.248 292.788L619.581 279.168C619.581 296.546 622.868 304.53 628.035 305C632.168 305.376 658.25 305.156 670.775 305L660.442 311.106C676.975 313.36 700.834 290.753 710.697 279.168C685.805 286.683 638.367 270.714 619.581 258.972L604.081 255.684L575.901 253.336C574.048 253.336 572.248 253.377 570.518 253.417L570.518 253.417L570.518 253.417C559.265 253.678 551.008 253.869 551.008 242.064C545.685 250.518 531.564 264.608 517.661 253.336C514.655 250.706 516.409 241.594 517.661 237.367C499.626 237.367 480.087 231.418 472.573 228.443C467.312 220.177 462.553 217.484 460.831 217.171L447.68 217.171C440.541 217.171 436.877 207.464 435.938 202.611L422.787 198.854ZM452.369 232.168L452.847 232.2C454.843 232.333 456.778 232.273 458.59 232.218C461.893 232.116 464.789 232.028 466.912 233.14C457.142 233.14 445.933 236.271 441.549 237.836C434.202 230.948 445.287 231.692 452.369 232.168ZM463.179 259.911C458.013 259.441 456.134 250.518 456.604 242.533L468.815 238.306L472.573 242.533L502.632 242.533L502.632 249.578C497.622 257.563 485.63 273.532 477.739 273.532C474.295 272.749 466.561 271.183 463.179 271.183C461.416 271.183 459.98 272.082 458.905 272.755C457.402 273.695 456.604 274.195 456.604 271.183C456.604 268.609 459.519 265.918 461.805 263.808C464.107 261.683 465.772 260.147 463.179 259.911ZM640.716 278.228C636.646 281.829 628.881 290.252 630.384 295.136L640.716 295.136L640.716 300.772C648.836 300.772 656.623 297.547 662.365 291.805L668.897 285.273L649.17 285.273L640.716 278.228Z" clip-rule="evenodd" fill-rule="evenodd"/>
<path fill="#26374B" d="M411.985 250.048L411.488 250.102L411.594 251.081L412.322 250.417L411.985 250.048ZM422.787 198.854L422.924 198.373L422.537 198.262L422.347 198.617L422.787 198.854ZM429.832 258.972L429.357 258.817L429.046 259.771L429.995 259.445L429.832 258.972ZM447.68 271.183L448.07 271.496L447.68 271.183ZM441.33 277.715L441.672 278.08L441.33 277.715ZM433.59 289.97L433.102 290.083L433.285 290.875L433.91 290.354L433.59 289.97ZM444.368 285.091L444.02 285.45L444.368 285.091ZM450.498 286.683L450.427 286.188L450.498 286.683ZM465.997 286.683L466.476 286.539L466.394 286.266L466.118 286.197L465.997 286.683ZM447.68 296.546L447.669 296.046L447.467 296.998L447.68 296.546ZM495.117 300.303L494.984 299.821L494.796 299.873L494.693 300.038L495.117 300.303ZM517.661 279.168L518.161 279.168L517.216 278.939L517.661 279.168ZM506.859 311.106L506.457 310.808L505.865 311.606L506.859 311.606L506.859 311.106ZM544.433 289.97L544.933 289.97L544.933 288.939L544.123 289.578L544.433 289.97ZM544.433 300.303L544.664 300.746L544.933 300.606L544.933 300.303L544.433 300.303ZM532.221 325.196L531.792 325.453L532.721 327.001L532.721 325.196L532.221 325.196ZM544.433 313.924L544.786 313.57L544.565 313.349L544.269 313.451L544.433 313.924ZM547.72 317.211L547.367 317.565L547.622 317.82L547.944 317.659L547.72 317.211ZM584.355 279.168L584.854 279.138L584.854 279.138L584.355 279.168ZM609.248 292.788L608.751 292.844L608.889 294.088L609.646 293.091L609.248 292.788ZM619.581 279.168L620.081 279.168L620.081 277.681L619.182 278.866L619.581 279.168ZM628.035 305L628.08 304.502L628.035 305ZM670.775 305L671.029 305.43L672.644 304.476L670.769 304.5L670.775 305ZM660.442 311.106L660.188 310.675L658.95 311.407L660.375 311.601L660.442 311.106ZM710.697 279.168L711.078 279.492L712.18 278.198L710.553 278.689L710.697 279.168ZM619.581 258.972L619.846 258.548L619.771 258.501L619.684 258.483L619.581 258.972ZM604.081 255.684L604.185 255.195L604.154 255.188L604.123 255.186L604.081 255.684ZM575.901 253.336L575.942 252.837L575.922 252.836L575.901 252.836L575.901 253.336ZM570.518 253.417L570.518 253.918L570.53 253.917L570.518 253.417ZM570.518 253.417L570.518 252.917L570.506 252.918L570.518 253.417ZM551.008 242.064L551.508 242.064L551.508 240.331L550.585 241.797L551.008 242.064ZM517.661 253.336L517.332 253.712L517.339 253.718L517.346 253.724L517.661 253.336ZM517.661 237.367L518.141 237.509L518.331 236.867L517.661 236.867L517.661 237.367ZM472.573 228.443L472.151 228.711L472.238 228.848L472.389 228.908L472.573 228.443ZM460.831 217.171L460.92 216.679L460.876 216.671L460.831 216.671L460.831 217.171ZM447.68 217.171L447.68 216.671L447.68 217.171ZM435.938 202.611L436.429 202.516L436.371 202.214L436.075 202.13L435.938 202.611ZM452.847 232.2L452.813 232.699L452.813 232.699L452.847 232.2ZM452.369 232.168L452.336 232.667L452.336 232.667L452.369 232.168ZM458.59 232.218L458.605 232.718L458.59 232.218ZM466.912 233.14L466.912 233.64L467.144 232.697L466.912 233.14ZM441.549 237.836L441.207 238.201L441.43 238.41L441.717 238.307L441.549 237.836ZM456.604 242.533L456.44 242.061L456.124 242.17L456.105 242.504L456.604 242.533ZM463.179 259.911L463.225 259.413L463.179 259.911ZM468.815 238.306L469.189 237.974L468.967 237.724L468.652 237.834L468.815 238.306ZM472.573 242.533L472.199 242.865L472.348 243.033L472.573 243.033L472.573 242.533ZM502.632 242.533L503.132 242.533L503.132 242.033L502.632 242.033L502.632 242.533ZM502.632 249.578L503.055 249.844L503.132 249.722L503.132 249.578L502.632 249.578ZM477.739 273.532L477.628 274.019L477.683 274.032L477.739 274.032L477.739 273.532ZM458.905 272.755L459.17 273.179L458.905 272.755ZM461.805 263.808L462.144 264.175L461.805 263.808ZM630.384 295.136L629.906 295.283L630.014 295.636L630.384 295.636L630.384 295.136ZM640.716 278.228L641.036 277.844L640.707 277.569L640.385 277.854L640.716 278.228ZM640.716 295.136L641.216 295.136L641.216 294.636L640.716 294.636L640.716 295.136ZM640.716 300.772L640.216 300.772L640.216 301.272L640.716 301.272L640.716 300.772ZM662.365 291.805L662.718 292.159L662.365 291.805ZM668.897 285.273L669.25 285.627L670.104 284.773L668.897 284.773L668.897 285.273ZM649.17 285.273L648.85 285.657L648.989 285.773L649.17 285.773L649.17 285.273ZM412.482 249.994C411.55 241.458 412.39 219.271 423.228 199.09L422.347 198.617C411.392 219.016 410.54 241.417 411.488 250.102L412.482 249.994ZM430.308 259.127C432.078 253.699 432.549 249.727 432.026 246.982C431.763 245.602 431.244 244.512 430.494 243.711C429.741 242.908 428.783 242.426 427.695 242.218C425.543 241.807 422.871 242.461 420.105 243.793C417.323 245.131 414.377 247.187 411.647 249.679L412.322 250.417C414.994 247.978 417.86 245.982 420.538 244.694C423.231 243.398 425.667 242.849 427.507 243.2C428.415 243.374 429.174 243.765 429.765 244.395C430.357 245.028 430.808 245.93 431.044 247.169C431.519 249.665 431.109 253.442 429.357 258.817L430.308 259.127ZM448.07 271.496C449.558 269.635 450.131 267.535 449.879 265.515C449.627 263.498 448.558 261.599 446.831 260.119C443.373 257.155 437.303 255.875 429.67 258.499L429.995 259.445C437.391 256.902 443.063 258.206 446.18 260.878C447.741 262.216 448.669 263.897 448.886 265.639C449.103 267.375 448.619 269.209 447.289 270.871L448.07 271.496ZM441.672 278.08C443.874 276.015 446.199 273.835 448.07 271.496L447.289 270.871C445.471 273.144 443.2 275.275 440.988 277.35L441.672 278.08ZM434.077 289.858C433.652 288.015 434.353 286.168 435.806 284.194C437.26 282.22 439.394 280.216 441.672 278.08L440.988 277.35C438.73 279.467 436.52 281.538 435.001 283.601C433.481 285.665 432.58 287.818 433.102 290.083L434.077 289.858ZM444.716 284.732C444.365 284.392 443.968 283.997 443.442 283.791C442.884 283.571 442.25 283.585 441.45 283.868C440.662 284.147 439.675 284.699 438.368 285.608C437.057 286.521 435.4 287.811 433.27 289.586L433.91 290.354C436.031 288.587 437.663 287.318 438.94 286.429C440.222 285.536 441.122 285.044 441.783 284.811C442.43 284.582 442.806 284.615 443.077 284.722C443.382 284.841 443.636 285.078 444.02 285.45L444.716 284.732ZM450.427 286.188C448.528 286.459 447.327 286.292 446.506 285.98C445.688 285.669 445.196 285.197 444.716 284.732L444.02 285.45C444.506 285.921 445.124 286.525 446.151 286.915C447.175 287.304 448.557 287.465 450.569 287.178L450.427 286.188ZM466.118 286.197C464.164 285.709 458.367 285.053 450.427 286.188L450.569 287.178C458.41 286.057 464.073 286.717 465.876 287.168L466.118 286.197ZM447.691 297.046C451.242 296.967 456.448 296.376 460.503 294.841C462.527 294.075 464.319 293.053 465.46 291.693C466.625 290.305 467.09 288.585 466.476 286.539L465.518 286.826C466.032 288.537 465.651 289.91 464.694 291.051C463.712 292.22 462.105 293.165 460.149 293.906C456.243 295.385 451.163 295.968 447.669 296.046L447.691 297.046ZM494.693 300.038C494.47 300.395 493.976 300.814 493.157 301.239C492.349 301.657 491.275 302.057 489.956 302.403C487.319 303.094 483.752 303.561 479.5 303.561C470.999 303.561 459.8 301.697 447.893 296.093L447.467 296.998C459.513 302.667 470.859 304.561 479.5 304.561C483.82 304.561 487.474 304.087 490.209 303.37C491.576 303.011 492.725 302.589 493.617 302.127C494.496 301.671 495.177 301.15 495.541 300.568L494.693 300.038ZM517.216 278.939C515.749 281.798 512.862 286.292 508.994 290.439C505.121 294.592 500.305 298.353 494.984 299.821L495.25 300.785C500.825 299.247 505.794 295.337 509.725 291.121C513.662 286.901 516.599 282.33 518.106 279.396L517.216 278.939ZM507.26 311.404C510.897 306.501 518.161 293.216 518.161 279.168L517.161 279.168C517.161 292.924 510.022 306.003 506.457 310.808L507.26 311.404ZM544.123 289.578C539.672 293.091 532.456 298.363 525.279 302.753C521.69 304.949 518.121 306.918 514.918 308.337C511.7 309.762 508.909 310.606 506.859 310.606L506.859 311.606C509.129 311.606 512.08 310.688 515.323 309.251C518.581 307.808 522.192 305.814 525.801 303.606C533.02 299.19 540.269 293.894 544.743 290.363L544.123 289.578ZM544.933 300.303L544.933 289.97L543.933 289.97L543.933 300.303L544.933 300.303ZM532.65 324.939C531.305 322.697 530.255 318.778 531.55 314.37C532.842 309.975 536.487 305.021 544.664 300.746L544.201 299.86C535.846 304.227 531.977 309.371 530.591 314.088C529.209 318.792 530.319 322.998 531.792 325.453L532.65 324.939ZM544.269 313.451C542.197 314.168 539.094 315.6 536.498 317.577C533.923 319.537 531.721 322.133 531.721 325.196L532.721 325.196C532.721 322.623 534.59 320.287 537.103 318.372C539.595 316.475 542.598 315.088 544.596 314.396L544.269 313.451ZM548.074 316.858L544.786 313.57L544.079 314.277L547.367 317.565L548.074 316.858ZM583.856 279.197C583.964 281.036 583.035 283.685 581.172 286.839C579.324 289.971 576.603 293.524 573.245 297.145C566.526 304.389 557.297 311.864 547.497 316.764L547.944 317.659C557.87 312.696 567.193 305.141 573.978 297.825C577.371 294.167 580.139 290.557 582.034 287.348C583.914 284.162 584.981 281.292 584.854 279.138L583.856 279.197ZM600.794 258.472C600.108 258.472 599.33 258.692 598.516 259.056C597.695 259.422 596.806 259.948 595.889 260.596C594.055 261.892 592.074 263.695 590.262 265.744C588.45 267.794 586.795 270.104 585.619 272.417C584.447 274.723 583.731 277.076 583.856 279.197L584.854 279.138C584.744 277.267 585.378 275.099 586.511 272.87C587.639 270.649 589.242 268.408 591.011 266.407C592.781 264.405 594.705 262.657 596.466 261.413C597.347 260.791 598.179 260.301 598.923 259.969C599.674 259.633 600.305 259.472 600.794 259.472L600.794 258.472ZM609.745 292.733C609.117 287.088 607.941 278.616 606.449 271.55C605.704 268.02 604.876 264.819 603.991 262.493C603.55 261.333 603.084 260.362 602.591 259.672C602.116 259.008 601.521 258.472 600.794 258.472L600.794 259.472C601.005 259.472 601.34 259.641 601.777 260.253C602.197 260.84 602.627 261.719 603.056 262.848C603.913 265.101 604.729 268.241 605.471 271.756C606.954 278.78 608.126 287.217 608.751 292.844L609.745 292.733ZM619.182 278.866L608.849 292.486L609.646 293.091L619.979 279.47L619.182 278.866ZM628.08 304.502C625.794 304.294 623.788 302.423 622.343 298.26C620.902 294.112 620.081 287.836 620.081 279.168L619.081 279.168C619.081 287.877 619.903 294.283 621.398 298.588C622.888 302.88 625.109 305.236 627.989 305.498L628.08 304.502ZM670.769 304.5C664.507 304.578 654.857 304.672 646.256 304.699C637.638 304.727 630.116 304.687 628.08 304.502L627.989 305.498C630.086 305.688 637.673 305.727 646.26 305.699C654.864 305.672 664.518 305.578 670.781 305.5L670.769 304.5ZM660.697 311.536L671.029 305.43L670.521 304.569L660.188 310.675L660.697 311.536ZM710.317 278.844C705.404 284.614 697.001 293.134 687.774 299.924C683.161 303.319 678.356 306.272 673.688 308.235C669.016 310.2 664.52 311.157 660.51 310.61L660.375 311.601C664.63 312.181 669.316 311.158 674.076 309.156C678.84 307.153 683.716 304.152 688.367 300.729C697.669 293.883 706.128 285.307 711.078 279.492L710.317 278.844ZM619.316 259.396C628.764 265.301 645.37 272.245 662.723 276.775C680.057 281.299 698.255 283.446 710.842 279.646L710.553 278.689C698.247 282.404 680.28 280.324 662.976 275.807C645.69 271.295 629.184 264.385 619.846 258.548L619.316 259.396ZM603.978 256.173L619.477 259.461L619.684 258.483L604.185 255.195L603.978 256.173ZM575.859 253.834L604.04 256.182L604.123 255.186L575.942 252.837L575.859 253.834ZM570.53 253.917C572.26 253.877 574.055 253.836 575.901 253.836L575.901 252.836C574.042 252.836 572.235 252.878 570.506 252.918L570.53 253.917ZM570.518 253.917L570.518 253.917L570.518 252.917L570.518 252.917L570.518 253.917ZM570.518 253.917L570.518 253.917L570.518 252.917L570.518 252.917L570.518 253.917ZM550.508 242.064C550.508 245.069 551.033 247.366 552.042 249.106C553.056 250.855 554.535 251.997 556.357 252.729C558.166 253.457 560.316 253.782 562.694 253.913C565.074 254.044 567.721 253.982 570.529 253.917L570.506 252.918C567.688 252.983 565.083 253.043 562.75 252.914C560.415 252.786 558.391 252.469 556.73 251.801C555.08 251.138 553.792 250.131 552.907 248.604C552.015 247.067 551.508 244.961 551.508 242.064L550.508 242.064ZM517.346 253.724C520.898 256.604 524.49 257.882 527.969 258.018C531.441 258.155 534.764 257.154 537.788 255.538C543.823 252.313 548.741 246.602 551.431 242.33L550.585 241.797C547.952 245.979 543.148 251.54 537.316 254.656C534.406 256.211 531.26 257.147 528.008 257.019C524.763 256.892 521.375 255.703 517.976 252.947L517.346 253.724ZM517.182 237.225C516.548 239.362 515.788 242.734 515.566 245.915C515.454 247.505 515.476 249.069 515.725 250.416C515.973 251.754 516.458 252.947 517.332 253.712L517.991 252.959C517.362 252.409 516.939 251.477 516.709 250.234C516.481 249.002 516.455 247.53 516.563 245.985C516.779 242.896 517.522 239.598 518.141 237.509L517.182 237.225ZM472.389 228.908C479.936 231.895 499.54 237.867 517.661 237.867L517.661 236.867C499.712 236.867 480.239 230.94 472.757 227.978L472.389 228.908ZM460.741 217.663C461.478 217.797 463.019 218.485 465.052 220.206C467.071 221.915 469.544 224.615 472.151 228.711L472.994 228.175C470.341 224.005 467.804 221.225 465.698 219.443C463.606 217.672 461.905 216.858 460.92 216.679L460.741 217.663ZM447.68 217.671L460.831 217.671L460.831 216.671L447.68 216.671L447.68 217.671ZM435.447 202.706C435.925 205.176 437.094 208.879 439.062 211.979C441.023 215.068 443.856 217.671 447.68 217.671L447.68 216.671C444.365 216.671 441.796 214.42 439.906 211.443C438.023 208.476 436.89 204.899 436.429 202.516L435.447 202.706ZM422.65 199.334L435.801 203.092L436.075 202.13L422.924 198.373L422.65 199.334ZM452.88 231.701L452.403 231.669L452.336 232.667L452.813 232.699L452.88 231.701ZM458.575 231.718C456.759 231.774 454.849 231.832 452.88 231.701L452.813 232.699C454.838 232.834 456.796 232.773 458.605 232.718L458.575 231.718ZM467.144 232.697C465.996 232.096 464.665 231.832 463.23 231.725C461.797 231.619 460.219 231.668 458.575 231.718L458.605 232.718C460.263 232.667 461.785 232.621 463.156 232.722C464.526 232.824 465.704 233.071 466.68 233.582L467.144 232.697ZM441.717 238.307C446.075 236.751 457.223 233.64 466.912 233.64L466.912 232.64C457.061 232.64 445.791 235.79 441.381 237.365L441.717 238.307ZM452.403 231.669C450.635 231.55 448.601 231.414 446.665 231.384C444.737 231.355 442.868 231.431 441.438 231.753C440.725 231.913 440.083 232.142 439.594 232.478C439.094 232.82 438.73 233.291 438.648 233.913C438.569 234.515 438.769 235.166 439.186 235.854C439.605 236.546 440.271 237.324 441.207 238.201L441.891 237.471C440.99 236.627 440.395 235.92 440.042 235.336C439.686 234.749 439.602 234.332 439.64 234.043C439.675 233.772 439.828 233.529 440.159 233.303C440.5 233.069 441.002 232.876 441.658 232.728C442.966 232.434 444.737 232.355 446.65 232.384C448.555 232.413 450.563 232.548 452.336 232.667L452.403 231.669ZM456.105 242.504C455.868 246.536 456.221 250.829 457.302 254.193C458.371 257.518 460.229 260.145 463.134 260.409L463.225 259.413C460.964 259.208 459.299 257.138 458.254 253.887C457.222 250.676 456.871 246.514 457.103 242.562L456.105 242.504ZM468.652 237.834L456.44 242.061L456.767 243.006L468.979 238.779L468.652 237.834ZM472.946 242.201L469.189 237.974L468.442 238.638L472.199 242.865L472.946 242.201ZM502.632 242.033L472.573 242.033L472.573 243.033L502.632 243.033L502.632 242.033ZM503.132 249.578L503.132 242.533L502.132 242.533L502.132 249.578L503.132 249.578ZM477.739 274.032C479.867 274.032 482.2 272.962 484.54 271.321C486.893 269.671 489.315 267.397 491.633 264.888C496.27 259.87 500.539 253.855 503.055 249.844L502.208 249.312C499.715 253.286 495.483 259.248 490.899 264.21C488.606 266.691 486.238 268.909 483.966 270.502C481.682 272.105 479.557 273.032 477.739 273.032L477.739 274.032ZM463.179 271.683C464.821 271.683 467.559 272.067 470.349 272.556C473.127 273.044 475.913 273.629 477.628 274.019L477.85 273.044C476.121 272.651 473.318 272.062 470.522 271.571C467.739 271.083 464.919 270.683 463.179 270.683L463.179 271.683ZM459.17 273.179C460.258 272.498 461.579 271.683 463.179 271.683L463.179 270.683C461.253 270.683 459.702 271.666 458.639 272.331L459.17 273.179ZM456.104 271.183C456.104 271.948 456.153 272.535 456.27 272.963C456.383 273.382 456.599 273.775 457.027 273.924C457.418 274.059 457.819 273.923 458.121 273.784C458.442 273.635 458.804 273.408 459.17 273.179L458.639 272.331C458.254 272.572 457.953 272.76 457.702 272.876C457.432 273 457.35 272.977 457.354 272.979C457.395 272.993 457.317 273.005 457.235 272.701C457.154 272.404 457.104 271.925 457.104 271.183L456.104 271.183ZM461.466 263.44C460.329 264.49 459 265.716 457.958 267.008C456.926 268.288 456.104 269.718 456.104 271.183L457.104 271.183C457.104 270.074 457.74 268.872 458.736 267.635C459.724 266.411 460.996 265.236 462.144 264.175L461.466 263.44ZM463.134 260.409C463.435 260.436 463.649 260.481 463.795 260.531C463.944 260.583 463.989 260.629 463.995 260.638C463.997 260.64 463.995 260.637 463.993 260.631C463.991 260.626 463.994 260.63 463.992 260.646C463.989 260.686 463.968 260.77 463.891 260.907C463.736 261.184 463.435 261.542 462.999 261.985C462.57 262.421 462.044 262.907 461.466 263.44L462.144 264.175C462.717 263.646 463.263 263.143 463.712 262.686C464.155 262.236 464.539 261.797 464.764 261.395C464.979 261.01 465.147 260.465 464.769 260.003C464.603 259.801 464.37 259.672 464.123 259.587C463.873 259.5 463.572 259.445 463.225 259.413L463.134 260.409ZM630.861 294.989C630.532 293.92 630.697 292.602 631.259 291.117C631.818 289.64 632.749 288.056 633.867 286.491C636.101 283.364 639.032 280.386 641.048 278.603L640.385 277.854C638.33 279.671 635.343 282.705 633.053 285.91C631.908 287.512 630.925 289.175 630.324 290.763C629.726 292.344 629.483 293.91 629.906 295.283L630.861 294.989ZM640.716 294.636L630.384 294.636L630.384 295.636L640.716 295.636L640.716 294.636ZM641.216 300.772L641.216 295.136L640.216 295.136L640.216 300.772L641.216 300.772ZM662.011 291.452C656.363 297.1 648.703 300.272 640.716 300.272L640.716 301.272C648.969 301.272 656.883 297.994 662.718 292.159L662.011 291.452ZM668.543 284.92L662.011 291.452L662.718 292.159L669.25 285.627L668.543 284.92ZM649.17 285.773L668.897 285.773L668.897 284.773L649.17 284.773L649.17 285.773ZM640.396 278.612L648.85 285.657L649.491 284.889L641.036 277.844L640.396 278.612Z"/>
<path fill="#1C2A3A" d="M800.405 193.689C757.664 213.415 736.529 199.325 736.529 168.796C732.772 171.301 726.008 179.786 729.014 193.689C717.116 197.603 693.319 211.067 693.319 233.611C698.016 228.288 708.724 216.984 713.985 214.354L712.106 230.793C716.02 226.409 725.914 217.642 734.181 217.642C732.458 221.086 729.672 229.478 732.302 235.49C736.216 231.576 744.983 223.748 748.74 223.748C749.523 226.409 752.31 231.544 757.195 230.793C763.3 229.854 791.481 217.642 794.769 209.188C794.299 207.309 794.769 205.994 800.405 215.763C807.45 227.975 808.859 229.384 819.661 223.748L821.54 229.384C824.671 231.263 832.906 235.114 840.797 235.49C850.66 235.959 883.067 233.141 883.067 201.203L860.523 217.642C843.615 216.703 808.953 211.254 805.571 196.976L800.405 193.689Z"/>
<path stroke="#26374B" d="M695.667 6.75781L681.577 114.313"/>
<path stroke="#26374B" d="M695.667 7.22656L617.701 115.721"/>
<path stroke="#26374B" d="M695.198 9.10644C666.266 58.3283 647.761 91.6125 642.125 102.102"/>
<path stroke="#26374B" d="M576.84 160.341C569.701 175.746 525.646 201.829 504.511 212.944"/>
<path stroke="#26374B" d="M605.49 159.87C587.643 185.233 563.063 212.004 546.311 226.094"/>
<path stroke="#26374B" d="M647.761 127.933C625.593 171.518 594.062 230.635 581.068 254.745"/>
<path stroke="#26374B" d="M660.442 127.933C646.164 174.149 656.998 237.993 664.2 264.138"/>
<path stroke="#26374B" d="M660.442 129.343C655.276 170.204 665.609 258.503 685.335 270.245"/>
<path stroke="#26374B" d="M546.781 315.333L460.361 551.579"/>
<path stroke="#26374B" d="M574.022 297.016L408.227 622.03"/>
<path stroke="#26374B" d="M610.187 291.849C601.733 330.362 601.263 414.903 610.187 421.479"/>
<path stroke="#26374B" d="M613.944 280.578C613.944 356.665 651.988 395.179 671.244 395.179"/>
<path stroke="#26374B" d="M783.027 217.641L716.803 367.936"/>
<path stroke="#26374B" d="M777.86 221.398C751.246 268.679 698.016 365.588 698.016 374.982"/>
<path stroke="#26374B" d="M826.707 118.54C825.579 162.877 837.822 191.496 844.085 200.263"/>
<path stroke="#26374B" d="M827.177 119.479C829.431 180.348 863.655 201.515 880.25 204.49"/>
<path stroke="#26374B" d="M791.482 197.915L826.238 119.949"/>
</g>
<g filter="url(#filter2_f_0_1)">
<path fill="#104B66" d="M1090.67 482.084C1101.93 488.343 1101.38 541.962 1145 541.962L1120.22 700.686H271.979L170 631.753C198.4 559.768 306.858 613.765 340.083 579.979C347.56 572.376 394.917 560.971 413.61 560.02C432.304 559.07 455.982 532.457 480.906 528.656C505.831 524.854 541.971 547.664 548.203 556.218C554.434 564.772 580.604 579.979 599.298 574.277C617.991 568.574 711.458 572.376 720.182 574.277C728.905 576.178 758.815 595.187 788.724 607.542C818.633 619.898 852.281 599.939 852.281 587.583C852.281 575.227 848.543 575.227 852.281 541.962C856.02 508.696 877.206 489.688 892.161 482.084C907.115 474.48 929.012 505.071 957.605 482.084C986.197 459.098 1017.15 441.215 1090.67 482.084Z"/>
</g>
<path fill="#071D28" d="M1159.31 518.372L1167.48 486.125L1283.9 448.901L1283.9 739.901L950.94 739.901L759.396 739.901L791.34 685.424L887.827 645.377L903.403 652.931L931.866 659.677L957.552 696.816L950.94 679.385L982.388 664.006L997.393 668.963L1019.45 666.546L1054.91 685.424L1073.92 685.424L1098.27 664.006L1089.18 632.245L1098.27 623.509L1089.88 593.654L1089.18 571.5L1093.08 560.177L1136.28 548.467L1139.99 527.82L1159.31 518.372Z"/>
<path fill="#051B2A" d="M49.11 458.416C37.8863 464.68 40.477 458.416 -3 458.416V739H823C794.692 666.963 797.734 652.016 764.617 618.206C757.163 610.597 709.96 599.184 691.327 598.233C672.694 597.281 649.092 570.65 624.248 566.845C599.404 563.041 563.38 585.868 557.169 594.428C550.958 602.988 524.872 618.206 506.239 612.499C487.606 606.793 394.441 610.597 385.746 612.499C377.05 614.402 347.238 633.424 317.425 645.789C287.612 658.154 254.073 638.18 254.073 625.815C254.073 613.451 257.799 613.451 254.073 580.161C250.346 546.871 229.229 527.849 214.322 520.24C199.416 512.631 210.25 481.419 181.75 458.416C153.25 435.413 122.4 417.517 49.11 458.416Z"/>
<path fill="#004F53" d="M1054.54 726.555L1175.15 496.698C1171.35 490.944 1157.73 478.835 1116.82 456.173C1068.1 429.188 1056.52 423.076 1050.49 427.65L893.168 733.129C899.822 741.683 921.794 749.85 969.582 743.387C1017.37 736.924 1048.63 732.105 1054.54 726.555Z"/>
<path fill="#026A70" d="M1040.12 718.701L1147.72 508.812C1148.44 507.407 1150.45 504.356 1153.11 491.234C1155.48 479.557 1144.45 494.011 1139.26 504.126L1035.99 705.587C1034.69 708.115 1035.99 705.586 1031.23 714.859C1029.07 719.074 1039.37 723.697 1040.12 718.701Z"/>
<path fill="#DAD0C6" d="M1040.12 718.701L1147.72 508.812C1148.44 507.407 1150.45 504.356 1153.11 491.234C1155.48 479.557 1144.45 494.011 1139.26 504.126L1035.99 705.587C1034.69 708.115 1035.99 705.586 1031.23 714.859C1029.07 719.074 1039.37 723.697 1040.12 718.701Z"/>
<path fill="#026A70" d="M1004.76 729.15L1112.35 519.26C1113.07 517.855 1115.09 514.804 1117.75 501.682C1120.11 490.005 1109.08 504.459 1103.9 514.575L1000.62 716.035C999.325 718.564 1000.62 716.034 995.868 725.307C993.708 729.522 1004.01 734.145 1004.76 729.15Z"/>
<path fill="#026A70" d="M920.904 729.264L1028.5 519.374C1029.22 517.969 1031.23 514.918 1033.89 501.797C1036.26 490.12 1025.23 504.574 1020.04 514.689L916.767 716.149C915.47 718.678 916.766 716.149 912.013 725.421C909.853 729.636 920.154 734.259 920.904 729.264Z"/>
<path fill="#026A70" d="M944.925 730.387L1052.52 520.497C1053.24 519.092 1055.25 516.041 1057.91 502.92C1060.28 491.243 1049.25 505.697 1044.06 515.812L940.788 717.272C939.491 719.801 940.787 717.272 936.034 726.544C933.874 730.759 944.175 735.383 944.925 730.387Z"/>
<path fill="#026A70" d="M973.312 729.193L1080.91 519.303C1081.63 517.898 1083.64 514.847 1086.3 501.725C1088.66 490.048 1077.63 504.502 1072.45 514.617L969.174 716.078C967.878 718.607 969.173 716.077 964.421 725.35C962.261 729.565 972.561 734.188 973.312 729.193Z"/>
<path fill-opacity="0.61" fill="#DAD0C6" d="M1052.3 600.676C1019.25 586.202 996.309 567.548 983.525 562.581L978.461 572.459L1103.12 641.507L1111.56 625.043L1120.84 606.932L1092.1 580.446C1086.84 589.511 1069.45 608.186 1052.3 600.676Z"/>
<path fill="#00393C" d="M1052.3 600.676C1019.25 586.202 996.309 567.548 983.525 562.581L978.461 572.459L1103.12 641.507L1111.56 625.043L1120.84 606.932L1092.1 580.446C1086.84 589.511 1069.45 608.186 1052.3 600.676Z"/>
<path fill="#00393C" d="M1014.26 628.228C981.208 613.754 973.521 612.003 960.737 607.036L955.673 616.914L1080.33 685.962L1088.77 669.498L1098.05 651.387L1069.32 624.901C1064.06 633.966 1031.41 635.738 1014.26 628.228Z"/>
<path fill="#026A70" d="M1103.78 654.561C1107.16 647.975 1103.65 636.873 1101.35 634.188L983.858 569.108C982.425 568.314 978.107 570.996 969.942 578.311C961.777 585.626 959.506 595.079 963.523 598.009C968.921 594.657 982.719 596.638 992.356 599.183C1006.94 603.033 1022.45 615.849 1041.07 626.167C1055.97 634.421 1087.77 649.917 1088.18 667.057C1090.93 666.469 1100.41 661.147 1103.78 654.561Z"/>
<path fill="#026A70" d="M1125.73 611.753C1129.1 605.168 1125.6 594.065 1123.29 591.38L1005.8 526.3C1004.37 525.507 1000.05 528.188 991.886 535.503C983.72 542.819 981.45 552.272 985.467 555.201C990.865 551.849 1004.66 553.831 1014.3 556.375C1028.88 560.225 1044.39 573.042 1063.02 583.359C1077.92 591.613 1109.71 607.11 1110.12 624.249C1112.88 623.661 1122.35 618.339 1125.73 611.753Z"/>
<path fill="#026A70" d="M1081.84 697.369C1085.21 690.783 1081.71 679.68 1079.41 676.995L961.914 611.916C960.481 611.122 956.163 613.804 947.998 621.119C939.833 628.434 937.563 637.887 941.58 640.817C946.977 637.465 960.776 639.446 970.413 641.99C984.996 645.84 1000.5 658.657 1019.13 668.974C1034.03 677.228 1065.82 692.725 1066.23 709.865C1068.99 709.276 1078.46 703.954 1081.84 697.369Z"/>
<rect fill="#004F53" transform="matrix(-0.874767 -0.484544 -0.456182 0.889886 1168.1 514.734)" height="81.4065" width="144.139"/>
<path fill="#00393C" d="M1137.46 578.093L1167 520.468L1043.78 441.444L1028.59 471.08C1059.05 485.835 1100.41 506.833 1114.48 518.856C1128.55 530.879 1124.18 557.348 1115.97 566.188L1137.46 578.093Z"/>
<path fill="#026A70" d="M1083.34 539.659C1105.12 551.722 1133.21 567.985 1141.83 576.285C1146.72 581.106 1147.17 588.12 1144.27 596.658C1141.36 605.196 1134.17 607.978 1130.35 605.861C1115.72 594.936 1082.43 570.863 1066.39 561.974C1050.34 553.085 1023.79 539.791 1010.25 535.108C1008.73 535.676 981.79 528.712 990.883 515.925C1004.9 496.209 1003.09 501.482 1014.31 505.65C1037.49 514.262 1061.57 527.595 1083.34 539.659Z"/>
<path fill="#015358" d="M1106.1 567.508C1127.87 579.572 1123.44 558.795 1132.06 567.095C1149.26 576.618 1147.84 586.825 1144.93 595.363C1142.03 603.901 1133.51 609.725 1129.69 607.609C1115.05 596.684 1081.59 572.961 1065.54 564.072C1049.5 555.183 1022.77 541.788 1009.23 537.105C1007.71 537.674 984.726 527.937 989.86 517.922C997.456 503.104 1006.13 518.479 1015.98 523.934C1037.66 535.944 1084.32 555.445 1106.1 567.508Z"/>
<path fill="#026A70" d="M1120.48 467.217C1142.26 479.281 1170.35 495.544 1178.97 503.844C1183.86 508.665 1184.31 515.679 1181.41 524.217C1178.5 532.755 1171.31 535.536 1167.49 533.42C1152.85 522.495 1119.57 498.422 1103.52 489.533C1087.48 480.644 1060.93 467.35 1047.39 462.666C1045.87 463.235 1018.93 456.271 1028.02 443.483C1042.04 423.768 1040.23 429.04 1051.45 433.208C1074.63 441.82 1098.7 455.154 1120.48 467.217Z"/>
<path fill="#015358" d="M1142.91 498.939C1165.51 511.458 1160.55 490.602 1169.57 499.079C1187.41 508.962 1186.15 519.131 1183.34 527.6C1180.53 536.07 1173.2 538.696 1169.23 536.5C1153.99 525.271 1119.34 500.506 1102.69 491.282C1086.03 482.058 1058.51 468.207 1044.52 463.239C1042.97 463.775 1017.51 456.81 1022.58 446.912C1030.09 432.267 1039.3 447.816 1049.52 453.476C1072.02 465.939 1120.31 486.42 1142.91 498.939Z"/>
<path fill="#006368" d="M1204.67 455.807L1079.07 388.639C1070.88 384.264 1063 376.558 1048.33 380.597C1025.03 387.014 1016.2 400.29 1014.71 429.75C1014.3 437.921 1049.19 471.67 1063.18 438.886L1163.42 494.585C1145.06 520.433 1185.89 533.879 1195.59 532.769C1203.9 531.818 1217.87 517.409 1223.64 505.812C1228.59 495.872 1230.66 469.703 1204.67 455.807Z"/>
<path fill="#00393C" d="M1179.41 499.856C1184.07 494.237 1192.51 495.837 1192.81 498.826C1193.55 495.004 1189.2 486.728 1183.88 487.538C1177.9 488.45 1172.54 490.089 1169.71 500.827C1167.77 508.207 1178.47 514.84 1182.1 516.143C1181.12 512.076 1174.6 505.648 1179.41 499.856Z"/>
<path fill="#00393C" d="M1182.1 516.144C1204.61 511.703 1206.37 502.531 1205.63 495.357C1205 489.207 1199.09 479.397 1191.22 476.808C1197.05 477.404 1212.23 484.638 1211.62 494.445C1211 504.253 1210.67 521.404 1182.1 516.144Z"/>
<path fill="#00393C" d="M1046.29 429.556C1048.93 422.63 1043.77 415.427 1041.1 416.489C1044 414.072 1052.97 414.42 1054.69 419.78C1056.62 425.82 1057.66 431.596 1049.85 439.109C1044.48 444.271 1034.03 437.209 1031.29 434.391C1035.17 433.475 1043.56 436.694 1046.29 429.556Z"/>
<path fill="#00393C" d="M1031.28 434.393C1024.86 411.223 1031.83 405.423 1038.24 402.873C1043.73 400.687 1054.7 401.801 1060.45 408.029C1057.31 402.822 1044.33 391.825 1036.3 396.834C1028.28 401.843 1013.91 409.908 1031.28 434.393Z"/>
<path fill-opacity="0.658824" fill="#00393C" d="M1141.59 440.857C1161.07 451.651 1178.11 465.314 1190.64 474.368L1137.62 445.003L1076.01 410.876C1085.45 413.991 1122.1 430.063 1141.59 440.857Z"/>
<path fill="#015358" d="M1179.25 478.63C1183.57 475.948 1191.31 475.444 1193.5 475.953L1157.68 456.112C1156.75 459.12 1151.47 465.355 1132.05 463.052C1112.62 460.749 1092.26 447.356 1063.94 438.01L1163.39 495.212C1166.88 490.802 1174.93 481.311 1179.25 478.63Z"/>
<path fill="#00393C" d="M1035.66 674.681C1051.22 685.294 1063.28 700.265 1065.83 705.848C1062.56 714.521 1056.9 725.856 1049.92 729.564C1042.93 733.272 1010.47 738.478 995.769 738.883C998.446 724.047 999.384 690.333 981.721 674.175C964.059 658.017 941.738 655.158 932.785 655.748L942.376 639.553C967.482 633.162 1020.1 664.068 1035.66 674.681Z"/>
<path stroke-width="3" stroke="#00393C" d="M1018.64 491.136L1049.35 497.574M1049.35 497.574L1063.56 491.823M1049.35 497.574L1062.37 522.977"/>
<defs>
<filter color-interpolation-filters="sRGB" filterUnits="userSpaceOnUse" height="456.185" width="328.506" y="209" x="61" id="filter0_f_0_1">
<feFlood result="BackgroundImageFix" flood-opacity="0"/>
<feBlend result="shape" in2="BackgroundImageFix" in="SourceGraphic" mode="normal"/>
<feGaussianBlur result="effect1_foregroundBlur_0_1" stdDeviation="1.5"/>
</filter>
<filter color-interpolation-filters="sRGB" filterUnits="userSpaceOnUse" height="634.527" width="660.11" y="0" x="400.146" id="filter1_f_0_1">
<feFlood result="BackgroundImageFix" flood-opacity="0"/>
<feBlend result="shape" in2="BackgroundImageFix" in="SourceGraphic" mode="normal"/>
<feGaussianBlur result="effect1_foregroundBlur_0_1" stdDeviation="1.5"/>
</filter>
<filter color-interpolation-filters="sRGB" filterUnits="userSpaceOnUse" height="247" width="979" y="455.686" x="168" id="filter2_f_0_1">
<feFlood result="BackgroundImageFix" flood-opacity="0"/>
<feBlend result="shape" in2="BackgroundImageFix" in="SourceGraphic" mode="normal"/>
<feGaussianBlur result="effect1_foregroundBlur_0_1" stdDeviation="1"/>
</filter>
</defs>
</svg>