<svg width="661" height="635" viewBox="0 0 661 635" fill="none" xmlns="http://www.w3.org/2000/svg">
<g filter="url(#filter0_f_395_735)">
<path fill-rule="evenodd" clip-rule="evenodd" d="M4 630.955C37.8165 564.825 67.5626 534.828 78.2085 528.096L69.2847 549.701C142.554 463.657 216.919 410.208 244.943 394.239L244.943 407.39C266.391 391.108 318.212 356.477 353.907 348.211C389.602 339.945 434.535 322.223 452.539 314.395L452.539 336.469L488.704 314.395L617.864 157.993L656.847 123.237L565.73 252.398C539.053 252.398 546.787 265.862 553.988 272.594L517.823 324.727L517.823 348.211L488.704 375.452L488.704 394.239L517.823 375.452L503.264 394.239L517.823 394.239L488.704 414.905L452.539 478.781L467.099 494.749L353.907 528.096L231.792 612.168L4 630.955ZM77.2694 562.852C124.988 500.479 200.167 445.12 231.792 425.238L231.792 435.101C261.1 415.562 275.002 415.061 278.29 417.253L221.929 460.933L187.643 477.371C161.341 486.013 107.485 543.909 83.8449 571.776C85.6011 567.588 86.8263 564.41 87.7999 561.885C90.2109 555.632 91.0786 553.382 94.6474 549.701L77.2694 562.852ZM403.223 428.055C389.603 428.525 296.137 437.918 242.125 498.976C265.452 478.623 329.296 437.918 398.057 437.918L403.223 428.055ZM379.27 409.738C386.785 378.551 418.409 361.988 433.282 357.604L447.842 351.028L433.282 372.633L414.965 380.148L422.01 389.072L389.133 405.041L407.92 383.436C398.526 383.436 384.906 400.97 379.27 409.738Z" fill="#1C2A3A"/>
<path d="M78.2085 528.096L78.6706 528.287L79.2715 526.833L77.9413 527.674L78.2085 528.096ZM4 630.955L3.55483 630.727L3.14585 631.527L4.0411 631.453L4 630.955ZM69.2847 549.701L68.8226 549.51L69.6654 550.025L69.2847 549.701ZM244.943 394.239L245.443 394.239L245.443 393.379L244.695 393.805L244.943 394.239ZM244.943 407.39L244.443 407.39L244.443 408.397L245.245 407.788L244.943 407.39ZM353.907 348.211L354.02 348.698L353.907 348.211ZM452.539 314.395L453.039 314.395L453.039 313.632L452.339 313.936L452.539 314.395ZM452.539 336.469L452.039 336.469L452.039 337.36L452.799 336.896L452.539 336.469ZM488.704 314.395L488.964 314.821L489.036 314.778L489.089 314.713L488.704 314.395ZM617.864 157.993L617.531 157.62L617.503 157.645L617.478 157.675L617.864 157.993ZM656.847 123.237L657.256 123.526L656.514 122.864L656.847 123.237ZM565.73 252.398L565.73 252.898L565.989 252.898L566.139 252.686L565.73 252.398ZM553.988 272.594L554.399 272.879L554.646 272.524L554.33 272.228L553.988 272.594ZM517.823 324.727L517.413 324.442L517.323 324.571L517.323 324.727L517.823 324.727ZM517.823 348.211L518.165 348.576L518.323 348.428L518.323 348.211L517.823 348.211ZM488.704 375.452L488.362 375.087L488.204 375.235L488.204 375.452L488.704 375.452ZM488.704 394.239L488.204 394.239L488.204 395.157L488.975 394.659L488.704 394.239ZM517.823 375.452L518.219 375.759L517.552 375.032L517.823 375.452ZM503.264 394.239L502.868 393.933L502.243 394.739L503.264 394.739L503.264 394.239ZM517.823 394.239L518.113 394.647L519.392 393.739L517.823 393.739L517.823 394.239ZM488.704 414.905L488.414 414.497L488.323 414.562L488.269 414.659L488.704 414.905ZM452.539 478.781L452.104 478.534L451.925 478.85L452.169 479.117L452.539 478.781ZM467.099 494.749L467.24 495.229L468.007 495.003L467.468 494.413L467.099 494.749ZM353.907 528.096L353.766 527.617L353.689 527.639L353.624 527.684L353.907 528.096ZM231.792 612.168L231.833 612.666L231.966 612.655L232.075 612.58L231.792 612.168ZM231.792 425.238L232.292 425.238L232.292 424.333L231.526 424.814L231.792 425.238ZM77.2694 562.852L76.8723 562.548L77.5712 563.251L77.2694 562.852ZM231.792 435.101L231.292 435.101L231.292 436.035L232.07 435.517L231.792 435.101ZM278.29 417.253L278.596 417.648L279.146 417.223L278.567 416.837L278.29 417.253ZM221.929 460.933L222.145 461.384L222.193 461.361L222.235 461.328L221.929 460.933ZM187.643 477.371L187.799 477.846L187.83 477.836L187.859 477.822L187.643 477.371ZM83.8449 571.776L83.3838 571.583L84.2262 572.099L83.8449 571.776ZM87.7999 561.885L87.3333 561.705L87.7999 561.885ZM94.6474 549.701L95.0063 550.049L94.3457 549.303L94.6474 549.701ZM242.125 498.976L241.75 498.645L242.454 499.353L242.125 498.976ZM403.223 428.055L403.666 428.287L404.065 427.526L403.206 427.556L403.223 428.055ZM398.057 437.918L398.057 438.418L398.359 438.418L398.5 438.15L398.057 437.918ZM433.282 357.604L433.424 358.084L433.457 358.074L433.488 358.06L433.282 357.604ZM379.27 409.738L378.784 409.621L379.69 410.008L379.27 409.738ZM447.842 351.028L448.257 351.308L449.24 349.848L447.636 350.573L447.842 351.028ZM433.282 372.633L433.472 373.096L433.612 373.039L433.697 372.913L433.282 372.633ZM414.965 380.148L414.775 379.686L414.162 379.937L414.573 380.458L414.965 380.148ZM422.01 389.072L422.229 389.522L422.788 389.25L422.403 388.762L422.01 389.072ZM389.133 405.041L388.756 404.713L389.351 405.491L389.133 405.041ZM407.92 383.436L408.297 383.764L409.017 382.936L407.92 382.936L407.92 383.436ZM77.9413 527.674C72.5463 531.085 62.4064 540.32 49.3994 556.943C36.3833 573.578 20.476 597.637 3.55483 630.727L4.44517 631.183C21.3406 598.143 37.2145 574.138 50.187 557.559C63.1687 540.969 73.2247 531.839 78.4757 528.519L77.9413 527.674ZM69.7468 549.892L78.6706 528.287L77.7464 527.905L68.8226 549.51L69.7468 549.892ZM244.695 393.805C216.618 409.804 142.209 463.291 68.904 549.377L69.6654 550.025C142.899 464.023 217.219 410.612 245.19 394.674L244.695 393.805ZM245.443 407.39L245.443 394.239L244.443 394.239L244.443 407.39L245.443 407.39ZM353.794 347.724C335.87 351.875 313.938 362.631 293.831 374.363C273.713 386.1 255.379 398.84 244.64 406.992L245.245 407.788C255.955 399.658 274.255 386.942 294.334 375.227C314.424 363.506 336.249 352.814 354.02 348.698L353.794 347.724ZM452.339 313.936C434.345 321.76 389.445 339.468 353.794 347.724L354.02 348.698C389.759 340.422 434.724 322.685 452.738 314.853L452.339 313.936ZM453.039 336.469L453.039 314.395L452.039 314.395L452.039 336.469L453.039 336.469ZM488.443 313.968L452.278 336.043L452.799 336.896L488.964 314.821L488.443 313.968ZM617.478 157.675L488.318 314.076L489.089 314.713L618.25 158.312L617.478 157.675ZM656.514 122.864L617.531 157.62L618.197 158.366L657.18 123.611L656.514 122.864ZM566.139 252.686L657.256 123.526L656.438 122.949L565.322 252.109L566.139 252.686ZM554.33 272.228C552.554 270.568 550.753 268.5 549.462 266.341C548.165 264.172 547.42 261.974 547.651 260.03C547.877 258.132 549.049 256.369 551.841 255.059C554.657 253.737 559.09 252.898 565.73 252.898L565.73 251.898C559.031 251.898 554.427 252.741 551.416 254.154C548.38 255.579 546.933 257.602 546.658 259.912C546.389 262.176 547.26 264.606 548.604 266.855C549.955 269.114 551.822 271.253 553.647 272.959L554.33 272.228ZM518.234 325.012L554.399 272.879L553.578 272.309L517.413 324.442L518.234 325.012ZM518.323 348.211L518.323 324.727L517.323 324.727L517.323 348.211L518.323 348.211ZM489.045 375.817L518.165 348.576L517.482 347.846L488.362 375.087L489.045 375.817ZM489.204 394.239L489.204 375.452L488.204 375.452L488.204 394.239L489.204 394.239ZM517.552 375.032L488.433 393.819L488.975 394.659L518.094 375.872L517.552 375.032ZM503.659 394.545L518.219 375.759L517.428 375.146L502.868 393.933L503.659 394.545ZM517.823 393.739L503.264 393.739L503.264 394.739L517.823 394.739L517.823 393.739ZM488.993 415.313L518.113 394.647L517.534 393.831L488.414 414.497L488.993 415.313ZM452.974 479.027L489.139 415.151L488.269 414.659L452.104 478.534L452.974 479.027ZM467.468 494.413L452.908 478.444L452.169 479.117L466.729 495.086L467.468 494.413ZM354.048 528.576L467.24 495.229L466.957 494.27L353.766 527.617L354.048 528.576ZM232.075 612.58L354.191 528.508L353.624 527.684L231.508 611.756L232.075 612.58ZM4.0411 631.453L231.833 612.666L231.751 611.67L3.95891 630.457L4.0411 631.453ZM231.526 424.814C199.877 444.713 124.642 500.109 76.8723 562.548L77.6666 563.156C125.334 500.85 200.458 445.528 232.058 425.661L231.526 424.814ZM232.292 435.101L232.292 425.238L231.292 425.238L231.292 435.101L232.292 435.101ZM278.567 416.837C277.621 416.206 276.014 415.825 273.749 415.87C271.468 415.915 268.459 416.394 264.653 417.55C257.041 419.862 246.194 424.899 231.515 434.685L232.07 435.517C246.698 425.764 257.456 420.781 264.944 418.507C268.688 417.369 271.603 416.912 273.769 416.87C275.951 416.826 277.315 417.204 278.013 417.669L278.567 416.837ZM222.235 461.328L278.596 417.648L277.984 416.858L221.623 460.538L222.235 461.328ZM187.859 477.822L222.145 461.384L221.713 460.482L187.427 476.921L187.859 477.822ZM84.2262 572.099C96.0383 558.175 115.401 536.747 135.093 517.724C144.94 508.212 154.862 499.307 163.959 492.244C173.068 485.172 181.309 479.979 187.799 477.846L187.487 476.896C180.825 479.085 172.471 484.37 163.346 491.454C154.21 498.548 144.259 507.479 134.398 517.005C114.677 536.056 95.2918 557.509 83.4636 571.452L84.2262 572.099ZM87.3333 561.705C86.3601 564.23 85.1371 567.402 83.3838 571.583L84.306 571.969C86.0652 567.774 87.2926 564.591 88.2664 562.065L87.3333 561.705ZM94.2884 549.353C90.6429 553.113 89.7458 555.448 87.3333 561.705L88.2664 562.065C90.676 555.815 91.5142 553.651 95.0063 550.049L94.2884 549.353ZM77.5712 563.251L94.9491 550.1L94.3457 549.303L76.9677 562.453L77.5712 563.251ZM242.499 499.307C269.422 468.873 306.196 451.297 337.971 441.272C369.745 431.248 396.471 428.788 403.24 428.555L403.206 427.556C396.355 427.792 369.538 430.264 337.671 440.318C305.805 450.372 268.84 468.022 241.75 498.645L242.499 499.307ZM398.057 437.418C329.128 437.418 265.17 478.206 241.796 498.599L242.454 499.353C265.734 479.041 329.465 438.418 398.057 438.418L398.057 437.418ZM402.78 427.823L397.614 437.686L398.5 438.15L403.666 428.287L402.78 427.823ZM433.141 357.124C425.647 359.333 413.963 364.599 403.204 373.23C392.443 381.862 382.575 393.888 378.784 409.621L379.756 409.855C383.48 394.401 393.181 382.552 403.83 374.01C414.48 365.466 426.045 360.258 433.424 358.084L433.141 357.124ZM447.636 350.573L433.077 357.148L433.488 358.06L448.048 351.484L447.636 350.573ZM433.697 372.913L448.257 351.308L447.428 350.749L432.868 372.354L433.697 372.913ZM415.155 380.611L433.472 373.096L433.093 372.171L414.775 379.686L415.155 380.611ZM422.403 388.762L415.358 379.838L414.573 380.458L421.618 389.382L422.403 388.762ZM389.351 405.491L422.229 389.522L421.792 388.622L388.915 404.591L389.351 405.491ZM407.543 383.108L388.756 404.713L389.51 405.369L408.297 383.764L407.543 383.108ZM379.69 410.008C382.496 405.644 387.29 399.096 392.546 393.646C395.174 390.921 397.905 388.483 400.549 386.729C403.204 384.97 405.716 383.936 407.92 383.936L407.92 382.936C405.427 382.936 402.715 384.094 399.997 385.896C397.269 387.704 394.482 390.198 391.826 392.952C386.514 398.461 381.68 405.064 378.849 409.467L379.69 410.008Z" fill="#26374B"/>
<path d="M162.28 462.811L110.616 511.187C129.09 449.19 197.036 261.79 297.077 3L209.717 285.274L162.28 462.811Z" fill="#1C2A3A"/>
<path d="M363.3 353.847L344.513 359.483C350.776 315.333 398.526 202.142 432.812 99.2832C422.792 129.342 394.862 222.338 363.3 353.847Z" fill="#1C2A3A"/>
<path d="M356.256 136.857L163.22 84.2532L163.22 78.1475L356.256 136.857Z" fill="#1C2A3A"/>
<path d="M334.65 286.213L16.2114 197.445L20.4385 186.172L334.65 286.213Z" fill="#1C2A3A"/>
<path d="M474.144 209.186L330.424 169.783L330.424 163.628L474.144 209.186Z" fill="#1C2A3A"/>
<path d="M294.728 9.10596L177.309 81.4358" stroke="#26374B"/>
<path d="M197.506 123.236L177.779 88.4805C165.098 98.1871 139.736 122.861 139.736 143.902C143.493 137.953 154.671 125.491 169.325 123.236C167.29 126.681 163.22 135.354 163.22 142.493C166.351 140.771 174.304 137.327 181.067 137.327L179.658 148.129L177.779 148.129L177.779 162.689C181.537 164.943 185.294 164.568 186.703 164.098C189.365 161.437 197.318 157.053 207.839 160.81L226.156 152.826L226.156 160.81L229.444 152.826L236.958 145.781C237.898 142.18 240.34 134.039 242.594 130.281C245.413 125.585 259.033 127.463 264.199 130.281C269.366 133.1 271.714 138.266 259.033 152.826L268.427 152.826L268.427 157.992L275.941 157.992C278.29 165.977 281.577 183.636 275.941 190.4C272.81 191.965 266.924 197.539 268.427 207.308C268.427 201.672 274.532 196.506 278.29 196.506C282.047 196.506 291.441 184.294 291.441 177.719C291.441 171.143 294.728 152.826 310.697 152.826L321.5 127.463C288.153 137.327 241.185 125.115 241.185 105.858L197.506 123.236Z" fill="#1C2A3A"/>
<path fill-rule="evenodd" clip-rule="evenodd" d="M22.7872 198.854C11.8908 219.144 11.0454 241.438 11.9847 250.048C22.7872 240.185 36.8774 237.367 29.8323 258.972C44.8619 253.806 53.316 264.139 47.68 271.184C45.835 273.49 43.537 275.645 41.3298 277.715C36.7944 281.969 32.642 285.864 33.5897 289.971C42.0923 282.885 42.8987 283.667 44.3684 285.092C45.3343 286.028 46.5866 287.242 50.498 286.683C58.3885 285.556 64.1185 286.213 65.9972 286.683C68.2517 294.198 54.7251 296.39 47.68 296.546C71.6333 307.818 92.7687 304.061 95.117 300.304C106.013 297.298 114.687 284.961 117.661 279.168C117.661 293.071 110.46 306.253 106.859 311.106C115.501 311.106 135.509 297.016 144.433 289.971L144.433 300.304C127.9 308.946 129.403 320.5 132.221 325.196C132.221 319.56 140.362 315.333 144.433 313.924L147.721 317.212C167.447 307.349 184.825 287.153 184.355 279.168C183.885 271.184 196.097 258.972 200.794 258.972C204.551 258.972 207.995 281.517 209.248 292.789L219.581 279.168C219.581 296.546 222.868 304.531 228.035 305C232.168 305.376 258.25 305.157 270.775 305L260.442 311.106C276.975 313.361 300.834 290.754 310.697 279.168C285.805 286.683 238.368 270.714 219.581 258.972L204.081 255.685L175.901 253.336C174.049 253.336 172.248 253.378 170.518 253.418L170.518 253.418L170.518 253.418C159.265 253.678 151.008 253.87 151.008 242.064C145.685 250.518 131.564 264.608 117.661 253.336C114.655 250.706 116.409 241.594 117.661 237.367C99.6259 237.367 80.0875 231.418 72.5727 228.443C67.3123 220.177 62.553 217.484 60.8308 217.171L47.68 217.171C40.5409 217.171 36.8774 207.465 35.9381 202.611L22.7872 198.854ZM52.3694 232.168L52.8466 232.2C54.8434 232.333 56.778 232.274 58.5901 232.218C61.8929 232.117 64.7887 232.028 66.9116 233.14C57.1424 233.14 45.9329 236.271 41.5492 237.837C34.2017 230.948 45.2872 231.693 52.3694 232.168ZM63.1795 259.912C58.013 259.442 56.1343 250.518 56.604 242.534L68.8155 238.307L72.5729 242.534L102.632 242.534L102.632 249.579C97.6222 257.563 85.6298 273.532 77.7393 273.532C74.295 272.749 66.5611 271.184 63.1795 271.184C61.4164 271.184 59.9801 272.082 58.9048 272.755C57.402 273.696 56.604 274.195 56.604 271.184C56.604 268.609 59.5192 265.919 61.8053 263.808C64.1073 261.683 65.7716 260.147 63.1795 259.912ZM240.716 278.229C236.646 281.829 228.881 290.252 230.384 295.137L240.716 295.137L240.716 300.773C248.836 300.773 256.623 297.547 262.365 291.806L268.897 285.274L249.171 285.274L240.716 278.229Z" fill="#1C2A3A"/>
<path d="M11.9847 250.048L11.4877 250.103L11.5945 251.082L12.3219 250.418L11.9847 250.048ZM22.7872 198.854L22.9246 198.373L22.5373 198.263L22.3467 198.617L22.7872 198.854ZM29.8323 258.972L29.357 258.817L29.0459 259.771L29.9949 259.445L29.8323 258.972ZM47.68 271.184L48.0704 271.496L47.68 271.184ZM41.3298 277.715L41.6719 278.08L41.3298 277.715ZM33.5897 289.971L33.1025 290.083L33.2853 290.875L33.9098 290.355L33.5897 289.971ZM44.3684 285.092L44.0204 285.451L44.3684 285.092ZM50.498 286.683L50.4273 286.188L50.498 286.683ZM65.9972 286.683L66.4762 286.539L66.3944 286.267L66.1185 286.198L65.9972 286.683ZM47.68 296.546L47.6688 296.046L47.4671 296.999L47.68 296.546ZM95.117 300.304L94.9841 299.822L94.7963 299.873L94.693 300.039L95.117 300.304ZM117.661 279.168L118.161 279.168L117.217 278.94L117.661 279.168ZM106.859 311.106L106.457 310.808L105.865 311.606L106.859 311.606L106.859 311.106ZM144.433 289.971L144.933 289.971L144.933 288.939L144.123 289.578L144.433 289.971ZM144.433 300.304L144.664 300.747L144.933 300.606L144.933 300.304L144.433 300.304ZM132.221 325.196L131.793 325.454L132.721 327.001L132.721 325.196L132.221 325.196ZM144.433 313.924L144.786 313.571L144.565 313.349L144.269 313.452L144.433 313.924ZM147.721 317.212L147.367 317.565L147.622 317.82L147.944 317.659L147.721 317.212ZM184.355 279.168L184.854 279.139L184.854 279.139L184.355 279.168ZM209.248 292.789L208.751 292.844L208.889 294.089L209.646 293.091L209.248 292.789ZM219.581 279.168L220.081 279.168L220.081 277.682L219.182 278.866L219.581 279.168ZM228.035 305L228.08 304.502L228.035 305ZM270.775 305L271.029 305.431L272.644 304.477L270.769 304.5L270.775 305ZM260.442 311.106L260.188 310.676L258.95 311.407L260.375 311.602L260.442 311.106ZM310.697 279.168L311.078 279.492L312.18 278.198L310.553 278.69L310.697 279.168ZM219.581 258.972L219.846 258.548L219.771 258.501L219.684 258.483L219.581 258.972ZM204.081 255.685L204.185 255.195L204.154 255.189L204.123 255.186L204.081 255.685ZM175.901 253.336L175.942 252.838L175.922 252.836L175.901 252.836L175.901 253.336ZM170.518 253.418L170.518 253.918L170.53 253.918L170.518 253.418ZM170.518 253.418L170.518 252.918L170.506 252.918L170.518 253.418ZM151.008 242.064L151.508 242.064L151.508 240.331L150.585 241.798L151.008 242.064ZM117.661 253.336L117.332 253.712L117.339 253.719L117.346 253.725L117.661 253.336ZM117.661 237.367L118.141 237.509L118.331 236.867L117.661 236.867L117.661 237.367ZM72.5727 228.443L72.1508 228.712L72.2379 228.849L72.3887 228.908L72.5727 228.443ZM60.8308 217.171L60.9203 216.679L60.8759 216.671L60.8308 216.671L60.8308 217.171ZM35.9381 202.611L36.429 202.516L36.3707 202.215L36.0755 202.131L35.9381 202.611ZM52.8466 232.2L52.8132 232.699L52.8134 232.699L52.8466 232.2ZM52.3694 232.168L52.3359 232.667L52.336 232.667L52.3694 232.168ZM58.5901 232.218L58.6054 232.718L58.5901 232.218ZM66.9116 233.14L66.9116 233.64L67.1437 232.697L66.9116 233.14ZM41.5492 237.837L41.2073 238.201L41.43 238.41L41.7174 238.308L41.5492 237.837ZM56.604 242.534L56.4405 242.061L56.1245 242.17L56.1049 242.504L56.604 242.534ZM63.1795 259.912L63.2247 259.414L63.1795 259.912ZM68.8155 238.307L69.1892 237.974L68.9674 237.725L68.6519 237.834L68.8155 238.307ZM72.5729 242.534L72.1992 242.866L72.3484 243.034L72.5729 243.034L72.5729 242.534ZM102.632 242.534L103.132 242.534L103.132 242.034L102.632 242.034L102.632 242.534ZM102.632 249.579L103.056 249.844L103.132 249.723L103.132 249.579L102.632 249.579ZM77.7393 273.532L77.6285 274.02L77.6832 274.032L77.7393 274.032L77.7393 273.532ZM58.9048 272.755L59.17 273.179L58.9048 272.755ZM61.8053 263.808L62.1444 264.176L61.8053 263.808ZM230.384 295.137L229.906 295.284L230.014 295.637L230.384 295.637L230.384 295.137ZM240.716 278.229L241.037 277.844L240.707 277.57L240.385 277.854L240.716 278.229ZM240.716 295.137L241.216 295.137L241.216 294.637L240.716 294.637L240.716 295.137ZM240.716 300.773L240.216 300.773L240.216 301.273L240.716 301.273L240.716 300.773ZM262.365 291.806L262.718 292.159L262.365 291.806ZM268.897 285.274L269.25 285.627L270.104 284.774L268.897 284.774L268.897 285.274ZM249.171 285.274L248.851 285.658L248.99 285.774L249.171 285.774L249.171 285.274ZM12.4818 249.994C11.5506 241.458 12.39 219.271 23.2277 199.091L22.3467 198.617C11.3916 219.017 10.5402 241.417 11.4877 250.103L12.4818 249.994ZM30.3077 259.127C32.0777 253.699 32.5488 249.727 32.0261 246.983C31.7631 245.602 31.2446 244.512 30.4944 243.712C29.7416 242.909 28.7834 242.427 27.6953 242.219C25.5434 241.807 22.8713 242.462 20.1046 243.793C17.3226 245.132 14.3768 247.187 11.6476 249.679L12.3219 250.418C14.9939 247.978 17.8603 245.983 20.5382 244.694C23.2316 243.398 25.6671 242.849 27.5075 243.201C28.4154 243.375 29.1745 243.766 29.7647 244.396C30.3575 245.028 30.8077 245.931 31.0437 247.17C31.5191 249.665 31.1095 253.443 29.357 258.817L30.3077 259.127ZM48.0704 271.496C49.5586 269.636 50.1312 267.536 49.8787 265.515C49.6266 263.499 48.5581 261.599 46.8312 260.119C43.3734 257.155 37.3029 255.876 29.6698 258.499L29.9949 259.445C37.3914 256.903 43.0627 258.206 46.1804 260.878C47.7411 262.216 48.6687 263.898 48.8864 265.639C49.1035 267.376 48.6194 269.209 47.2895 270.871L48.0704 271.496ZM41.6719 278.08C43.8737 276.015 46.1991 273.835 48.0704 271.496L47.2895 270.871C45.4709 273.145 43.2004 275.275 40.9878 277.351L41.6719 278.08ZM34.0769 289.858C33.6517 288.016 34.353 286.168 35.8062 284.195C37.2599 282.22 39.3939 280.217 41.6719 278.08L40.9878 277.351C38.7303 279.468 36.5203 281.538 35.0009 283.602C33.481 285.666 32.58 287.819 33.1025 290.083L34.0769 289.858ZM44.7164 284.733C44.3655 284.392 43.968 283.997 43.4426 283.791C42.8839 283.572 42.2504 283.585 41.4497 283.869C40.6622 284.147 39.6748 284.699 38.3686 285.609C37.0573 286.521 35.4001 287.811 33.2696 289.587L33.9098 290.355C36.0306 288.588 37.6627 287.318 38.9399 286.429C40.2221 285.537 41.1224 285.045 41.7831 284.811C42.4305 284.582 42.8056 284.615 43.0772 284.722C43.382 284.842 43.6365 285.078 44.0204 285.451L44.7164 284.733ZM50.4273 286.188C48.5278 286.459 47.3274 286.293 46.5063 285.981C45.6877 285.67 45.1965 285.198 44.7164 284.733L44.0204 285.451C44.5062 285.922 45.1241 286.525 46.151 286.915C47.1754 287.305 48.5568 287.465 50.5687 287.178L50.4273 286.188ZM66.1185 286.198C64.1642 285.709 58.3673 285.054 50.4273 286.188L50.5687 287.178C58.4098 286.058 64.0729 286.717 65.876 287.168L66.1185 286.198ZM47.6911 297.046C51.2417 296.967 56.4479 296.377 60.5029 294.842C62.527 294.075 64.319 293.054 65.46 291.694C66.6251 290.305 67.09 288.586 66.4762 286.539L65.5183 286.827C66.0317 288.538 65.6512 289.91 64.6939 291.051C63.7126 292.221 62.1053 293.166 60.1489 293.906C56.2429 295.385 51.1633 295.969 47.6688 296.046L47.6911 297.046ZM94.693 300.039C94.4697 300.396 93.9765 300.814 93.1568 301.239C92.3495 301.658 91.2748 302.057 89.9559 302.403C87.3193 303.095 83.7525 303.561 79.5004 303.561C70.9988 303.561 59.7997 301.697 47.8928 296.094L47.4671 296.999C59.5136 302.668 70.8589 304.561 79.5004 304.561C83.8198 304.561 87.4742 304.088 90.2096 303.37C91.5765 303.012 92.7255 302.589 93.617 302.127C94.4963 301.671 95.1773 301.151 95.541 300.569L94.693 300.039ZM117.217 278.94C115.749 281.798 112.863 286.292 108.994 290.44C105.121 294.593 100.305 298.354 94.9841 299.822L95.25 300.786C100.826 299.247 105.794 295.337 109.726 291.122C113.662 286.902 116.6 282.331 118.106 279.397L117.217 278.94ZM107.26 311.404C110.898 306.502 118.161 293.216 118.161 279.168L117.161 279.168C117.161 292.925 110.022 306.004 106.457 310.808L107.26 311.404ZM144.123 289.578C139.673 293.092 132.456 298.363 125.279 302.754C121.69 304.949 118.121 306.918 114.918 308.337C111.7 309.763 108.91 310.606 106.859 310.606L106.859 311.606C109.129 311.606 112.08 310.688 115.323 309.252C118.581 307.808 122.192 305.815 125.801 303.607C133.02 299.191 140.269 293.895 144.743 290.363L144.123 289.578ZM144.933 300.304L144.933 289.971L143.933 289.971L143.933 300.304L144.933 300.304ZM132.65 324.939C131.305 322.698 130.255 318.779 131.55 314.37C132.842 309.975 136.487 305.021 144.664 300.747L144.201 299.86C135.846 304.228 131.977 309.372 130.591 314.088C129.209 318.792 130.319 322.998 131.793 325.454L132.65 324.939ZM144.269 313.452C142.197 314.169 139.094 315.6 136.498 317.577C133.923 319.538 131.721 322.134 131.721 325.196L132.721 325.196C132.721 322.623 134.59 320.287 137.104 318.373C139.595 316.475 142.598 315.088 144.596 314.397L144.269 313.452ZM148.074 316.858L144.786 313.571L144.079 314.278L147.367 317.565L148.074 316.858ZM183.856 279.198C183.964 281.036 183.035 283.685 181.173 286.84C179.324 289.971 176.603 293.524 173.245 297.146C166.526 304.39 157.297 311.864 147.497 316.765L147.944 317.659C157.87 312.696 167.193 305.141 173.978 297.826C177.371 294.167 180.139 290.557 182.034 287.348C183.914 284.162 184.981 281.292 184.854 279.139L183.856 279.198ZM200.794 258.472C200.108 258.472 199.33 258.692 198.516 259.056C197.696 259.422 196.807 259.949 195.889 260.597C194.055 261.892 192.074 263.695 190.262 265.745C188.451 267.794 186.795 270.104 185.619 272.418C184.448 274.724 183.731 277.077 183.856 279.198L184.854 279.139C184.744 277.268 185.378 275.1 186.511 272.871C187.64 270.649 189.242 268.409 191.012 266.407C192.781 264.406 194.705 262.657 196.466 261.414C197.347 260.792 198.179 260.302 198.924 259.969C199.674 259.634 200.305 259.472 200.794 259.472L200.794 258.472ZM209.745 292.734C209.118 287.088 207.941 278.617 206.449 271.55C205.704 268.02 204.876 264.82 203.991 262.493C203.55 261.333 203.084 260.362 202.591 259.672C202.117 259.008 201.521 258.472 200.794 258.472L200.794 259.472C201.006 259.472 201.34 259.641 201.778 260.254C202.197 260.841 202.627 261.719 203.056 262.849C203.913 265.102 204.729 268.242 205.471 271.757C206.954 278.78 208.126 287.217 208.751 292.844L209.745 292.734ZM219.182 278.866L208.849 292.487L209.646 293.091L219.979 279.47L219.182 278.866ZM228.08 304.502C225.794 304.295 223.788 302.424 222.343 298.261C220.902 294.112 220.081 287.837 220.081 279.168L219.081 279.168C219.081 287.878 219.903 294.284 221.398 298.589C222.888 302.88 225.109 305.236 227.99 305.498L228.08 304.502ZM270.769 304.5C264.508 304.579 254.857 304.673 246.257 304.7C237.638 304.727 230.117 304.688 228.08 304.502L227.99 305.498C230.086 305.689 237.673 305.727 246.26 305.7C254.865 305.673 264.518 305.579 270.781 305.5L270.769 304.5ZM260.697 311.537L271.029 305.431L270.521 304.57L260.188 310.676L260.697 311.537ZM310.317 278.844C305.404 284.615 297.001 293.134 287.775 299.924C283.162 303.319 278.356 306.272 273.688 308.235C269.017 310.2 264.52 311.158 260.51 310.611L260.375 311.602C264.63 312.182 269.316 311.159 274.076 309.157C278.84 307.153 283.716 304.153 288.367 300.73C297.669 293.884 306.128 285.307 311.078 279.492L310.317 278.844ZM219.316 259.396C228.764 265.301 245.37 272.246 262.723 276.775C280.057 281.3 298.255 283.447 310.842 279.647L310.553 278.69C298.247 282.405 280.28 280.324 262.976 275.808C245.69 271.296 229.185 264.385 219.846 258.548L219.316 259.396ZM203.978 256.174L219.477 259.461L219.684 258.483L204.185 255.195L203.978 256.174ZM175.859 253.834L204.04 256.183L204.123 255.186L175.942 252.838L175.859 253.834ZM170.53 253.918C172.26 253.878 174.055 253.836 175.901 253.836L175.901 252.836C174.042 252.836 172.236 252.878 170.507 252.918L170.53 253.918ZM170.518 253.918L170.518 253.918L170.518 252.918L170.518 252.918L170.518 253.918ZM170.518 253.918L170.518 253.918L170.518 252.918L170.518 252.918L170.518 253.918ZM150.508 242.064C150.508 245.069 151.033 247.367 152.042 249.106C153.056 250.856 154.535 251.997 156.357 252.73C158.166 253.457 160.316 253.782 162.695 253.913C165.074 254.044 167.721 253.983 170.529 253.918L170.506 252.918C167.688 252.983 165.083 253.043 162.75 252.915C160.415 252.786 158.391 252.47 156.73 251.802C155.081 251.139 153.792 250.131 152.907 248.604C152.016 247.067 151.508 244.962 151.508 242.064L150.508 242.064ZM117.346 253.725C120.899 256.605 124.49 257.882 127.969 258.019C131.441 258.155 134.764 257.154 137.788 255.538C143.823 252.314 148.742 246.602 151.431 242.33L150.585 241.798C147.952 245.98 143.148 251.541 137.316 254.656C134.407 256.211 131.26 257.147 128.008 257.02C124.763 256.892 121.375 255.704 117.976 252.948L117.346 253.725ZM117.182 237.225C116.549 239.363 115.788 242.735 115.566 245.916C115.455 247.506 115.476 249.069 115.725 250.417C115.973 251.755 116.458 252.947 117.332 253.712L117.991 252.96C117.362 252.41 116.939 251.477 116.709 250.235C116.481 249.002 116.455 247.531 116.563 245.985C116.779 242.896 117.522 239.599 118.141 237.509L117.182 237.225ZM72.3887 228.908C79.9359 231.896 99.5398 237.867 117.661 237.867L117.661 236.867C99.712 236.867 80.2391 230.94 72.7567 227.979L72.3887 228.908ZM60.7414 217.663C61.4783 217.797 63.0187 218.486 65.0519 220.207C67.0708 221.915 69.5437 224.615 72.1508 228.712L72.9945 228.175C70.3413 224.006 67.8043 221.226 65.6979 219.443C63.6059 217.673 61.9055 216.858 60.9203 216.679L60.7414 217.663ZM47.68 217.671L60.8308 217.671L60.8308 216.671L47.68 216.671L47.68 217.671ZM35.4472 202.706C35.9253 205.177 37.0942 208.88 39.062 211.979C41.0233 215.069 43.8559 217.671 47.68 217.671L47.68 216.671C44.365 216.671 41.7963 214.421 39.9063 211.443C38.0227 208.476 36.8902 204.899 36.429 202.516L35.4472 202.706ZM22.6499 199.335L35.8007 203.092L36.0755 202.131L22.9246 198.373L22.6499 199.335ZM52.8801 231.701L52.4028 231.669L52.336 232.667L52.8132 232.699L52.8801 231.701ZM58.5747 231.719C56.7596 231.774 54.8486 231.833 52.8799 231.701L52.8134 232.699C54.8381 232.834 56.7964 232.774 58.6054 232.718L58.5747 231.719ZM67.1437 232.697C65.9966 232.096 64.6652 231.832 63.2303 231.726C61.7969 231.619 60.2194 231.668 58.5747 231.719L58.6054 232.718C60.2636 232.667 61.7854 232.621 63.1563 232.723C64.5258 232.824 65.7038 233.072 66.6796 233.583L67.1437 232.697ZM41.7174 238.308C46.075 236.751 57.2233 233.64 66.9116 233.64L66.9116 232.64C57.0615 232.64 45.7908 235.791 41.3811 237.366L41.7174 238.308ZM52.4029 231.669C50.6346 231.551 48.6008 231.414 46.6653 231.385C44.7372 231.356 42.8681 231.432 41.4385 231.753C40.7248 231.914 40.0836 232.143 39.594 232.478C39.094 232.821 38.7298 233.292 38.6485 233.913C38.5696 234.516 38.7695 235.166 39.1864 235.855C39.6054 236.547 40.2715 237.324 41.2073 238.201L41.8912 237.472C40.9901 236.627 40.3953 235.921 40.0419 235.337C39.6863 234.75 39.6022 234.332 39.64 234.043C39.6753 233.773 39.8286 233.53 40.1591 233.303C40.5001 233.07 41.0024 232.876 41.6578 232.729C42.9665 232.435 44.7374 232.356 46.6502 232.385C48.5554 232.413 50.5631 232.548 52.3359 232.667L52.4029 231.669ZM56.1049 242.504C55.8677 246.537 56.2209 250.83 57.3022 254.194C58.371 257.519 60.2288 260.145 63.1342 260.409L63.2247 259.414C60.9637 259.208 59.299 257.138 58.2542 253.888C57.222 250.676 56.8707 246.515 57.1032 242.563L56.1049 242.504ZM68.6519 237.834L56.4405 242.061L56.7676 243.006L68.979 238.779L68.6519 237.834ZM72.9466 242.201L69.1892 237.974L68.4418 238.639L72.1992 242.866L72.9466 242.201ZM102.632 242.034L72.5729 242.034L72.5729 243.034L102.632 243.034L102.632 242.034ZM103.132 249.579L103.132 242.534L102.132 242.534L102.132 249.579L103.132 249.579ZM77.7393 274.032C79.8668 274.032 82.2002 272.963 84.5402 271.322C86.8927 269.671 89.3151 267.398 91.6332 264.889C96.2702 259.87 100.539 253.855 103.056 249.844L102.209 249.313C99.7152 253.287 95.4829 259.249 90.8987 264.21C88.6061 266.692 86.2379 268.909 83.966 270.503C81.6817 272.105 79.5571 273.032 77.7393 273.032L77.7393 274.032ZM63.1795 271.684C64.821 271.684 67.5596 272.067 70.3494 272.557C73.1267 273.044 75.913 273.63 77.6285 274.02L77.8501 273.045C76.1213 272.652 73.3186 272.063 70.5223 271.572C67.7387 271.083 64.9196 270.684 63.1795 270.684L63.1795 271.684ZM59.17 273.179C60.2583 272.498 61.5792 271.684 63.1795 271.684L63.1795 270.684C61.2535 270.684 59.702 271.667 58.6396 272.332L59.17 273.179ZM56.104 271.184C56.104 271.948 56.1535 272.535 56.2697 272.963C56.3836 273.383 56.5987 273.776 57.0273 273.924C57.4184 274.059 57.8186 273.923 58.1208 273.784C58.4421 273.636 58.8039 273.408 59.17 273.179L58.6396 272.332C58.2543 272.573 57.9527 272.76 57.7018 272.876C57.4317 273.001 57.3506 272.978 57.3544 272.979C57.3956 272.993 57.3174 273.005 57.2347 272.701C57.1543 272.405 57.104 271.925 57.104 271.184L56.104 271.184ZM61.4662 263.441C60.3287 264.491 58.9999 265.716 57.9581 267.008C56.926 268.288 56.104 269.719 56.104 271.184L57.104 271.184C57.104 270.074 57.7396 268.872 58.7366 267.636C59.7239 266.411 60.9958 265.236 62.1444 264.176L61.4662 263.441ZM63.1342 260.409C63.4353 260.437 63.6492 260.481 63.7952 260.532C63.9438 260.583 63.9886 260.63 63.9954 260.638C63.9972 260.64 63.9947 260.637 63.993 260.632C63.9916 260.627 63.9938 260.63 63.9925 260.647C63.9892 260.687 63.968 260.77 63.8913 260.907C63.7364 261.184 63.4349 261.543 62.9993 261.986C62.5702 262.422 62.0443 262.907 61.4662 263.441L62.1444 264.176C62.7173 263.647 63.2627 263.144 63.7122 262.687C64.1551 262.237 64.5392 261.798 64.7641 261.396C64.9792 261.011 65.1475 260.466 64.7687 260.004C64.6029 259.802 64.3705 259.673 64.1229 259.587C63.8728 259.5 63.5716 259.445 63.2247 259.414L63.1342 260.409ZM230.862 294.99C230.533 293.92 230.697 292.602 231.259 291.118C231.819 289.64 232.749 288.056 233.867 286.492C236.101 283.364 239.032 280.386 241.048 278.603L240.385 277.854C238.33 279.672 235.343 282.705 233.053 285.911C231.909 287.513 230.925 289.175 230.324 290.764C229.726 292.344 229.483 293.911 229.906 295.284L230.862 294.99ZM240.716 294.637L230.384 294.637L230.384 295.637L240.716 295.637L240.716 294.637ZM241.216 300.773L241.216 295.137L240.216 295.137L240.216 300.773L241.216 300.773ZM262.011 291.452C256.363 297.1 248.704 300.273 240.716 300.273L240.716 301.273C248.969 301.273 256.883 297.995 262.718 292.159L262.011 291.452ZM268.543 284.92L262.011 291.452L262.718 292.159L269.25 285.627L268.543 284.92ZM249.171 285.774L268.897 285.774L268.897 284.774L249.171 284.774L249.171 285.774ZM240.396 278.613L248.851 285.658L249.491 284.89L241.037 277.844L240.396 278.613Z" fill="#26374B"/>
<path d="M400.404 193.688C357.664 213.414 336.529 199.324 336.529 168.795C332.771 171.3 326.008 179.786 329.014 193.688C317.116 197.602 293.319 211.066 293.319 233.61C298.016 228.287 308.724 216.984 313.985 214.354L312.106 230.792C316.02 226.409 325.914 217.642 334.18 217.642C332.458 221.086 329.672 229.477 332.302 235.489C336.216 231.575 344.983 223.747 348.74 223.747C349.523 226.409 352.31 231.544 357.194 230.792C363.3 229.853 391.481 217.642 394.768 209.187C394.299 207.309 394.768 205.994 400.404 215.763C407.45 227.974 408.859 229.383 419.661 223.747L421.54 229.383C424.671 231.262 432.906 235.113 440.796 235.489C450.66 235.959 483.067 233.141 483.067 201.203L460.523 217.642C443.615 216.702 408.953 211.254 405.571 196.976L400.404 193.688Z" fill="#1C2A3A"/>
<path d="M295.668 6.75732L281.577 114.313" stroke="#26374B"/>
<path d="M295.667 7.22656L217.701 115.721" stroke="#26374B"/>
<path d="M295.198 9.10596C266.266 58.3278 247.761 91.612 242.125 102.101" stroke="#26374B"/>
<path d="M176.84 160.341C169.701 175.746 125.646 201.829 104.51 212.944" stroke="#26374B"/>
<path d="M205.49 159.871C187.643 185.233 163.063 212.004 146.311 226.095" stroke="#26374B"/>
<path d="M247.761 127.933C225.593 171.518 194.062 230.635 181.068 254.745" stroke="#26374B"/>
<path d="M260.442 127.933C246.164 174.149 256.998 237.993 264.2 264.138" stroke="#26374B"/>
<path d="M260.442 129.343C255.276 170.204 265.608 258.503 285.335 270.245" stroke="#26374B"/>
<path d="M146.781 315.333L60.3611 551.58" stroke="#26374B"/>
<path d="M174.022 297.016L8.22705 622.03" stroke="#26374B"/>
<path d="M210.187 291.849C201.733 330.362 201.263 414.904 210.187 421.479" stroke="#26374B"/>
<path d="M213.944 280.578C213.944 356.665 251.988 395.178 271.244 395.178" stroke="#26374B"/>
<path d="M383.027 217.641L316.802 367.937" stroke="#26374B"/>
<path d="M377.86 221.398C351.246 268.679 298.016 365.588 298.016 374.982" stroke="#26374B"/>
<path d="M426.707 118.54C425.58 162.877 437.822 191.496 444.085 200.263" stroke="#26374B"/>
<path d="M427.177 119.479C429.431 180.348 463.655 201.515 480.25 204.49" stroke="#26374B"/>
<path d="M391.482 197.915L426.238 119.949" stroke="#26374B"/>
</g>
<defs>
<filter id="filter0_f_395_735" x="0.145752" y="0" width="660.11" height="634.527" filterUnits="userSpaceOnUse" color-interpolation-filters="sRGB">
<feFlood flood-opacity="0" result="BackgroundImageFix"/>
<feBlend mode="normal" in="SourceGraphic" in2="BackgroundImageFix" result="shape"/>
<feGaussianBlur stdDeviation="1.5" result="effect1_foregroundBlur_395_735"/>
</filter>
</defs>
</svg>
