<svg width="1093" height="126" viewBox="0 0 1093 126" fill="none" xmlns="http://www.w3.org/2000/svg">
<path d="M535.48 99.6689L930.128 99.6689C934.305 96.3786 939.525 86.7059 939.525 61.0817C939.525 30.5709 939.177 23.3919 930.128 21.5971L535.48 21.5971C529.911 26.9814 517.731 38.1089 517.731 61.0817C517.731 84.0546 525.387 98.1733 535.48 99.6689Z" fill="#F7E7D8"/>
<path d="M592.903 100.564L987.551 100.564C991.728 97.2741 996.948 87.6014 996.948 61.9772C996.948 31.4664 996.6 24.2874 987.551 22.4926L592.903 22.4926C587.334 27.8769 575.154 39.0044 575.154 61.9772C575.154 84.9501 582.81 99.0688 592.903 100.564Z" fill="#F7E7D8"/>
<path d="M545.914 93.3004L909.343 93.3004C911.776 93.3004 917.394 93.5188 937.075 91.5344C954.59 89.7685 926.858 88.0025 909.343 88.0025L560.509 88.0025C556.131 88.0025 560.509 88.0019 544.454 88.0025C537.156 88.0027 538.616 94.1833 545.914 93.3004Z" fill="#DAD0C6"/>
<path d="M539.811 78.941L912.656 78.941C915.152 78.941 920.915 79.1594 941.107 77.175C959.075 75.4091 930.625 73.6431 912.656 73.6431L554.785 73.6431C550.293 73.6431 554.785 73.6425 538.314 73.6431C530.827 73.6433 532.325 79.824 539.811 78.941Z" fill="#DAD0C6"/>
<path d="M539.811 46.6353L912.656 46.6353C915.152 46.6353 920.915 46.8537 941.107 44.8693C959.075 43.1034 930.625 41.3375 912.656 41.3375L554.785 41.3375C550.293 41.3375 554.785 41.3368 538.314 41.3374C530.827 41.3377 532.325 47.5183 539.811 46.6353Z" fill="#DAD0C6"/>
<path d="M545.914 32.2779L909.343 32.2779C911.776 32.2779 917.394 32.4963 937.075 30.5119C954.59 28.746 926.858 26.9801 909.343 26.9801L560.509 26.9801C556.131 26.9801 560.509 26.9794 544.454 26.98C537.156 26.9803 538.616 33.1609 545.914 32.2779Z" fill="#DAD0C6"/>
<path d="M979.199 65.5667C977.305 45.8244 980.243 29.9708 979.199 22.4926H972.935V100.564H983.375H994.86L1000.08 79.9248C994.163 79.6257 980.182 75.8108 979.199 65.5667Z" fill="#DAD0C6" fill-opacity="0.61"/>
<path d="M979.199 65.5667C977.305 45.8244 980.243 29.9708 979.199 22.4926H972.935V100.564H983.375H994.86L1000.08 79.9248C994.163 79.6257 980.182 75.8108 979.199 65.5667Z" fill="black" fill-opacity="0.1"/>
<path d="M955.186 53.9008C953.292 34.1585 952.054 29.9708 951.01 22.4926H944.746V100.564H955.186H966.671L971.891 79.9248C965.974 79.6257 956.169 64.1449 955.186 53.9008Z" fill="black" fill-opacity="0.1"/>
<path d="M966.67 104.154C970.847 104.154 975.371 99.6674 976.067 97.8727V24.2877C976.067 23.3904 973.561 21.9545 967.714 19.8008C961.868 17.6471 956.578 18.9035 956.23 21.5956C959.362 23.3904 962.158 30.6164 963.538 35.9536C965.626 44.03 963.538 54.7985 963.538 66.4645C963.538 75.7972 964.582 95.1805 956.23 99.6674C957.274 100.864 962.494 104.154 966.67 104.154Z" fill="#DAD0C6"/>
<path d="M993.816 104.154C997.992 104.154 1002.52 99.6674 1003.21 97.8727V24.2877C1003.21 23.3904 1000.71 21.9545 994.86 19.8008C989.013 17.6471 983.723 18.9035 983.375 21.5956C986.508 23.3904 989.304 30.6164 990.684 35.9536C992.772 44.03 990.684 54.7985 990.684 66.4645C990.684 75.7972 991.728 95.1805 983.375 99.6674C984.419 100.864 989.64 104.154 993.816 104.154Z" fill="#DAD0C6"/>
<path d="M939.525 104.154C943.701 104.154 948.225 99.6674 948.921 97.8727V24.2877C948.921 23.3904 946.416 21.9545 940.569 19.8008C934.722 17.6471 929.432 18.9035 929.084 21.5956C932.217 23.3904 935.013 30.6164 936.393 35.9536C938.481 44.03 936.393 54.7985 936.393 66.4645C936.393 75.7972 937.437 95.1805 929.084 99.6674C930.128 100.864 935.349 104.154 939.525 104.154Z" fill="#DAD0C6"/>
<rect width="78.9692" height="45.938" transform="matrix(0 -1 -1 0 1053.33 100.564)" fill="#DAD0C6"/>
<path d="M1013.65 101.463L1050.19 101.463L1055.51 21.5963H1036.72C1037.76 40.1421 1038.71 65.5678 1036.62 75.439C1034.53 85.3101 1020.26 89.797 1013.65 88.0022V101.463Z" fill="#C7BBAE" fill-opacity="0.78"/>
<path d="M1017.83 65.4537C1017.83 79.0938 1017.48 96.8619 1015.74 103.144C1014.7 106.733 1011.36 108.707 1006.34 109.425C1001.33 110.143 997.992 107.331 997.992 104.938C999.384 95.0672 1002.17 72.8122 1002.17 62.7616C1002.17 52.711 1001.47 36.4382 1000.08 28.661C999.384 28.0627 995.453 13.179 1004.26 14.4171C1017.83 16.326 1014.73 16.7621 1015.74 23.2767C1017.83 36.7374 1017.83 51.8135 1017.83 65.4537Z" fill="#F5EADF"/>
<path d="M1010.3 83.5152C1010.3 97.1553 1019.35 89.7968 1017.61 96.0785C1017.61 106.847 1012.18 108.707 1007.17 109.425C1002.15 110.143 996.948 107.445 996.948 105.052C998.34 95.181 1000.9 72.9261 1000.9 62.8755C1000.9 52.8249 1000.21 36.4383 998.814 28.661C998.118 28.0628 996.639 14.4172 1002.99 14.4172C1012.39 14.4172 1007.17 22.4936 1007.17 28.661C1007.17 42.2408 1010.3 69.8751 1010.3 83.5152Z" fill="#E8DCCF"/>
<path d="M1063.77 65.4537C1063.77 79.0938 1063.42 96.8619 1061.68 103.144C1060.63 106.733 1057.29 108.707 1052.28 109.425C1047.27 110.143 1043.93 107.331 1043.93 104.938C1045.32 95.0672 1048.11 72.8122 1048.11 62.7616C1048.11 52.711 1047.41 36.4382 1046.02 28.661C1045.32 28.0627 1041.39 13.179 1050.19 14.4171C1063.77 16.326 1060.67 16.7621 1061.68 23.2767C1063.77 36.7374 1063.77 51.8135 1063.77 65.4537Z" fill="#F5EADF"/>
<path d="M1054.24 84.329C1054.24 98.4838 1063.18 90.8477 1061.46 97.3664C1061.46 108.541 1056.09 110.472 1051.14 111.217C1046.19 111.962 1042.89 109.044 1042.89 106.561C1044.26 96.317 1047.01 73.2222 1047.01 62.7923C1047.01 52.3624 1046.33 35.4756 1044.95 27.4049C1044.26 26.784 1040.74 12.6235 1047.01 12.6235C1056.3 12.6235 1051.14 21.0046 1051.14 27.4049C1051.14 41.4971 1054.24 70.1741 1054.24 84.329Z" fill="#E8DCCF"/>
<path d="M1092.44 103.667L1091.25 25.6015C1091.18 20.5168 1092.83 14.7447 1086.82 8.59993C1077.27 -1.16422 1068.3 -2.14976 1053.34 4.49091C1049.2 6.3327 1042.07 31.7928 1062.09 30.4183L1062 93.2412C1044.21 90.7498 1048.74 114.032 1051.94 118.484C1054.68 122.3 1065.62 125.509 1072.93 125.426C1079.19 125.355 1092.68 119.818 1092.44 103.667Z" fill="#CBBFB3"/>
<path d="M1063.77 102.361C1067.82 103.232 1069.33 107.745 1067.94 108.643C1070.03 108.044 1072.93 103.853 1071.08 101.464C1068.99 98.7714 1066.71 96.5682 1060.63 97.8741C1056.46 98.7714 1056.11 105.651 1056.46 107.745C1058.2 106.25 1059.59 101.464 1063.77 102.361Z" fill="#A49A8F"/>
<path d="M1056.46 107.745C1064.81 117.616 1069.82 116.181 1073.16 114.027C1076.03 112.181 1079.26 106.848 1078.38 102.361C1079.68 105.353 1080.26 114.566 1075.25 116.719C1070.24 118.873 1061.68 123.001 1056.46 107.745Z" fill="#A49A8F"/>
<path d="M1062.07 19.8455C1066.21 19.4049 1068.36 15.0833 1067.1 14.0471C1069.09 14.8592 1071.37 19.3224 1069.2 21.5003C1066.74 23.9541 1064.17 25.9031 1058.32 23.9716C1054.31 22.6443 1054.93 15.7791 1055.58 13.7371C1057.09 15.4036 1057.8 20.2996 1062.07 19.8455Z" fill="#A49A8F"/>
<path d="M1055.58 13.7357C1065.26 4.81083 1070.03 6.75966 1073.05 9.24666C1075.63 11.3791 1078.08 17.0096 1076.58 21.3717C1078.29 18.5385 1080.17 9.45453 1075.5 6.79288C1070.83 4.13124 1062.92 -0.860916 1055.58 13.7357Z" fill="#A49A8F"/>
<path d="M1082.56 69.1573C1082.56 81.3616 1080.47 93.0874 1079.43 101.463V68.2599V29.6727C1080.47 35.057 1082.56 56.953 1082.56 69.1573Z" fill="#A49A8F"/>
<path d="M1074.21 96.9771C1076.71 98.413 1079.08 102.062 1079.43 103.259V80.8244C1077.69 81.1235 1073.16 80.1065 1068.99 70.0558C1064.81 60.0052 1065.85 46.724 1062.72 30.5712L1061.68 93.3876C1064.81 93.9859 1071.7 95.5413 1074.21 96.9771Z" fill="#B7A798" fill-opacity="0.48"/>
<path d="M566.014 99.6689L162.871 99.6689C158.695 96.3786 153.475 86.7059 153.475 61.0817C153.475 30.5709 153.823 23.3919 162.871 21.5971L566.014 21.5971V61.0817V99.6689Z" fill="#F7E7D8"/>
<path d="M594.74 101L108.151 101C103.002 97.6705 96.5657 87.8828 96.5657 61.954C96.5657 31.0805 96.9947 23.8161 108.151 22L594.74 22C601.605 27.4483 616.624 38.708 616.624 61.954C616.624 85.2 607.184 99.4866 594.74 101Z" fill="#F7E7D8"/>
<path d="M626.578 92.9198L191.16 92.9198C188.246 92.9198 181.515 93.1226 157.936 91.2799C136.952 89.64 170.176 88.0001 191.16 88.0001L609.091 88.0001C614.337 88.0001 609.091 87.9995 628.327 88C637.07 88.0002 635.321 93.7398 626.578 92.9198Z" fill="#DAD0C6"/>
<path d="M633.378 78.9198L187.468 78.9198C184.484 78.9198 177.591 79.1226 153.443 77.2799C131.953 75.64 165.979 74.0001 187.468 74.0001L615.47 74.0001C620.843 74.0001 615.47 73.9995 635.169 74C644.123 74.0002 642.332 79.7398 633.378 78.9198Z" fill="#DAD0C6"/>
<path d="M633.378 46.9038L187.468 46.9038C184.484 46.9038 177.591 47.1471 153.443 44.9358C131.953 42.968 165.979 41.0001 187.468 41.0001L615.47 41.0001C620.843 41.0001 615.47 40.9994 635.169 41C644.123 41.0003 642.332 47.8877 633.378 46.9038Z" fill="#DAD0C6"/>
<path d="M640.323 31.9198L192.314 31.9198C189.316 31.9198 182.391 32.1226 158.129 30.2799C136.538 28.64 170.724 27.0001 192.314 27.0001L622.33 27.0001C627.728 27.0001 622.33 26.9995 642.122 27C651.118 27.0002 649.319 32.7398 640.323 31.9198Z" fill="#DAD0C6"/>
<path d="M113.801 65.5667C115.695 45.8244 112.757 29.9708 113.801 22.4926H120.065L120.065 100.564H109.625H98.1405L92.9203 79.9248C98.8365 79.6257 112.818 75.8108 113.801 65.5667Z" fill="#DAD0C6" fill-opacity="0.61"/>
<path d="M113.801 65.5667C115.695 45.8244 112.757 29.9708 113.801 22.4926H120.065L120.065 100.564H109.625H98.1405L92.9203 79.9248C98.8365 79.6257 112.818 75.8108 113.801 65.5667Z" fill="black" fill-opacity="0.1"/>
<path d="M137.814 53.9008C139.708 34.1585 140.946 29.9708 141.99 22.4926H148.254L148.254 100.564H137.814H126.329L121.109 79.9248C127.026 79.6257 136.831 64.1449 137.814 53.9008Z" fill="black" fill-opacity="0.1"/>
<path d="M126.33 104.154C122.154 104.154 117.629 99.6674 116.933 97.8727L116.933 24.2877C116.933 23.3904 119.439 21.9545 125.286 19.8008C131.132 17.6471 136.422 18.9035 136.77 21.5956C133.638 23.3904 130.842 30.6164 129.462 35.9536C127.374 44.03 129.462 54.7985 129.462 66.4645C129.462 75.7972 128.418 95.1805 136.77 99.6674C135.726 100.864 130.506 104.154 126.33 104.154Z" fill="#DAD0C6"/>
<path d="M99.1841 104.154C95.0079 104.154 90.4837 99.6674 89.7877 97.8727L89.7877 24.2877C89.7877 23.3904 92.2934 21.9545 98.1401 19.8008C103.987 17.6471 109.277 18.9035 109.625 21.5956C106.492 23.3904 103.696 30.6164 102.316 35.9536C100.228 44.03 102.316 54.7985 102.316 66.4645C102.316 75.7972 101.272 95.1805 109.625 99.6674C108.581 100.864 103.36 104.154 99.1841 104.154Z" fill="#DAD0C6"/>
<path d="M153.475 104.154C149.299 104.154 144.775 99.6674 144.079 97.8727L144.079 24.2877C144.079 23.3904 146.584 21.9545 152.431 19.8008C158.278 17.6471 163.568 18.9035 163.916 21.5956C160.783 23.3904 157.987 30.6164 156.607 35.9536C154.519 44.03 156.607 54.7985 156.607 66.4645C156.607 75.7972 155.563 95.1805 163.916 99.6674C162.871 100.864 157.651 104.154 153.475 104.154Z" fill="#DAD0C6"/>
<rect x="39.6743" y="100.564" width="78.9692" height="45.938" transform="rotate(-90 39.6743 100.564)" fill="#DAD0C6"/>
<path d="M79.3479 101.463L42.8063 101.463L37.4866 21.5963H56.2794C55.2353 40.1421 54.2908 65.5678 56.3789 75.439C58.467 85.3101 72.7356 89.797 79.3479 88.0022V101.463Z" fill="#C7BBAE" fill-opacity="0.78"/>
<path d="M75.1711 65.4537C75.1711 79.0938 75.5192 96.8619 77.2592 103.144C78.3033 106.733 81.6442 108.707 86.6556 109.425C91.6671 110.143 95.008 107.331 95.008 104.938C93.6159 95.0672 90.8318 72.8122 90.8318 62.7616C90.8318 52.711 91.5278 36.4382 92.9199 28.661C93.6159 28.0627 97.547 13.179 88.7437 14.4171C75.1711 16.326 78.2698 16.7621 77.2592 23.2767C75.1711 36.7374 75.1711 51.8135 75.1711 65.4537Z" fill="#F5EADF"/>
<path d="M82.7017 83.5152C82.7017 97.1553 73.6533 89.7968 75.3934 96.0785C75.3934 106.847 80.8224 108.707 85.8339 109.425C90.8453 110.143 96.052 107.445 96.052 105.052C94.66 95.181 92.0981 72.9261 92.0981 62.8755C92.0981 52.8249 92.7942 36.4383 94.1862 28.661C94.8823 28.0628 96.3607 14.4172 90.01 14.4172C80.6136 14.4172 85.8339 22.4936 85.8339 28.661C85.8339 42.2408 82.7017 69.8751 82.7017 83.5152Z" fill="#E8DCCF"/>
<path d="M29.2337 65.4537C29.2337 79.0938 29.5817 96.8619 31.3218 103.144C32.3658 106.733 35.7068 108.707 40.7182 109.425C45.7296 110.143 49.0706 107.331 49.0706 104.938C47.6785 95.0672 44.8944 72.8122 44.8944 62.7616C44.8944 52.711 45.5904 36.4382 46.9825 28.661C47.6785 28.0627 51.6095 13.179 42.8063 14.4171C29.2337 16.326 32.3324 16.7621 31.3218 23.2767C29.2337 36.7374 29.2337 51.8135 29.2337 65.4537Z" fill="#F5EADF"/>
<path d="M38.764 84.329C38.764 98.4838 29.8213 90.8477 31.5411 97.3664C31.5411 108.541 36.9067 110.472 41.8595 111.217C46.8123 111.962 50.1142 109.044 50.1142 106.561C48.7384 96.317 45.9869 73.2222 45.9869 62.7923C45.9869 52.3624 46.6747 35.4756 48.0505 27.4049C48.7384 26.784 52.2633 12.6235 45.9869 12.6235C36.7003 12.6235 41.8595 21.0046 41.8595 27.4049C41.8595 41.4971 38.764 70.1741 38.764 84.329Z" fill="#E8DCCF"/>
<path d="M0.564295 103.667L1.74743 25.6015C1.8245 20.5168 0.174694 14.7447 6.18164 8.59993C15.7268 -1.16422 24.6981 -2.14976 39.6562 4.49091C43.8048 6.3327 50.9292 31.7928 30.9102 30.4183L31.0022 93.2412C48.7902 90.7498 44.2608 114.032 41.0609 118.484C38.3171 122.3 27.3807 125.509 20.0731 125.426C13.8093 125.355 0.319508 119.818 0.564295 103.667Z" fill="#CBBFB3"/>
<path d="M29.2333 102.361C25.1818 103.232 23.6651 107.745 25.0571 108.643C22.969 108.044 20.0718 103.853 21.925 101.464C24.0131 98.7714 26.2882 96.5682 32.3654 97.8741C36.5416 98.7714 36.8896 105.651 36.5416 107.745C34.8016 106.25 33.4095 101.464 29.2333 102.361Z" fill="#A49A8F"/>
<path d="M36.5418 107.745C28.1894 117.616 23.178 116.181 19.8371 114.027C16.9724 112.181 13.7422 106.848 14.6168 102.361C13.3175 105.353 12.7376 114.566 17.749 116.719C22.7604 118.873 31.3215 123.001 36.5418 107.745Z" fill="#A49A8F"/>
<path d="M30.9316 19.8455C26.787 19.4049 24.6428 15.0833 25.8975 14.0471C23.9096 14.8592 21.627 19.3224 23.8046 21.5003C26.2581 23.9541 28.8282 25.9031 34.6755 23.9716C38.6937 22.6443 38.0655 15.7791 37.4237 13.7371C35.9082 15.4036 35.2038 20.2996 30.9316 19.8455Z" fill="#A49A8F"/>
<path d="M37.4239 13.7357C27.7366 4.81083 22.9655 6.75966 19.9542 9.24666C17.3721 11.3791 14.9205 17.0096 16.4236 21.3717C14.7106 18.5385 12.8312 9.45453 17.5006 6.79288C22.17 4.13124 30.0835 -0.860916 37.4239 13.7357Z" fill="#A49A8F"/>
<path d="M10.4406 69.1573C10.4406 81.3616 12.5286 93.0874 13.5727 101.463L13.5727 68.2599L13.5727 29.6727C12.5286 35.057 10.4406 56.953 10.4406 69.1573Z" fill="#A49A8F"/>
<path d="M18.7932 96.9771C16.2875 98.413 13.921 102.062 13.573 103.259L13.573 80.8244C15.3131 81.1235 19.8373 80.1065 24.0134 70.0558C28.1896 60.0052 27.1456 46.724 30.2777 30.5712L31.3218 93.3876C28.1896 93.9859 21.2989 95.5413 18.7932 96.9771Z" fill="#B7A798" fill-opacity="0.48"/>
</svg>
