<svg width="570" height="266" viewBox="0 0 570 266" fill="none" xmlns="http://www.w3.org/2000/svg">
<g filter="url(#filter0_d_934_3078)">
<path d="M51.06 119.15C43.17 121.87 36.39 122.78 30.75 121.41C25.06 119.68 20.41 115.73 16.75 109.3C13.08 102.05 10.36 93.37 8.61 83.76C6.85 74.3 6 65.95 6 58.94C6 57.77 6 56.6 6 55.45C6 48.48 6.88 41.94 8.64 35.65C10.48 29.28 13.24 23.57 16.91 18.51C20.68 13.46 25.36 9.44 30.97 6.44C36.56 3.48 43.11 2 50.64 2C58.63 2 65.69 3.77 71.84 7.33C78.05 10.81 83.03 15.76 86.74 22.19C90.46 28.55 92.61 35.95 93.2 44.44C85.8 44.59 78.4 44.76 70.98 44.96C70.43 41.27 69.25 38.08 67.42 35.38C65.6 32.68 63.26 30.62 60.39 29.2C57.53 27.66 54.26 26.92 50.59 26.93C47.15 26.92 44.03 27.67 41.24 29.12C38.51 30.6 36.19 32.71 34.28 35.47C32.44 38.14 31 41.45 29.96 45.4C28.99 49.43 28.5 54.05 28.5 59.32C28.49 64.72 28.97 69.68 29.92 74.13C30.96 78.59 32.44 82.39 34.32 85.42C36.32 88.38 38.71 90.43 41.5 91.64C44.28 92.66 47.48 92.84 51.07 92.21C56.64 91.26 61.36 88.81 65.17 84.87C69.08 81.05 71.44 76.3 72.22 70.61C79.64 70.11 87.04 69.65 94.42 69.26C93.7 77.06 91.5 84.27 87.84 90.98C84.17 97.72 79.25 103.45 73.04 108.24C66.83 113.18 59.51 116.77 51.06 119.15ZM148.65 108.09C140.72 108.27 133.83 106.98 127.95 104.17C122.07 101.29 117.2 97.42 113.31 92.54C109.43 87.54 106.52 82.03 104.64 75.98C102.74 69.89 101.8 63.9 101.81 58.07C101.82 57.03 101.83 55.99 101.84 54.95C101.87 48.41 102.88 42.03 104.9 35.78C106.93 29.42 109.95 23.72 113.97 18.67C117.98 13.63 122.9 9.66 128.73 6.76C134.62 3.94 141.35 2.82 148.87 3.52C156.26 4.39 162.74 6.72 168.32 10.31C174 13.9 178.78 18.29 182.66 23.45C186.56 28.56 189.5 34.08 191.52 39.97C193.59 45.75 194.69 51.53 194.77 57.4C194.78 58.31 194.8 59.24 194.81 60.18C194.87 65.41 193.96 70.77 192.08 76.26C190.25 81.78 187.44 86.94 183.63 91.73C179.8 96.47 174.98 100.36 169.16 103.38C163.33 106.37 156.49 107.94 148.65 108.09ZM148.57 85.15C152.36 85.14 155.75 84.45 158.74 83.05C161.71 81.66 164.27 79.75 166.39 77.24C168.51 74.77 170.1 71.88 171.18 68.61C172.26 65.26 172.78 61.62 172.76 57.71C172.73 53.5 172.14 49.66 170.95 46.14C169.85 42.63 168.23 39.56 166.12 36.9C164.02 34.25 161.51 32.12 158.56 30.54C155.61 28.96 152.3 28.04 148.63 27.8C144.87 27.56 141.51 28.07 138.51 29.32C135.51 30.6 132.95 32.52 130.8 35.07C128.65 37.61 127.02 40.7 125.88 44.31C124.75 47.92 124.18 51.96 124.17 56.4C124.16 60.56 124.69 64.42 125.81 67.97C126.9 71.44 128.52 74.48 130.66 77.07C132.8 79.68 135.38 81.66 138.37 83.06C141.38 84.47 144.78 85.17 148.57 85.15ZM208.68 105.06C208.22 74.83 207.64 44.67 207.02 14.47C216.89 15.88 226.74 17.3 236.62 18.69C243.01 34.3 249.5 49.53 255.99 64.64C256.79 64.66 257.58 64.68 258.36 64.72C263.62 50.22 268.69 36.21 273.6 22.77C284.1 22.8 294.83 22.09 305.71 20.96C307.13 48.26 308.19 76.29 308.94 105.05C301.57 105.09 294.19 105.11 286.83 105.12C286.16 80.77 285.22 56.97 283.91 34.11C285.08 34.18 286.25 34.21 287.43 34.26C280.91 51.68 274.19 69.56 267.35 87.9C260.63 87.84 253.93 87.77 247.24 87.67C239.25 68.65 231.27 49.47 223.36 29.93C224.55 29.99 225.74 30.04 226.92 30.09C227.69 54.91 228.34 79.9 228.86 105.11C222.12 105.08 215.4 105.09 208.68 105.06ZM327.08 104.96C326.41 75.78 325.52 47.08 324.45 18.66C332.19 17.66 339.97 16.64 347.73 15.61C348.45 45.29 349.07 74.95 349.58 104.84C342.07 104.9 334.57 104.94 327.08 104.96ZM367.74 104.74C367.36 74.23 366.94 43.74 366.51 13.12C379.23 11.46 391.96 9.82 404.65 8.23C414.51 33.65 424.3 59.32 434.08 85.01C435.47 85.01 436.9 85 438.31 85.01C437.49 85.79 436.7 86.6 435.89 87.4C435.96 60.63 436.15 33.38 436.53 5.43C443.57 5.23 450.57 5.11 457.55 5.04C457.21 38.97 456.99 72.19 456.86 104.77C444.51 104.63 432.16 104.56 419.79 104.54C409.92 79.27 400.01 54.2 389.97 29.47C388.54 29.63 387.09 29.76 385.64 29.9C386.47 29.02 387.29 28.16 388.1 27.31C388.23 53.26 388.39 79.01 388.57 104.62C381.63 104.66 374.68 104.7 367.74 104.74ZM517.25 110.05C508.98 109.43 501.87 107.49 495.92 104.18C489.99 100.81 485.14 96.59 481.38 91.47C477.63 86.36 474.87 80.8 473.14 74.81C471.41 68.8 470.54 62.92 470.57 57.15C470.6 56.15 470.6 55.14 470.6 54.12C470.64 47.88 471.61 41.69 473.51 35.59C475.42 29.36 478.23 23.72 481.95 18.71C485.76 13.69 490.46 9.71 496.09 6.74C501.71 3.7 508.29 2.2 515.79 2.27C523.88 2.39 530.99 4.34 537.14 8.2C543.37 12.22 548.36 17.89 552.12 25.27C555.87 32.8 558.07 41.4 558.71 50.86C551.22 49.29 543.76 47.89 536.29 46.67C535.84 43.31 534.68 40.19 532.84 37.38C531.01 34.49 528.61 32.19 525.65 30.47C522.78 28.69 519.45 27.71 515.68 27.51C512.08 27.34 508.86 27.97 506.06 29.38C503.32 30.71 500.99 32.71 499.04 35.38C497.19 37.96 495.76 41.07 494.78 44.69C493.79 48.28 493.29 52.22 493.27 56.5C493.25 60.75 493.75 64.74 494.78 68.47C495.79 72.09 497.31 75.3 499.31 78.16C501.3 80.91 503.83 83.11 506.88 84.79C509.92 86.46 513.42 87.49 517.36 87.89C522.35 88.44 526.66 87.81 530.27 86.02C533.91 84.28 536.47 81.63 537.9 78.02C537.34 82.83 536.75 87.59 536.19 92.29C536.19 85.32 536.22 78.19 536.23 70.95C543.07 72.37 549.9 74.02 556.75 75.92C556.74 82.58 556.71 88.98 556.72 95.12C553 100.62 547.72 104.63 540.85 107.19C534.07 109.89 526.21 110.85 517.25 110.05ZM515.01 73.04C515.04 67.03 515.06 60.98 515.07 54.88C531.38 57 547.66 60.07 564 64.1C563.98 70.86 563.98 77.25 563.98 83.28C547.65 78.8 531.33 75.37 515.01 73.04ZM73.55 239.03C65.39 236.23 58.5 232.67 52.92 228.49C47.41 224.52 46.11 221.62 43.22 217.43C40.42 213.53 40.46 208.57 40.46 204.77C47.65 205.68 54.85 206.7 62.02 207.82C62.02 209.52 62.59 211.23 63.7 212.93C64.9 214.61 66.66 216.17 68.99 217.55C71.31 218.97 74.27 220.15 77.87 221.06C80.98 221.85 83.62 222.12 85.77 221.87C88 221.62 89.68 220.89 90.79 219.69C91.99 218.5 92.57 216.88 92.56 214.85C92.55 212.26 91.48 210.1 89.32 208.39C87.16 206.64 83.53 205.23 78.41 204.11C76.54 203.7 74.66 203.32 72.79 202.92C63.78 201.16 56.6 198.29 51.24 194.49C45.9 191.27 43.21 187.27 43.21 182.02C43.2 178.16 44.52 174.38 47.15 170.61C49.86 166.61 53.65 162.91 58.51 159.71C63.35 156.56 69.09 154.34 75.72 153.18C82.89 152.17 88.94 152.71 93.87 154.69C98.89 156.81 102.73 160.09 105.36 164.52C108 168.9 109.34 174.12 109.36 180.1C102.17 179.96 95 179.85 87.83 179.77C87.82 177.96 87.34 176.27 86.39 174.77C85.43 173.29 84.02 172.17 82.19 171.44C80.44 170.64 78.28 170.35 75.73 170.55C73.33 170.74 71.3 171.29 69.63 172.18C68.03 172.97 66.81 173.99 65.92 175.25C65.13 176.47 64.73 177.77 64.74 179.16C64.74 181 65.5 182.54 67.01 183.8C68.53 185.09 71.17 185.89 74.91 186.18C76.8 186.36 78.67 186.54 80.54 186.71C87.09 187.47 92.87 189.14 97.89 191.74C102.93 194.39 106.89 197.93 109.77 202.38C112.67 206.96 114.11 212.43 114.14 218.83C114.17 225.3 112.72 230.67 109.76 234.8C106.9 238.8 102.76 241.19 97.33 241.97C91.96 242.64 81.13 241.63 73.55 239.03ZM168.72 254.16C160.74 256.47 153.79 256.36 147.86 253.35C141.92 249.43 134.26 245.52 130.32 239.19C126.37 232.91 123.28 225.39 121.34 218.86C119.41 212.5 121.3 206.21 121.27 200.64C121.28 199.65 121.26 198.67 121.27 197.72C121.25 191.64 122.22 185.8 124.19 180.11C126.17 174.33 129.13 169.08 133.1 164.34C137.07 159.59 141.93 155.72 147.72 152.79C153.6 149.79 160.4 148.17 168.1 147.9C175.73 147.58 182.45 148.63 188.28 151.05C194.19 153.43 199.14 156.72 203.16 160.9C207.18 165.08 210.22 169.79 212.26 175.06C214.37 180.19 215.46 185.5 215.51 191.06C215.52 191.94 215.52 192.82 215.53 193.71C215.58 198.7 214.61 204.05 212.66 209.81C210.79 215.61 207.91 221.38 204.03 227.16C200.16 232.98 195.3 238.33 189.41 243.16C183.52 248.02 176.62 251.72 168.72 254.16ZM168.59 228.78C172.42 228.11 175.84 226.67 178.86 224.58C181.89 222.5 184.47 219.94 186.61 216.9C188.75 213.9 190.36 210.64 191.44 207.09C192.55 203.5 193.08 199.78 193.05 195.91C193.02 191.78 192.4 188.11 191.18 184.9C190.03 181.69 188.38 178.97 186.21 176.75C184.05 174.53 181.44 172.87 178.4 171.8C175.36 170.72 171.99 170.28 168.25 170.49C164.43 170.69 160.99 171.53 157.99 172.99C154.97 174.43 152.38 176.43 150.25 179C148.1 181.55 146.48 184.58 145.4 188.12C144.3 191.67 143.76 195.65 143.78 200.07C143.81 204.27 144.37 208.23 145.52 211.96C146.62 215.6 148.29 218.86 150.46 221.64C152.63 224.44 155.24 226.52 158.28 227.86C161.32 229.09 164.76 229.41 168.59 228.78ZM274.17 226.15C267.69 227.03 257.1 225.8 251.18 225.22C245.26 224.49 240.42 221.42 236.49 218.38C232.55 215.16 229.61 211.23 227.64 206.61C225.7 201.91 224.69 197.12 224.64 192.28C224.64 191.41 224.64 190.55 224.63 189.71C224.57 184.31 225.52 178.88 227.47 173.49C229.41 168.05 232.33 163.06 236.26 158.56C240.2 154.15 245.05 150.57 250.83 147.85C256.68 145.19 263.49 143.81 271.22 143.66C278.89 143.59 285.63 144.78 291.52 147.22C297.47 149.71 302.49 153.05 306.55 157.22C310.61 161.43 313.67 166.1 315.73 171.22C317.88 176.25 318.97 181.31 319.02 186.32C319.04 187.11 319.04 187.9 319.05 188.7C319.1 193.13 318.14 197.5 316.19 201.75C314.31 205.92 311.45 209.46 307.55 212.39C303.66 215.07 305.62 217.14 292.87 222.04C286.97 223.11 282.08 224.55 274.17 226.15ZM271.99 206.23C275.82 205.87 279.25 205.18 282.26 204.14C285.3 203.18 287.89 201.86 290.02 200.16C292.17 198.44 293.79 196.41 294.87 194.02C295.97 191.51 296.49 188.77 296.47 185.71C296.43 182.43 295.8 179.39 294.55 176.62C293.41 173.83 291.74 171.41 289.55 169.36C287.38 167.34 284.77 165.75 281.7 164.69C278.66 163.63 275.25 163.12 271.49 163.19C267.67 163.31 264.25 163.99 261.22 165.23C258.21 166.49 255.64 168.23 253.52 170.44C251.39 172.66 249.78 175.27 248.7 178.26C247.61 181.22 247.08 184.46 247.12 187.97C247.16 191.22 247.73 194.14 248.89 196.76C250.02 199.24 251.67 201.31 253.86 202.94C256.03 204.52 258.63 205.59 261.68 206.13C264.72 206.68 268.16 206.69 271.99 206.23ZM332.94 230.08C332.68 202.96 332.39 175.31 332.04 147.15C344.28 147.75 356.52 148.33 368.76 148.93C378.72 174.45 388.66 201.26 398.59 229.32C399.98 229.59 401.37 229.85 402.78 230.1C401.98 230.83 401.21 231.55 400.41 232.28C400.17 204.13 399.95 176.78 399.79 150.26C406.76 150.47 413.73 150.66 420.69 150.82C420.76 167.35 420.86 184.37 420.98 201.9C421.11 219.43 421.25 237.44 421.43 255.98C409.18 253.22 396.93 250.04 384.64 246.34C374.67 218.39 364.72 191.72 354.74 166.34C353.35 166.23 351.94 166.11 350.53 165.98C351.33 165.32 352.13 164.66 352.91 164C353.16 188.23 353.39 212.43 353.62 236.6C346.72 234.41 339.84 232.25 332.94 230.08ZM434.85 255.56C434.76 245.16 434.66 234.9 434.59 224.84C442.32 224.32 450.04 223.63 457.76 222.74C457.79 232.11 457.81 241.49 457.83 250.88C450.19 252.6 442.53 254.16 434.85 255.56ZM467.25 248.66C467.25 239.58 467.25 230.49 467.24 221.42C474.95 220.27 482.68 219.08 490.4 217.88C490.32 226.25 490.25 234.69 490.19 243.15C482.54 245 474.88 246.85 467.25 248.66ZM499.62 240.91C499.7 232.68 499.8 224.53 499.91 216.44C507.64 215.37 515.39 214.37 523.15 213.45C522.95 220.67 522.76 228.01 522.6 235.48C514.94 237.27 507.27 239.08 499.62 240.91Z" fill="white"/>
</g>
<defs>
<filter id="filter0_d_934_3078" x="0.3" y="0.3" width="569.4" height="265.38" filterUnits="userSpaceOnUse" color-interpolation-filters="sRGB">
<feFlood flood-opacity="0" result="BackgroundImageFix"/>
<feColorMatrix in="SourceAlpha" type="matrix" values="0 0 0 0 0 0 0 0 0 0 0 0 0 0 0 0 0 0 127 0" result="hardAlpha"/>
<feOffset dy="4"/>
<feGaussianBlur stdDeviation="2.85"/>
<feComposite in2="hardAlpha" operator="out"/>
<feColorMatrix type="matrix" values="0 0 0 0 0 0 0 0 0 0 0 0 0 0 0 0 0 0 0.25 0"/>
<feBlend mode="normal" in2="BackgroundImageFix" result="effect1_dropShadow_934_3078"/>
<feBlend mode="normal" in="SourceGraphic" in2="effect1_dropShadow_934_3078" result="shape"/>
</filter>
</defs>
</svg>
