<svg width="162" height="145" viewBox="0 0 162 145" fill="none" xmlns="http://www.w3.org/2000/svg">
<path d="M120 110.394C120 107.936 123.039 105.107 124.559 104H130.924C130.981 106.934 131.062 113.301 130.924 115.294C130.786 117.287 123.584 124.595 120 128V110.394Z" fill="#6899B4"/>
<path d="M60.7768 37.5298C59.1135 40.1288 54.6432 47.5101 68.366 58.9457L111.51 44.0794C111.025 38.5694 109.015 29.5248 102.673 24.0149L78.3462 0C76.267 24.5347 74.0467 27.2972 72.0046 29.5248C69.7175 32.0199 62.4402 34.9308 60.7768 37.5298Z" fill="#9BB1C5"/>
<path d="M60.7773 62.3765V79.634L149.456 96.2676L161.827 79.634H156.525L160.06 73.3963C151.085 65.5992 131.367 48.6121 124.297 43.0398C115.461 36.0744 107.456 36.4903 104.337 36.4903C101.218 36.4903 87.8071 34.619 60.7773 62.3765Z" fill="#F4F4F4"/>
<path d="M120.659 79.8416H60.6738C63.758 87.2228 73.8145 102.651 89.367 105.312H128.456C133.134 105.312 144.154 103.212 150.808 94.812C147.793 96.8912 131.159 93.8763 128.456 83.7921V71.2129L120.659 79.8416Z" fill="#B5CBE0"/>
<path d="M38 127.891L72.411 101.173L82.3912 94C81.7675 97.3267 81.9624 108.866 80.416 112.401C77.5051 119.055 71.0595 127.891 65.1338 127.891H38Z" fill="#6899B4"/>
<path d="M93.3174 117.268C93.3174 113.692 97.4758 107.08 102.466 103.545L114.941 96.8916C115.218 102.748 115.024 122.009 112.862 125.585L93.3174 144.61V117.268Z" fill="#6899B4"/>
<path d="M33.2278 79.6342L1 31.6043C25.5347 30.1489 33.2278 32.8518 37.4902 37.1142C40.9001 40.5241 54.7131 55.7232 61.1933 62.8965V79.6342H33.2278Z" fill="#9BB1C5"/>
<path d="M21.1241 109.574C20.9154 96.2211 19.2459 90.4834 33.646 79.6338H61.0898C60.4637 86.2061 45.3331 109.574 21.1241 109.574Z" fill="#6899B4"/>
<circle cx="139.475" cy="74.8523" r="3.53493" fill="#383838"/>
<path d="M31.5645 76.3066H62.1289" stroke="white" stroke-width="2"/>
<path d="M26.9902 69.8613H62.129" stroke="white" stroke-width="2"/>
<path d="M17.9453 56.8672H55.6831" stroke="white" stroke-width="2"/>
<path d="M13.8906 50.9414H50.069" stroke="white" stroke-width="2"/>
<path d="M9.83691 44.9121H44.8717" stroke="white" stroke-width="2"/>
<path d="M5.99023 38.7773H38.9458" stroke="white" stroke-width="2"/>
<path d="M1.83203 32.8516H29.1737" stroke="white" stroke-width="2" stroke-linecap="round"/>
<path d="M22.208 63.001H61.921" stroke="white" stroke-width="2"/>
<path d="M77.4111 8.00488L104.961 36.802" stroke="#F4F4F4" stroke-width="1.5"/>
<path d="M76.5801 16.2168L97.3722 38.6723" stroke="#F4F4F4" stroke-width="1.5"/>
<path d="M74.708 24.9502L90.4061 42.4156" stroke="#F4F4F4" stroke-width="1.5"/>
<path d="M70.8613 30.668L83.4406 45.4304" stroke="#F4F4F4" stroke-width="1.5"/>
<path d="M64.5195 34.3066L78.0344 50.9404" stroke="#F4F4F4" stroke-width="1.5"/>
<path d="M60.1533 38.9863L73.0445 54.6844" stroke="#F4F4F4" stroke-width="1.5"/>
</svg>
