<svg width="217" height="95" viewBox="0 0 217 95" fill="none" xmlns="http://www.w3.org/2000/svg">
<ellipse cx="24.7337" cy="25.7448" rx="24.7337" ry="25.7448" transform="matrix(0.0103576 -0.999946 0.999961 0.00884217 86 94.4648)" fill="#B5DAFC" fill-opacity="0.56"/>
<ellipse cx="2.19875" cy="5.43489" rx="2.19875" ry="5.43489" transform="matrix(0.900729 -0.434381 0.491857 0.870676 123.233 57.2314)" fill="white" fill-opacity="0.62"/>
<ellipse cx="14.7451" cy="15.3479" rx="14.7451" ry="15.3479" transform="matrix(0.0103576 -0.999946 0.999961 0.00884217 0 29.4883)" fill="#B5DAFC" fill-opacity="0.56"/>
<ellipse cx="1.3108" cy="3.24003" rx="1.3108" ry="3.24003" transform="matrix(0.900729 -0.434381 0.491857 0.870676 22.1973 7.29199)" fill="white" fill-opacity="0.62"/>
<ellipse cx="10.9003" cy="11.3459" rx="10.9003" ry="11.3459" transform="matrix(0.0103576 -0.999946 0.999961 0.00884217 194.084 39.7998)" fill="#B5DAFC" fill-opacity="0.56"/>
<ellipse cx="0.969002" cy="2.39518" rx="0.969002" ry="2.39518" transform="matrix(0.900729 -0.434381 0.491857 0.870676 210.493 23.3906)" fill="white" fill-opacity="0.62"/>
</svg>
