<svg width="187" height="257" viewBox="0 0 187 257" fill="none" xmlns="http://www.w3.org/2000/svg">
<path d="M38.4318 71.0503C23.5927 58.636 -2.66086 45.2484 -13.9328 40.1064L-10.9824 37.5013C0.463794 43.1457 27.5539 57.816 38.9429 67.0549C51.8623 77.5354 68.8551 94.9846 73.1909 102.182C79.0893 113.985 81.1751 134.248 81.3672 143.004C81.5593 151.76 83.0028 167.155 85.7248 175.384C89.596 187.087 104.68 198.681 111.055 202.241C116.52 206.235 133.662 211.681 141.549 213.905L140.906 216.836C132.873 215.423 116.536 208.296 109.371 204.908C94.5417 196.896 85.7637 183.357 83.2284 177.588C78.4398 162.285 78.8299 150.757 78.1208 143.901C76.0308 123.695 72.9337 108.447 70.499 104.165C63.0424 92.7929 46.1547 77.3571 38.4318 71.0503Z" fill="url(#paint0_radial_934_2408)"/>
<path d="M18.4731 26.0637C14.0543 30.1338 12.4535 44.3246 12.2201 50.9201C22.0628 52.8171 32.2052 46.6991 36.0461 43.403C38.8963 39.7336 38.5906 32.8129 38.0815 29.8112C38.2782 25.3492 41.74 20.2301 43.4462 18.2282C27.9363 16.1453 21.3453 23.4181 18.4731 26.0637Z" fill="#698192"/>
<path d="M20.6609 26.7143C16.3632 30.8575 14.1287 45.0006 13.6359 51.4395C22.7522 52.8982 32.7027 46.8066 36.4283 43.4409C39.2438 39.7506 39.1741 32.4955 38.8235 29.5894C39.1932 25.2318 42.7686 19.8466 44.446 17.8274C30.0429 16.4123 23.4545 24.0212 20.6609 26.7143Z" fill="url(#paint1_linear_934_2408)"/>
<path d="M26.6056 33.4986C23.5071 40.4632 16.8603 48.3655 14.3076 50.8408C16.999 50.3231 21.4183 45.3154 23.2916 42.8763C26.2479 39.0383 27.376 36.0827 28.0306 34.3583C28.8101 31.8839 33.8729 26.1714 35.253 23.9925C30.8153 26.3344 27.8736 30.8058 26.6056 33.4986Z" fill="#496A81" fill-opacity="0.55"/>
<path d="M25.4736 47.2042C23.3522 48.0658 20.2525 47.8463 18.9678 47.6289C20.6538 47.04 23.9415 46.1682 25.3746 45.8059C25.8099 45.5332 29.7512 42.8695 31.6674 41.5717C30.3852 44.0105 27.004 46.3428 25.4736 47.2042Z" fill="#496A81" fill-opacity="0.55"/>
<path d="M30.8516 90.8366C35.4659 88.4541 40.1785 76.8776 41.9481 71.3762C34.2917 67.447 24.4717 70.1993 20.5187 72.0666C17.2928 74.4829 15.8896 80.386 15.5912 83.0355C14.362 86.748 10.2855 90.241 8.40087 91.5235C20.6823 96.9516 27.8523 92.3853 30.8516 90.8366Z" fill="#698192"/>
<path d="M29.2048 89.7706C33.7368 87.2978 38.9602 75.9116 40.9061 70.6035C33.7434 67.2155 24.0878 69.9911 20.2132 71.9443C17.0108 74.3865 15.3332 80.5154 14.9271 83.0468C13.5804 86.6305 9.34659 90.3207 7.48155 91.6246C19.0107 96.2279 26.259 91.3778 29.2048 89.7706Z" fill="url(#paint2_linear_934_2408)"/>
<path d="M25.9286 82.6463C30.1472 77.5126 37.5137 72.4291 40.209 70.9482C37.8676 70.747 33.0287 73.9193 30.9019 75.5306C27.5482 78.0639 25.9118 80.2868 24.9601 81.5845C23.7261 83.4846 18.1884 87.0983 16.5301 88.6071C20.7467 87.6851 24.2399 84.6147 25.9286 82.6463Z" fill="#496A81" fill-opacity="0.55"/>
<path d="M30.1404 71.3678C32.0944 71.1443 34.596 72.0633 35.6025 72.5508C34.0725 72.6476 31.1551 72.6035 29.8876 72.5693C29.4637 72.696 25.5792 74.0067 23.69 74.6462C25.3297 72.8952 28.6735 71.731 30.1404 71.3678Z" fill="#496A81" fill-opacity="0.55"/>
<path d="M77.7032 80.7505C75.1804 84.4321 64.8067 87.2192 59.927 88.1429C57.3908 81.1956 60.7827 73.1141 62.7957 69.9417C65.1996 67.4477 70.3829 66.8792 72.6741 66.9067C75.9709 66.2535 79.3835 63.1487 80.6776 61.6779C83.9999 72.729 79.3429 78.3576 77.7032 80.7505Z" fill="#698192"/>
<path d="M76.9693 79.2323C74.3784 82.8341 64.1126 86.077 59.379 87.1717C57.2518 80.703 60.6461 72.7641 62.7241 69.6677C65.1474 67.1966 70.5526 66.4181 72.7545 66.3411C75.9539 65.5739 79.5514 62.356 80.8618 60.9043C83.5608 71.226 78.6534 76.8912 76.9693 79.2323Z" fill="url(#paint3_linear_934_2408)"/>
<path d="M71.2435 75.6818C66.4166 78.7331 61.2977 84.4743 59.748 86.6152C59.8256 84.5971 63.0457 80.8081 64.646 79.1658C67.1633 76.5753 69.2331 75.4164 70.441 74.7429C72.1926 73.8927 75.8636 69.5547 77.3267 68.3011C76.0918 71.7988 73.1017 74.4511 71.2435 75.6818Z" fill="#496A81" fill-opacity="0.55"/>
<path d="M61.1768 78.0725C60.7783 79.7151 61.2959 81.9462 61.6045 82.8564C61.8499 81.5619 62.1226 79.0693 62.2284 77.9848C62.3815 77.6367 63.9125 74.4636 64.6589 72.9205C62.9912 74.1325 61.6427 76.8602 61.1768 78.0725Z" fill="#496A81" fill-opacity="0.55"/>
<path d="M99.2111 127.365C93.4788 128.31 84.344 139.194 80.4997 144.533C87.1829 151.516 98.5505 152.019 103.399 151.398C107.676 149.923 111.277 144.018 112.543 141.25C115.174 137.659 120.736 135.318 123.189 134.597C112.154 124.344 102.937 126.75 99.2111 127.365Z" fill="#698192"/>
<path d="M100.569 129.106C94.891 130.178 85.2846 140.674 81.3233 145.741C87.6789 151.962 98.8809 152.381 103.677 151.639C107.939 150.128 111.911 144.075 113.248 141.473C115.957 138.064 121.757 135.565 124.196 134.813C113.661 125.723 104.259 128.409 100.569 129.106Z" fill="url(#paint4_linear_934_2408)"/>
<path d="M101.475 137.997C95.1743 142.067 85.5639 144.964 82.1836 145.613C84.5863 146.664 90.8394 144.941 93.6655 143.949C98.1194 142.393 100.647 140.563 102.118 139.493C104.104 137.87 111.254 135.917 113.549 134.87C108.761 134.372 103.967 136.462 101.475 137.997Z" fill="#496A81" fill-opacity="0.55"/>
<path d="M92.9781 148.737C90.8325 148.285 88.518 146.399 87.6289 145.513C89.281 145.951 92.3489 147.036 93.6764 147.523C94.17 147.536 98.7462 147.495 100.973 147.472C98.6112 148.789 94.659 148.864 92.9781 148.737Z" fill="#496A81" fill-opacity="0.55"/>
<path d="M56.4781 134.069C62.4993 133.07 72.0838 121.626 76.1164 116.012C69.087 108.684 57.1437 108.169 52.0508 108.827C47.5592 110.381 43.7827 116.589 42.4559 119.498C39.6956 123.273 33.8547 125.739 31.2792 126.499C42.8836 137.257 52.5644 134.719 56.4781 134.069Z" fill="#698192"/>
<path d="M55.0477 132.24C61.0114 131.108 71.0917 120.07 75.2476 114.743C68.5633 108.216 56.794 107.788 51.7558 108.573C47.2807 110.165 43.1145 116.528 41.7124 119.263C38.87 122.847 32.7802 125.479 30.2184 126.272C41.297 135.809 51.1713 132.977 55.0477 132.24Z" fill="url(#paint5_linear_934_2408)"/>
<path d="M54.0856 122.902C60.7008 118.619 70.7942 115.564 74.3447 114.879C71.8192 113.778 65.2518 115.594 62.2838 116.64C57.6064 118.28 54.9534 120.206 53.4086 121.331C51.3239 123.038 43.8144 125.098 41.4053 126.201C46.4359 126.718 51.4701 124.518 54.0856 122.902Z" fill="#496A81" fill-opacity="0.55"/>
<path d="M63.0014 111.61C65.2561 112.083 67.6899 114.061 68.625 114.991C66.8888 114.532 63.6644 113.397 62.2692 112.886C61.7507 112.873 56.943 112.922 54.6039 112.948C57.0833 111.562 61.2353 111.479 63.0014 111.61Z" fill="#496A81" fill-opacity="0.55"/>
<path d="M132.982 196.104C130.303 200.182 119.014 203.455 113.695 204.572C110.765 197.038 114.297 188.134 116.429 184.624C119.004 181.846 124.663 181.111 127.171 181.09C130.764 180.304 134.429 176.837 135.812 175.201C139.693 187.202 134.723 193.453 132.982 196.104Z" fill="#698192"/>
<path d="M132.144 194.462C129.389 198.454 118.228 202.223 113.073 203.523C110.601 196.503 114.139 187.755 116.344 184.326C118.941 181.573 124.838 180.603 127.245 180.471C130.729 179.562 134.594 175.967 135.996 174.352C139.179 185.57 133.935 191.867 132.144 194.462Z" fill="url(#paint6_linear_934_2408)"/>
<path d="M125.799 190.708C120.585 194.148 115.112 200.533 113.464 202.906C113.504 200.7 116.943 196.489 118.658 194.66C121.355 191.774 123.594 190.462 124.9 189.7C126.798 188.733 130.719 183.912 132.292 182.511C131.018 186.359 127.805 189.323 125.799 190.708Z" fill="#496A81" fill-opacity="0.55"/>
<path d="M114.839 193.542C114.439 195.345 115.055 197.771 115.413 198.759C115.653 197.339 115.896 194.61 115.987 193.423C116.147 193.039 117.752 189.539 118.534 187.836C116.736 189.197 115.321 192.207 114.839 193.542Z" fill="#496A81" fill-opacity="0.55"/>
<path d="M71.2956 197.121C76.5515 194.536 82.1293 181.574 84.2503 175.403C75.7101 170.793 64.5777 173.677 60.079 175.695C56.3873 178.35 54.6701 184.983 54.273 187.967C52.8023 192.131 48.127 195.982 45.9732 197.387C59.6924 203.794 67.8792 198.802 71.2956 197.121Z" fill="#698192"/>
<path d="M69.4637 195.88C74.6289 193.191 80.7781 180.455 83.0933 174.506C75.0973 170.519 64.1497 173.433 59.7374 175.55C56.0715 178.234 54.0399 185.115 53.524 187.964C51.9238 191.979 47.0667 196.049 44.9345 197.479C57.8246 202.938 66.1063 197.627 69.4637 195.88Z" fill="url(#paint7_linear_934_2408)"/>
<path d="M65.9363 187.764C70.8094 182.064 79.2296 176.492 82.3018 174.882C79.6671 174.601 74.1399 178.073 71.7056 179.844C67.8671 182.628 65.9716 185.1 64.869 186.543C63.4344 188.661 57.1094 192.615 55.2055 194.28C59.9796 193.335 63.9876 189.948 65.9363 187.764Z" fill="#496A81" fill-opacity="0.55"/>
<path d="M70.9395 175.125C73.1472 174.917 75.9459 176.012 77.0693 176.585C75.3424 176.66 72.0549 176.543 70.627 176.476C70.1462 176.609 65.7376 178.001 63.5933 178.68C65.4818 176.74 69.2776 175.502 70.9395 175.125Z" fill="#496A81" fill-opacity="0.55"/>
<defs>
<radialGradient id="paint0_radial_934_2408" cx="0" cy="0" r="1" gradientUnits="userSpaceOnUse" gradientTransform="translate(25.2625 34.6372) rotate(66.2293) scale(209.425 40.1047)">
<stop stop-color="#B3AF8F"/>
<stop offset="0.37" stop-color="#698192"/>
<stop offset="0.685" stop-color="#B3AF8F"/>
<stop offset="1" stop-color="#496A81"/>
</radialGradient>
<linearGradient id="paint1_linear_934_2408" x1="23.1641" y1="43.1341" x2="41.8527" y2="20.2192" gradientUnits="userSpaceOnUse">
<stop stop-color="#B3AF8F"/>
<stop offset="0.795" stop-color="#66999B"/>
<stop offset="1" stop-color="#698192"/>
</linearGradient>
<linearGradient id="paint2_linear_934_2408" x1="31.0691" y1="75.3442" x2="9.87983" y2="89.7676" gradientUnits="userSpaceOnUse">
<stop stop-color="#B3AF8F"/>
<stop offset="0.795" stop-color="#66999B"/>
<stop offset="1" stop-color="#698192"/>
</linearGradient>
<linearGradient id="paint3_linear_934_2408" x1="64.4684" y1="79.2872" x2="79.0229" y2="62.7519" gradientUnits="userSpaceOnUse">
<stop stop-color="#B3AF8F"/>
<stop offset="0.795" stop-color="#66999B"/>
<stop offset="1" stop-color="#698192"/>
</linearGradient>
<linearGradient id="paint4_linear_934_2408" x1="93.4222" y1="144.094" x2="121.152" y2="136.554" gradientUnits="userSpaceOnUse">
<stop stop-color="#B3AF8F"/>
<stop offset="0.795" stop-color="#66999B"/>
<stop offset="1" stop-color="#698192"/>
</linearGradient>
<linearGradient id="paint5_linear_934_2408" x1="62.5385" y1="116.488" x2="33.415" y2="124.441" gradientUnits="userSpaceOnUse">
<stop stop-color="#B3AF8F"/>
<stop offset="0.795" stop-color="#66999B"/>
<stop offset="1" stop-color="#698192"/>
</linearGradient>
<linearGradient id="paint6_linear_934_2408" x1="118.466" y1="194.797" x2="133.997" y2="176.388" gradientUnits="userSpaceOnUse">
<stop stop-color="#B3AF8F"/>
<stop offset="0.795" stop-color="#66999B"/>
<stop offset="1" stop-color="#698192"/>
</linearGradient>
<linearGradient id="paint7_linear_934_2408" x1="71.8961" y1="179.635" x2="47.6564" y2="195.4" gradientUnits="userSpaceOnUse">
<stop stop-color="#B3AF8F"/>
<stop offset="0.795" stop-color="#66999B"/>
<stop offset="1" stop-color="#698192"/>
</linearGradient>
</defs>
</svg>
