<svg width="1280" height="340" viewBox="0 0 1280 340" fill="none" xmlns="http://www.w3.org/2000/svg">
<path d="M94.0838 137.833C25.5694 175.253 71.8672 0 0.5 0V339.5H1327.5C1308.28 224.37 1362.64 219.178 1308.28 178.366C1296.04 169.181 1270.86 220.096 1240.27 218.948C1209.69 217.799 1221.98 163.026 1181.2 158.434C1140.42 153.841 1009.5 144.628 1005.6 158.434C988.593 218.718 766.753 237.105 756.819 201.52C733.166 116.786 731.879 194.907 614.855 194.907C570.339 194.907 582.542 257.019 542.339 266.773C456.708 287.55 473.34 185.736 348.158 224.37C222.976 263.004 352.201 141.579 269.684 158.434C195.168 158.434 208.641 208.763 187.137 201.52C159.534 203.015 126.921 119.898 94.0838 137.833Z" fill="#35798F"/>
</svg>
