<svg width="1280" height="388" viewBox="0 0 1280 388" fill="none" xmlns="http://www.w3.org/2000/svg">
<path d="M54 107C-14.4911 144.432 70.3429 0 -1 0L-0.999886 387.5H1282C1271.5 267.019 1336.34 190.325 1282 149.5C1269.77 140.312 1293.08 142.648 1262.5 141.5C1231.92 140.352 1170.26 234.565 1088.24 218.019C1006.22 201.473 906.588 180.16 902.694 193.97C885.69 254.274 836.107 303.476 826.177 267.88C802.531 183.118 688.645 250.859 619.129 193.97C549.613 137.081 481.277 258.122 441.088 267.88C441.088 267.88 312.029 201.158 229.54 218.019C179.371 218.019 129.688 65.6347 54 107Z" fill="#3A7386"/>
</svg>
