<svg xmlns="http://www.w3.org/2000/svg" fill="none" viewBox="0 0 1280 358.91200000000003" style="max-height: 500px" width="1280" height="358.91200000000003">
<path fill="#3A7386" d="M54 107C-14.4911 144.432 70.3429 0 -1 0L-0.999886 338.5H1282C1271.5 218.019 1336.34 190.325 1282 149.5C1269.77 140.312 1293.08 142.648 1262.5 141.5C1231.92 140.352 1170.26 234.565 1088.24 218.019C1006.22 201.473 906.588 180.16 902.694 193.97C885.69 254.274 836.107 303.476 826.177 267.88C802.531 183.118 688.645 250.859 619.129 193.97C549.613 137.081 481.277 258.122 441.088 267.88C441.088 267.88 312.029 201.158 229.54 218.019C179.371 218.019 129.688 65.6347 54 107Z"/>
<path fill="#35798F" d="M94.0838 185.833C25.5694 223.253 18.3672 46 -53 46V2804H1338.79C1338.79 788.145 1362.64 267.178 1308.28 226.366C1296.04 217.181 1270.86 268.096 1240.27 266.948C1209.69 265.799 1221.98 211.026 1181.2 206.434C1140.42 201.841 1009.5 192.628 1005.6 206.434C988.594 266.718 766.752 285.105 756.819 249.52C733.165 164.786 731.879 242.907 614.854 242.907C570.339 242.907 582.542 305.019 542.339 314.773C456.708 335.55 473.34 233.736 348.158 272.37C222.976 311.004 352.201 189.579 269.684 206.434C195.168 206.434 208.641 256.763 187.137 249.52C159.534 251.015 126.921 167.898 94.0838 185.833Z"/>
</svg>