<svg width="241" height="237" viewBox="0 0 241 237" fill="none" xmlns="http://www.w3.org/2000/svg">
<path d="M77.5309 46.6204C71.9638 56.5546 58.0059 76.4636 46.7114 76.6259L32.0291 73.3501C24.3688 71.641 22.8071 72.6337 40.3901 83.933L32.4209 107.637C30.9086 106.405 27.4589 103.445 25.7582 101.456C23.6323 98.9703 18.3087 101.806 21.7796 107.274C25.2504 112.743 38.9974 129.222 43.8815 140.37C46.4062 146.074 47.7014 165.899 32.6847 199.565C39.7601 194.885 54.7352 184.233 58.0321 179.068C62.1532 172.611 70.8172 163.815 79.3326 161.691C87.848 159.568 103.67 157.733 107.079 154.47C110.488 151.207 105.381 150.068 104.959 145.95C104.537 141.833 109.855 145.031 107.233 141.764C98.5874 132.458 99.5287 113.222 95.5799 88.8703C91.6311 64.5191 104.286 37.8371 106.777 29.6754C109.268 21.5137 117.077 16.5502 113.247 15.6956C105.472 14.4975 86.1968 35.8129 77.5309 46.6204Z" fill="#2C5262"/>
<path d="M201.344 212.503L101.648 154.36L104.624 149.534L201.344 212.503Z" fill="#2C5262"/>
</svg>
