<svg width="51" height="56" viewBox="0 0 51 56" fill="none" xmlns="http://www.w3.org/2000/svg">
<ellipse cx="10.7165" cy="11.1546" rx="10.7165" ry="11.1546" transform="matrix(-0.0103576 -0.999946 -0.999961 0.00884217 22.5303 21.4316)" fill="#7AA5AF" fill-opacity="0.5"/>
<ellipse cx="0.952665" cy="2.3548" rx="0.952665" ry="2.3548" transform="matrix(-0.900729 -0.434381 -0.491857 0.870676 6.39844 5.2998)" fill="white" fill-opacity="0.62"/>
<ellipse cx="10.7165" cy="11.1546" rx="10.7165" ry="11.1546" transform="matrix(-0.0103576 -0.999946 -0.999961 0.00884217 44.8262 55.4619)" fill="#7AA5AF" fill-opacity="0.5"/>
<ellipse cx="0.952665" cy="2.3548" rx="0.952665" ry="2.3548" transform="matrix(-0.900729 -0.434381 -0.491857 0.870676 28.6934 39.3301)" fill="white" fill-opacity="0.62"/>
<ellipse cx="4.72281" cy="4.91588" rx="4.72281" ry="4.91588" transform="matrix(-0.0103576 -0.999946 -0.999961 0.00884217 51 16.4863)" fill="#7AA5AF" fill-opacity="0.5"/>
<ellipse cx="0.419844" cy="1.03777" rx="0.419844" ry="1.03777" transform="matrix(-0.900729 -0.434381 -0.491857 0.870676 43.8906 9.37598)" fill="white" fill-opacity="0.62"/>
</svg>
