<svg width="136" height="184" viewBox="0 0 136 184" fill="none" xmlns="http://www.w3.org/2000/svg">
<path d="M64.0282 142.506L28.9475 46.5301C30.9707 44.4606 37.6267 40.3802 56.6483 33.497C79.2973 25.3013 84.6615 23.4716 86.9024 25.5586L132.263 152.965C128.825 155.992 118.893 158.12 99.006 153.252C79.1189 148.385 66.1519 144.969 64.0282 142.506Z" fill="#F7E7D8"/>
<path d="M70.7208 140.131L39.7667 52.6171C39.5596 52.0313 38.919 50.7372 38.7157 45.4648C38.5349 40.7729 42.2077 46.9764 43.6995 51.194L73.4104 135.194C73.7833 136.248 73.4109 135.194 74.7779 139.06C75.3993 140.817 70.6869 142.126 70.7208 140.131Z" fill="#DAD0C6"/>
<path d="M70.7208 140.131L39.7667 52.6171C39.5596 52.0313 38.919 50.7372 38.7157 45.4648C38.5349 40.7729 42.2077 46.9764 43.6995 51.194L73.4104 135.194C73.7833 136.248 73.4109 135.194 74.7779 139.06C75.3993 140.817 70.6869 142.126 70.7208 140.131Z" fill="#DAD0C6"/>
<path d="M85.0382 145.955L54.0841 58.4403C53.8769 57.8545 53.2364 56.5604 53.0331 51.2881C52.8523 46.5962 56.5251 52.7996 58.0169 57.0172L87.7278 141.017C88.1007 142.071 87.7283 141.017 89.0953 144.883C89.7167 146.64 85.0043 147.949 85.0382 145.955Z" fill="#DAD0C6"/>
<path d="M120.729 150.095L89.7746 62.5809C89.5674 61.9952 88.9268 60.701 88.7236 55.4287C88.5427 50.7368 92.2155 56.9402 93.7073 61.1578L123.418 145.158C123.791 146.212 123.419 145.157 124.786 149.024C125.407 150.781 120.695 152.09 120.729 150.095Z" fill="#DAD0C6"/>
<path d="M110.423 149.362L79.4689 61.8475C79.2617 61.2618 78.6211 59.9676 78.4179 54.6953C78.237 50.0034 81.9099 56.2068 83.4017 60.4244L113.113 144.424C113.485 145.479 113.113 144.424 114.48 148.29C115.101 150.048 110.389 151.356 110.423 149.362Z" fill="#DAD0C6"/>
<path d="M98.422 147.507L67.4679 59.993C67.2607 59.4073 66.6202 58.1132 66.4169 52.8408C66.2361 48.1489 69.9089 54.3523 71.4007 58.5699L101.112 142.57C101.485 143.624 101.112 142.57 102.479 146.436C103.1 148.193 98.3881 149.502 98.422 147.507Z" fill="#DAD0C6"/>
<path d="M73.8897 93.2827C88.9854 89.2248 100.071 83.0345 105.865 81.7122L107.322 85.8311L49.3668 106.803L46.9387 99.9378L44.2678 92.3865L58.3751 83.4099C59.9731 87.2196 66.0567 95.3883 73.8897 93.2827Z" fill="#DAD0C6" fill-opacity="0.61"/>
<path d="M73.8897 93.2827C88.9854 89.2248 100.071 83.0345 105.865 81.7122L107.322 85.8311L49.3668 106.803L46.9387 99.9378L44.2678 92.3865L58.3751 83.4099C59.9731 87.2196 66.0567 95.3883 73.8897 93.2827Z" fill="black" fill-opacity="0.1"/>
<path d="M88.1341 105.937C103.23 101.879 106.626 101.569 112.42 100.246L113.877 104.365L55.9224 125.337L53.4943 118.472L50.8234 110.921L64.9308 101.944C66.5288 105.754 80.3011 108.043 88.1341 105.937Z" fill="black" fill-opacity="0.1"/>
<path d="M48.1589 111.885C47.1877 109.139 49.4662 104.959 50.6367 104.02L105.261 84.2534C105.927 84.0123 107.576 85.2742 110.534 88.54C113.493 91.8057 113.79 95.6214 111.873 96.5734C109.812 94.996 103.797 95.0985 99.5146 95.6248C93.0337 96.4213 85.5255 100.687 76.8656 103.821C69.9376 106.328 55.306 110.848 53.9178 117.545C52.7868 117.18 49.1302 114.631 48.1589 111.885Z" fill="#DAD0C6"/>
<path d="M41.8464 94.0358C40.8752 91.2898 43.1537 87.1098 44.3242 86.1701L98.9483 66.4038C99.6145 66.1627 101.263 67.4246 104.222 70.6904C107.18 73.9561 107.478 77.7718 105.56 78.7238C103.499 77.1464 97.485 77.2489 93.2021 77.7752C86.7212 78.5717 79.213 82.8373 70.5531 85.971C63.6251 88.478 48.9935 92.9982 47.6053 99.6953C46.4743 99.3303 42.8177 96.7817 41.8464 94.0358Z" fill="#DAD0C6"/>
<path d="M54.4714 129.733C53.5002 126.987 55.7787 122.807 56.9492 121.867L111.573 102.101C112.239 101.86 113.888 103.122 116.847 106.388C119.805 109.653 120.103 113.469 118.185 114.421C116.124 112.844 110.11 112.946 105.827 113.472C99.3462 114.269 91.838 118.535 83.1781 121.668C76.2501 124.175 61.6185 128.695 60.2303 135.393C59.0993 135.028 55.4427 132.479 54.4714 129.733Z" fill="#DAD0C6"/>
<rect width="62.341" height="32.039" transform="matrix(0.940329 -0.340267 0.333458 0.942765 30.6709 53.9424)" fill="#DAD0C6"/>
<path d="M39.2307 80.2698L30.7323 56.2429L88.7823 31.2914L93.1529 43.6481C79.143 47.9434 60.0492 54.1522 53.2071 58.1767C46.3651 62.2012 46.3528 72.7884 49.2229 76.6541L39.2307 80.2698Z" fill="#C7BBAE" fill-opacity="0.78"/>
<path d="M64.9905 67.8512C54.865 71.5152 41.7562 76.5169 37.4979 79.3484C35.0761 80.9991 34.3877 83.7261 35.0202 87.214C35.6528 90.702 38.5169 92.1435 40.2933 91.5007C47.2972 87.9338 63.1702 80.1251 70.631 77.4253C78.0919 74.7255 90.3335 70.812 96.4305 69.6382C97.0365 69.9351 108.999 68.5218 106.033 63.0661C101.459 54.6546 101.856 56.8091 96.7852 57.8946C86.3074 60.1374 75.1159 64.1872 64.9905 67.8512Z" fill="#F5EADF"/>
<path d="M53.3342 77.6543C43.2088 81.3183 46.5668 73.3922 42.3085 76.2237C34.3147 79.1163 34.1965 83.1857 34.829 86.6736C35.4616 90.1616 38.6752 92.8605 40.4516 92.2177C47.4555 88.6508 63.3801 80.9882 70.8409 78.2884C78.3018 75.5887 90.6279 71.6446 96.7249 70.4708C97.3309 70.7677 107.804 68.0744 106.327 63.8986C104.142 57.7203 99.3607 63.3222 94.7824 64.9789C84.7018 68.6267 63.4597 73.9903 53.3342 77.6543Z" fill="#E8DCCF"/>
<path d="M54.3069 37.6461C44.1814 41.3101 31.0726 46.3118 26.8143 49.1433C24.3925 50.794 23.7041 53.521 24.3366 57.0089C24.9692 60.4969 27.8333 61.9384 29.6097 61.2956C36.6136 57.7287 52.4866 49.92 59.9474 47.2202C67.4083 44.5204 79.6499 40.6069 85.7469 39.4331C86.3529 39.7301 98.3158 38.3167 95.3493 32.861C90.7757 24.4495 91.1727 26.6041 86.1016 27.6895C75.6238 29.9324 64.4323 33.9821 54.3069 37.6461Z" fill="#F5EADF"/>
<path d="M42.5126 48.9831C32.005 52.7853 35.5938 44.8541 31.1548 47.736C22.8593 50.7377 22.6742 54.7843 23.2731 58.241C23.8719 61.6977 26.8057 63.085 28.6491 62.418C35.9333 58.7617 52.4372 50.7488 60.1796 47.9471C67.922 45.1455 80.6176 41.0617 86.9287 39.7983C87.5495 40.0839 98.8811 38.5977 97.4214 34.4708C95.2616 28.3647 90.2399 34.0083 85.4889 35.7276C75.0278 39.513 53.0201 45.1808 42.5126 48.9831Z" fill="#E8DCCF"/>
<path d="M19.272 29.0665L77.4984 8.87823C81.2909 7.56329 85.1921 4.9283 91.1508 7.22761C100.619 10.8813 103.438 16.5153 101.987 28.1339C101.585 31.3563 84.3423 42.8785 80.7061 29.3467L34.0914 46.2797C40.0784 57.3064 21.7411 60.5813 17.6926 59.6728C14.221 58.8938 9.29548 52.5647 7.65698 47.7377C6.25254 43.6002 7.2252 33.2434 19.272 29.0665Z" fill="#CBBFB3"/>
<path d="M26.9098 47.5644C25.3213 45.1343 21.6179 45.3495 21.2755 46.5059C21.234 44.9722 23.6716 41.9413 25.8762 42.518C28.3603 43.1678 30.5249 44.0719 30.9689 48.4186C31.274 51.4056 26.2478 53.4825 24.6125 53.8161C25.3181 52.2702 28.5471 50.0693 26.9098 47.5644Z" fill="#A49A8F"/>
<path d="M24.6136 53.8154C15.3433 50.9752 15.2435 47.2945 16.0653 44.5192C16.7699 42.1395 19.977 38.5833 23.5111 37.9531C20.9884 37.9023 14.0145 39.9957 13.5812 43.8694C13.148 47.743 12.0749 54.481 24.6136 53.8154Z" fill="#A49A8F"/>
<path d="M88.5584 26.5153C87.9215 23.6718 90.6309 21.1011 91.6919 21.6477C90.6267 20.5588 86.7827 20.2568 85.6725 22.2736C84.4215 24.546 83.5724 26.7594 86.3661 30.0853C88.286 32.3708 93.2361 30.1137 94.6026 29.1432C93.0131 28.5944 89.2149 29.4463 88.5584 26.5153Z" fill="#A49A8F"/>
<path d="M94.6026 29.1438C98.9748 20.3768 96.4185 17.7632 93.872 16.4512C91.6885 15.3263 86.9387 15.2268 84.0502 17.3868C85.755 15.4995 92.0612 11.8236 95.1229 14.1788C98.1847 16.5341 103.731 20.3964 94.6026 29.1438Z" fill="#A49A8F"/>
<path d="M47.1864 26.2889C38.1268 29.5672 29.9081 34.0899 23.9335 37.0262L48.581 28.1073L77.2254 17.742C72.9857 18.5019 56.246 23.0106 47.1864 26.2889Z" fill="#A49A8F"/>
<path d="M28.4787 39.2529C26.8301 37.991 23.5707 37.4152 22.6016 37.5078L39.2553 31.4815C39.4379 32.706 41.2451 35.4076 49.6772 35.4537C58.1093 35.4998 67.7254 31.2458 80.4445 28.9663L34.057 46.5264C32.8844 44.6277 30.1272 40.5147 28.4787 39.2529Z" fill="#B7A798" fill-opacity="0.48"/>
<path d="M75.7361 123.097C68.3608 126.497 62.1688 131.775 60.6865 133.838C61.4632 137.397 63.0729 142.116 65.7838 143.911C68.4946 145.705 81.9449 149.331 88.1759 150.208C88.0862 144.262 90.0725 131.004 98.7352 125.534C107.398 120.064 117.103 120.034 120.873 120.703L117.936 113.887C107.699 110.156 83.1114 119.698 75.7361 123.097Z" fill="#CBBFB3" fill-opacity="0.55"/>
</svg>
