<svg width="1280" height="344" viewBox="0 0 1280 344" fill="none" xmlns="http://www.w3.org/2000/svg">
<path d="M1167 233.5C1235.48 271.986 1278.67 0 1350 0L1349.99 336L-137.809 344C-176.5 62.5 -144.331 122.474 -90 80.5C-77.7726 71.0537 -52 86.4091 -52 117C-52 303.511 30.7042 194.247 112.704 177.236C194.704 160.225 185 258.5 242.5 205C300.087 151.419 360.08 261.263 398 261.263C540 261.263 582.674 177.236 673.174 205C763.674 232.763 651.32 317.231 691.5 327.263C816.61 366.997 729 145 960.5 145C1067 272.263 1091.33 190.972 1167 233.5Z" fill="#4A9DB7"/>
</svg>
