<svg width="1280" height="358" viewBox="0 0 1280 358" fill="none" xmlns="http://www.w3.org/2000/svg">
<path d="M59 246.766C40.5804 253.029 13.3521 0 -58 0V358H1333.5C1333.5 12.5 1269.85 370.252 1215.5 336.442C1203.27 328.833 1190.58 207.956 1160 207.005C1129.42 206.054 1154.27 148.986 1113.5 145.182C1072.73 141.377 961.693 198.445 951.5 207.005C941.307 215.566 839.08 276.245 829.148 246.765C805.5 176.569 679.5 266.927 562.5 266.927C517.993 266.927 464.194 288.419 424 296.5C338.387 313.712 287.417 246.766 276.682 246.766H276.682C267.857 246.766 246.499 246.766 152 266.927C124.403 268.165 93.1176 235.164 59 246.766Z" fill="#4495B0"/>
</svg>
