<svg width="1280" height="358" viewBox="0 0 1280 358" fill="none" xmlns="http://www.w3.org/2000/svg">
<path d="M1167 245.5C1235.48 283.986 1278.67 12 1350 12L1349.99 348L-137.809 356C-176.5 74.5 -144.331 134.474 -90 92.5C-77.7726 83.0537 -52 98.4091 -52 129C-52 315.511 30.7042 206.247 112.704 189.236C194.704 172.225 185 270.5 242.5 217C300.087 163.419 360.08 273.263 398 273.263C540 273.263 582.674 189.236 673.174 217C763.674 244.763 651.32 329.231 691.5 339.263C816.61 378.997 729 157 960.5 157C1067 284.263 1091.33 202.972 1167 245.5Z" fill="#4A9DB7"/>
<path d="M840.885 268.538C840.648 262.064 843.048 252.09 844.579 246.991C845.688 243.297 848.297 237.235 850.067 233.386C851.837 229.537 860.196 215.359 864.154 208.751C863.163 206.851 860.277 201.595 856.654 195.77C852.126 188.489 851.966 179.889 850.158 178.21C848.352 176.535 844.42 171.161 843.494 166.324C842.568 161.487 844.973 157.454 850.158 158.342C855.342 159.23 856.2 173.268 859.969 170.039C862.985 167.456 866.568 154.801 867.898 149.741C868.672 146.795 868.463 144.208 865.51 139.258C861.818 133.07 865.877 132.33 871.666 133.102C877.455 133.874 877.526 144.71 877.822 152.801C878.059 159.275 871.225 175.848 866.547 181.967C868.069 187.735 872.03 199.47 875.693 200.273C880.273 201.276 889.073 188.309 893.099 183.15C896.321 179.024 896.654 166.8 896.418 161.204C894.583 159.257 892.771 150.686 889.519 146.795C886.267 142.905 883.099 136.384 883.258 131.757C883.648 128.339 884.629 120.588 885.432 116.924C886.436 112.344 879.509 109.251 878.048 104.548C876.591 99.8583 875.332 90.675 880.9 93.7021C883.846 95.3033 884.594 110.324 891.366 103.552C893.213 101.09 892.009 97.5305 896.291 93.7021C899.537 90.7995 901.423 95.6846 902.812 102.94C904.202 110.196 897.872 116.422 897.075 125.35C896.437 132.493 900.372 143.704 903.678 147.877C908.871 136.795 914.917 118.811 913.528 111.555C911.791 102.485 906.067 74.7798 904.909 68.7335C903.752 62.6872 895.158 49.874 898.258 39.8783C900.277 33.3715 908.445 47.047 909.834 54.3026C910.946 60.1071 914.644 68.8727 915.99 71.5399L923.794 61.941C925.84 59.2276 929.578 63.3407 927.602 68.7335C925.626 74.1263 919.022 77.3021 915.99 78.9273C917.213 82.0363 919.958 91.0071 920.977 96.3279C921.996 101.649 924.309 107.181 925.338 109.283C925.492 110.089 927.16 110.939 932.594 107.893C939.386 104.085 938.052 104.794 943.693 104.168C949.234 103.552 944.288 112.456 938.153 115.864C932.612 118.942 928.97 122.795 926.187 123.536L915.375 150.5C916.631 149.424 917.837 155.517 920.977 149.741C922.691 146.587 925.84 142.336 929.534 139.874C932.095 138.166 932.337 146.434 931.166 149.536C929.918 152.84 928.335 154.397 927.358 155.837C926.38 157.278 925.041 159.71 922.147 160.959C920.338 161.74 919.068 162.651 916.693 162.336C909.834 159.573 913.412 158.952 910.788 160.959C908.164 162.966 908.417 170.398 908.871 173.862C909.562 173.103 912.854 171.094 920.501 169.128C930.059 166.671 938.035 165.771 941.316 163.262C944.596 160.754 947.272 158.361 950.527 158.991C953.781 159.622 946.253 167.041 943.693 170.039C941.645 172.437 924.57 178.378 914.609 180.912C912.912 181.735 905.457 185.221 902.812 189.739C899.506 195.386 892.199 204.634 885.29 207.838C878.382 211.041 874.96 216.084 868.862 223.519C863.984 229.468 860.337 242.284 859.124 247.949L856.345 292.357C855.329 293.597 852.208 296.284 847.854 297.117C843.501 297.951 840.028 294.437 838.836 292.576C838.811 285.895 841.122 275.011 840.885 268.538Z" fill="url(#paint0_linear_0_1)"/>
<path d="M919.951 71.376C922.624 70.7175 926.324 62.7173 924.449 64.3134C922.949 65.5904 920.825 69.5539 919.951 71.376Z" fill="white" fill-opacity="0.44"/>
<path d="M848.273 283.928C844.333 271.616 855.25 241.45 861.201 227.907C862.637 226.06 865.507 223.298 863.663 227.907C861.201 234.063 856.276 250.685 853.813 259.303C851.844 266.198 852.993 278.387 853.813 283.928C853.608 289.058 852.213 296.24 848.273 283.928Z" fill="#D9D9D9" fill-opacity="0.46"/>
<path d="M846.426 240.835C847.903 236.403 858.943 217.647 864.279 208.823C863.253 212.107 860.585 219.781 858.122 224.214C855.044 229.754 846.426 253.763 845.194 260.535C844.209 265.953 845.605 287.417 846.426 297.472C846.015 297.267 844.579 296.733 842.116 296.241C839.654 295.749 838.628 294.394 838.423 293.779C838.217 293.163 837.93 289.715 838.423 280.851C839.038 269.769 840.885 267.923 840.885 264.844C840.885 261.766 844.579 246.376 846.426 240.835Z" fill="#AC4145"/>
<g filter="url(#filter0_d_0_1)">
<path d="M842.116 165.729C841.624 163.267 844.579 158.957 846.426 158.342V163.882C846.426 166.837 853.197 174.143 855.66 177.426C854.675 178.411 860.38 199.178 864.278 208.822C861.816 204.718 855.29 195.279 853.813 192.816C852.335 190.354 850.94 182.351 850.119 178.657C846.426 174.348 842.732 168.807 842.116 165.729Z" fill="#A44839"/>
</g>
<path d="M863.691 135.041C863.691 133.167 866.888 132.894 869.819 133.102C870.991 133.102 874.242 135.666 873.363 147.534C872.253 162.517 861.161 171.27 857.536 171.27C857.236 171.27 859.294 168.147 861.932 166.273C864.57 164.399 867.356 145.441 867.356 143.568C867.356 141.694 863.691 137.617 863.691 135.041Z" fill="#C06045"/>
<path d="M876.591 96.165C876.591 93.7025 878.232 93.0869 879.053 93.0869C878.848 93.4973 879.053 94.6875 879.053 96.165C879.053 98.6275 880.284 101.706 881.516 104.168C882.651 106.438 887.672 110.324 888.903 112.171C890.134 114.018 888.903 126.946 889.519 131.255C890.134 135.565 894.444 144.183 896.29 145.414C898.137 146.646 903.678 170.655 900.6 178.658C897.718 186.149 893.212 191.586 892.597 193.433C891.981 195.279 882.131 199.589 881.516 200.204C881.023 200.697 878.232 200.615 877.206 200.204C880.284 200.204 891.366 184.814 893.828 180.505C895.798 177.057 895.264 165.935 895.059 160.805C894.238 156.906 892.061 150.312 889.519 147.261C886.441 143.568 883.978 137.206 883.362 133.102L885.209 114.634C883.362 111.555 879.669 107.862 878.438 106.015C877.206 104.168 876.591 99.2431 876.591 96.165Z" fill="url(#paint1_linear_0_1)"/>
<path d="M904.293 187.892C907.248 184.444 908.398 177.016 908.603 173.732C908.808 174.348 909.218 174.964 912.296 177.426C915.736 180.178 929.534 171.27 935.074 169.423C940.615 168.192 947.182 162.651 951.08 159.573C951.696 160.804 945.95 167.987 943.693 170.039C942.462 171.886 922.146 179.273 914.759 181.12C912.296 181.735 906.961 186.045 904.293 187.892Z" fill="#BE5A42"/>
<g filter="url(#filter1_f_0_1)">
<path d="M891.981 98.6275C892.966 94.195 896.496 93.0869 898.138 93.0869C896.291 93.0869 893.828 96.7806 893.828 99.2431C893.828 101.213 891.161 105.194 888.903 105.399C889.519 104.989 890.996 103.06 891.981 98.6275Z" fill="#B9613B"/>
</g>
<path d="M898.137 93.0867C895.182 92.5942 891.981 100.064 890.75 104.168L888.287 105.399C889.724 105.194 896.29 106.63 896.906 103.552C897.292 101.62 896.495 95.5491 898.137 93.0867Z" fill="#B75F3B"/>
<path d="M930.15 152.802C934.582 144.922 931.996 140.9 930.15 139.874C930.15 142.952 929.511 149.412 923.993 154.033C921.531 157.111 919.068 160.189 912.297 160.189C912.297 161.174 916.401 162.241 918.453 162.652C920.505 162.652 925.717 160.682 930.15 152.802Z" fill="#BE5A42"/>
<path d="M903.677 65.3841C895.305 48.6393 897.316 40.3489 899.368 38.2969C899.984 46.9155 904.703 57.381 906.14 60.4591C910.654 73.5923 918.452 108.847 918.452 120.174C918.452 131.501 909.423 146.646 904.909 154.033L903.677 147.261C914.143 125.099 913.733 108.888 911.065 102.937L903.677 65.3841Z" fill="#B3593B"/>
<g filter="url(#filter2_d_0_1)">
<path d="M936.305 117.096C945.17 112.171 946.771 106.835 946.155 104.783C946.155 109.708 932.817 117.096 926.456 120.174L925.84 123.867C926.825 124.36 933.433 119.558 936.305 117.096Z" fill="#BE5A42"/>
</g>
<path d="M926.026 61.1902C925.964 61.1495 925.902 61.1109 925.84 61.0742C925.913 61.0742 925.975 61.1088 926.026 61.1902C929.396 63.4264 931.106 71.6716 915.99 78.9271C918.863 76.6699 925.348 71.0472 925.84 66.6148C926.246 62.9654 926.262 61.5695 926.026 61.1902Z" fill="#BE5A42"/>
<path d="M850.735 160.189C851.35 163.883 855.044 171.271 855.66 170.039C856.152 169.054 852.581 163.062 850.735 160.189Z" fill="white" fill-opacity="0.3"/>
<path d="M900.938 107.039C901.451 103.33 900.127 95.1772 899.173 96.1689C898.409 96.9624 900.031 103.746 900.938 107.039Z" fill="white" fill-opacity="0.42"/>
<path d="M903.58 55.3936C903.971 50.5605 900.681 39.6226 899.193 40.8097C898.002 41.7593 901.621 50.9279 903.58 55.3936Z" fill="white" fill-opacity="0.42"/>
<path d="M922.982 150.431C925.97 148.068 930.875 141.509 929.522 141.685C928.439 141.827 924.711 147.574 922.982 150.431Z" fill="white" fill-opacity="0.42"/>
<path d="M864.279 182.967C866.126 189.739 869.081 202.297 871.051 200.82C873.021 199.342 867.973 191.585 864.279 182.967Z" fill="white" fill-opacity="0.32"/>
<path d="M875.233 161.421C871.1 167.094 863.141 177.248 865.525 177.863C867.91 178.478 870.812 169.69 875.233 161.421Z" fill="white" fill-opacity="0.32"/>
<path d="M880.901 94.9336C879.67 97.3961 883.363 105.399 883.363 102.937C883.363 100.967 881.722 96.7804 880.901 94.9336Z" fill="white" fill-opacity="0.44"/>
<path d="M937.899 111.788C940.652 111.82 946.238 105.002 944.023 106.077C942.251 106.937 939.202 110.243 937.899 111.788Z" fill="white" fill-opacity="0.44"/>
<path d="M904.348 182.833C905.732 184.202 894.471 198.003 890.103 202.546C890.097 201.445 896.512 193.154 899.704 189.466C900.791 186.799 903.241 181.738 904.348 182.833Z" fill="white" fill-opacity="0.34"/>
<path d="M914.837 140.542C919.713 132.565 921.82 121.884 920.967 116.566C921.545 116.861 923.015 115.157 923.479 120.06C923.718 122.588 919.158 136.217 917.086 142.129C916.678 142.69 908.063 151.622 914.837 140.542Z" fill="white" fill-opacity="0.39"/>
<path d="M416.829 317.886L429.326 257.003C430.928 254.653 431.89 250.104 438.298 251.235C444.707 252.366 443.532 257.644 442.785 260.528L419.393 317.886H416.829Z" fill="white"/>
<path d="M416.829 317.886L429.326 257.003C430.928 254.653 431.89 250.104 438.298 251.235C444.707 252.366 443.532 257.644 442.785 260.528L419.393 317.886H416.829Z" fill="#FFC848"/>
<path d="M353.704 280.394L386.388 322.051H391.515L377.736 276.87L375.493 273.345C371.968 265.441 362.932 251.299 354.985 257.964C347.039 264.629 350.82 275.695 353.704 280.394Z" fill="#FFC848"/>
<path d="M368.444 265.335C369.726 262.515 372.396 267.578 373.571 270.462L376.134 274.627H378.057L388.952 314.682C381.582 299.408 367.162 268.155 368.444 265.335Z" fill="#FFC848"/>
<path d="M400.808 324.295L390.874 250.274V245.788C390.874 242.263 392.605 235.214 399.526 235.214C406.447 235.214 407.964 242.263 407.857 245.788L405.935 324.295H400.808Z" fill="#FFC848"/>
<path d="M390.553 249.313C389.528 245.468 390.981 241.943 391.835 240.661L393.117 242.904L395.36 244.186C392.476 249.954 398.351 288.299 400.807 301.544L395.36 290.969L393.758 273.666C393.117 267.15 391.579 253.158 390.553 249.313Z" fill="#FFC848"/>
<path d="M428.1 260.066C428.54 256.111 431.173 253.353 432.434 252.469L432.434 255.401L434.44 257.033C429.659 261.361 427.678 296.962 425.161 310.195L417.463 300.627L422.249 283.922C424.016 277.618 427.66 264.021 428.1 260.066Z" fill="#FFC848"/>
<path d="M404.332 325.256L412.663 232.65C414.479 229.553 413.625 221.115 424.52 222.076C435.344 223.031 434.781 230.523 434.459 234.81L434.453 234.893C428.899 263.199 418.752 318.847 416.829 318.847C415.742 318.847 407.75 323.119 404.332 325.256Z" fill="#FFC848"/>
<path d="M406.896 308.913C405.87 297.121 409.459 233.932 414.907 225.921C415.227 228.484 416.829 229.766 418.431 230.407C416.829 234.573 413.551 254.395 412.664 270.141C411.382 292.892 414.907 300.262 418.431 317.886L409.459 321.731C409.032 322.372 407.921 320.705 406.896 308.913Z" fill="#FFDF94"/>
<path d="M353.704 263.091C355.234 259.726 358.617 259.246 359.792 259.246C361.822 259.246 365.752 260.015 365.24 263.091C364.599 266.937 358.831 266.616 357.549 267.257C356.267 267.898 352.102 266.616 353.704 263.091Z" fill="#A2883B"/>
<path d="M399.206 236.815C396.898 236.815 395.254 239.165 394.719 240.34C394.719 240.767 395.617 241.686 399.206 241.942C402.794 242.199 404.333 240.981 404.653 240.34C403.798 239.165 401.513 236.815 399.206 236.815Z" fill="#A2883B"/>
<path d="M437.978 252.838C436.183 252.069 434.666 253.158 434.132 253.799C433.598 254.013 433.363 254.824 436.696 256.363C440.028 257.901 441.289 256.363 441.502 255.401C441.075 254.867 439.772 253.607 437.978 252.838Z" fill="#A2883B"/>
<path d="M352.742 279.113C349.666 273.986 349.538 265.975 350.82 263.732C350.82 267.578 351.973 272.192 356.588 280.395C361.202 288.598 381.154 310.729 390.874 322.692H386.708C376.668 310.302 355.819 284.24 352.742 279.113Z" fill="#FFC848"/>
<path d="M391.194 322.052L366.201 243.545C367.269 241.409 370.558 236.944 375.173 236.175C379.787 235.406 384.359 238.205 386.067 239.7L406.575 323.974L402.41 325.576C397.539 326.089 392.903 323.44 391.194 322.052Z" fill="#FFC848"/>
<path d="M370.366 241.943C370.366 239.892 375.28 238.738 377.736 238.418C378.698 238.418 381.133 238.802 383.184 240.341C385.235 241.879 380.407 243.545 377.736 244.186C375.28 244.293 370.366 243.994 370.366 241.943Z" fill="#A2883B"/>
<path d="M390.874 321.411L366.201 243.225C366.437 243.972 367.356 244.998 368.764 245.468C370.687 246.109 371.732 246.429 372.289 246.429C371.648 246.429 380.235 277.349 384.786 288.726C389.272 299.941 395.36 308.486 403.691 325.256C396.257 326.794 392.049 323.333 390.874 321.411Z" fill="#FFDF94"/>
<path d="M418.9 225.199C422.233 223.404 424.882 223.81 426.27 224.558C427.979 224.985 430.949 226.609 431.718 228.403C432.487 230.197 428.62 230.005 426.27 229.685C422.105 228.83 415.568 226.993 418.9 225.199Z" fill="#A2883B"/>
<path d="M374.086 288.971C372.805 286.921 368.639 275.086 366.716 269.425C365.755 269.745 363.768 270.771 363.512 272.309C363.192 274.231 381.136 307.556 382.418 308.518C383.699 309.479 384.34 308.518 384.34 307.556C384.34 306.595 375.689 291.535 374.086 288.971Z" fill="#FFC848"/>
<path d="M388.185 264.938C387.314 262.683 385.19 250.958 384.37 245.036C383.366 245.169 381.221 245.801 380.679 247.263C380.002 249.091 394.331 294.775 395.408 295.961C396.486 297.147 397.296 296.324 397.478 295.38C397.659 294.436 389.275 267.758 388.185 264.938Z" fill="#FFC848"/>
<path d="M424.893 254.431C425.808 251.55 427.026 240.294 427.481 234.333C428.492 234.404 430.671 234.903 431.302 236.329C432.09 238.112 421.872 286.118 420.87 287.368C419.867 288.618 419.827 287.018 419.588 286.086C419.349 285.155 423.979 257.313 424.893 254.431Z" fill="#FFC848"/>
<path d="M401.643 245.712C401.643 244.943 404.207 245.391 405.489 245.712C406.258 246.737 405.809 265.258 405.489 273.59C404.741 273.803 404.271 273.59 404.527 272.308C404.848 270.706 404.207 252.441 403.246 249.557C402.284 246.673 401.643 246.673 401.643 245.712Z" fill="white"/>
<path d="M437.647 258.289C437.906 257.564 440.169 258.85 441.268 259.583C441.647 260.807 434.991 278.097 431.885 285.834C431.109 285.784 430.738 285.424 431.411 284.304C432.252 282.903 437.796 265.488 437.861 262.449C437.927 259.409 437.323 259.194 437.647 258.289Z" fill="white"/>
<path d="M423.238 322.051C422.277 320.769 419.521 318.334 416.188 318.847L418.111 308.593C423.751 291.161 447.377 257.751 458.486 243.224C460.622 240.874 466.753 237.585 474.187 243.224C481.621 248.864 479.421 255.828 477.391 258.605L423.238 322.051Z" fill="#FFC848"/>
<path d="M471.951 243.893C468.106 240.561 464.368 242.078 462.979 243.252C462.552 244.321 462.915 247.354 467.786 250.943C472.656 254.532 476.01 253.079 477.078 251.904C476.971 250.622 475.797 247.226 471.951 243.893Z" fill="#A2883B"/>
<path d="M421.511 299.545C421.767 295.187 446.398 259.918 458.681 242.828C458.04 244.751 459.642 247.314 459.642 247.314C451.097 259.598 440.778 273.849 435.289 281.921C429.842 289.932 421.511 312.362 423.433 321.975C422.408 320.437 418.306 318.344 417.345 318.451C417.345 308.197 420.122 301.574 421.511 299.545Z" fill="#FFDF94"/>
<path d="M459.001 271.668C461.565 268.784 466.809 261.52 470.217 256.607C471.052 257.18 473.598 256.981 473.421 258.53C473.2 260.467 435.184 304.101 433.687 304.673C432.19 305.244 438.549 297.906 438.814 296.982C439.079 296.058 456.438 274.552 459.001 271.668Z" fill="#FFC848"/>
<path d="M383.648 337.579C375.685 337.519 365.715 334.536 364.921 329.981C367.396 324.597 375.5 315.127 381.431 315.56C388.843 316.1 395.213 320.872 400.972 320.544C406.73 320.216 409.245 313.654 424.71 314.698C437.082 315.534 448.812 326.484 449.103 331.602C445.158 331.827 436.334 333.935 433.519 334.095C429.999 334.296 425.365 337.448 420.566 337.722C415.767 337.995 401.476 337.67 395.449 336.265C389.919 334.975 386.976 335.892 383.648 337.579Z" fill="#E9CD98" fill-opacity="0.8"/>
<path d="M383.699 337.676C371.395 336.907 364.473 332.87 364.794 329.986C368.383 320.245 375.368 315.566 380.815 315.566C378.038 318.878 372.869 326.141 373.125 329.986C373.381 333.831 380.388 336.608 383.699 337.676Z" fill="#D19E4B"/>
<path d="M413.91 330.78C413.145 325.807 420.796 321.599 429.594 322.364C430.487 322.109 430.589 322.288 434.567 323.512C438.545 324.736 439.412 332.182 439.157 335.753L439.127 335.761C437.73 336.142 436.064 336.596 431.507 336.9C425.769 337.283 414.675 335.753 413.91 330.78Z" fill="#FFC848"/>
<path d="M413.145 328.867C415.9 322.441 424.494 321.854 428.446 322.364C425.896 323.639 420.796 327.108 420.796 330.78C420.796 334.452 427.936 336.39 431.507 336.9C424.239 336.9 410.391 335.294 413.145 328.867Z" fill="#FFC848"/>
<path d="M437.368 334.472C433.39 328.657 444.126 327.458 449.991 327.586C452.286 329.881 455.729 332.559 453.817 334.472C451.653 336.635 442.341 341.74 437.368 334.472Z" fill="#FFC848"/>
<path d="M436.603 331.411C437.215 329.575 440.429 327.586 449.609 327.586C441.959 328.734 440.735 331.717 440.429 332.941C440.123 334.165 442.851 336.767 443.871 338.297C438.516 337.914 435.991 333.247 436.603 331.411Z" fill="#FFC848"/>
<path d="M355.507 334.472C351.529 328.657 362.265 327.458 368.13 327.586C370.425 329.881 373.868 332.559 371.956 334.472C369.792 336.635 360.48 341.74 355.507 334.472Z" fill="#FFC848"/>
<path d="M354.742 331.411C355.354 329.575 358.568 327.586 367.748 327.586C360.098 328.734 358.874 331.717 358.568 332.941C358.262 334.165 360.99 336.767 362.01 338.297C356.655 337.914 354.13 333.247 354.742 331.411Z" fill="#FFC848"/>
<path d="M55.6979 254.85C55.6979 252.565 34.9506 250.165 32.6082 255.993C33.4447 259.65 56.8691 261.936 55.6979 254.85Z" fill="#666666"/>
<path d="M96.9663 258.52C96.9663 256.229 82.7663 253.824 81.1631 259.665C81.7357 263.329 97.7679 265.62 96.9663 258.52Z" fill="#666666"/>
<path d="M29.4316 241.901C42.7155 247.128 45.7692 249.955 45.9219 251.864L50.2735 253.925L47.5252 248.772C47.2503 243.275 43.2117 241.901 41.2268 241.901C40.1274 238.786 36.9515 236.633 35.501 235.946C29.821 233.015 29.0881 230.984 29.4316 230.335C31.0807 223.281 28.9148 222.278 27.3704 220.945C18.6672 213.432 18.7053 206.668 19.8123 204.225C21.6446 195.522 20.5758 189.147 19.8123 187.048C17.4304 183.475 13.3994 168.306 11.6817 161.167C7.00943 154.48 2.84555 161.699 5.03976 166.435C12.552 182.651 11.6053 193.652 10.193 197.125C7.44459 204.18 6.6048 210.905 6.52846 213.387C4.42136 224.472 20.9193 237.015 29.4316 241.901Z" fill="url(#paint2_linear_0_1)"/>
<path d="M54.4805 258.659H59.0612C65.2908 259.576 64.0999 256.293 62.7257 254.537C57.9618 248.49 62.0386 244.307 64.6724 242.971C69.1615 239.031 66.5429 232.702 64.6724 230.03C58.9925 224.717 62.3058 218.044 64.6724 215.372C69.1615 206.211 65.245 199.951 62.7257 197.966C56.7708 191.37 58.794 185.216 60.5499 182.964C63.6647 175.727 61.8477 171.169 60.5499 169.795C56.6105 165.672 57.6106 159.908 58.6031 157.542C60.1605 151.862 60.5499 144.029 60.5499 140.822C62.1073 134.318 55.6257 120.019 52.1902 113.682C50.1747 104.063 55.6257 97.6118 58.6031 95.5887C62.5424 90.7332 58.9466 87.8398 56.6563 87C48.7776 88.8323 41.3112 99.1387 38.5628 104.063C33.3409 113.774 37.8376 128.722 40.7386 134.982C45.2276 143.227 44.594 155.595 43.716 160.748C38.2193 170.734 40.7386 185.751 42.6854 192.011C49.9228 208.043 48.9838 214.265 47.6096 215.372C43.1205 225.175 44.0596 233.657 45.0902 236.672C46.0064 238.963 48.5257 245.719 47.6096 247.895C46.8767 249.636 51.8848 255.796 54.4805 258.659Z" fill="url(#paint3_linear_0_1)"/>
<path d="M102.566 254.384C94.8702 254.109 91.3431 257.018 90.5415 258.506C87.9763 259.423 78.4791 258.125 74.0512 257.361C66.6305 257.27 66.684 253.735 67.6383 251.979C75.3337 248.223 77.1049 241.024 77.0286 237.894C71.9899 233.038 70.3485 228.16 70.1576 226.327C70.1576 223.121 74.6619 215.334 74.0512 212.929L69.127 202.737C63.6302 188.629 71.4173 179.452 75.9979 176.628C82.8689 173.329 83.7469 167.466 83.327 164.947C71.2341 145.708 75.0055 131.126 78.4028 126.24C83.6247 118.637 87.5259 123.072 88.8237 126.24C88.5489 130.271 89.8544 136.471 90.5415 139.066C93.1982 142.639 92.7173 147.655 92.1447 149.716C90.4041 153.381 91.4194 156.74 92.1447 157.961C96.084 164.283 97.0689 171.436 97.0689 174.223C99.7256 180.636 93.8243 187.736 90.5415 190.484C86.2357 197.355 88.7474 205.409 90.5415 208.577C93.1982 212.15 92.7173 223.808 92.1447 229.19C92.1447 232.305 85.3501 240.337 81.9528 243.963C80.0289 249.826 84.663 251.75 87.2205 251.979C99.5882 250.055 102.604 240.947 102.566 236.634C101.008 230.038 104.894 227.015 107.032 226.327C110.605 223.579 109.36 216.25 108.291 212.929C102.062 204.592 103.176 198.996 104.512 197.24C107.81 193.667 108.406 191.247 108.291 190.484C104.902 182.88 106.879 177.238 108.291 175.368C110.399 169.23 111.994 166.703 112.529 166.207C118.117 165.565 118.827 177.162 118.483 183.04C115.369 192.018 118.254 198.08 120.087 199.989C124.85 205.027 124.438 212.166 123.637 215.105C122.262 217.762 120.697 226.671 120.087 230.794C121.369 234.916 119.552 238.924 118.483 240.413C112.345 242.428 110.276 246.368 110.009 248.085C110.009 253.949 105.047 254.727 102.566 254.384Z" fill="url(#paint4_linear_0_1)"/>
<path d="M11.701 199.455C18.8468 185.621 9.89592 168.535 4.78087 161.55C2.30733 167.138 6.31873 172.925 8.38002 175.292C10.8536 185.369 10.4031 192.164 9.86873 194.301C3.181 209.876 5.81152 220.106 8.10183 222.014C5.44506 217.617 9.48701 204.302 11.701 199.455Z" fill="#4D6732"/>
<path d="M12.9116 195.904C12.8721 196.2 12.8316 196.51 12.7909 196.833C12.2232 203.122 15.2212 217.447 17.5052 224.19C10.7431 218.833 11.8472 204.314 12.7909 196.833C12.8209 196.5 12.861 196.19 12.9116 195.904Z" fill="#4D6732"/>
<path d="M32.8823 241.596C29.7674 238.024 18.9427 232.512 13.8276 229.572C15.8889 232.893 23.5301 239.039 28.9887 242.742C32.012 243.658 44.8996 251.827 50.1292 254.079C49.5795 249.04 45.6631 242.513 43.9453 242.742L45.479 247.208C44.4713 245.375 36.6613 242.703 32.8823 241.596Z" fill="#4D6732"/>
<path d="M57.0095 153.992C58.7502 152.527 59.6052 146.473 60.216 143.457C61.0176 146.091 60.216 152.58 59.4144 155.71C56.8492 162.215 58.8799 167.505 60.216 169.338C63.514 174.193 62.1246 179.453 61.0176 181.476C62.6666 177.171 58.4219 172.582 56.0934 170.826C52.1541 165.604 55.0628 157.428 57.0095 153.992Z" fill="#4D6732"/>
<path d="M43.3025 194.645C40.0045 189.423 40.128 177.239 40.6243 170.94C40.6243 176.437 43.7224 185.713 45.2493 190.523C47.9728 197.331 48.9025 205.666 48.6323 210.726C48.6447 211.223 48.6118 211.67 48.5259 212.052C48.5714 211.641 48.6071 211.197 48.6323 210.726C48.5258 206.448 45.0805 198.372 43.3025 194.645Z" fill="#4D6732"/>
<path d="M41.9437 109.788C43.2263 100.993 48.891 95.6647 51.563 94.0996C46.2495 100.238 43.4706 109.941 42.7453 114.025C42.5621 117.415 44.5776 123.072 45.6082 125.477C49.7308 133.447 49.2346 142.54 48.4711 146.09C49.3872 140.41 46.1045 131.814 44.3485 128.225C40.9589 119.614 41.333 112.346 41.9437 109.788Z" fill="#A3CF76"/>
<path d="M47.4535 179.986C45.1632 174.856 45.8885 169.146 46.5374 166.932C46.5374 171.787 48.217 176.436 49.0568 178.154C50.8355 181.712 50.1288 185.65 49.3609 187.733C49.2903 187.997 49.1903 188.241 49.0568 188.461C49.1554 188.254 49.2587 188.01 49.3609 187.733C49.9691 185.46 48.4111 181.731 47.4535 179.986Z" fill="#A3CF76"/>
<path d="M49.4273 240.108C44.4803 231.862 46.0448 219.991 47.6099 215.372C43.3957 219.861 43.4873 231.977 45.0757 236.443C46.3583 239.191 47.5187 245.452 47.9386 248.238C48.9464 255.934 54.1373 260.262 59.1612 259.232C63.5276 259.232 64.6728 257.399 63.5276 256.712C62.6635 256.194 60.1537 255.911 59.1612 255.911C53.756 254.628 50.4198 244.841 49.4273 240.108Z" fill="#4D6732"/>
<path d="M93.5308 181.704C96.9205 177.673 94.9432 166.359 93.5308 161.206C98.936 169.268 99.0734 179.139 97.4243 181.704C95.7753 184.27 91.6985 190.331 89.8663 193.041C86.9347 199.912 90.2399 205.524 91.355 208.043C93.8285 213.631 93.8362 223.121 93.5308 227.167C92.3398 232.939 86.24 240.184 83.2244 242.627C85.1711 239.306 86.5453 236.099 88.2631 232.435C91.5611 228.404 89.6373 219.686 88.2631 215.83C86.6712 211.364 84.3695 202.89 84.3695 198.653C84.3695 193.843 90.3244 185.751 93.5308 181.704Z" fill="#4D6732"/>
<path d="M71.33 219.61C74.2616 216.587 73.414 212.281 72.9178 210.334C75.941 214.365 75.8343 218.083 75.109 219.61C70.8032 223.824 71.2382 229.496 71.7726 230.603C68.841 227.855 70.1085 221.328 71.33 219.61Z" fill="#4D6732"/>
<path d="M74.2417 188.461C72.4858 192.431 71.4018 202.226 75.6159 208.73C75.6159 205.028 74.2417 195.607 74.2417 188.461Z" fill="#A3CF76"/>
<path d="M81.2503 130.287C79.4562 133.417 76.9445 140.96 81.2503 146.09C80.6013 143.915 79.6928 137.708 81.2503 130.287Z" fill="#A3CF76"/>
<path d="M85.2856 155.938C87.2324 159.718 89.9579 168.65 85.2856 174.147C86.0109 170.711 87.0263 162.26 85.2856 155.938Z" fill="#A3CF76"/>
<path d="M53.1945 232.664C54.929 226.252 54.7214 217.587 53.1945 213.426C58.2596 221.556 57.6107 228.809 56.5419 232.664C51.9612 243.566 53.8434 251.483 54.5687 254.079C49.9881 251.056 51.2741 239.764 53.1945 232.664Z" fill="#4D6732"/>
<path d="M78.5885 245.032C82.3446 242.1 80.7432 234.496 80.0179 230.603C82.0792 234.153 81.7357 233.58 82.4227 236.901C82.7892 242.123 79.827 246.024 77.9566 247.436C74.4619 249.498 72.5573 252.399 72.0611 253.506C72.0611 255.063 75.6492 256.292 77.4433 256.712C78.6343 255.512 82.5202 255.754 84.3143 256.025C85.5969 254.651 93.0175 253.391 96.5675 252.933C107.103 250.414 111.281 245.948 110.594 246.749C110.044 247.391 109.89 249.727 109.737 250.757C109.279 253.964 104.889 255.223 102.751 255.452C97.7126 254.628 94.3153 256.636 93.2465 257.743C88.7575 260.308 81.6041 259.27 78.5885 258.43C77.0311 258.338 73.0536 257.934 71.2595 257.743C65.3963 255.544 67.0776 251.903 68.6808 250.757C72.8034 249.75 77.0234 246.787 78.5885 245.032Z" fill="#4D6732"/>
<path d="M104.94 196.019C108.238 194.003 107.502 188.881 107.044 186.743C109.242 190.041 109.674 195.103 109.292 197.05C107.185 201.447 104.673 202.928 103.681 203.119C101.849 199.18 103.757 196.744 104.94 196.019Z" fill="#4D6732"/>
<path d="M113.915 242.627C114.945 239.84 117.396 233.878 120.327 231.862C121.358 234.191 120.098 242.627 113.915 242.627Z" fill="#4D6732"/>
<path d="M111.62 172.429C111.606 172.599 111.586 172.779 111.561 172.967C110.467 183.231 111.533 193.413 113.109 197.164C117.741 209.349 115.65 218.35 113.109 221.442C117.323 215.029 113.873 203.348 111.62 198.309C106.857 188.695 110.911 177.849 111.561 172.967C111.58 172.788 111.6 172.608 111.62 172.429Z" fill="#A3CF76"/>
<path d="M109.188 230.603C107.967 232.473 105.661 236.741 106.211 238.848C107.203 237.397 109.188 233.717 109.188 230.603Z" fill="#A3CF76"/>
<path d="M67.4209 259.665C67.4209 257.375 53.2209 254.97 51.6177 260.81C52.1903 264.475 68.2225 266.765 67.4209 259.665Z" fill="#666666"/>
<path d="M82.9948 254.856C82.9948 252.565 68.7949 250.16 67.1917 256.001C67.7642 259.665 83.7965 261.956 82.9948 254.856Z" fill="#666666"/>
<path d="M59 246.766C40.5804 253.029 13.3521 0 -58 0V358H1333.5C1333.5 12.5 1269.85 370.252 1215.5 336.442C1203.27 328.833 1190.58 207.956 1160 207.005C1129.42 206.054 1154.27 148.986 1113.5 145.182C1072.73 141.377 961.693 198.445 951.5 207.005C941.307 215.566 839.08 276.245 829.148 246.765C805.5 176.569 679.5 266.927 562.5 266.927C517.993 266.927 464.194 288.419 424 296.5C338.387 313.712 287.417 246.766 276.682 246.766H276.682C267.857 246.766 246.499 246.766 152 266.927C124.403 268.165 93.1176 235.164 59 246.766Z" fill="#4495B0"/>
<defs>
<filter id="filter0_d_0_1" x="834.883" y="158.342" width="36.5748" height="64.8385" filterUnits="userSpaceOnUse" color-interpolation-filters="sRGB">
<feFlood flood-opacity="0" result="BackgroundImageFix"/>
<feColorMatrix in="SourceAlpha" type="matrix" values="0 0 0 0 0 0 0 0 0 0 0 0 0 0 0 0 0 0 127 0" result="hardAlpha"/>
<feOffset dy="7.17902"/>
<feGaussianBlur stdDeviation="3.58951"/>
<feComposite in2="hardAlpha" operator="out"/>
<feColorMatrix type="matrix" values="0 0 0 0 0 0 0 0 0 0 0 0 0 0 0 0 0 0 0.25 0"/>
<feBlend mode="normal" in2="BackgroundImageFix" result="effect1_dropShadow_0_1"/>
<feBlend mode="normal" in="SourceGraphic" in2="effect1_dropShadow_0_1" result="shape"/>
</filter>
<filter id="filter1_f_0_1" x="799.166" y="3.3492" width="188.71" height="191.788" filterUnits="userSpaceOnUse" color-interpolation-filters="sRGB">
<feFlood flood-opacity="0" result="BackgroundImageFix"/>
<feBlend mode="normal" in="SourceGraphic" in2="BackgroundImageFix" result="shape"/>
<feGaussianBlur stdDeviation="44.8689" result="effect1_foregroundBlur_0_1"/>
</filter>
<filter id="filter2_d_0_1" x="918.661" y="104.783" width="34.7907" height="33.4772" filterUnits="userSpaceOnUse" color-interpolation-filters="sRGB">
<feFlood flood-opacity="0" result="BackgroundImageFix"/>
<feColorMatrix in="SourceAlpha" type="matrix" values="0 0 0 0 0 0 0 0 0 0 0 0 0 0 0 0 0 0 127 0" result="hardAlpha"/>
<feOffset dy="7.17902"/>
<feGaussianBlur stdDeviation="3.58951"/>
<feComposite in2="hardAlpha" operator="out"/>
<feColorMatrix type="matrix" values="0 0 0 0 0 0 0 0 0 0 0 0 0 0 0 0 0 0 0.25 0"/>
<feBlend mode="normal" in2="BackgroundImageFix" result="effect1_dropShadow_0_1"/>
<feBlend mode="normal" in="SourceGraphic" in2="effect1_dropShadow_0_1" result="shape"/>
</filter>
<linearGradient id="paint0_linear_0_1" x1="848.273" y1="298.087" x2="956.621" y2="62.3055" gradientUnits="userSpaceOnUse">
<stop stop-color="#D74E61"/>
<stop offset="0.545" stop-color="#E58B49"/>
<stop offset="0.955" stop-color="#F9BF2A"/>
</linearGradient>
<linearGradient id="paint1_linear_0_1" x1="888.648" y1="93.0869" x2="888.648" y2="200.989" gradientUnits="userSpaceOnUse">
<stop stop-color="#B9633B"/>
<stop offset="1" stop-color="#AA4A3A"/>
</linearGradient>
<linearGradient id="paint2_linear_0_1" x1="27.3555" y1="158.458" x2="27.3555" y2="253.925" gradientUnits="userSpaceOnUse">
<stop stop-color="#739F46"/>
<stop offset="1" stop-color="#68834D"/>
</linearGradient>
<linearGradient id="paint3_linear_0_1" x1="51.6562" y1="87" x2="51.6562" y2="258.818" gradientUnits="userSpaceOnUse">
<stop stop-color="#739F46"/>
<stop offset="1" stop-color="#68834D"/>
</linearGradient>
<linearGradient id="paint4_linear_0_1" x1="95.6614" y1="122.042" x2="95.6614" y2="258.821" gradientUnits="userSpaceOnUse">
<stop stop-color="#739F46"/>
<stop offset="1" stop-color="#68834D"/>
</linearGradient>
</defs>
</svg>
