<svg width="1337" height="252" viewBox="0 0 1337 252" fill="none" xmlns="http://www.w3.org/2000/svg">
<path d="M1226.96 59.3461C1295.49 86.203 1265.62 0.000976562 1337 0.000976562V252.001L0 252V157.501C12.2362 150.909 71.4095 60.8249 102 60.0009C132.59 59.1768 206.321 112.579 247.109 109.283C287.896 105.986 398.97 155.427 409.167 162.843C419.364 170.26 517.126 170.917 527.061 145.377C550.718 84.562 676.763 162.843 793.805 162.843C838.328 162.843 826.123 207.422 866.331 214.423C951.975 229.335 1018.15 136.889 1028.89 136.889C1034.23 136.889 1017.39 150.746 1099.91 162.843C1174.44 162.843 1118.42 114.36 1139.93 109.161C1167.54 110.235 1194.12 46.4741 1226.96 59.3461Z" fill="#3D859D"/>
</svg>
