<svg width="208" height="74" viewBox="0 0 208 74" fill="none" xmlns="http://www.w3.org/2000/svg">
<g filter="url(#filter0_f_934_2919)">
<path d="M92.6707 18.4779C92.6707 18.9555 88.5579 16.72 86.5015 15.5425C86.5513 14.2822 86.6209 11.7216 86.5015 11.5624C86.3523 11.3634 90.5314 7.28379 91.6259 7.98031C92.7205 8.67683 91.4767 11.9107 91.1284 13.1545C92.7205 14.2988 92.6707 17.8809 92.6707 18.4779Z" fill="#6DA1AE"/>
<path d="M86.3025 15.4922C85.8248 15.0942 83.732 15.1771 82.6706 15.3429H82.1731C82.2063 14.0328 83.1084 11.4623 86.4517 11.6613C90.6308 11.9101 86.8995 15.9897 86.3025 15.4922Z" fill="#6DA1AE"/>
<path d="M64.8038 20.5528C64.865 20.2734 64.4218 19.0861 64.1926 18.5273C62.4099 18.667 58.7939 18.5281 59.0384 18.9751C59.344 19.5338 62.8938 23.6258 63.5814 23.975C64.269 24.3242 64.7274 20.902 64.8038 20.5528Z" fill="#6DA1AE"/>
<path d="M73.4383 7.98554C73.6618 8.76593 72.5257 9.794 71.5759 10.1692C70.0114 10.1692 66.9273 9.85403 67.1061 8.59339C67.3295 7.01759 69.4431 3.81331 69.3596 4.00853C69.043 4.74903 72.0974 4.98402 72.0974 6.48478C72.0974 7.32009 73.159 7.01005 73.4383 7.98554Z" fill="#6DA1AE"/>
<path d="M86.1036 11.7117C80.1334 12.3584 82.7702 11.7117 73.9642 10.2689C62.5997 5.69964 51.509 9.38816 47.0487 12.0599C47.047 12.061 47.0452 12.0621 47.0434 12.0634C46.9477 12.1292 46.5014 12.5935 46.5014 12.9057C46.5014 13.3037 47.8993 13.4354 48.5412 14.3983C48.6407 14.5475 48.9392 14.9953 48.6905 15.045C47.7783 14.647 46.1404 13.7483 46.0039 14.249C45.8546 14.7963 50.0172 16.9687 52.0736 17.7814C53.2344 18.0799 57.0885 19.1246 65.805 19.9207C73.3175 19.9207 77.281 17.4497 81.7255 15.5923C83.8316 14.7133 87.6558 12.7067 86.1036 11.7117Z" fill="#6DA1AE"/>
<path d="M90.9461 9.21463C90.9283 9.19636 90.9035 9.18446 90.8726 9.17847C89.869 8.98392 91.6591 9.94715 90.9461 9.21463Z" fill="#6DA1AE"/>
<path d="M70.7488 6.03104C70.731 6.01277 70.7062 6.00087 70.6753 5.99487C69.6717 5.80033 71.4618 6.76355 70.7488 6.03104Z" fill="#6DA1AE"/>
<path d="M71.029 7.18371C71.0142 7.16822 70.9929 7.1579 70.9657 7.15236C70.2053 6.99688 71.5648 7.74525 71.029 7.18371Z" fill="#6DA1AE"/>
<path d="M71.4672 8.00125C71.487 8.04668 71.4222 8.12044 71.285 8.21857C70.6855 8.64745 70.3537 8.21793 71.0516 7.98085C71.2598 7.91013 71.4246 7.9034 71.4672 8.00125Z" fill="#6DA1AE"/>
<path d="M91.127 16.1873C91.135 16.1631 91.134 16.1356 91.125 16.1054C90.8329 15.1258 90.8078 17.1584 91.127 16.1873Z" fill="#6DA1AE"/>
<path d="M90.7873 10.4678C90.7574 10.4363 90.7238 10.4154 90.687 10.4038C90.2229 10.2572 91.1223 10.8208 90.7873 10.4678Z" fill="#6DA1AE"/>
<path d="M90.8947 14.6354C90.9157 14.5862 90.922 14.5384 90.9152 14.4922C90.8345 13.9359 90.6735 15.1521 90.8947 14.6354Z" fill="#6DA1AE"/>
<path d="M62.1509 20.265C62.0782 20.1118 62.143 20.0167 62.4271 20.0206C62.7855 20.0256 62.3045 20.5889 62.1509 20.265Z" fill="#6DA1AE"/>
<path d="M60.9292 20.0323C60.9292 19.953 60.9569 19.9183 61.0075 19.9211C61.7168 19.9599 60.9292 20.7427 60.9292 20.0323Z" fill="#6DA1AE"/>
<ellipse cx="0.99503" cy="0.945279" rx="0.99503" ry="0.945279" transform="matrix(-1 0 0 1 51.1777 12.1592)" fill="#6DA1AE"/>
<circle cx="0.298509" cy="0.298509" r="0.298509" transform="matrix(-1 0 0 1 50.4814 12.7559)" fill="#6DA1AE"/>
<path d="M50.1817 16.1521C50.9168 16.2431 50.0832 14.8461 49.6497 14.821C48.7783 14.7706 50.2822 15.5924 50.1817 16.1521Z" fill="#6DA1AE"/>
<path d="M53.0919 16.7082C53.0707 16.7317 53.0538 16.7506 53.0866 16.7211C54.2836 15.6441 55.8232 13.6364 53.7149 12.9551C54.9954 13.7827 53.3399 16.3112 53.1106 16.6776C53.1025 16.6905 53.0962 16.7008 53.0919 16.7082Z" fill="#6DA1AE"/>
<path d="M56.6009 14.5969C56.9898 15.5919 56.5952 16.5869 56.3522 16.8357C56.3198 16.6864 56.4466 15.1764 56.1532 14.6964C55.6059 13.8008 55.1504 12.7052 55.0089 12.4575C54.8099 12.1093 54.8122 11.761 54.9094 11.1143C54.9926 12.2585 56.1149 13.3531 56.6009 14.5969Z" fill="#6DA1AE"/>
</g>
<g filter="url(#filter1_f_934_2919)">
<path d="M50.6707 38.4779C50.6707 38.9555 46.5579 36.72 44.5015 35.5425C44.5513 34.2822 44.6209 31.7216 44.5015 31.5624C44.3523 31.3634 48.5314 27.2838 49.6259 27.9803C50.7205 28.6768 49.4767 31.9107 49.1284 33.1545C50.7205 34.2988 50.6707 37.8809 50.6707 38.4779Z" fill="#6DA1AE"/>
<path d="M44.3025 35.4922C43.8248 35.0942 41.732 35.1771 40.6706 35.3429H40.1731C40.2063 34.0328 41.1084 31.4623 44.4517 31.6613C48.6308 31.9101 44.8995 35.9897 44.3025 35.4922Z" fill="#6DA1AE"/>
<path d="M22.8038 40.5528C22.865 40.2734 22.4218 39.0861 22.1926 38.5273C20.4099 38.667 16.7939 38.5281 17.0384 38.9751C17.344 39.5338 20.8938 43.6258 21.5814 43.975C22.269 44.3242 22.7274 40.902 22.8038 40.5528Z" fill="#6DA1AE"/>
<path d="M31.4383 27.9855C31.6618 28.7659 30.5257 29.794 29.5759 30.1692C28.0114 30.1692 24.9273 29.854 25.1061 28.5934C25.3295 27.0176 27.4431 23.8133 27.3596 24.0085C27.043 24.749 30.0974 24.984 30.0974 26.4848C30.0974 27.3201 31.159 27.01 31.4383 27.9855Z" fill="#6DA1AE"/>
<path d="M44.1036 31.7117C38.1334 32.3584 40.7702 31.7117 31.9642 30.2689C20.5997 25.6996 9.509 29.3882 5.04866 32.0599C5.04695 32.061 5.04518 32.0621 5.04336 32.0634C4.94774 32.1292 4.50139 32.5935 4.50139 32.9057C4.50139 33.3037 5.89931 33.4354 6.5412 34.3983C6.6407 34.5475 6.93921 34.9953 6.69046 35.045C5.77834 34.647 4.14042 33.7483 4.00387 34.249C3.85462 34.7963 8.01716 36.9687 10.0736 37.7814C11.2344 38.0799 15.0885 39.1246 23.805 39.9207C31.3175 39.9207 35.281 37.4497 39.7255 35.5923C41.8316 34.7133 45.6558 32.7067 44.1036 31.7117Z" fill="#6DA1AE"/>
<path d="M48.9461 29.2146C48.9283 29.1964 48.9035 29.1845 48.8726 29.1785C47.869 28.9839 49.6591 29.9471 48.9461 29.2146Z" fill="#6DA1AE"/>
<path d="M28.7488 26.031C28.731 26.0128 28.7062 26.0009 28.6753 25.9949C27.6717 25.8003 29.4618 26.7636 28.7488 26.031Z" fill="#6DA1AE"/>
<path d="M29.029 27.1837C29.0142 27.1682 28.9929 27.1579 28.9657 27.1524C28.2053 26.9969 29.5648 27.7453 29.029 27.1837Z" fill="#6DA1AE"/>
<path d="M29.4672 28.0012C29.487 28.0467 29.4222 28.1204 29.285 28.2186C28.6855 28.6475 28.3537 28.2179 29.0516 27.9809C29.2598 27.9101 29.4246 27.9034 29.4672 28.0012Z" fill="#6DA1AE"/>
<path d="M49.127 36.1873C49.135 36.1631 49.134 36.1356 49.125 36.1054C48.8329 35.1258 48.8078 37.1584 49.127 36.1873Z" fill="#6DA1AE"/>
<path d="M48.7873 30.4678C48.7574 30.4363 48.7238 30.4154 48.687 30.4038C48.2229 30.2572 49.1223 30.8208 48.7873 30.4678Z" fill="#6DA1AE"/>
<path d="M48.8947 34.6354C48.9157 34.5862 48.922 34.5384 48.9152 34.4922C48.8345 33.9359 48.6735 35.1521 48.8947 34.6354Z" fill="#6DA1AE"/>
<path d="M20.1509 40.265C20.0782 40.1118 20.143 40.0167 20.4271 40.0206C20.7855 40.0256 20.3045 40.5889 20.1509 40.265Z" fill="#6DA1AE"/>
<path d="M18.9292 40.0323C18.9292 39.953 18.9569 39.9183 19.0075 39.9211C19.7168 39.9599 18.9292 40.7427 18.9292 40.0323Z" fill="#6DA1AE"/>
<ellipse cx="0.99503" cy="0.945279" rx="0.99503" ry="0.945279" transform="matrix(-1 0 0 1 9.17773 32.1592)" fill="#6DA1AE"/>
<circle cx="0.298509" cy="0.298509" r="0.298509" transform="matrix(-1 0 0 1 8.48145 32.7559)" fill="#6DA1AE"/>
<path d="M8.18165 36.1521C8.9168 36.2431 8.08315 34.8461 7.64972 34.821C6.77832 34.7706 8.28216 35.5924 8.18165 36.1521Z" fill="#6DA1AE"/>
<path d="M11.0919 36.7082C11.0707 36.7317 11.0538 36.7506 11.0866 36.7211C12.2836 35.6441 13.8232 33.6364 11.7149 32.9551C12.9954 33.7827 11.3399 36.3112 11.1106 36.6776C11.1025 36.6905 11.0962 36.7008 11.0919 36.7082Z" fill="#6DA1AE"/>
<path d="M14.6009 34.5969C14.9898 35.5919 14.5952 36.5869 14.3522 36.8357C14.3198 36.6864 14.4466 35.1764 14.1532 34.6964C13.6059 33.8008 13.1504 32.7052 13.0089 32.4575C12.8099 32.1093 12.8122 31.761 12.9094 31.1143C12.9926 32.2585 14.1149 33.3531 14.6009 34.5969Z" fill="#6DA1AE"/>
</g>
<g filter="url(#filter2_f_934_2919)">
<path d="M94.6707 58.4779C94.6707 58.9555 90.5579 56.72 88.5015 55.5425C88.5513 54.2822 88.6209 51.7216 88.5015 51.5624C88.3523 51.3634 92.5314 47.2838 93.6259 47.9803C94.7205 48.6768 93.4767 51.9107 93.1284 53.1545C94.7205 54.2988 94.6707 57.8809 94.6707 58.4779Z" fill="#6DA1AE"/>
<path d="M88.3025 55.4922C87.8248 55.0942 85.732 55.1771 84.6706 55.3429H84.1731C84.2063 54.0328 85.1084 51.4623 88.4517 51.6613C92.6308 51.9101 88.8995 55.9897 88.3025 55.4922Z" fill="#6DA1AE"/>
<path d="M66.8038 60.5528C66.865 60.2734 66.4218 59.0861 66.1926 58.5273C64.4099 58.667 60.7939 58.5281 61.0384 58.9751C61.344 59.5338 64.8938 63.6258 65.5814 63.975C66.269 64.3242 66.7274 60.902 66.8038 60.5528Z" fill="#6DA1AE"/>
<path d="M75.4383 47.9855C75.6618 48.7659 74.5257 49.794 73.5759 50.1692C72.0114 50.1692 68.9273 49.854 69.1061 48.5934C69.3295 47.0176 71.4431 43.8133 71.3596 44.0085C71.043 44.749 74.0974 44.984 74.0974 46.4848C74.0974 47.3201 75.159 47.01 75.4383 47.9855Z" fill="#6DA1AE"/>
<path d="M88.1036 51.7117C82.1334 52.3584 84.7702 51.7117 75.9642 50.2689C64.5997 45.6996 53.509 49.3882 49.0487 52.0599C49.047 52.061 49.0452 52.0621 49.0434 52.0634C48.9477 52.1292 48.5014 52.5935 48.5014 52.9057C48.5014 53.3037 49.8993 53.4354 50.5412 54.3983C50.6407 54.5475 50.9392 54.9953 50.6905 55.045C49.7783 54.647 48.1404 53.7483 48.0039 54.249C47.8546 54.7963 52.0172 56.9687 54.0736 57.7814C55.2344 58.0799 59.0885 59.1246 67.805 59.9207C75.3175 59.9207 79.281 57.4497 83.7255 55.5923C85.8316 54.7133 89.6558 52.7067 88.1036 51.7117Z" fill="#6DA1AE"/>
<path d="M92.9461 49.2146C92.9283 49.1964 92.9035 49.1845 92.8726 49.1785C91.869 48.9839 93.6591 49.9471 92.9461 49.2146Z" fill="#6DA1AE"/>
<path d="M72.7488 46.031C72.731 46.0128 72.7062 46.0009 72.6753 45.9949C71.6717 45.8003 73.4618 46.7636 72.7488 46.031Z" fill="#6DA1AE"/>
<path d="M73.029 47.1837C73.0142 47.1682 72.9929 47.1579 72.9657 47.1524C72.2053 46.9969 73.5648 47.7453 73.029 47.1837Z" fill="#6DA1AE"/>
<path d="M73.4672 48.0012C73.487 48.0467 73.4222 48.1204 73.285 48.2186C72.6855 48.6475 72.3537 48.2179 73.0516 47.9809C73.2598 47.9101 73.4246 47.9034 73.4672 48.0012Z" fill="#6DA1AE"/>
<path d="M93.127 56.1873C93.135 56.1631 93.134 56.1356 93.125 56.1054C92.8329 55.1258 92.8078 57.1584 93.127 56.1873Z" fill="#6DA1AE"/>
<path d="M92.7873 50.4678C92.7574 50.4363 92.7238 50.4154 92.687 50.4038C92.2229 50.2572 93.1223 50.8208 92.7873 50.4678Z" fill="#6DA1AE"/>
<path d="M92.8947 54.6354C92.9157 54.5862 92.922 54.5384 92.9152 54.4922C92.8345 53.9359 92.6735 55.1521 92.8947 54.6354Z" fill="#6DA1AE"/>
<path d="M64.1509 60.265C64.0782 60.1118 64.143 60.0167 64.4271 60.0206C64.7855 60.0256 64.3045 60.5889 64.1509 60.265Z" fill="#6DA1AE"/>
<path d="M62.9292 60.0323C62.9292 59.953 62.9569 59.9183 63.0075 59.9211C63.7168 59.9599 62.9292 60.7427 62.9292 60.0323Z" fill="#6DA1AE"/>
<ellipse cx="0.99503" cy="0.945279" rx="0.99503" ry="0.945279" transform="matrix(-1 0 0 1 53.1777 52.1592)" fill="#6DA1AE"/>
<circle cx="0.298509" cy="0.298509" r="0.298509" transform="matrix(-1 0 0 1 52.4814 52.7559)" fill="#6DA1AE"/>
<path d="M52.1817 56.1521C52.9168 56.2431 52.0832 54.8461 51.6497 54.821C50.7783 54.7706 52.2822 55.5924 52.1817 56.1521Z" fill="#6DA1AE"/>
<path d="M55.0919 56.7082C55.0707 56.7317 55.0538 56.7506 55.0866 56.7211C56.2836 55.6441 57.8232 53.6364 55.7149 52.9551C56.9954 53.7827 55.3399 56.3112 55.1106 56.6776C55.1025 56.6905 55.0962 56.7008 55.0919 56.7082Z" fill="#6DA1AE"/>
<path d="M58.6009 54.5969C58.9898 55.5919 58.5952 56.5869 58.3522 56.8357C58.3198 56.6864 58.4466 55.1764 58.1532 54.6964C57.6059 53.8008 57.1504 52.7052 57.0089 52.4575C56.8099 52.1093 56.8122 51.761 56.9094 51.1143C56.9926 52.2585 58.1149 53.3531 58.6009 54.5969Z" fill="#6DA1AE"/>
</g>
<g filter="url(#filter3_f_934_2919)">
<path d="M138.671 36.4779C138.671 36.9555 134.558 34.72 132.502 33.5425C132.551 32.2822 132.621 29.7216 132.502 29.5624C132.352 29.3634 136.531 25.2838 137.626 25.9803C138.72 26.6768 137.477 29.9107 137.128 31.1545C138.72 32.2988 138.671 35.8809 138.671 36.4779Z" fill="#6DA1AE"/>
<path d="M132.302 33.4922C131.825 33.0942 129.732 33.1771 128.671 33.3429H128.173C128.206 32.0328 129.108 29.4623 132.452 29.6613C136.631 29.9101 132.899 33.9897 132.302 33.4922Z" fill="#6DA1AE"/>
<path d="M110.804 38.5528C110.865 38.2734 110.422 37.0861 110.193 36.5273C108.41 36.667 104.794 36.5281 105.038 36.9751C105.344 37.5338 108.894 41.6258 109.581 41.975C110.269 42.3242 110.727 38.902 110.804 38.5528Z" fill="#6DA1AE"/>
<path d="M119.438 25.9855C119.662 26.7659 118.526 27.794 117.576 28.1692C116.011 28.1692 112.927 27.854 113.106 26.5934C113.33 25.0176 115.443 21.8133 115.36 22.0085C115.043 22.749 118.097 22.984 118.097 24.4848C118.097 25.3201 119.159 25.01 119.438 25.9855Z" fill="#6DA1AE"/>
<path d="M132.104 29.7117C126.133 30.3584 128.77 29.7117 119.964 28.2689C108.6 23.6996 97.509 27.3882 93.0487 30.0599C93.047 30.061 93.0452 30.0621 93.0434 30.0634C92.9477 30.1292 92.5014 30.5935 92.5014 30.9057C92.5014 31.3037 93.8993 31.4354 94.5412 32.3983C94.6407 32.5475 94.9392 32.9953 94.6905 33.045C93.7783 32.647 92.1404 31.7483 92.0039 32.249C91.8546 32.7963 96.0172 34.9687 98.0736 35.7814C99.2344 36.0799 103.089 37.1246 111.805 37.9207C119.317 37.9207 123.281 35.4497 127.725 33.5923C129.832 32.7133 133.656 30.7067 132.104 29.7117Z" fill="#6DA1AE"/>
<path d="M136.946 27.2146C136.928 27.1964 136.904 27.1845 136.873 27.1785C135.869 26.9839 137.659 27.9471 136.946 27.2146Z" fill="#6DA1AE"/>
<path d="M116.749 24.031C116.731 24.0128 116.706 24.0009 116.675 23.9949C115.672 23.8003 117.462 24.7636 116.749 24.031Z" fill="#6DA1AE"/>
<path d="M117.029 25.1837C117.014 25.1682 116.993 25.1579 116.966 25.1524C116.205 24.9969 117.565 25.7453 117.029 25.1837Z" fill="#6DA1AE"/>
<path d="M117.467 26.0012C117.487 26.0467 117.422 26.1204 117.285 26.2186C116.686 26.6475 116.354 26.2179 117.052 25.9809C117.26 25.9101 117.425 25.9034 117.467 26.0012Z" fill="#6DA1AE"/>
<path d="M137.127 34.1873C137.135 34.1631 137.134 34.1356 137.125 34.1054C136.833 33.1258 136.808 35.1584 137.127 34.1873Z" fill="#6DA1AE"/>
<path d="M136.787 28.4678C136.757 28.4363 136.724 28.4154 136.687 28.4038C136.223 28.2572 137.122 28.8208 136.787 28.4678Z" fill="#6DA1AE"/>
<path d="M136.895 32.6354C136.916 32.5862 136.922 32.5384 136.915 32.4922C136.834 31.9359 136.674 33.1521 136.895 32.6354Z" fill="#6DA1AE"/>
<path d="M108.151 38.265C108.078 38.1118 108.143 38.0167 108.427 38.0206C108.785 38.0256 108.305 38.5889 108.151 38.265Z" fill="#6DA1AE"/>
<path d="M106.929 38.0323C106.929 37.953 106.957 37.9183 107.008 37.9211C107.717 37.9599 106.929 38.7427 106.929 38.0323Z" fill="#6DA1AE"/>
<ellipse cx="0.99503" cy="0.945279" rx="0.99503" ry="0.945279" transform="matrix(-1 0 0 1 97.1777 30.1592)" fill="#6DA1AE"/>
<circle cx="0.298509" cy="0.298509" r="0.298509" transform="matrix(-1 0 0 1 96.4814 30.7559)" fill="#6DA1AE"/>
<path d="M96.1817 34.1521C96.9168 34.2431 96.0832 32.8461 95.6497 32.821C94.7783 32.7706 96.2822 33.5924 96.1817 34.1521Z" fill="#6DA1AE"/>
<path d="M99.0919 34.7082C99.0707 34.7317 99.0538 34.7506 99.0866 34.7211C100.284 33.6441 101.823 31.6364 99.7149 30.9551C100.995 31.7827 99.3399 34.3112 99.1106 34.6776C99.1025 34.6905 99.0962 34.7008 99.0919 34.7082Z" fill="#6DA1AE"/>
<path d="M102.601 32.5969C102.99 33.5919 102.595 34.5869 102.352 34.8357C102.32 34.6864 102.447 33.1764 102.153 32.6964C101.606 31.8008 101.15 30.7052 101.009 30.4575C100.81 30.1093 100.812 29.761 100.909 29.1143C100.993 30.2585 102.115 31.3531 102.601 32.5969Z" fill="#6DA1AE"/>
</g>
<g filter="url(#filter4_f_934_2919)">
<path d="M163.671 64.4779C163.671 64.9555 159.558 62.72 157.502 61.5425C157.551 60.2822 157.621 57.7216 157.502 57.5624C157.352 57.3634 161.531 53.2838 162.626 53.9803C163.72 54.6768 162.477 57.9107 162.128 59.1545C163.72 60.2988 163.671 63.8809 163.671 64.4779Z" fill="#6DA1AE"/>
<path d="M157.302 61.4922C156.825 61.0942 154.732 61.1771 153.671 61.3429H153.173C153.206 60.0328 154.108 57.4623 157.452 57.6613C161.631 57.9101 157.899 61.9897 157.302 61.4922Z" fill="#6DA1AE"/>
<path d="M135.804 66.5528C135.865 66.2734 135.422 65.0861 135.193 64.5273C133.41 64.667 129.794 64.5281 130.038 64.9751C130.344 65.5338 133.894 69.6258 134.581 69.975C135.269 70.3242 135.727 66.902 135.804 66.5528Z" fill="#6DA1AE"/>
<path d="M144.438 53.9855C144.662 54.7659 143.526 55.794 142.576 56.1692C141.011 56.1692 137.927 55.854 138.106 54.5934C138.33 53.0176 140.443 49.8133 140.36 50.0085C140.043 50.749 143.097 50.984 143.097 52.4848C143.097 53.3201 144.159 53.01 144.438 53.9855Z" fill="#6DA1AE"/>
<path d="M157.104 57.7117C151.133 58.3584 153.77 57.7117 144.964 56.2689C133.6 51.6996 122.509 55.3882 118.049 58.0599C118.047 58.061 118.045 58.0621 118.043 58.0634C117.948 58.1292 117.501 58.5935 117.501 58.9057C117.501 59.3037 118.899 59.4354 119.541 60.3983C119.641 60.5475 119.939 60.9953 119.69 61.045C118.778 60.647 117.14 59.7483 117.004 60.249C116.855 60.7963 121.017 62.9687 123.074 63.7814C124.234 64.0799 128.089 65.1246 136.805 65.9207C144.317 65.9207 148.281 63.4497 152.725 61.5923C154.832 60.7133 158.656 58.7067 157.104 57.7117Z" fill="#6DA1AE"/>
<path d="M161.946 55.2146C161.928 55.1964 161.904 55.1845 161.873 55.1785C160.869 54.9839 162.659 55.9471 161.946 55.2146Z" fill="#6DA1AE"/>
<path d="M141.749 52.031C141.731 52.0128 141.706 52.0009 141.675 51.9949C140.672 51.8003 142.462 52.7636 141.749 52.031Z" fill="#6DA1AE"/>
<path d="M142.029 53.1837C142.014 53.1682 141.993 53.1579 141.966 53.1524C141.205 52.9969 142.565 53.7453 142.029 53.1837Z" fill="#6DA1AE"/>
<path d="M142.467 54.0012C142.487 54.0467 142.422 54.1204 142.285 54.2186C141.686 54.6475 141.354 54.2179 142.052 53.9809C142.26 53.9101 142.425 53.9034 142.467 54.0012Z" fill="#6DA1AE"/>
<path d="M162.127 62.1873C162.135 62.1631 162.134 62.1356 162.125 62.1054C161.833 61.1258 161.808 63.1584 162.127 62.1873Z" fill="#6DA1AE"/>
<path d="M161.787 56.4678C161.757 56.4363 161.724 56.4154 161.687 56.4038C161.223 56.2572 162.122 56.8208 161.787 56.4678Z" fill="#6DA1AE"/>
<path d="M161.895 60.6354C161.916 60.5862 161.922 60.5384 161.915 60.4922C161.834 59.9359 161.674 61.1521 161.895 60.6354Z" fill="#6DA1AE"/>
<path d="M133.151 66.265C133.078 66.1118 133.143 66.0167 133.427 66.0206C133.785 66.0256 133.305 66.5889 133.151 66.265Z" fill="#6DA1AE"/>
<path d="M131.929 66.0323C131.929 65.953 131.957 65.9183 132.008 65.9211C132.717 65.9599 131.929 66.7427 131.929 66.0323Z" fill="#6DA1AE"/>
<ellipse cx="0.99503" cy="0.945279" rx="0.99503" ry="0.945279" transform="matrix(-1 0 0 1 122.178 58.1592)" fill="#6DA1AE"/>
<circle cx="0.298509" cy="0.298509" r="0.298509" transform="matrix(-1 0 0 1 121.481 58.7559)" fill="#6DA1AE"/>
<path d="M121.182 62.1521C121.917 62.2431 121.083 60.8461 120.65 60.821C119.778 60.7706 121.282 61.5924 121.182 62.1521Z" fill="#6DA1AE"/>
<path d="M124.092 62.7082C124.071 62.7317 124.054 62.7506 124.087 62.7211C125.284 61.6441 126.823 59.6364 124.715 58.9551C125.995 59.7827 124.34 62.3112 124.111 62.6776C124.103 62.6905 124.096 62.7008 124.092 62.7082Z" fill="#6DA1AE"/>
<path d="M127.601 60.5969C127.99 61.5919 127.595 62.5869 127.352 62.8357C127.32 62.6864 127.447 61.1764 127.153 60.6964C126.606 59.8008 126.15 58.7052 126.009 58.4575C125.81 58.1093 125.812 57.761 125.909 57.1143C125.993 58.2585 127.115 59.3531 127.601 60.5969Z" fill="#6DA1AE"/>
</g>
<g filter="url(#filter5_f_934_2919)">
<path d="M203.671 36.4779C203.671 36.9555 199.558 34.72 197.502 33.5425C197.551 32.2822 197.621 29.7216 197.502 29.5624C197.352 29.3634 201.531 25.2838 202.626 25.9803C203.72 26.6768 202.477 29.9107 202.128 31.1545C203.72 32.2988 203.671 35.8809 203.671 36.4779Z" fill="#6DA1AE"/>
<path d="M197.302 33.4922C196.825 33.0942 194.732 33.1771 193.671 33.3429H193.173C193.206 32.0328 194.108 29.4623 197.452 29.6613C201.631 29.9101 197.899 33.9897 197.302 33.4922Z" fill="#6DA1AE"/>
<path d="M175.804 38.5528C175.865 38.2734 175.422 37.0861 175.193 36.5273C173.41 36.667 169.794 36.5281 170.038 36.9751C170.344 37.5338 173.894 41.6258 174.581 41.975C175.269 42.3242 175.727 38.902 175.804 38.5528Z" fill="#6DA1AE"/>
<path d="M184.438 25.9855C184.662 26.7659 183.526 27.794 182.576 28.1692C181.011 28.1692 177.927 27.854 178.106 26.5934C178.33 25.0176 180.443 21.8133 180.36 22.0085C180.043 22.749 183.097 22.984 183.097 24.4848C183.097 25.3201 184.159 25.01 184.438 25.9855Z" fill="#6DA1AE"/>
<path d="M197.104 29.7117C191.133 30.3584 193.77 29.7117 184.964 28.2689C173.6 23.6996 162.509 27.3882 158.049 30.0599C158.047 30.061 158.045 30.0621 158.043 30.0634C157.948 30.1292 157.501 30.5935 157.501 30.9057C157.501 31.3037 158.899 31.4354 159.541 32.3983C159.641 32.5475 159.939 32.9953 159.69 33.045C158.778 32.647 157.14 31.7483 157.004 32.249C156.855 32.7963 161.017 34.9687 163.074 35.7814C164.234 36.0799 168.089 37.1246 176.805 37.9207C184.317 37.9207 188.281 35.4497 192.725 33.5923C194.832 32.7133 198.656 30.7067 197.104 29.7117Z" fill="#6DA1AE"/>
<path d="M201.946 27.2146C201.928 27.1964 201.904 27.1845 201.873 27.1785C200.869 26.9839 202.659 27.9471 201.946 27.2146Z" fill="#6DA1AE"/>
<path d="M181.749 24.031C181.731 24.0128 181.706 24.0009 181.675 23.9949C180.672 23.8003 182.462 24.7636 181.749 24.031Z" fill="#6DA1AE"/>
<path d="M182.029 25.1837C182.014 25.1682 181.993 25.1579 181.966 25.1524C181.205 24.9969 182.565 25.7453 182.029 25.1837Z" fill="#6DA1AE"/>
<path d="M182.467 26.0012C182.487 26.0467 182.422 26.1204 182.285 26.2186C181.686 26.6475 181.354 26.2179 182.052 25.9809C182.26 25.9101 182.425 25.9034 182.467 26.0012Z" fill="#6DA1AE"/>
<path d="M202.127 34.1873C202.135 34.1631 202.134 34.1356 202.125 34.1054C201.833 33.1258 201.808 35.1584 202.127 34.1873Z" fill="#6DA1AE"/>
<path d="M201.787 28.4678C201.757 28.4363 201.724 28.4154 201.687 28.4038C201.223 28.2572 202.122 28.8208 201.787 28.4678Z" fill="#6DA1AE"/>
<path d="M201.895 32.6354C201.916 32.5862 201.922 32.5384 201.915 32.4922C201.834 31.9359 201.674 33.1521 201.895 32.6354Z" fill="#6DA1AE"/>
<path d="M173.151 38.265C173.078 38.1118 173.143 38.0167 173.427 38.0206C173.785 38.0256 173.305 38.5889 173.151 38.265Z" fill="#6DA1AE"/>
<path d="M171.929 38.0323C171.929 37.953 171.957 37.9183 172.008 37.9211C172.717 37.9599 171.929 38.7427 171.929 38.0323Z" fill="#6DA1AE"/>
<ellipse cx="0.99503" cy="0.945279" rx="0.99503" ry="0.945279" transform="matrix(-1 0 0 1 162.178 30.1592)" fill="#6DA1AE"/>
<circle cx="0.298509" cy="0.298509" r="0.298509" transform="matrix(-1 0 0 1 161.481 30.7559)" fill="#6DA1AE"/>
<path d="M161.182 34.1521C161.917 34.2431 161.083 32.8461 160.65 32.821C159.778 32.7706 161.282 33.5924 161.182 34.1521Z" fill="#6DA1AE"/>
<path d="M164.092 34.7082C164.071 34.7317 164.054 34.7506 164.087 34.7211C165.284 33.6441 166.823 31.6364 164.715 30.9551C165.995 31.7827 164.34 34.3112 164.111 34.6776C164.103 34.6905 164.096 34.7008 164.092 34.7082Z" fill="#6DA1AE"/>
<path d="M167.601 32.5969C167.99 33.5919 167.595 34.5869 167.352 34.8357C167.32 34.6864 167.447 33.1764 167.153 32.6964C166.606 31.8008 166.15 30.7052 166.009 30.4575C165.81 30.1093 165.812 29.761 165.909 29.1143C165.993 30.2585 167.115 31.3531 167.601 32.5969Z" fill="#6DA1AE"/>
</g>
<defs>
<filter id="filter0_f_934_2919" x="42" y="0" width="54.6709" height="28" filterUnits="userSpaceOnUse" color-interpolation-filters="sRGB">
<feFlood flood-opacity="0" result="BackgroundImageFix"/>
<feBlend mode="normal" in="SourceGraphic" in2="BackgroundImageFix" result="shape"/>
<feGaussianBlur stdDeviation="2" result="effect1_foregroundBlur_934_2919"/>
</filter>
<filter id="filter1_f_934_2919" x="0" y="20" width="54.6709" height="28" filterUnits="userSpaceOnUse" color-interpolation-filters="sRGB">
<feFlood flood-opacity="0" result="BackgroundImageFix"/>
<feBlend mode="normal" in="SourceGraphic" in2="BackgroundImageFix" result="shape"/>
<feGaussianBlur stdDeviation="2" result="effect1_foregroundBlur_934_2919"/>
</filter>
<filter id="filter2_f_934_2919" x="44" y="40" width="54.6709" height="28" filterUnits="userSpaceOnUse" color-interpolation-filters="sRGB">
<feFlood flood-opacity="0" result="BackgroundImageFix"/>
<feBlend mode="normal" in="SourceGraphic" in2="BackgroundImageFix" result="shape"/>
<feGaussianBlur stdDeviation="2" result="effect1_foregroundBlur_934_2919"/>
</filter>
<filter id="filter3_f_934_2919" x="88" y="18" width="54.6709" height="28" filterUnits="userSpaceOnUse" color-interpolation-filters="sRGB">
<feFlood flood-opacity="0" result="BackgroundImageFix"/>
<feBlend mode="normal" in="SourceGraphic" in2="BackgroundImageFix" result="shape"/>
<feGaussianBlur stdDeviation="2" result="effect1_foregroundBlur_934_2919"/>
</filter>
<filter id="filter4_f_934_2919" x="113" y="46" width="54.6709" height="28" filterUnits="userSpaceOnUse" color-interpolation-filters="sRGB">
<feFlood flood-opacity="0" result="BackgroundImageFix"/>
<feBlend mode="normal" in="SourceGraphic" in2="BackgroundImageFix" result="shape"/>
<feGaussianBlur stdDeviation="2" result="effect1_foregroundBlur_934_2919"/>
</filter>
<filter id="filter5_f_934_2919" x="153" y="18" width="54.6709" height="28" filterUnits="userSpaceOnUse" color-interpolation-filters="sRGB">
<feFlood flood-opacity="0" result="BackgroundImageFix"/>
<feBlend mode="normal" in="SourceGraphic" in2="BackgroundImageFix" result="shape"/>
<feGaussianBlur stdDeviation="2" result="effect1_foregroundBlur_934_2919"/>
</filter>
</defs>
</svg>
