<svg width="221" height="337" viewBox="0 0 221 337" fill="none" xmlns="http://www.w3.org/2000/svg">
<path d="M56.313 300.489C56.0287 292.713 58.9107 280.733 60.7494 274.609C62.0815 270.173 65.2155 262.892 67.3416 258.269C69.4677 253.646 79.5071 236.616 84.261 228.679C83.0713 226.398 79.604 220.085 75.2529 213.089C69.814 204.343 69.6224 194.013 67.4501 191.998C65.282 189.986 60.5587 183.53 59.4463 177.721C58.3338 171.911 61.2232 167.068 67.4501 168.134C73.677 169.2 74.7074 186.061 79.2347 182.183C82.8565 179.08 87.161 163.881 88.7577 157.804C89.6872 154.266 89.437 151.158 85.8894 145.212C81.4549 137.78 86.3305 136.891 93.2836 137.818C100.237 138.745 100.322 151.761 100.678 161.479C100.962 169.255 92.7543 189.16 87.1351 196.51C88.9635 203.437 93.7204 217.533 98.121 218.497C103.622 219.702 114.19 204.127 119.027 197.931C122.896 192.974 123.297 178.292 123.013 171.571C120.809 169.233 118.633 158.938 114.726 154.266C110.82 149.593 107.016 141.76 107.207 136.203C107.675 132.098 108.854 122.788 109.818 118.387C111.023 112.887 102.704 109.172 100.949 103.523C99.1988 97.8901 97.6864 86.8601 104.375 90.4959C107.913 92.419 108.811 110.46 116.945 102.327C119.163 99.3689 117.718 95.0942 122.86 90.4959C126.759 87.0096 129.024 92.8771 130.693 101.592C132.362 110.306 124.76 117.785 123.802 128.508C123.035 137.087 127.762 150.553 131.733 155.564C137.97 142.255 145.232 120.653 143.564 111.939C141.478 101.045 134.602 67.7686 133.212 60.5065C131.821 53.2443 121.5 37.8545 125.224 25.8488C127.648 18.0336 137.458 34.4591 139.127 43.1737C140.462 50.1454 144.904 60.6736 146.521 63.8772L155.894 52.3481C158.352 49.089 162.841 54.0292 160.468 60.5065C158.095 66.9837 150.162 70.7981 146.521 72.7501C147.989 76.4842 151.287 87.259 152.51 93.6497C153.734 100.04 156.512 106.686 157.748 109.209C157.934 110.178 159.936 111.199 166.463 107.541C174.621 102.967 173.019 103.819 179.795 103.066C186.449 102.327 180.51 113.021 173.14 117.115C166.485 120.812 162.111 125.438 158.768 126.33L145.782 158.715C147.291 157.423 148.739 164.741 152.51 157.804C154.569 154.016 158.352 148.909 162.788 145.952C165.864 143.901 166.154 153.832 164.748 157.557C163.249 161.526 161.349 163.395 160.174 165.126C159 166.856 157.392 169.777 153.915 171.278C151.743 172.216 150.218 173.31 147.365 172.931C139.127 169.613 143.425 168.867 140.273 171.278C137.121 173.688 137.424 182.614 137.97 186.775C138.8 185.864 142.754 183.45 151.938 181.089C163.419 178.138 172.999 177.057 176.939 174.044C180.879 171.031 184.093 168.157 188.002 168.914C191.911 169.671 182.869 178.583 179.795 182.183C177.335 185.063 156.826 192.199 144.862 195.243C142.824 196.232 133.87 200.418 130.693 205.844C126.722 212.627 117.945 223.735 109.648 227.583C101.35 231.43 97.2402 237.487 89.9162 246.418C84.057 253.562 79.677 268.956 78.2193 275.76L74.8816 329.098C73.661 330.587 69.9124 333.814 64.6837 334.815C59.4549 335.816 55.2841 331.596 53.8523 329.361C53.8214 321.336 56.5972 308.264 56.313 300.489Z" fill="url(#paint0_linear_934_1974)"/>
<path d="M151.278 63.6794C154.489 62.8883 158.933 53.2794 156.68 55.1966C154.879 56.7303 152.328 61.4908 151.278 63.6794Z" fill="white" fill-opacity="0.44"/>
<path d="M65.1864 318.973C60.4542 304.185 73.5664 267.954 80.714 251.686C82.4393 249.468 85.8856 246.152 83.6717 251.686C80.714 259.081 74.7988 279.045 71.8411 289.397C69.475 297.678 70.8552 312.318 71.8411 318.973C71.5946 325.135 69.9186 333.761 65.1864 318.973Z" fill="#D9D9D9" fill-opacity="0.46"/>
<path d="M62.9682 267.215C64.7428 261.891 78.003 239.364 84.4112 228.766C83.1789 232.709 79.9747 241.927 77.0171 247.251C73.32 253.906 62.9682 282.743 61.4895 290.876C60.3064 297.383 61.9824 323.164 62.9682 335.241C62.4753 334.994 60.7501 334.353 57.7924 333.762C54.8348 333.17 53.6024 331.544 53.3559 330.804C53.1094 330.065 52.7644 325.924 53.3559 315.277C54.0953 301.967 56.3136 299.749 56.3136 296.052C56.3136 292.355 60.75 273.87 62.9682 267.215Z" fill="#AC4145"/>
<g filter="url(#filter0_d_934_1974)">
<path d="M57.7911 177.007C57.1996 174.049 60.7488 168.873 62.967 168.134V174.788C62.967 178.338 71.1005 187.112 74.0581 191.056C72.8751 192.239 79.7269 217.181 84.4099 228.765C81.4522 223.836 73.6145 212.498 71.8399 209.541C70.0653 206.583 68.3894 196.971 67.4035 192.534C62.967 187.358 58.5305 180.704 57.7911 177.007Z" fill="#A44839"/>
</g>
<path d="M83.7053 140.147C83.7052 137.896 87.5452 137.568 91.0656 137.818C92.4737 137.818 96.378 140.897 95.3219 155.152C93.9885 173.148 80.6667 183.661 76.3123 183.661C75.9521 183.661 78.424 179.91 81.5924 177.659C84.7608 175.409 88.1079 152.639 88.1079 150.388C88.1079 148.137 83.7053 143.24 83.7053 140.147Z" fill="#C06045"/>
<path d="M99.1992 93.4539C99.1992 90.4962 101.171 89.7568 102.157 89.7568C101.91 90.2498 102.157 91.6793 102.157 93.4539C102.157 96.4115 103.636 100.109 105.115 103.066C106.478 105.793 112.509 110.46 113.987 112.679C115.466 114.897 113.987 130.424 114.727 135.6C115.466 140.776 120.642 151.128 122.86 152.607C125.079 154.086 131.733 182.923 128.036 192.535C124.575 201.533 119.163 208.063 118.424 210.281C117.684 212.499 105.854 217.675 105.115 218.414C104.523 219.006 101.171 218.907 99.9386 218.414C103.636 218.414 116.945 199.929 119.903 194.753C122.269 190.612 121.628 177.254 121.382 171.092C120.396 166.409 117.78 158.489 114.727 154.825C111.03 150.389 108.072 142.748 107.333 137.819L109.551 115.636C107.333 111.939 102.896 107.503 101.417 105.284C99.9386 103.066 99.1992 97.1509 99.1992 93.4539Z" fill="url(#paint1_linear_934_1974)"/>
<path d="M132.472 203.626C136.021 199.485 137.401 190.563 137.648 186.62C137.894 187.359 138.387 188.099 142.084 191.056C146.215 194.361 162.788 183.662 169.442 181.444C176.097 179.965 183.984 173.31 188.667 169.613C189.406 171.092 182.505 179.719 179.794 182.183C178.315 184.401 153.915 193.274 145.042 195.493C142.084 196.232 135.676 201.408 132.472 203.626Z" fill="#BE5A42"/>
<g filter="url(#filter1_f_934_1974)">
<path d="M117.684 96.4115C118.867 91.0878 123.107 89.7568 125.078 89.7568C122.86 89.7568 119.903 94.1933 119.903 97.1509C119.903 99.5171 116.698 104.299 113.987 104.545C114.727 104.052 116.501 101.735 117.684 96.4115Z" fill="#B9613B"/>
</g>
<path d="M125.078 89.7564C121.528 89.1648 117.684 98.1367 116.205 103.066L113.247 104.545C114.972 104.298 122.859 106.023 123.599 102.326C124.063 100.006 123.106 92.714 125.078 89.7564Z" fill="#B75F3B"/>
<path d="M163.528 161.479C168.852 152.014 165.746 147.184 163.528 145.951C163.528 149.648 162.761 157.407 156.134 162.958C153.176 166.655 150.218 170.352 142.085 170.352C142.085 171.535 147.014 172.816 149.479 173.309C151.944 173.309 158.204 170.943 163.528 161.479Z" fill="#BE5A42"/>
<path d="M131.732 56.4833C121.676 36.3713 124.092 26.4139 126.556 23.9492C127.296 34.301 132.965 46.871 134.69 50.568C140.112 66.3421 149.478 108.686 149.478 122.291C149.478 135.896 138.633 154.085 133.211 162.958L131.732 154.825C144.302 128.206 143.809 108.735 140.605 101.587L131.732 56.4833Z" fill="#B3593B"/>
<g filter="url(#filter2_d_934_1974)">
<path d="M170.922 118.593C181.569 112.678 183.492 106.269 182.752 103.805C182.752 109.72 166.732 118.593 159.091 122.29L158.352 126.726C159.535 127.318 167.471 121.551 170.922 118.593Z" fill="#BE5A42"/>
</g>
<path d="M158.574 51.4459C158.5 51.3971 158.426 51.3507 158.351 51.3066C158.438 51.3066 158.513 51.3482 158.574 51.4459C162.622 54.1318 164.676 64.0351 146.521 72.7495C149.971 70.0384 157.76 63.2851 158.351 57.9613C158.838 53.5781 158.857 51.9015 158.574 51.4459Z" fill="#BE5A42"/>
<path d="M68.1436 170.352C68.883 174.788 73.3194 183.661 74.0588 182.182C74.6504 180.999 70.3618 173.802 68.1436 170.352Z" fill="white" fill-opacity="0.3"/>
<path d="M128.441 106.514C129.058 102.058 127.468 92.2665 126.321 93.4577C125.404 94.4107 127.352 102.559 128.441 106.514Z" fill="white" fill-opacity="0.42"/>
<path d="M131.614 44.4834C132.085 38.6785 128.133 25.5411 126.345 26.9669C124.915 28.1075 129.262 39.1198 131.614 44.4834Z" fill="white" fill-opacity="0.42"/>
<path d="M154.919 158.631C158.508 155.793 164.4 147.915 162.774 148.127C161.473 148.297 156.995 155.2 154.919 158.631Z" fill="white" fill-opacity="0.42"/>
<path d="M84.4111 197.71C86.6294 205.843 90.1785 220.927 92.5447 219.153C94.9108 217.378 88.8476 208.062 84.4111 197.71Z" fill="white" fill-opacity="0.32"/>
<path d="M97.5684 171.831C92.6039 178.645 83.0443 190.841 85.9083 191.579C88.7722 192.318 92.258 181.763 97.5684 171.831Z" fill="white" fill-opacity="0.32"/>
<path d="M104.376 91.9746C102.897 94.9323 107.334 104.545 107.334 101.587C107.334 99.2208 105.362 94.1928 104.376 91.9746Z" fill="white" fill-opacity="0.44"/>
<path d="M172.835 112.218C176.142 112.256 182.851 104.067 180.19 105.359C178.062 106.392 174.4 110.362 172.835 112.218Z" fill="white" fill-opacity="0.44"/>
<path d="M132.538 197.55C134.2 199.194 120.674 215.771 115.428 221.227C115.421 219.905 123.125 209.946 126.959 205.516C128.265 202.313 131.208 196.234 132.538 197.55Z" fill="white" fill-opacity="0.34"/>
<path d="M145.135 146.754C150.992 137.173 153.523 124.345 152.499 117.957C153.193 118.311 154.959 116.265 155.515 122.154C155.802 125.19 150.326 141.559 147.837 148.66C147.347 149.334 137 160.062 145.135 146.754Z" fill="white" fill-opacity="0.39"/>
<defs>
<filter id="filter0_d_934_1974" x="50.5466" y="168.134" width="41.0426" height="74.9899" filterUnits="userSpaceOnUse" color-interpolation-filters="sRGB">
<feFlood flood-opacity="0" result="BackgroundImageFix"/>
<feColorMatrix in="SourceAlpha" type="matrix" values="0 0 0 0 0 0 0 0 0 0 0 0 0 0 0 0 0 0 127 0" result="hardAlpha"/>
<feOffset dy="7.17902"/>
<feGaussianBlur stdDeviation="3.58951"/>
<feComposite in2="hardAlpha" operator="out"/>
<feColorMatrix type="matrix" values="0 0 0 0 0 0 0 0 0 0 0 0 0 0 0 0 0 0 0.25 0"/>
<feBlend mode="normal" in2="BackgroundImageFix" result="effect1_dropShadow_934_1974"/>
<feBlend mode="normal" in="SourceGraphic" in2="effect1_dropShadow_934_1974" result="shape"/>
</filter>
<filter id="filter1_f_934_1974" x="24.2496" y="0.0191193" width="190.566" height="194.264" filterUnits="userSpaceOnUse" color-interpolation-filters="sRGB">
<feFlood flood-opacity="0" result="BackgroundImageFix"/>
<feBlend mode="normal" in="SourceGraphic" in2="BackgroundImageFix" result="shape"/>
<feGaussianBlur stdDeviation="44.8689" result="effect1_foregroundBlur_934_1974"/>
</filter>
<filter id="filter2_d_934_1974" x="151.173" y="103.805" width="38.8991" height="37.3219" filterUnits="userSpaceOnUse" color-interpolation-filters="sRGB">
<feFlood flood-opacity="0" result="BackgroundImageFix"/>
<feColorMatrix in="SourceAlpha" type="matrix" values="0 0 0 0 0 0 0 0 0 0 0 0 0 0 0 0 0 0 127 0" result="hardAlpha"/>
<feOffset dy="7.17902"/>
<feGaussianBlur stdDeviation="3.58951"/>
<feComposite in2="hardAlpha" operator="out"/>
<feColorMatrix type="matrix" values="0 0 0 0 0 0 0 0 0 0 0 0 0 0 0 0 0 0 0.25 0"/>
<feBlend mode="normal" in2="BackgroundImageFix" result="effect1_dropShadow_934_1974"/>
<feBlend mode="normal" in="SourceGraphic" in2="effect1_dropShadow_934_1974" result="shape"/>
</filter>
<linearGradient id="paint0_linear_934_1974" x1="65.186" y1="335.98" x2="195.322" y2="52.7859" gradientUnits="userSpaceOnUse">
<stop stop-color="#D74E61"/>
<stop offset="0.545" stop-color="#E58B49"/>
<stop offset="0.955" stop-color="#F9BF2A"/>
</linearGradient>
<linearGradient id="paint1_linear_934_1974" x1="113.682" y1="89.7568" x2="113.682" y2="219.357" gradientUnits="userSpaceOnUse">
<stop stop-color="#B9633B"/>
<stop offset="1" stop-color="#AA4A3A"/>
</linearGradient>
</defs>
</svg>
