<svg width="1361" height="339" viewBox="0 0 1361 339" fill="none" xmlns="http://www.w3.org/2000/svg">
<path d="M116.958 250.35C98.545 256.704 71.3265 -0.00195312 0 -0.00195312V338.5H1361C1361 -197 1327.37 346.775 1273.04 312.474C1260.82 304.754 1248.13 210.976 1217.56 210.011C1186.99 209.047 1211.84 151.149 1171.08 147.29C1130.32 143.43 1019.33 201.327 1009.14 210.011C998.948 218.696 896.758 280.258 886.83 250.35C863.19 179.133 737.235 270.804 620.277 270.804C575.786 270.804 522.006 292.609 481.827 300.807C396.245 318.269 345.293 250.35 334.562 250.35H334.561C325.74 250.35 304.389 250.35 209.925 270.804C182.338 272.06 151.063 238.58 116.958 250.35Z" fill="#3D8AA3"/>
</svg>
