<svg width="111" height="85" viewBox="0 0 111 85" fill="none" xmlns="http://www.w3.org/2000/svg">
<path d="M23.4496 28.8848C32.8263 15.2899 47.3391 14.5882 53.4234 15.9367C67.2976 18.9136 96.5507 26.5856 102.569 33.4582C108.588 40.3308 97.1621 52.5386 90.6966 57.7834L37.5449 74.2853C30.4932 72.4277 15.4656 67.2999 11.7686 61.6489C7.14745 54.5852 11.7287 45.8785 23.4496 28.8848Z" fill="#ECDDCE"/>
<path d="M24.629 26.3328C29.1343 21.2918 34.3271 18.4656 37.6491 17.4342C34.7602 21.1639 29.0359 29.578 29.2502 33.3965C29.518 38.1696 30.0537 47.7158 39.7918 55.619C47.5822 61.9416 77.4808 59.7006 91.4564 57.7898L38.3046 74.2916C37.5664 74.5208 34.1424 73.3986 27.7271 71.5053C21.3118 69.6121 16.3473 66.1352 14.667 64.6335C13.585 63.7553 10.0386 61.457 8.93852 57.9136C7.8384 54.3701 9.9939 48.2781 11.3811 46.2287C14.2953 41.277 21.1324 30.2451 24.629 26.3328Z" fill="#BFB4A9"/>
<path d="M58.3372 59.6018C41.5954 46.3458 71.5972 33.2272 88.6908 28.3248C97.3975 32.906 109.77 37.5632 105.952 44.8188C101.633 53.0276 79.2645 76.1717 58.3372 59.6018Z" fill="#F7E7D8"/>
<path d="M53.3709 51.431C53.4924 45.5658 61.0062 36.9198 87.5819 28.6689C66.467 38.8666 65.6051 48.6039 65.8194 52.4224C66.0336 56.2409 76.2701 61.3184 80.5981 64.8309C64.752 68.5366 53.2493 57.2962 53.3709 51.431Z" fill="#CBBFB4"/>
</svg>
