<svg width="121" height="178" viewBox="0 0 121 178" fill="none" xmlns="http://www.w3.org/2000/svg">
<path d="M51.6981 167.85C51.6981 165.565 30.9508 163.165 28.6084 168.993C29.445 172.65 52.8693 174.936 51.6981 167.85Z" fill="#666666"/>
<path d="M92.9663 171.52C92.9663 169.229 78.7663 166.824 77.1631 172.665C77.7357 176.329 93.7679 178.62 92.9663 171.52Z" fill="#666666"/>
<path d="M25.4316 154.901C38.7155 160.128 41.7692 162.955 41.9219 164.864L46.2735 166.925L43.5252 161.772C43.2503 156.275 39.2117 154.901 37.2268 154.901C36.1274 151.786 32.9515 149.633 31.501 148.946C25.821 146.015 25.0881 143.984 25.4316 143.335C27.0807 136.281 24.9148 135.278 23.3704 133.945C14.6672 126.432 14.7053 119.668 15.8123 117.225C17.6446 108.522 16.5758 102.147 15.8123 100.048C13.4304 96.4751 9.39942 81.3055 7.68168 74.1673C3.00943 67.4796 -1.15445 74.6988 1.03976 79.4351C8.552 95.6505 7.60534 106.652 6.19297 110.125C3.44459 117.18 2.6048 123.905 2.52846 126.387C0.421364 137.472 16.9193 150.015 25.4316 154.901Z" fill="url(#paint0_linear_934_2084)"/>
<path d="M50.4803 171.659H55.0609C61.2906 172.576 60.0996 169.293 58.7254 167.537C53.9616 161.49 58.0383 157.307 60.6722 155.971C65.1612 152.031 62.5426 145.702 60.6722 143.03C54.9922 137.717 58.3055 131.044 60.6722 128.372C65.1612 119.211 61.2448 112.951 58.7254 110.966C52.7706 104.37 54.7937 98.2165 56.5496 95.9643C59.6645 88.7269 57.8475 84.1692 56.5496 82.795C52.6103 78.6724 53.6104 72.9085 54.6029 70.5418C56.1603 64.8618 56.5496 57.0289 56.5496 53.8225C58.107 47.318 51.6254 33.0188 48.19 26.6822C46.1745 17.0629 51.6254 10.6118 54.6029 8.58869C58.5422 3.73322 54.9464 0.839783 52.6561 0C44.7774 1.83225 37.311 12.1387 34.5626 17.0629C29.3406 26.7738 33.8373 41.722 36.7384 47.9822C41.2274 56.2273 40.5937 68.595 39.7158 73.7483C34.219 83.734 36.7384 98.7509 38.6851 105.011C45.9226 121.043 44.9835 127.265 43.6093 128.372C39.1203 138.175 40.0593 146.657 41.09 149.672C42.0061 151.963 44.5255 158.719 43.6093 160.895C42.8764 162.636 47.8846 168.796 50.4803 171.659Z" fill="url(#paint1_linear_934_2084)"/>
<path d="M98.5654 167.384C90.8699 167.109 87.3428 170.018 86.5412 171.506C83.9761 172.423 74.4789 171.125 70.0509 170.361C62.6303 170.27 62.6837 166.735 63.638 164.979C71.3335 161.223 73.1047 154.024 73.0283 150.894C67.9896 146.038 66.3482 141.16 66.1574 139.327C66.1574 136.121 70.6617 128.334 70.0509 125.929L65.1267 115.737C59.63 101.629 67.4171 92.4522 71.9977 89.6275C78.8687 86.3295 79.7466 80.4662 79.3267 77.9469C67.2338 58.7082 71.0052 44.1265 74.4025 39.2405C79.6245 31.6366 83.5256 36.0722 84.8235 39.2405C84.5487 43.2714 85.8541 49.4706 86.5412 52.0663C89.198 55.6392 88.717 60.655 88.1445 62.7162C86.4038 66.3808 87.4192 69.7399 88.1445 70.9614C92.0838 77.2827 93.0686 84.4361 93.0686 87.2227C95.7254 93.6356 89.824 100.736 86.5412 103.484C82.2354 110.355 84.7471 118.409 86.5412 121.577C89.198 125.15 88.717 136.808 88.1445 142.19C88.1445 145.305 81.3498 153.337 77.9525 156.963C76.0287 162.826 80.6627 164.75 83.2203 164.979C95.588 163.055 98.6036 153.947 98.5654 149.634C97.008 143.038 100.894 140.015 103.032 139.327C106.604 136.579 105.36 129.25 104.291 125.929C98.0615 117.592 99.1761 111.996 100.512 110.24C103.81 106.667 104.406 104.247 104.291 103.484C100.902 95.8801 102.879 90.2383 104.291 88.3678C106.398 82.2298 107.994 79.7028 108.528 79.2065C114.117 78.5652 114.827 90.1619 114.483 96.0404C111.368 105.018 114.254 111.08 116.086 112.989C120.85 118.027 120.438 125.166 119.636 128.105C118.262 130.762 116.697 139.671 116.086 143.794C117.369 147.916 115.552 151.924 114.483 153.413C108.345 155.428 106.276 159.368 106.009 161.085C106.009 166.949 101.047 167.727 98.5654 167.384Z" fill="url(#paint2_linear_934_2084)"/>
<path d="M7.70098 112.455C14.8468 98.6211 5.89592 81.5353 0.780872 74.5498C-1.69267 80.1382 2.31873 85.9251 4.38002 88.2917C6.85356 98.3691 6.40313 105.164 5.86873 107.301C-0.819004 122.876 1.81152 133.106 4.10183 135.014C1.44506 130.617 5.48701 117.302 7.70098 112.455Z" fill="#4D6732"/>
<path d="M8.91185 108.904C8.87234 109.2 8.83188 109.51 8.79112 109.833C8.22345 116.122 11.2215 130.447 13.5054 137.19C6.74332 131.833 7.84749 117.314 8.79112 109.833C8.82117 109.5 8.8612 109.19 8.91185 108.904Z" fill="#4D6732"/>
<path d="M28.8818 154.596C25.767 151.024 14.9422 145.512 9.82715 142.572C11.8884 145.893 19.5297 152.039 24.9882 155.742C28.0115 156.658 40.8991 164.827 46.1287 167.079C45.579 162.04 41.6626 155.513 39.9448 155.742L41.4785 160.208C40.4708 158.375 32.6608 155.703 28.8818 154.596Z" fill="#4D6732"/>
<path d="M53.0093 66.9925C54.7499 65.5267 55.605 59.4726 56.2157 56.457C57.0173 59.0909 56.2157 65.5801 55.4141 68.7102C52.849 75.2147 54.8797 80.5054 56.2157 82.3376C59.5138 87.1931 58.1243 92.4532 57.0173 94.4763C58.6664 90.1705 54.4216 85.5823 52.0932 83.8263C48.1538 78.6044 51.0625 70.428 53.0093 66.9925Z" fill="#4D6732"/>
<path d="M39.3023 107.645C36.0042 102.423 36.1278 90.2388 36.624 83.9404C36.624 89.4372 39.7222 98.713 41.2491 103.523C43.9725 110.331 44.9022 118.666 44.632 123.726C44.6444 124.223 44.6116 124.67 44.5256 125.052C44.5712 124.641 44.6068 124.197 44.632 123.726C44.5256 119.448 41.0803 111.372 39.3023 107.645Z" fill="#4D6732"/>
<path d="M37.9442 22.7883C39.2268 13.9935 44.8915 8.66466 47.5635 7.09961C42.25 13.2377 39.4711 22.941 38.7458 27.0254C38.5626 30.4151 40.5781 36.0721 41.6087 38.477C45.7313 46.4473 45.235 55.5399 44.4716 59.0898C45.3877 53.4099 42.1049 44.8135 40.349 41.2254C36.9594 32.6138 37.3334 25.3458 37.9442 22.7883Z" fill="#A3CF76"/>
<path d="M43.454 92.9865C41.1637 87.8561 41.889 82.1456 42.5379 79.9316C42.5379 84.7871 44.2175 89.4365 45.0573 91.1542C46.836 94.7116 46.1292 98.6495 45.3614 100.733C45.2907 100.997 45.1908 101.241 45.0573 101.461C45.1559 101.254 45.2592 101.01 45.3614 100.733C45.9696 98.4599 44.4116 94.7305 43.454 92.9865Z" fill="#A3CF76"/>
<path d="M45.4269 153.108C40.4798 144.862 42.0444 132.991 43.6094 128.372C39.3952 132.861 39.4868 144.977 41.0753 149.443C42.3578 152.191 43.5183 158.452 43.9382 161.238C44.9459 168.934 50.1368 173.262 55.1607 172.232C59.5271 172.232 60.6723 170.399 59.5271 169.712C58.663 169.194 56.1532 168.911 55.1607 168.911C49.7556 167.628 46.4193 157.841 45.4269 153.108Z" fill="#4D6732"/>
<path d="M89.531 94.7044C92.9207 90.6734 90.9434 79.3593 89.531 74.2061C94.9362 82.268 95.0736 92.1392 93.4246 94.7044C91.7756 97.2696 87.6988 103.331 85.8665 106.041C82.9349 112.912 86.2401 118.524 87.3552 121.043C89.8288 126.631 89.8364 136.121 89.531 140.167C88.3401 145.939 82.2402 153.184 79.2246 155.627C81.1714 152.306 82.5456 149.099 84.2633 145.435C87.5614 141.404 85.6375 132.686 84.2633 128.83C82.6714 124.364 80.3698 115.89 80.3698 111.653C80.3698 106.843 86.3246 98.7506 89.531 94.7044Z" fill="#4D6732"/>
<path d="M67.3295 132.61C70.2611 129.587 69.4135 125.281 68.9173 123.334C71.9405 127.365 71.8338 131.083 71.1085 132.61C66.8027 136.824 67.2377 142.496 67.7721 143.603C64.8405 140.855 66.108 134.328 67.3295 132.61Z" fill="#4D6732"/>
<path d="M70.2415 101.461C68.4856 105.431 67.4015 115.226 71.6157 121.73C71.6157 118.028 70.2415 108.607 70.2415 101.461Z" fill="#A3CF76"/>
<path d="M77.2505 43.2871C75.4564 46.4172 72.9447 53.96 77.2505 59.0903C76.6016 56.9145 75.6931 50.7077 77.2505 43.2871Z" fill="#A3CF76"/>
<path d="M81.2852 68.9385C83.2319 72.7175 85.9574 81.6497 81.2852 87.1465C82.0104 83.711 83.0258 75.2598 81.2852 68.9385Z" fill="#A3CF76"/>
<path d="M49.1943 145.664C50.9288 139.252 50.7211 130.587 49.1943 126.426C54.2593 134.556 53.6104 141.809 52.5416 145.664C47.961 156.566 49.8432 164.483 50.5684 167.079C45.9878 164.056 47.2739 152.764 49.1943 145.664Z" fill="#4D6732"/>
<path d="M74.5887 158.032C78.3449 155.1 76.7434 147.496 76.0182 143.603C78.0794 147.153 77.7359 146.58 78.423 149.901C78.7894 155.123 75.8273 159.024 73.9569 160.436C70.4621 162.498 68.5576 165.399 68.0613 166.506C68.0613 168.063 71.6495 169.292 73.4436 169.712C74.6345 168.512 78.5204 168.754 80.3145 169.025C81.5971 167.651 89.0177 166.391 92.5677 165.933C103.103 163.414 107.281 158.948 106.594 159.749C106.044 160.391 105.89 162.727 105.737 163.757C105.279 166.964 100.889 168.223 98.7516 168.452C93.7129 167.628 90.3156 169.636 89.2468 170.743C84.7577 173.308 77.6043 172.27 74.5887 171.43C73.0313 171.338 69.0538 170.934 67.2597 170.743C61.3965 168.544 63.0779 164.903 64.6811 163.757C68.8037 162.75 73.0237 159.787 74.5887 158.032Z" fill="#4D6732"/>
<path d="M100.94 109.019C104.238 107.003 103.502 101.881 103.043 99.7432C105.242 103.041 105.674 108.103 105.292 110.05C103.185 114.447 100.673 115.928 99.6805 116.119C97.8483 112.18 99.7569 109.744 100.94 109.019Z" fill="#4D6732"/>
<path d="M109.914 155.627C110.945 152.84 113.395 146.878 116.327 144.862C117.358 147.191 116.098 155.627 109.914 155.627Z" fill="#4D6732"/>
<path d="M107.62 85.4287C107.606 85.599 107.586 85.7787 107.561 85.9672C106.467 96.2306 107.533 106.413 109.109 110.164C113.741 122.349 111.65 131.35 109.109 134.442C113.323 128.029 109.873 116.348 107.62 111.309C102.857 101.695 106.911 90.8489 107.561 85.9672C107.58 85.7877 107.6 85.6082 107.62 85.4287Z" fill="#A3CF76"/>
<path d="M105.189 143.603C103.967 145.473 101.662 149.741 102.211 151.848C103.204 150.397 105.189 146.717 105.189 143.603Z" fill="#A3CF76"/>
<path d="M63.4204 172.665C63.4204 170.375 49.2204 167.97 47.6172 173.81C48.1898 177.475 64.222 179.765 63.4204 172.665Z" fill="#666666"/>
<path d="M78.9946 167.856C78.9946 165.565 64.7946 163.16 63.1914 169.001C63.764 172.665 79.7962 174.956 78.9946 167.856Z" fill="#666666"/>
<defs>
<linearGradient id="paint0_linear_934_2084" x1="23.3555" y1="71.458" x2="23.3555" y2="166.925" gradientUnits="userSpaceOnUse">
<stop stop-color="#739F46"/>
<stop offset="1" stop-color="#68834D"/>
</linearGradient>
<linearGradient id="paint1_linear_934_2084" x1="47.656" y1="0" x2="47.656" y2="171.818" gradientUnits="userSpaceOnUse">
<stop stop-color="#739F46"/>
<stop offset="1" stop-color="#68834D"/>
</linearGradient>
<linearGradient id="paint2_linear_934_2084" x1="91.6612" y1="35.042" x2="91.6612" y2="171.821" gradientUnits="userSpaceOnUse">
<stop stop-color="#739F46"/>
<stop offset="1" stop-color="#68834D"/>
</linearGradient>
</defs>
</svg>
