<svg width="89" height="88" viewBox="0 0 89 88" fill="none" xmlns="http://www.w3.org/2000/svg">
<path d="M16.6831 57.302C15.6451 55.8835 17.8356 51.4471 19.0605 49.4062L47.8455 68.5484C46.9242 69.0892 45.9258 71.3324 45.5418 72.3864C44.9859 73.6438 41.5931 76.0657 39.9662 77.1195C38.8841 77.2656 36.7738 75.5349 35.854 74.6513C35.4009 73.0866 32.8509 70.8184 31.6325 69.8799C31.7972 68.9843 26.3508 65.8396 26.1862 66.1137C26.0546 66.333 19.1008 63.5597 15.6404 62.1456C13.5934 60.9169 15.4826 58.4046 16.6831 57.302Z" fill="#C9BCAB"/>
<path d="M18.3116 47.3404C18.9398 51.0985 24.6758 63.5908 27.4653 69.3672C28.6934 70.8004 33.8626 70.0994 36.2936 69.5697C36.8493 69.3066 44.7504 69.0106 48.6315 68.8955C49.8453 68.5302 57.2284 68.7934 60.7682 68.9707C63.9853 68.4156 67.6049 65.2431 69.0126 63.7262C72.6099 62.7032 73.912 58.4629 74.1134 56.4706C76.3656 54.5408 76.5639 49.2816 76.3815 46.8932C77.3176 45.6651 76.3946 41.7631 75.8161 39.9657C76.6796 35.2135 73.6667 32.0874 72.0522 31.1184C71.205 26.2343 67.3744 23.1727 65.565 22.2524C65.2876 19.401 62.6106 18.6145 61.3068 18.5778C59.2602 14.8633 55.5071 15.0552 53.8863 15.6154C50.8307 12.5881 47.2031 12.5984 45.7712 12.982C39.0744 11.0507 37.144 12.6516 37.0159 13.6934C32.8925 12.6106 29.2413 15.325 27.9311 16.8175C23.3688 16.9629 21.3382 20.277 20.8931 21.9159C18.4657 22.1494 17.176 24.8641 16.8346 26.1923C16.0157 26.3969 15.567 28.3733 15.445 29.3359C13.8802 30.2861 13.9761 32.4734 14.2196 33.4483C12.3329 36.0947 16.1615 43.8124 18.3116 47.3404Z" fill="url(#paint0_linear_934_2178)"/>
<path d="M20.9544 21.8828C20.9987 19.3239 25.0862 16.656 27.9376 16.8758C26.1973 18.1184 25.2831 26.9256 25.4225 30.9042C24.8189 33.7738 26.0422 41.4691 26.3528 42.4013C26.6633 43.3336 26.4792 51.3028 26.7167 51.9426C26.9542 52.5824 28.0865 58.3585 27.5743 60.6615C27.0622 62.9644 28.1846 69.4805 27.6545 69.5352C27.3312 69.5686 25.7828 62.1965 25.8927 60.7709C25.9807 59.6303 25.4063 54.678 25.1082 52.3445L23.0638 36.0765C23.2251 32.9912 21.4352 25.3619 20.9544 21.8828Z" fill="#E7E7E7"/>
<path d="M37.1141 13.8064C36.7489 11.5983 42.4882 11.687 45.778 13.0401C44.067 13.9025 42.4463 23.0564 41.7388 27.2725C39.4351 31.1105 37.7712 34.711 37.2592 36.3925C37.1481 36.7573 35.6739 42.8993 34.7534 45.9516C33.7377 49.3197 33.1439 52.3609 33.6737 53.7562C33.3517 55.4524 30.8088 61.7738 29.5776 64.7224C28.8279 66.3856 27.9619 70.0176 27.6549 69.535C27.2711 68.9317 27.7132 64.7221 27.8229 64.5394C27.9326 64.3566 31.169 57.1007 30.6761 53.5729C30.2818 50.7507 30.927 47.0111 31.2989 45.4941C32.2789 44.1928 33.1339 39.2615 33.4389 36.9585C33.1325 32.9957 33.7752 29.7021 34.1349 28.5507C36.2411 25.5388 36.7601 17.5716 37.1141 13.8064Z" fill="#E7E7E7"/>
<path d="M53.8012 15.6189C58.2979 14.3402 60.8868 17.3444 61.3131 18.6361C58.3446 18.9427 54.0734 27.5912 51.7877 33.056C49.0453 37.0036 45.6999 40.0921 42.2853 48.8873C39.6112 52.0998 37.6554 57.4837 35.7167 59.8309C32.9878 63.1348 29.72 68.1647 27.7458 69.5901L30.8906 63.5222C32.8104 60.3239 37.1934 53.2287 37.8571 48.8095C39.0587 47.6359 40.7693 42.508 41.7202 40.0954C43.0511 38.2093 47.053 29.83 48.8876 25.8762C51.871 23.3908 53.5084 18.1778 53.8012 15.6189Z" fill="#E7E7E7"/>
<path d="M72.0219 31.0302C71.5694 26.4825 67.3988 23.2003 65.4798 22.2556L63.4904 25.57C62.6711 27.7632 59.7486 30.4923 58.3898 31.5827C57.1282 33.6845 57.6036 32.4782 56.2324 34.7627C54.1849 36.5171 52.4785 39.222 52.0458 40.081L45.5737 49.6211C43.5115 52.0627 41.8258 54.6226 41.2408 55.5973C40.8747 58.3609 37.5049 61.8905 35.8657 63.3098C34.6371 64.8596 30.5363 68.323 28.6229 69.992L28.9519 70.0652L29.2809 70.1384L29.9938 70.1933L37.5106 64.2971C40.1575 62.7037 41.9286 59.4907 42.4833 58.0834C43.083 56.7528 46.56 53.7765 48.2236 52.4547C49.3058 51.8115 52.8061 47.7884 54.421 45.8573C55.6641 44.6146 57.9371 42.4155 58.9182 41.4713C60.2783 40.1993 62.5561 38.3097 63.5249 37.524C64.2124 36.5444 69.5906 32.8028 72.0219 31.0302Z" fill="#E7E7E7"/>
<path d="M76.2964 46.8967C77.3018 46.2571 76.6201 41.8702 75.8223 40.024L72.422 43.2039C69.1764 44.5374 65.3176 47.2679 63.7938 48.4665C60.7083 49.2995 56.2564 52.6022 54.4162 54.1495C53.1877 55.2021 49.4438 58.2917 47.7254 59.7049C45.181 59.9677 42.1563 62.0802 40.9619 63.1035C35.9458 66.656 32.1265 68.7805 31.0905 70.2304L33.3022 70.0662C33.4049 67.7413 39.6817 67.3073 42.4239 64.6026C44.5261 63.3783 46.7561 62.9766 47.268 62.538C49.9368 61.4052 50.8326 60.3269 51.3992 60.4184C53.315 58.8833 55.8292 57.3179 56.8467 56.7271C58.1629 56.0254 65.0726 52.756 68.3629 51.209C74.0955 48.2855 76.0954 46.4032 76.2964 46.8967Z" fill="#E7E7E7"/>
<path d="M68.9828 63.638C72.8213 62.8344 73.7909 58.3198 74.175 56.4372C72.9322 55.6913 68.2467 57.0638 66.2786 57.7885C63.5149 57.9196 61.1544 58.9392 60.3196 59.4325C57.5265 60.9382 51.8684 62.8126 49.3886 63.5616C45.0894 64.2627 36.0812 68.3361 33.3027 70.0659C34.2898 69.664 45.5253 66.5464 49.9914 65.6637C53.9029 65.774 54.5064 64.1473 57.4126 64.2758C59.7962 63.6182 66.4482 63.4426 68.9828 63.638Z" fill="#E7E7E7"/>
<path d="M14.281 33.4154C13.3126 31.0939 16.1283 26.1958 16.6949 26.2873C17.2616 25.7573 18.8598 30.2413 19.4505 32.5018L21.9338 47.4172C22.2294 48.7521 22.5944 52.0788 23.3034 55.076C23.9828 57.0142 27.716 66.8789 27.5267 69.3343L20.4906 49.8216C20.4763 48.023 18.9708 43.067 17.7892 40.6176C16.6076 38.1681 15.0851 34.561 14.281 33.4154Z" fill="#E7E7E7"/>
<defs>
<linearGradient id="paint0_linear_934_2178" x1="60.4688" y1="17.0102" x2="28.5878" y2="70.1249" gradientUnits="userSpaceOnUse">
<stop offset="0.35" stop-color="#DFDBD2"/>
<stop offset="1" stop-color="#C9BCAB"/>
</linearGradient>
</defs>
</svg>
