<svg width="130" height="119" viewBox="0 0 130 119" fill="none" xmlns="http://www.w3.org/2000/svg">
<path d="M66.8291 95.8859L79.326 35.0033C80.9282 32.6535 81.8895 28.1041 88.2982 29.2353C94.7069 30.3664 93.532 35.6442 92.7843 38.5281L69.3926 95.8859H66.8291Z" fill="white"/>
<path d="M66.8291 95.8859L79.326 35.0033C80.9282 32.6535 81.8895 28.1041 88.2982 29.2353C94.7069 30.3664 93.532 35.6442 92.7843 38.5281L69.3926 95.8859H66.8291Z" fill="#FFC848"/>
<path d="M3.70297 58.3944L36.3873 100.051H41.5142L27.7356 54.8696L25.4925 51.3449C21.9677 43.4408 12.9315 29.299 4.98471 35.964C-2.96206 42.6291 0.819061 53.6947 3.70297 58.3944Z" fill="#FFC848"/>
<path d="M18.4434 43.3349C19.7251 40.5151 22.3954 45.5779 23.5703 48.4618L26.1338 52.6275H28.0564L38.9512 92.6817C31.5812 77.4077 17.1616 46.1547 18.4434 43.3349Z" fill="#FFC848"/>
<path d="M50.8075 102.295L40.874 28.2743V23.7882C40.874 20.2634 42.6044 13.2139 49.5257 13.2139C56.4471 13.2139 57.9639 20.2634 57.857 23.7882L55.9344 102.295H50.8075Z" fill="#FFC848"/>
<path d="M40.5538 27.3129C39.5285 23.4676 40.9811 19.9429 41.8356 18.6611L43.1173 20.9042L45.3604 22.1859C42.4764 27.9537 48.3511 66.299 50.8077 79.5437L45.3604 68.9693L43.7582 51.6659C43.1173 45.1504 41.5792 31.1581 40.5538 27.3129Z" fill="#FFC848"/>
<path d="M78.1003 38.066C78.5401 34.1108 81.1728 31.3534 82.4341 30.4691L82.4341 33.4008L84.4396 35.0326C79.6593 39.3608 77.6778 74.9617 75.1609 88.195L67.4634 78.6273L72.2493 61.9218C74.0164 55.6179 77.6605 42.0212 78.1003 38.066Z" fill="#FFC848"/>
<path d="M54.332 103.256L62.6633 10.6504C64.4791 7.5529 63.6246 -0.885485 74.5194 0.0758369C85.3438 1.03095 84.7811 8.52336 84.4591 12.8103L84.4529 12.8935C78.8987 41.1985 68.7516 96.8472 66.829 96.8472C65.7414 96.8472 57.75 101.119 54.332 103.256Z" fill="#FFC848"/>
<path d="M56.8956 86.9134C55.8702 75.1214 59.4591 11.9318 64.9065 3.9209C65.2269 6.48437 66.8291 7.76611 68.4313 8.40698C66.8291 12.5726 63.5505 32.3947 62.6634 48.1408C61.3817 70.8917 64.9065 78.2617 68.4313 95.8855L59.4591 99.7307C59.0318 100.372 57.921 98.7054 56.8956 86.9134Z" fill="#FFDF94"/>
<path d="M3.70339 41.0913C5.23327 37.7256 8.61672 37.2461 9.79164 37.2461C11.8211 37.2461 15.7517 38.0151 15.239 41.0913C14.5982 44.9365 8.83033 44.6161 7.54859 45.257C6.26686 45.8978 2.10121 44.6161 3.70339 41.0913Z" fill="#A2883B"/>
<path d="M49.2058 14.8154C46.8987 14.8154 45.2538 17.1653 44.7197 18.3402C44.7197 18.7675 45.6169 19.686 49.2058 19.9424C52.7947 20.1987 54.3328 18.9811 54.6532 18.3402C53.7987 17.1653 51.5129 14.8154 49.2058 14.8154Z" fill="#A2883B"/>
<path d="M87.9773 30.8378C86.1829 30.0687 84.6662 31.1582 84.1321 31.7991C83.5981 32.0127 83.3631 32.8244 86.6956 34.3625C90.0281 35.9006 91.2885 34.3625 91.5021 33.4012C91.0749 32.8672 89.7718 31.6068 87.9773 30.8378Z" fill="#A2883B"/>
<path d="M2.74236 57.1133C-0.33381 51.9863 -0.461949 43.9755 0.81977 41.7324C0.81977 45.5776 1.97335 50.1919 6.5876 58.395C11.2019 66.5981 31.1542 88.7295 40.874 100.692H36.7084C26.6681 88.3022 5.81853 62.2402 2.74236 57.1133Z" fill="#FFC848"/>
<path d="M41.1941 100.052L16.2002 21.5452C17.2683 19.4089 20.5581 14.9442 25.1724 14.1752C29.7866 13.4061 34.3581 16.2046 36.0671 17.7L56.5749 101.974L52.4093 103.576C47.5387 104.089 42.9031 101.44 41.1941 100.052Z" fill="#FFC848"/>
<path d="M20.3662 19.9427C20.3662 17.892 25.2795 16.7384 27.7362 16.418C28.6975 16.418 31.1328 16.8025 33.1836 18.3406C35.2344 19.8787 30.4065 21.5449 27.7362 22.1858C25.2795 22.2926 20.3662 21.9935 20.3662 19.9427Z" fill="#A2883B"/>
<path d="M40.8736 99.4106L16.2002 21.2246C16.4361 21.9723 17.3553 22.9982 18.7637 23.4676C20.6863 24.1085 21.7321 24.429 22.2884 24.429C21.6476 24.429 30.2344 55.3489 34.7854 66.7263C39.2715 77.9415 45.3597 86.4864 53.691 103.256C46.2569 104.794 42.0486 101.333 40.8736 99.4106Z" fill="#FFDF94"/>
<path d="M68.901 3.19864C72.2335 1.40421 74.8825 1.81009 76.271 2.55777C77.98 2.98501 80.9493 4.60855 81.7184 6.40299C82.4874 8.19742 78.6209 8.00519 76.271 7.68476C72.1054 6.83027 65.5685 4.99307 68.901 3.19864Z" fill="#A2883B"/>
<path d="M24.0864 66.9713C22.8046 64.9205 18.639 53.0858 16.7164 47.4248C15.7551 47.7452 13.7684 48.7706 13.5121 50.3087C13.1916 52.2313 31.1359 85.5565 32.4177 86.5178C33.6994 87.4791 34.3403 86.5178 34.3403 85.5565C34.3403 84.5952 25.6886 69.5348 24.0864 66.9713Z" fill="#FFC848"/>
<path d="M38.1856 42.9385C37.314 40.6826 35.1902 28.9583 34.3707 23.0361C33.3662 23.1694 31.2217 23.8013 30.6796 25.2634C30.0021 27.0909 44.3314 72.7749 45.4087 73.9608C46.4859 75.1468 47.2967 74.3237 47.4782 73.3797C47.6596 72.4357 39.2751 45.7583 38.1856 42.9385Z" fill="#FFC848"/>
<path d="M74.8937 32.4312C75.8083 29.55 77.0267 18.2938 77.4817 12.3326C78.4925 12.404 80.6717 12.9033 81.3024 14.3294C82.0907 16.112 71.8724 64.1185 70.8698 65.3682C69.8673 66.6179 69.8271 65.0176 69.5881 64.0865C69.3491 63.1553 73.979 35.3125 74.8937 32.4312Z" fill="#FFC848"/>
<path d="M51.6436 23.7117C51.6436 22.9427 54.207 23.3913 55.4888 23.7117C56.2578 24.7371 55.8092 43.2582 55.4888 51.5895C54.7411 51.8032 54.2711 51.5895 54.5275 50.3078C54.8479 48.7056 54.207 30.4409 53.2457 27.557C52.2844 24.6731 51.6436 24.673 51.6436 23.7117Z" fill="white"/>
<path d="M87.6471 36.2885C87.906 35.5644 90.1689 36.8496 91.268 37.5827C91.647 38.8071 84.9909 56.0967 81.8851 63.8341C81.1091 63.7836 80.7385 63.4242 81.4113 62.3035C82.2523 60.9027 87.7962 43.4879 87.8616 40.4487C87.927 37.4095 87.3236 37.1937 87.6471 36.2885Z" fill="white"/>
<path d="M73.2375 100.051C72.2762 98.7694 69.5205 96.3341 66.1879 96.8468L68.1105 86.5928C73.7502 69.1612 97.3769 35.7506 108.485 21.2243C110.621 18.8744 116.752 15.5846 124.187 21.2243C131.621 26.8639 129.42 33.828 127.391 36.6051L73.2375 100.051Z" fill="#FFC848"/>
<path d="M121.951 21.8933C118.106 18.5608 114.368 20.0775 112.979 21.2524C112.552 22.3206 112.915 25.354 117.786 28.9428C122.656 32.5317 126.01 31.0791 127.078 29.9042C126.971 28.6224 125.797 25.2258 121.951 21.8933Z" fill="#A2883B"/>
<path d="M71.5104 77.545C71.7667 73.1871 96.3974 37.918 108.681 20.8281C108.04 22.7507 109.642 25.3142 109.642 25.3142C101.097 37.5975 90.778 51.8491 85.289 59.9211C79.8417 67.932 71.5104 90.3624 73.433 99.9754C72.4076 98.4373 68.306 96.3438 67.3447 96.4506C67.3447 86.1967 70.1218 79.5744 71.5104 77.545Z" fill="#FFDF94"/>
<path d="M109.002 49.6678C111.565 46.7839 116.809 39.5199 120.217 34.6074C121.053 35.1802 123.599 34.9809 123.421 36.5301C123.2 38.4666 85.1843 82.1014 83.6873 82.6725C82.1904 83.2436 88.5495 75.9062 88.8143 74.9821C89.0791 74.058 106.438 52.5517 109.002 49.6678Z" fill="#FFC848"/>
<path d="M33.6481 115.579C25.6851 115.519 15.7152 112.536 14.9207 107.981C17.3955 102.597 25.5002 93.1274 31.4304 93.5598C38.8431 94.1002 45.2132 98.8724 50.9717 98.5443C56.7302 98.2161 59.2448 91.6537 74.7101 92.6981C87.0824 93.5336 98.8114 104.484 99.1031 109.602C95.1575 109.827 86.3337 111.935 83.5184 112.095C79.9994 112.296 75.3647 115.448 70.566 115.722C65.7673 115.995 51.4754 115.67 45.4485 114.265C39.9188 112.975 36.9755 113.892 33.6481 115.579Z" fill="#E9CD98" fill-opacity="0.8"/>
<path d="M33.6995 115.676C21.3948 114.907 14.4734 110.87 14.7939 107.986C18.3827 98.2447 25.3682 93.5664 30.8156 93.5664C28.0385 96.8776 22.8688 104.141 23.1251 107.986C23.3815 111.831 30.3884 114.608 33.6995 115.676Z" fill="#D19E4B"/>
<path d="M63.9103 108.78C63.1452 103.807 70.7958 99.599 79.5939 100.364C80.4865 100.109 80.5885 100.288 84.5668 101.512C88.5451 102.736 89.4121 110.182 89.1571 113.753L89.1266 113.761C87.7304 114.142 86.0637 114.596 81.5066 114.9C75.7686 115.283 64.6753 113.753 63.9103 108.78Z" fill="#FFC848"/>
<path d="M63.1453 106.867C65.8995 100.441 74.4936 99.8544 78.4464 100.364C75.8962 101.639 70.7959 105.108 70.7959 108.78C70.7959 112.452 77.9364 114.39 81.5066 114.9C74.2386 114.9 60.3911 113.294 63.1453 106.867Z" fill="#FFC848"/>
<path d="M87.368 112.472C83.3897 106.657 94.126 105.458 99.9914 105.586C102.287 107.881 105.729 110.559 103.817 112.472C101.653 114.635 92.3408 119.74 87.368 112.472Z" fill="#FFC848"/>
<path d="M86.6035 109.411C87.2156 107.575 90.4288 105.586 99.6094 105.586C91.959 106.734 90.7349 109.717 90.4288 110.941C90.1228 112.165 92.8514 114.767 93.8715 116.297C88.5162 115.914 85.9915 111.247 86.6035 109.411Z" fill="#FFC848"/>
<path d="M5.50665 112.472C1.52836 106.657 12.2646 105.458 18.1301 105.586C20.4252 107.881 23.868 110.559 21.9554 112.472C19.7915 114.635 10.4795 119.74 5.50665 112.472Z" fill="#FFC848"/>
<path d="M4.7422 109.411C5.35425 107.575 8.56748 105.586 17.7481 105.586C10.0976 106.734 8.87353 109.717 8.56751 110.941C8.26149 112.165 10.9901 114.767 12.0102 116.297C6.65487 115.914 4.13015 111.247 4.7422 109.411Z" fill="#FFC848"/>
</svg>
