<svg width="1280" height="165" viewBox="0 0 1280 165" fill="none" xmlns="http://www.w3.org/2000/svg">
<path d="M350.992 6.08758C448.174 -6.23597 584.7 5.34208 672.492 13.9596C679.489 14.1496 823.492 6.08774 847.492 6.08787C887.093 6.08808 1279.99 16.6709 1359.99 51.3502C1481.41 103.986 1347.71 100.066 1292.71 117.275C1271.72 123.843 1224.01 145.866 1169.99 145.319C1082.46 144.431 976.705 120.44 928.992 145.319C851.835 185.55 713.155 151.799 690.492 145.319C596.492 118.439 376.786 165.865 322.5 157.5C268.214 149.136 161.615 113.389 123.492 117.275C-14.5083 131.344 -172.47 157.697 -61.5079 62.1739C6.66313 3.488 229.514 21.492 350.992 6.08758Z" fill="url(#paint0_linear_0_1)"/>
<path d="M32.6843 59.6566C-9.78975 73.1886 100.472 89.5087 273.03 101.532C131.451 86.7524 206.645 56.0979 206.645 56.0979C206.645 56.0979 224.648 45.3415 327.145 46.5979C219.495 42.9265 75.1583 46.1246 32.6843 59.6566Z" fill="white" fill-opacity="0.21"/>
<path d="M1242.36 52.4304C1284.78 63.3669 1174.47 77.068 1001.89 87.451C1143.51 74.9111 1115.41 54.1517 1057.35 50.4837C990.32 46.2484 956.498 39.8677 854.003 41.2201C961.659 37.8756 1199.93 41.4938 1242.36 52.4304Z" fill="white" fill-opacity="0.21"/>
<defs>
<linearGradient id="paint0_linear_0_1" x1="655.492" y1="91.2007" x2="655.492" y2="134.003" gradientUnits="userSpaceOnUse">
<stop stop-color="#55B4D7"/>
<stop offset="1" stop-color="#55B4D7" stop-opacity="0.2"/>
</linearGradient>
</defs>
</svg>
