<svg width="88" height="229" viewBox="0 0 88 229" fill="none" xmlns="http://www.w3.org/2000/svg">
<ellipse cx="11.8912" cy="12.3773" rx="11.8912" ry="12.3773" transform="matrix(-0.0103576 -0.999946 -0.999961 0.00884217 53 228.781)" fill="#B5DAFC" fill-opacity="0.56"/>
<ellipse cx="1.05709" cy="2.61293" rx="1.05709" ry="2.61293" transform="matrix(-0.900729 -0.434381 -0.491857 0.870676 35.0992 210.881)" fill="white" fill-opacity="0.62"/>
<ellipse cx="19.9772" cy="20.7939" rx="19.9772" ry="20.7939" transform="matrix(-0.0103576 -0.999946 -0.999961 0.00884217 88 186.953)" fill="#B5DAFC" fill-opacity="0.56"/>
<ellipse cx="1.77592" cy="4.38972" rx="1.77592" ry="4.38972" transform="matrix(-0.900729 -0.434381 -0.491857 0.870676 57.9265 156.881)" fill="white" fill-opacity="0.62"/>
<ellipse cx="14.7451" cy="15.3479" rx="14.7451" ry="15.3479" transform="matrix(-0.0103576 -0.999946 -0.999961 0.00884217 31 140.488)" fill="#B5DAFC" fill-opacity="0.56"/>
<ellipse cx="1.3108" cy="3.24003" rx="1.3108" ry="3.24003" transform="matrix(-0.900729 -0.434381 -0.491857 0.870676 8.80286 118.293)" fill="white" fill-opacity="0.62"/>
<ellipse cx="7.61037" cy="7.92148" rx="7.61037" ry="7.92148" transform="matrix(-0.0103576 -0.999946 -0.999961 0.00884217 54 72.2207)" fill="#B5DAFC" fill-opacity="0.56"/>
<ellipse cx="0.67654" cy="1.67227" rx="0.67654" ry="1.67227" transform="matrix(-0.900729 -0.434381 -0.491857 0.870676 42.5435 60.7637)" fill="white" fill-opacity="0.62"/>
<ellipse cx="4.95466" cy="5.15722" rx="4.95466" ry="5.15722" transform="matrix(-0.0103576 -0.999946 -0.999961 0.00884217 21.4167 9.9082)" fill="#B5DAFC" fill-opacity="0.56"/>
<ellipse cx="0.440455" cy="1.08872" rx="0.440455" ry="1.08872" transform="matrix(-0.900729 -0.434381 -0.491857 0.870676 13.958 2.44922)" fill="white" fill-opacity="0.62"/>
</svg>
