<svg width="859" height="785" viewBox="0 0 859 785" fill="none" xmlns="http://www.w3.org/2000/svg">
<rect x="199.615" y="380.701" width="459.77" height="188.162" fill="url(#paint0_linear_927_361)"/>
<rect x="225.794" y="236.717" width="109.625" height="98.1714" fill="url(#paint1_linear_927_361)"/>
<rect x="196" y="307" width="139" height="74" fill="url(#paint2_linear_927_361)"/>
<path d="M60.5391 257.986L199.615 257.986L199.615 375.792L60.5391 375.792L60.5391 257.986Z" fill="#24465F"/>
<rect x="60.5391" y="236.717" width="14.7257" height="26.179" fill="#24465F"/>
<rect x="85.0819" y="236.717" width="14.7257" height="26.179" fill="#24465F"/>
<rect x="111.261" y="236.717" width="13.0895" height="26.179" fill="#24465F"/>
<rect x="135.804" y="236.717" width="13.0895" height="26.179" fill="#24465F"/>
<rect x="176" y="474" width="18" height="190" transform="rotate(180 176 474)" fill="url(#paint3_linear_927_361)"/>
<rect x="137" y="475" width="17" height="191" transform="rotate(180 137 475)" fill="url(#paint4_linear_927_361)"/>
<rect x="99" y="474" width="18" height="190" transform="rotate(180 99 474)" fill="url(#paint5_linear_927_361)"/>
<rect x="160.347" y="236.717" width="14.7257" height="26.179" fill="#24465F"/>
<rect x="184.89" y="236.717" width="14.7257" height="26.179" fill="#24465F"/>
<rect x="202" y="391" width="14.7257" height="26.179" fill="#24465F"/>
<rect x="252.722" y="391" width="13.0895" height="26.179" fill="#24465F"/>
<rect x="301.808" y="391" width="14.7257" height="26.179" fill="#24465F"/>
<rect x="549.722" y="391" width="13.0895" height="26.179" fill="#24465F"/>
<rect x="598.808" y="391" width="14.7257" height="26.179" fill="#24465F"/>
<rect x="645" y="391" width="14.7257" height="26.179" fill="#24465F"/>
<path d="M49.0857 380.701L30.2695 362.703L226.612 362.703L203.706 380.701L49.0857 380.701Z" fill="#356487"/>
<rect x="44.1771" y="375.793" width="165.255" height="238.884" fill="#356487"/>
<rect x="279.789" y="568.863" width="297.787" height="171.8" fill="#356487"/>
<rect x="126" y="589" width="18" height="190" transform="rotate(180 126 589)" fill="url(#paint6_linear_927_361)"/>
<rect x="100" y="590" width="17" height="191" transform="rotate(180 100 590)" fill="url(#paint7_linear_927_361)"/>
<rect x="177" y="588" width="18" height="190" transform="rotate(180 177 588)" fill="url(#paint8_linear_927_361)"/>
<rect x="151" y="589" width="17" height="191" transform="rotate(180 151 589)" fill="url(#paint9_linear_927_361)"/>
<rect x="201" y="590" width="17" height="191" transform="rotate(180 201 590)" fill="url(#paint10_linear_927_361)"/>
<rect x="76" y="589" width="18" height="190" transform="rotate(180 76 589)" fill="url(#paint11_linear_927_361)"/>
<rect x="170.164" y="372.52" width="6.54476" height="98.1714" fill="#568791"/>
<rect x="86.7181" y="552.502" width="202.888" height="50.7219" fill="#4D9EAA"/>
<ellipse cx="174.254" cy="524.686" rx="77.719" ry="78.5371" fill="#4D9EAA"/>
<rect x="97" y="526" width="155" height="27" fill="#315C66"/>
<rect x="86.7181" y="511.596" width="175.072" height="14.7257" fill="#408993"/>
<rect x="226" y="214" width="26" height="23" fill="#355A75"/>
<rect x="309" y="212" width="26" height="25" fill="#355A75"/>
<rect y="581.953" width="289.606" height="202.888" fill="url(#paint12_linear_927_361)"/>
<path d="M238.726 154.906L249.5 214L228.5 214L238.726 154.906Z" fill="#355A75"/>
<path d="M321.226 155L332 214.094L311 214.094L321.226 155Z" fill="#355A75"/>
<rect width="139.076" height="117.806" transform="matrix(-1 -5.5583e-09 1.0828e-10 1 798.461 257.986)" fill="#24465F"/>
<rect width="14.7257" height="26.179" transform="matrix(-1 -5.5583e-09 1.0828e-10 1 798.461 236.717)" fill="#24465F"/>
<rect x="783" y="470" width="18" height="190" transform="rotate(180 783 470)" fill="url(#paint13_linear_927_361)"/>
<rect width="109.625" height="98.1714" transform="matrix(-1 -5.5583e-09 1.0828e-10 1 633.206 236.717)" fill="url(#paint14_linear_927_361)"/>
<rect x="744" y="471" width="17" height="191" transform="rotate(180 744 471)" fill="url(#paint15_linear_927_361)"/>
<rect x="706" y="470" width="18" height="190" transform="rotate(180 706 470)" fill="url(#paint16_linear_927_361)"/>
<rect width="14.7257" height="26.179" transform="matrix(-1 -5.5583e-09 1.0828e-10 1 773.918 236.717)" fill="#24465F"/>
<rect width="13.0895" height="26.179" transform="matrix(-1 -5.5583e-09 1.0828e-10 1 747.739 236.717)" fill="#24465F"/>
<rect width="13.0895" height="26.179" transform="matrix(-1 -5.5583e-09 1.0828e-10 1 723.196 236.717)" fill="#24465F"/>
<rect width="14.7257" height="26.179" transform="matrix(-1 -5.5583e-09 1.0828e-10 1 698.653 236.717)" fill="#24465F"/>
<rect width="14.7257" height="26.179" transform="matrix(-1 -5.5583e-09 1.0828e-10 1 674.11 236.717)" fill="#24465F"/>
<rect width="139" height="74" transform="matrix(-1 -5.5583e-09 1.0828e-10 1 663 307)" fill="url(#paint17_linear_927_361)"/>
<path d="M809.914 380.701L828.73 362.703L632.388 362.703L655.294 380.701L809.914 380.701Z" fill="#356487"/>
<rect width="165.255" height="238.884" transform="matrix(-1 -5.5583e-09 1.0828e-10 1 814.823 375.793)" fill="#356487"/>
<rect x="727" y="590" width="18" height="190" transform="rotate(180 727 590)" fill="url(#paint18_linear_927_361)"/>
<rect x="701" y="591" width="17" height="191" transform="rotate(180 701 591)" fill="url(#paint19_linear_927_361)"/>
<rect x="778" y="589" width="18" height="190" transform="rotate(180 778 589)" fill="url(#paint20_linear_927_361)"/>
<rect x="752" y="590" width="17" height="191" transform="rotate(180 752 590)" fill="url(#paint21_linear_927_361)"/>
<rect x="802" y="591" width="17" height="191" transform="rotate(180 802 591)" fill="url(#paint22_linear_927_361)"/>
<rect width="6.54476" height="98.1714" transform="matrix(-1 -5.5583e-09 1.0828e-10 1 688.836 372.52)" fill="#568791"/>
<rect x="677" y="590" width="18" height="190" transform="rotate(180 677 590)" fill="url(#paint23_linear_927_361)"/>
<rect width="202.888" height="50.7219" transform="matrix(-1 -5.5583e-09 1.0828e-10 1 772.282 552.502)" fill="#4D9EAA"/>
<ellipse cx="77.719" cy="78.5371" rx="77.719" ry="78.5371" transform="matrix(-1 -5.5583e-09 1.0828e-10 1 762.465 446.148)" fill="#4D9EAA"/>
<rect width="155" height="27" transform="matrix(-1 -5.5583e-09 1.0828e-10 1 762 526)" fill="#3E6A74"/>
<rect width="175.072" height="14.7257" transform="matrix(-1 -5.5583e-09 1.0828e-10 1 772.282 511.596)" fill="#408993"/>
<rect width="26" height="25" transform="matrix(-1 -5.5583e-09 1.0828e-10 1 633 212)" fill="#355A75"/>
<rect width="13.0895" height="26.179" transform="matrix(-1 -5.5583e-09 1.0828e-10 1 856.811 556)" fill="#4D9EAA"/>
<rect width="26" height="25" transform="matrix(-1 -5.5583e-09 1.0828e-10 1 550 212)" fill="#355A75"/>
<rect width="14.7257" height="26.179" transform="matrix(-1 -5.5583e-09 1.0828e-10 1 807.726 556)" fill="#4D9EAA"/>
<rect width="289.606" height="202.888" transform="matrix(-1 -5.5583e-09 1.0828e-10 1 859 581.953)" fill="url(#paint24_linear_927_361)"/>
<rect width="14.7257" height="26.179" transform="matrix(-1 -5.5583e-09 1.0828e-10 1 832.269 556)" fill="#4D9EAA"/>
<rect width="13.0895" height="26.179" transform="matrix(-1 -5.5583e-09 1.0828e-10 1 63.8114 556)" fill="#4D9EAA"/>
<rect width="14.7257" height="26.179" transform="matrix(-1 -5.5583e-09 1.0828e-10 1 14.7257 556)" fill="#4D9EAA"/>
<rect width="14.7257" height="26.179" transform="matrix(-1 -5.5583e-09 1.0828e-10 1 39.2687 556)" fill="#4D9EAA"/>
<ellipse cx="424.5" cy="492" rx="103.5" ry="61" fill="#315C66"/>
<path d="M425 3.44615e-07L478.694 204.75L371.306 204.75L425 3.44615e-07Z" fill="#355A75"/>
<rect x="314.149" y="627.766" width="58.9029" height="112.897" fill="url(#paint25_linear_927_361)"/>
<ellipse cx="343.6" cy="631.856" rx="29.4514" ry="28.6333" fill="#97BECA"/>
<rect x="397.594" y="627.766" width="58.9029" height="112.897" fill="url(#paint26_linear_927_361)"/>
<ellipse cx="427.046" cy="631.856" rx="29.4514" ry="28.6333" fill="#97BECA"/>
<rect x="321" y="489" width="207" height="80" fill="url(#paint27_linear_927_361)"/>
<rect x="481.04" y="627.766" width="58.9029" height="112.897" fill="url(#paint28_linear_927_361)"/>
<ellipse cx="510.491" cy="631.856" rx="29.4514" ry="28.6333" fill="#97BECA"/>
<rect x="371" y="204" width="108" height="118" fill="url(#paint29_linear_927_361)"/>
<rect x="335" y="317" width="189" height="64" fill="url(#paint30_linear_927_361)"/>
<path d="M325.5 630.5C325.5 627.999 327.4 613.499 343 603.499C333 602.5 314 611.499 314 627.999V740.505H325.5V630.5Z" fill="#294F6B"/>
<path d="M408.5 631.085C408.5 627.5 409.9 613.501 425.5 603.501C415.5 602.502 397 612.084 397 628.584V741.09H408.5V631.085Z" fill="#294F6B"/>
<path d="M492.5 630.655C492.5 627.07 493.9 613.071 509.5 603.071C499.5 602.072 481 611.654 481 628.154V740.66H492.5V630.655Z" fill="#294F6B"/>
<rect x="120" y="609" width="24" height="23" fill="#1B848C"/>
<rect x="162" y="609" width="24" height="23" fill="#1B848C"/>
<rect x="202" y="609" width="24" height="23" fill="#1B848C"/>
<rect x="120" y="643" width="24" height="142" fill="url(#paint31_linear_927_361)"/>
<rect x="162" y="643" width="24" height="142" fill="url(#paint32_linear_927_361)"/>
<rect x="202" y="643" width="24" height="142" fill="url(#paint33_linear_927_361)"/>
<rect x="636" y="609" width="24" height="23" fill="#1B848C"/>
<rect x="678" y="609" width="24" height="23" fill="#1B848C"/>
<rect x="718" y="609" width="24" height="23" fill="#1B848C"/>
<rect x="636" y="643" width="24" height="142" fill="url(#paint34_linear_927_361)"/>
<rect x="678" y="643" width="24" height="142" fill="url(#paint35_linear_927_361)"/>
<rect x="718" y="643" width="24" height="142" fill="url(#paint36_linear_927_361)"/>
<path d="M536.226 155L547 214.094L526 214.094L536.226 155Z" fill="#355A75"/>
<path d="M618.726 155.094L629.5 214.188L608.5 214.188L618.726 155.094Z" fill="#355A75"/>
<path d="M170 447C130.5 456 110.5 502 111.5 511" stroke="#3E6A74" stroke-linecap="round"/>
<path d="M177 447C216.5 456 236.5 502 235.5 511" stroke="#3E6A74" stroke-linecap="round"/>
<path d="M171.5 449C145.1 472.6 139 499 139 509.5" stroke="#3E6A74" stroke-linecap="round"/>
<path d="M175.5 449C201.9 472.6 208 500.5 208 511" stroke="#3E6A74" stroke-linecap="round"/>
<path d="M170 446.5C169.5 450 177 450 177 446.5" stroke="#3E6A74" stroke-linecap="round"/>
<path d="M173.5 449.5V510" stroke="#3E6A74" stroke-linecap="round"/>
<path d="M682.536 447.5C643.036 456.5 623.036 502.5 624.036 511.5" stroke="#3E6A74" stroke-linecap="round"/>
<path d="M689.536 447.5C729.036 456.5 749.036 502.5 748.036 511.5" stroke="#3E6A74" stroke-linecap="round"/>
<path d="M684.036 449.5C657.636 473.1 651.536 499.5 651.536 510" stroke="#3E6A74" stroke-linecap="round"/>
<path d="M688.036 449.5C714.436 473.1 720.536 501 720.536 511.5" stroke="#3E6A74" stroke-linecap="round"/>
<path d="M682.5 446.5C682 450 689 451 689 446.5" stroke="#3E6A74" stroke-linecap="round"/>
<path d="M686.036 450V510.5" stroke="#3E6A74" stroke-linecap="round"/>
<defs>
<linearGradient id="paint0_linear_927_361" x1="429.5" y1="380.701" x2="429.5" y2="568.863" gradientUnits="userSpaceOnUse">
<stop stop-color="#4D9EAA"/>
<stop offset="1" stop-color="#3B6C82"/>
</linearGradient>
<linearGradient id="paint1_linear_927_361" x1="280.607" y1="236.717" x2="280.607" y2="334.888" gradientUnits="userSpaceOnUse">
<stop stop-color="#355A75"/>
<stop offset="1" stop-color="#20868E"/>
</linearGradient>
<linearGradient id="paint2_linear_927_361" x1="265.5" y1="307" x2="265.5" y2="381" gradientUnits="userSpaceOnUse">
<stop stop-color="#20868E"/>
<stop offset="1" stop-color="#4D9CA8"/>
</linearGradient>
<linearGradient id="paint3_linear_927_361" x1="185" y1="474" x2="185" y2="664" gradientUnits="userSpaceOnUse">
<stop stop-color="#52AEBB"/>
<stop offset="1" stop-color="#226372"/>
</linearGradient>
<linearGradient id="paint4_linear_927_361" x1="145.5" y1="475" x2="145.5" y2="666" gradientUnits="userSpaceOnUse">
<stop stop-color="#52AEBB"/>
<stop offset="1" stop-color="#226372"/>
</linearGradient>
<linearGradient id="paint5_linear_927_361" x1="108" y1="474" x2="108" y2="664" gradientUnits="userSpaceOnUse">
<stop stop-color="#52AEBB"/>
<stop offset="1" stop-color="#226372"/>
</linearGradient>
<linearGradient id="paint6_linear_927_361" x1="135" y1="589" x2="135" y2="779" gradientUnits="userSpaceOnUse">
<stop stop-color="#1D7C8A"/>
<stop offset="1" stop-color="#174E6E"/>
</linearGradient>
<linearGradient id="paint7_linear_927_361" x1="108.5" y1="590" x2="108.5" y2="781" gradientUnits="userSpaceOnUse">
<stop stop-color="#1D7C8A"/>
<stop offset="1" stop-color="#174E6E"/>
</linearGradient>
<linearGradient id="paint8_linear_927_361" x1="186" y1="588" x2="186" y2="778" gradientUnits="userSpaceOnUse">
<stop stop-color="#1D7C8A"/>
<stop offset="1" stop-color="#174E6E"/>
</linearGradient>
<linearGradient id="paint9_linear_927_361" x1="159.5" y1="589" x2="159.5" y2="780" gradientUnits="userSpaceOnUse">
<stop stop-color="#1D7C8A"/>
<stop offset="1" stop-color="#174E6E"/>
</linearGradient>
<linearGradient id="paint10_linear_927_361" x1="209.5" y1="590" x2="209.5" y2="781" gradientUnits="userSpaceOnUse">
<stop stop-color="#1D7C8A"/>
<stop offset="1" stop-color="#174E6E"/>
</linearGradient>
<linearGradient id="paint11_linear_927_361" x1="85" y1="589" x2="85" y2="779" gradientUnits="userSpaceOnUse">
<stop stop-color="#1D7C8A"/>
<stop offset="1" stop-color="#174E6E"/>
</linearGradient>
<linearGradient id="paint12_linear_927_361" x1="144.803" y1="581.953" x2="144.803" y2="784.841" gradientUnits="userSpaceOnUse">
<stop stop-color="#4D9EAA"/>
<stop offset="1" stop-color="#355A75"/>
</linearGradient>
<linearGradient id="paint13_linear_927_361" x1="792" y1="470" x2="792" y2="660" gradientUnits="userSpaceOnUse">
<stop stop-color="#52AEBB"/>
<stop offset="1" stop-color="#226372"/>
</linearGradient>
<linearGradient id="paint14_linear_927_361" x1="54.8124" y1="0" x2="54.8124" y2="98.1714" gradientUnits="userSpaceOnUse">
<stop stop-color="#355A75"/>
<stop offset="1" stop-color="#20868E"/>
</linearGradient>
<linearGradient id="paint15_linear_927_361" x1="752.5" y1="471" x2="752.5" y2="662" gradientUnits="userSpaceOnUse">
<stop stop-color="#52AEBB"/>
<stop offset="1" stop-color="#226372"/>
</linearGradient>
<linearGradient id="paint16_linear_927_361" x1="715" y1="470" x2="715" y2="660" gradientUnits="userSpaceOnUse">
<stop stop-color="#52AEBB"/>
<stop offset="1" stop-color="#226372"/>
</linearGradient>
<linearGradient id="paint17_linear_927_361" x1="69.5" y1="0" x2="69.5" y2="74" gradientUnits="userSpaceOnUse">
<stop stop-color="#20868E"/>
<stop offset="1" stop-color="#4D9CA8"/>
</linearGradient>
<linearGradient id="paint18_linear_927_361" x1="736" y1="590" x2="736" y2="780" gradientUnits="userSpaceOnUse">
<stop stop-color="#1D7C8A"/>
<stop offset="1" stop-color="#174E6E"/>
</linearGradient>
<linearGradient id="paint19_linear_927_361" x1="709.5" y1="591" x2="709.5" y2="782" gradientUnits="userSpaceOnUse">
<stop stop-color="#1D7C8A"/>
<stop offset="1" stop-color="#174E6E"/>
</linearGradient>
<linearGradient id="paint20_linear_927_361" x1="787" y1="589" x2="787" y2="779" gradientUnits="userSpaceOnUse">
<stop stop-color="#1D7C8A"/>
<stop offset="1" stop-color="#174E6E"/>
</linearGradient>
<linearGradient id="paint21_linear_927_361" x1="760.5" y1="590" x2="760.5" y2="781" gradientUnits="userSpaceOnUse">
<stop stop-color="#1D7C8A"/>
<stop offset="1" stop-color="#174E6E"/>
</linearGradient>
<linearGradient id="paint22_linear_927_361" x1="810.5" y1="591" x2="810.5" y2="782" gradientUnits="userSpaceOnUse">
<stop stop-color="#1D7C8A"/>
<stop offset="1" stop-color="#174E6E"/>
</linearGradient>
<linearGradient id="paint23_linear_927_361" x1="686" y1="590" x2="686" y2="780" gradientUnits="userSpaceOnUse">
<stop stop-color="#1D7C8A"/>
<stop offset="1" stop-color="#174E6E"/>
</linearGradient>
<linearGradient id="paint24_linear_927_361" x1="144.803" y1="0" x2="144.803" y2="202.888" gradientUnits="userSpaceOnUse">
<stop stop-color="#4D9EAA"/>
<stop offset="1" stop-color="#355A75"/>
</linearGradient>
<linearGradient id="paint25_linear_927_361" x1="343.6" y1="627.766" x2="343.6" y2="740.663" gradientUnits="userSpaceOnUse">
<stop stop-color="#B7DDE9"/>
<stop offset="1" stop-color="#24465F"/>
</linearGradient>
<linearGradient id="paint26_linear_927_361" x1="427.046" y1="627.766" x2="427.046" y2="740.663" gradientUnits="userSpaceOnUse">
<stop stop-color="#B7DDE9"/>
<stop offset="1" stop-color="#24465F"/>
</linearGradient>
<linearGradient id="paint27_linear_927_361" x1="425" y1="489" x2="424.5" y2="569" gradientUnits="userSpaceOnUse">
<stop stop-color="#315C66"/>
<stop offset="1" stop-color="#5A7F88"/>
</linearGradient>
<linearGradient id="paint28_linear_927_361" x1="510.491" y1="627.766" x2="510.491" y2="740.663" gradientUnits="userSpaceOnUse">
<stop stop-color="#B7DDE9"/>
<stop offset="1" stop-color="#24465F"/>
</linearGradient>
<linearGradient id="paint29_linear_927_361" x1="425" y1="204" x2="425" y2="322" gradientUnits="userSpaceOnUse">
<stop stop-color="#355A75"/>
<stop offset="1" stop-color="#268992"/>
</linearGradient>
<linearGradient id="paint30_linear_927_361" x1="429.5" y1="317" x2="429.5" y2="381" gradientUnits="userSpaceOnUse">
<stop stop-color="#20868E"/>
<stop offset="1" stop-color="#4D9CA8"/>
</linearGradient>
<linearGradient id="paint31_linear_927_361" x1="132" y1="643" x2="132" y2="785" gradientUnits="userSpaceOnUse">
<stop stop-color="#1B848C"/>
<stop offset="1" stop-color="#5F9EA4"/>
</linearGradient>
<linearGradient id="paint32_linear_927_361" x1="174" y1="643" x2="174" y2="785" gradientUnits="userSpaceOnUse">
<stop stop-color="#1B848C"/>
<stop offset="1" stop-color="#5F9EA4"/>
</linearGradient>
<linearGradient id="paint33_linear_927_361" x1="214" y1="643" x2="214" y2="785" gradientUnits="userSpaceOnUse">
<stop stop-color="#1B848C"/>
<stop offset="1" stop-color="#5F9EA4"/>
</linearGradient>
<linearGradient id="paint34_linear_927_361" x1="648" y1="643" x2="648" y2="785" gradientUnits="userSpaceOnUse">
<stop stop-color="#1B848C"/>
<stop offset="1" stop-color="#5F9EA4"/>
</linearGradient>
<linearGradient id="paint35_linear_927_361" x1="690" y1="643" x2="690" y2="785" gradientUnits="userSpaceOnUse">
<stop stop-color="#1B848C"/>
<stop offset="1" stop-color="#5F9EA4"/>
</linearGradient>
<linearGradient id="paint36_linear_927_361" x1="730" y1="643" x2="730" y2="785" gradientUnits="userSpaceOnUse">
<stop stop-color="#1B848C"/>
<stop offset="1" stop-color="#5F9EA4"/>
</linearGradient>
</defs>
</svg>
