<svg width="391" height="247" viewBox="0 0 391 247" fill="none" xmlns="http://www.w3.org/2000/svg">
<path d="M362.032 57.3262C373.18 22.1887 395.844 19.6319 405.782 22.7457C438.48 1.32577 467.6 28.1673 478.072 44.2656C519.571 43.0938 522.585 74.4236 518.905 90.235C540.611 106.554 525.684 120.527 515.507 125.473C529.401 142.332 569.284 148.98 587.488 150.197C570.212 154.997 541.848 148.49 529.826 144.637C521.442 164.521 506.082 161.747 499.45 157.874C492.316 205.038 456.839 197.414 439.992 187.707C422.098 198.914 405.841 189.802 399.949 183.846C385.899 195.424 353.659 194.471 339.294 192.547C282.387 219.392 219.762 213.893 195.562 207.787C228.507 214.844 267.222 202.303 282.462 195.15C207.523 194.391 160.987 180.743 147.087 174.014C162.795 178.762 195.038 186.397 198.342 178.956C201.646 171.515 189.967 165.215 183.715 162.996C98.8183 171.623 28.7451 155.059 4.32058 145.698C38.4238 154.16 86.8708 155.813 106.831 155.583C93.4386 154.291 75.2759 150.137 62.3503 146.776C58.6038 145.983 54.9333 144.991 51.3886 143.77C54.178 144.585 57.9624 145.635 62.3503 146.776C91.6778 152.982 125.66 146.966 140.411 142.654C142.927 129.964 167.255 126.921 179.104 126.986C184.06 115.824 204.07 108.377 213.455 106.048C236.506 68.1787 258.015 74.2404 265.889 82.0049C278.657 70.303 295.769 79.4972 302.729 85.5571C311.328 90.2661 329.765 79.0031 337.909 72.783C338.774 63.8133 354.352 58.7411 362.032 57.3262Z" fill="#86BEF1" stroke="#86BEF1" stroke-width="1.79475"/>
<path d="M141.38 166.143C75.0413 170.093 22.4213 153.595 4.40363 144.852C21.8488 151.707 65.0635 152.857 84.4903 152.574C74.9164 151.651 62.7564 147.508 55.3543 144.552C54.0057 144.062 52.7092 143.521 51.4716 142.924C52.5248 143.392 53.84 143.947 55.3543 144.552C79.5932 153.352 120.662 145.426 139.046 140.052C145.531 126.451 167.441 125.007 177.585 125.985C184.194 111.092 205.375 106.027 215.14 105.357C216.005 96.387 225.484 87.4935 230.116 84.168C234.747 80.8425 236.298 80.0044 245.999 77.5C260.588 73.7335 262.942 84.6388 264.37 81.0043C281.106 68.3918 298.039 78.3232 304.413 84.8654C311.484 92.0137 328.678 79.1219 336.391 71.7825C337.424 61.061 353.006 55.9428 360.668 54.7239C368.512 27.0276 397.908 20.5934 409.223 20.6067C435.176 6.2962 460.305 21.76 469.626 31.2807C448.584 21.492 432.477 30.932 427.054 36.8756C426.189 45.8453 412.335 55.3948 405.517 59.0483C388.117 65.1304 371.919 66.5862 365.994 66.5538C354.338 66.7232 345.158 75.8611 342.025 80.4089C323.885 94.1793 308.774 95.5245 303.487 94.4758C294.764 91.0481 286.524 97.1512 283.494 100.631C282.629 109.601 263.192 109.99 253.581 109.063C228.741 111.841 216.574 118.428 213.595 121.374C195.656 119.644 185.252 135.885 182.293 144.222C156.665 141.751 144.34 157.806 141.38 166.143Z" fill="#FDD6B2"/>
<path d="M409.223 20.6067C435.176 6.2962 460.305 21.76 469.626 31.2807C448.584 21.492 432.477 30.932 427.054 36.8756C426.189 45.8453 412.335 55.3948 405.517 59.0483C388.117 65.1304 371.919 66.5862 365.994 66.5538C354.338 66.7232 345.158 75.8611 342.025 80.4089C323.885 94.1793 308.774 95.5245 303.487 94.4758C294.764 91.0481 286.524 97.1512 283.494 100.631C282.629 109.601 263.192 109.99 253.581 109.063C228.741 111.841 216.574 118.428 213.595 121.374C195.656 119.644 185.252 135.885 182.293 144.222C156.665 141.751 144.34 157.806 141.38 166.143C75.0413 170.093 22.4213 153.595 4.40363 144.852C21.8488 151.707 65.0635 152.857 84.4903 152.574C72.9578 151.462 57.6726 145.677 51.4716 142.924C74.9531 154.241 119.639 145.725 139.046 140.052C145.531 126.451 167.441 125.007 177.585 125.985C184.194 111.092 205.375 106.027 215.14 105.357C216.005 96.387 225.484 87.4935 230.116 84.168C234.747 80.8425 236.298 80.0044 245.999 77.5C260.588 73.7335 262.942 84.6388 264.37 81.0044C281.106 68.3918 298.039 78.3231 304.413 84.8654C311.484 92.0137 328.678 79.1219 336.391 71.7825C337.424 61.061 353.006 55.9428 360.668 54.7239C368.512 27.0276 397.908 20.5934 409.223 20.6067ZM409.223 20.6067C410.741 27.2196 411.411 41.5104 401.947 45.7711C396.833 48.5112 385.736 52.9378 382.263 48.723C384.379 43.5383 392.457 33.5396 407.833 35.0223L409.223 20.6067Z" stroke="#FDD6B2" stroke-width="1.79475"/>
<path d="M261.297 163.156C256.126 149.724 242.675 149.505 236.596 151.075C248.129 152.187 257.354 164.931 260.525 171.165C267.596 178.313 275.217 175.276 278.144 172.864C300.175 172.401 308.501 154.236 309.91 145.211C296.277 165.882 283.567 166.92 278.916 164.855C269.205 171.678 263.124 166.565 261.297 163.156Z" fill="#FDD6B2" stroke="#FDD6B2" stroke-width="1.79475"/>
<path d="M285.074 184.848C254.49 193.539 211.915 189.11 194.45 185.81C218.055 195.846 258.744 195.242 276.138 193.686C236.927 211.373 207.207 209.995 197.248 207.096C239.579 224.11 309.742 202.854 339.533 190.099C357.845 202.211 387.496 190.413 400.032 183C410.378 196.419 432.106 191.268 441.677 187.015C480.565 204.991 496.452 174.514 499.534 157.028C493.42 166.785 470.226 170.369 459.394 170.941C446.085 174.831 428.633 165.819 421.57 160.827C406.193 159.344 381.031 167.696 370.372 172.057C379.048 162.547 378.22 157.725 376.721 156.503C371.889 166.383 339.752 176.649 324.288 180.546L336.735 168.813C338.646 165.764 340.711 161.114 333.686 166.903C326.662 172.692 298.351 181.279 285.074 184.848Z" fill="#7EABD5" stroke="#7EABD5" stroke-width="1.79475"/>
<path d="M149.004 174.623C169.387 182.669 221.095 198.117 264.864 195.542C239.117 193.397 179.9 186.209 149.004 174.623Z" fill="#AEA49C" stroke="#AEA49C" stroke-width="1.79475"/>
</svg>
