<svg width="272" height="134" viewBox="0 0 272 134" fill="none" xmlns="http://www.w3.org/2000/svg">
<path d="M17.917 59.9996C-8.79766 71.0428 -60.4303 70.6569 -82.6859 69.8566C-62.7584 87.099 -19.2834 87.895 -0.0368717 86.1377C29.2351 80.6129 100.19 88.4744 132.008 93.0957C161.184 95.0904 199.13 77.3016 214.456 68.1578C203.294 73.2651 180.476 69.102 170.417 65.9996C181.322 35.4367 136.699 30.95 113.07 32.9094C89.1219 10.4248 39.8039 42.1163 17.917 59.9996Z" fill="#86BEF1" stroke="#86BEF1" stroke-width="1.79475"/>
<path d="M-41.8208 68.98C-24.4255 66.9713 11.6967 61.9379 17.0237 57.8736C23.6824 52.7933 75.5585 4.76664 114.582 29.9016C145.8 50.0095 130.273 39.0478 118.608 31.0534C138.455 28.582 177.038 31.8783 172.594 64.8349C182.601 67.4069 205.488 71.6264 216.979 67.9283C207.412 73.9093 184.641 85.9559 165.854 89.2218C164.306 89.6587 162.989 89.8 162.064 89.7637C163.305 89.6272 164.57 89.445 165.854 89.2218C169.656 88.149 174.851 85.2937 179.059 78.9089C174.536 78.488 163.167 73.5975 157.917 70C151.355 65.5032 161.405 45.917 122.092 49.5136C103.335 40.9458 56.4805 32.8382 19.1142 68.9497C2.94488 70.727 -31.8792 73.2213 -41.8208 68.98Z" fill="#FFD5BF" stroke="#FFD5BF" stroke-width="1.79475"/>
<path d="M-82.5615 70.5555C-58.4778 77.4442 5.91699 82.4998 8.91699 84.9998C-15.1668 89.3051 -66.8867 93.288 -82.5615 70.5555Z" fill="#7EABD5"/>
<path d="M175.417 86.9998C165.417 89.4998 143.917 99.4998 83.917 87.4998C89.417 82.9998 100.917 86.9998 100.917 86.9998C150.417 94.9998 169.417 84.9998 175.417 86.9998Z" fill="#7EABD5"/>
<path d="M-82.5615 70.5555C-58.4778 77.4442 5.91699 82.4998 8.91699 84.9998C-15.1668 89.3051 -66.8867 93.288 -82.5615 70.5555Z" stroke="#7EABD5" stroke-width="1.79475"/>
<path d="M175.417 86.9998C165.417 89.4998 143.917 99.4998 83.917 87.4998C89.417 82.9998 100.917 86.9998 100.917 86.9998C150.417 94.9998 169.417 84.9998 175.417 86.9998Z" stroke="#7EABD5" stroke-width="1.79475"/>
<path d="M193.417 40.4183C186.362 36.3865 182.417 26.4995 191.417 20.4995C197.702 16.8026 201.526 16.3858 206.933 16.4196C211.202 16.4464 215.406 17.4712 219.22 19.3891C223.879 21.7321 228.277 23.693 235.198 24.3029C238.291 24.5755 241.337 23.6703 244.334 22.8573C254.733 20.0358 269.314 21.9996 271.917 24.9995C258.077 26.4312 253.348 30.5959 236.859 39.1621C235.244 40.0014 233.722 41.0293 232.095 41.8463C222.054 46.8891 200.321 46.4764 193.417 40.4183Z" fill="#FFD5BF"/>
<path fill-rule="evenodd" clip-rule="evenodd" d="M186.87 32.8737C187.993 35.9462 190.425 38.7087 193.417 40.4184C200.321 46.4765 222.054 46.8892 232.095 41.8464C232.954 41.415 233.784 40.9247 234.613 40.4345C235.355 39.9964 236.097 39.5583 236.859 39.1622C240.264 37.3933 243.167 35.8121 245.753 34.4039C250.439 31.8518 254.082 29.8678 257.775 28.3646C247.016 29.1199 237.937 33.4431 229.506 37.4579L229.417 37.5003C223.898 40.1285 210.935 35.1819 203.417 31.5002C200.126 29.8886 196.174 30.9361 192.612 31.8805C190.484 32.4444 188.496 32.9716 186.87 32.8737Z" fill="#7EABD5"/>
</svg>
