<svg width="219" height="276" viewBox="0 0 219 276" fill="none" xmlns="http://www.w3.org/2000/svg">
<path d="M90.5349 233.38C93.1611 229.189 94.9064 221.444 95.5451 217.344C96.0078 214.374 96.1103 209.131 96.081 205.75C96.0516 202.368 94.4134 189.057 93.5979 182.824C95.1354 182.023 99.5108 179.875 104.713 177.691C111.215 174.961 114.575 169.321 116.71 169.048C118.842 168.775 124.132 167.034 126.719 164.252C129.305 161.469 128.815 157.67 124.166 155.846C119.517 154.023 113.535 162.951 111.608 159.051C110.067 155.931 111.832 145.854 112.624 141.874C113.085 139.556 114.23 137.934 118.546 136.02C123.942 133.627 120.84 131.246 115.731 129.064C110.622 126.882 106.496 134.048 103.214 139.287C100.587 143.478 100.058 157.67 101.656 163.914C98.2246 167.037 90.5236 172.991 87.1722 171.819C82.9831 170.354 80.5233 157.642 79.1068 152.34C77.9736 148.098 82.2828 139.821 84.5791 136.213C86.8375 135.774 91.5624 130.922 95.7297 129.851C99.8969 128.781 104.981 125.922 106.585 122.774C107.543 120.321 109.634 114.714 110.341 111.906C111.224 108.396 118.151 109.566 121.132 107.121C124.105 104.683 128.6 99.168 122.828 98.587C119.775 98.2797 113.516 107.912 110.419 100.26C109.806 97.764 112.143 95.9593 110.015 91.4226C108.402 87.983 104.998 90.3508 101.119 94.5248C97.2398 98.6988 100.173 105.782 97.4866 112.085C95.3377 117.128 87.8543 122.745 83.5362 123.979C83.371 114.198 85.0861 99.4344 88.9654 95.2604C93.8145 90.0428 108.976 74.2992 112.209 70.8208C115.442 67.3424 127.404 62.8294 128.574 54.7447C129.335 49.482 117.404 54.7659 113.524 58.94C110.421 62.2792 104.053 66.3817 101.931 67.5271L99.0358 57.5165C98.3509 54.7613 93.6954 55.754 93.3169 60.257C92.9383 64.76 97.2447 69.9444 99.1588 72.4355C96.9748 73.9322 91.3227 78.6146 88.4779 81.6755C85.6331 84.7365 81.6314 87.3358 79.9861 88.2528C79.5551 88.7166 77.8478 88.5058 74.467 83.9521C70.2411 78.2601 71.0855 79.3522 66.6244 76.3098C62.2428 73.3216 63.0188 81.5395 66.8479 86.6606C70.3055 91.285 71.892 95.5398 73.9306 97.3282L72.8139 120.277C72.1718 118.977 68.8812 122.464 68.4348 117.165C68.191 114.271 67.1648 109.981 65.0137 106.625C63.5223 104.298 60.2187 109.679 60.0298 112.285C59.8286 115.062 60.5618 116.832 60.8351 118.245C61.1084 119.657 61.3106 121.896 63.2515 124.074C64.4642 125.435 65.1792 126.631 67.2753 127.527C74.0219 128.884 71.2759 126.806 72.7077 129.361C74.1395 131.916 71.1403 136.736 69.4617 138.827C69.1717 138.001 67.1847 135.133 61.5563 130.268C54.5209 124.186 48.2185 119.874 46.4288 116.681C44.6391 113.487 43.3093 110.651 40.3632 109.555C37.417 108.459 40.9 116.893 41.9065 120.076C42.7118 122.623 54.6975 134.519 62.0396 140.84C63.143 142.177 68.0418 147.963 68.5484 152.196C69.1816 157.487 71.7948 167.034 76.3441 172.378C80.8933 177.722 81.8499 182.666 84.1362 190.445C85.9653 196.668 84.1919 206.881 83.0766 211.21L68.726 242.009C69.1071 243.306 70.6971 246.544 74.0085 249.124C77.3199 251.705 81.5294 250.987 83.2202 250.305C85.7486 245.878 87.9087 237.571 90.5349 233.38Z" fill="#356877"/>
<path d="M98.6954 65.5737C96.7171 63.8917 96.6389 56.8539 97.601 58.7873C98.3707 60.334 98.6513 63.956 98.6954 65.5737Z" fill="white" fill-opacity="0.44"/>
<path d="M78.6096 240.165C86.5098 233.818 88.7407 208.694 88.8685 196.925C88.3657 195.029 87.0131 191.858 86.8185 195.778C86.5584 201.015 84.4213 214.351 83.2372 221.224C82.29 226.722 76.7594 234.286 73.9969 237.585C72.2427 241.09 70.7093 246.511 78.6096 240.165Z" fill="#D9D9D9" fill-opacity="0.46"/>
<path d="M96.318 212.392C96.7512 208.759 94.5982 191.158 93.4675 182.812C93.0897 185.471 92.4307 191.812 92.8175 195.903C93.3009 201.018 91.4668 220.982 89.9507 226.054C88.7379 230.112 79.5217 243.724 75.0652 250.023C75.4839 250.078 76.88 250.392 79.1148 251.211C81.3497 252.03 82.7121 251.608 83.114 251.294C83.5158 250.981 85.0486 248.824 87.9651 242.705C91.6108 235.056 90.7663 232.969 91.9213 230.924C93.0763 228.878 95.7765 216.933 96.318 212.392Z" fill="#07374B"/>
<g filter="url(#filter0_d_549_396)">
<path d="M128.089 164.496C129.423 163.089 128.58 158.851 127.273 157.582L125.194 161.263C124.086 163.226 115.707 164.928 112.425 165.963C112.875 167.076 100.333 178.219 93.468 182.812C97.0581 181.231 106.033 177.997 108.187 177.049C110.341 176.1 114.506 171.433 116.575 169.36C121.267 168.217 126.421 166.255 128.089 164.496Z" fill="#07374B"/>
</g>
<path d="M121.643 134.062C122.346 132.817 119.787 131.147 117.269 129.921C116.293 129.375 112.625 129.565 108.903 137.86C104.205 148.332 110.154 159.311 113.173 160.999C113.422 161.139 112.881 158.105 111.388 155.632C109.895 153.159 114.689 139.266 115.392 138.021C116.095 136.776 120.677 135.773 121.643 134.062Z" fill="#07374B"/>
<path d="M125.492 102.229C126.416 100.593 125.28 99.4194 124.597 99.0373C124.614 99.4055 123.996 100.101 123.442 101.082C122.518 102.719 120.338 104.191 118.388 105.254C116.592 106.234 110.953 106.478 109.235 107.132C107.517 107.786 103.691 116.949 101.561 119.525C99.4319 122.102 92.6102 125.823 90.6106 125.781C88.6111 125.739 74.9891 139.112 74.5486 145.863C74.1362 152.181 75.8476 157.891 75.6671 159.405C75.4865 160.918 82.0697 168.367 82.3512 169.062C82.5764 169.619 84.9306 170.864 85.9388 171.069C83.3762 169.636 79.9262 154.251 79.4932 150.242C79.1468 147.034 83.7645 139.893 85.8604 136.58C88.0068 134.371 92.2944 131.004 95.5552 130.16C99.5038 129.139 103.941 126.059 105.994 123.618L111.386 110.488C114.079 109.302 118.54 108.567 120.258 107.914C121.976 107.26 124.337 104.274 125.492 102.229Z" fill="#1C2A3A"/>
<path d="M68.0086 150.278C66.8422 146.612 68.673 141.142 69.7342 138.865C69.3324 139.178 68.7597 139.396 65.2731 139.599C61.3769 139.826 53.2328 127.485 49.3132 123.679C45.1626 120.281 41.7749 113.543 39.684 109.683C38.7095 110.215 40.7979 117.661 41.907 120.076C42.239 121.876 56.3799 136.241 61.837 140.907C63.656 142.463 66.4808 147.809 68.0086 150.278Z" fill="#07374B"/>
<g filter="url(#filter1_f_549_396)">
<path d="M111.755 96.6996C112.598 93.296 110.075 90.9167 108.709 90.1525C110.246 91.0123 110.91 94.6127 109.986 96.2489C109.247 97.5578 109.974 101.445 111.776 102.632C111.418 102.073 110.911 100.103 111.755 96.6996Z" fill="#07374B"/>
</g>
<path d="M108.709 90.1528C111.354 91.2012 111.216 97.6545 110.701 100.955L112.289 102.919C111.17 102.114 105.164 100.011 105.807 97.6795C106.21 96.2162 109.152 92.5532 108.709 90.1528Z" fill="#07374B"/>
<path d="M59.6507 114.925C58.9175 107.626 62.5793 106.158 64.5019 106.336C63.3468 108.381 61.4543 112.97 64.3138 118.609C65.2088 121.801 66.1038 124.992 71.7415 128.145C71.3719 128.799 67.5547 127.597 65.6923 126.915C63.9839 125.96 60.3839 122.224 59.6507 114.925Z" fill="#07374B"/>
<path d="M114.492 69.1672C127.746 61.939 129.182 55.4946 128.244 53.1759C124.497 58.6157 116.641 63.3722 114.29 64.7487C105.603 71.3731 85.8826 91.167 81.632 98.6932C77.3815 106.219 79.2155 120.485 80.2019 127.495L83.768 123.568C83.3716 103.972 89.7965 93.3914 94.2504 90.6792L114.492 69.1672Z" fill="#07374B"/>
<g filter="url(#filter2_d_549_396)">
<path d="M67.9242 88.3362C62.3921 80.9372 63.0616 76.6472 64.3442 75.5703C62.4961 78.8426 70.8284 89.9601 74.9694 94.9666L74.0958 97.7073C73.091 97.576 69.3919 91.3097 67.9242 88.3362Z" fill="#07374B"/>
</g>
<path d="M97.4603 55.9778C97.5266 55.9793 97.5926 55.9824 97.6582 55.987C97.5978 55.9533 97.533 55.9473 97.4603 55.9778C93.8149 55.8944 89.2977 60.577 99.1592 72.4342C97.6145 69.597 94.3259 62.8426 95.5791 59.6683C96.611 57.0548 97.1214 56.1199 97.4603 55.9778Z" fill="#07374B"/>
<path d="M122.992 156.803C121.094 158.97 115.247 162.159 115.196 161.055C115.156 160.171 120.377 157.852 122.992 156.803Z" fill="white" fill-opacity="0.3"/>
<path d="M101.142 98.1191C102.107 95.4156 106.268 90.6151 106.691 91.7185C107.029 92.6012 103.133 96.3534 101.142 98.1191Z" fill="white" fill-opacity="0.42"/>
<path d="M118.323 62.5742C119.81 59.1808 126.654 53.4449 127.447 54.9264C128.082 56.1116 121.629 60.5188 118.323 62.5742Z" fill="white" fill-opacity="0.42"/>
<path d="M66.5073 116.688C64.9061 113.726 63.2839 107.085 64.3444 107.832C65.1928 108.43 66.1399 113.985 66.5073 116.688Z" fill="white" fill-opacity="0.42"/>
<path d="M103.169 165.633C99.0906 169.272 91.9179 176.241 90.8323 174.342C89.7467 172.444 96.86 169.64 103.169 165.633Z" fill="white" fill-opacity="0.32"/>
<path d="M102.135 146.217C103.447 151.91 106.263 162.362 104.047 161.66C101.831 160.959 102.713 153.769 102.135 146.217Z" fill="white" fill-opacity="0.32"/>
<path d="M122.366 99.4026C122.467 101.612 116.389 105.21 117.313 103.574C118.052 102.265 120.989 100.248 122.366 99.4026Z" fill="white" fill-opacity="0.44"/>
<path d="M68.589 84.0689C66.2851 82.8087 64.193 75.6781 65.6336 77.4239C66.7861 78.8205 68.0841 82.4358 68.589 84.0689Z" fill="white" fill-opacity="0.44"/>
<path d="M69.861 146.891C68.1951 147.156 72.3917 161.569 74.3232 166.62C74.7414 165.892 72.5121 157.397 71.2387 153.46C71.3348 151.182 71.1938 146.679 69.861 146.891Z" fill="white" fill-opacity="0.34"/>
<path d="M76.9991 113.909C75.933 106.339 78.1862 98.2616 80.8921 95.125C80.3002 95.0522 79.7155 93.2358 77.4897 96.2777C76.3424 97.8456 75.0243 109.024 74.5306 113.917C74.6599 114.479 78.48 124.424 76.9991 113.909Z" fill="white" fill-opacity="0.39"/>
<defs>
<filter id="filter0_d_549_396" x="86.289" y="157.582" width="49.6534" height="39.5885" filterUnits="userSpaceOnUse" color-interpolation-filters="sRGB">
<feFlood flood-opacity="0" result="BackgroundImageFix"/>
<feColorMatrix in="SourceAlpha" type="matrix" values="0 0 0 0 0 0 0 0 0 0 0 0 0 0 0 0 0 0 127 0" result="hardAlpha"/>
<feOffset dy="7.17902"/>
<feGaussianBlur stdDeviation="3.58951"/>
<feComposite in2="hardAlpha" operator="out"/>
<feColorMatrix type="matrix" values="0 0 0 0 0 0 0 0 0 0 0 0 0 0 0 0 0 0 0.25 0"/>
<feBlend mode="normal" in2="BackgroundImageFix" result="effect1_dropShadow_549_396"/>
<feBlend mode="normal" in="SourceGraphic" in2="effect1_dropShadow_549_396" result="shape"/>
</filter>
<filter id="filter1_f_549_396" x="18.9708" y="0.414627" width="182.69" height="191.954" filterUnits="userSpaceOnUse" color-interpolation-filters="sRGB">
<feFlood flood-opacity="0" result="BackgroundImageFix"/>
<feBlend mode="normal" in="SourceGraphic" in2="BackgroundImageFix" result="shape"/>
<feGaussianBlur stdDeviation="44.8689" result="effect1_foregroundBlur_549_396"/>
</filter>
<filter id="filter2_d_549_396" x="56.2753" y="75.5703" width="25.8732" height="36.4948" filterUnits="userSpaceOnUse" color-interpolation-filters="sRGB">
<feFlood flood-opacity="0" result="BackgroundImageFix"/>
<feColorMatrix in="SourceAlpha" type="matrix" values="0 0 0 0 0 0 0 0 0 0 0 0 0 0 0 0 0 0 127 0" result="hardAlpha"/>
<feOffset dy="7.17902"/>
<feGaussianBlur stdDeviation="3.58951"/>
<feComposite in2="hardAlpha" operator="out"/>
<feColorMatrix type="matrix" values="0 0 0 0 0 0 0 0 0 0 0 0 0 0 0 0 0 0 0.25 0"/>
<feBlend mode="normal" in2="BackgroundImageFix" result="effect1_dropShadow_549_396"/>
<feBlend mode="normal" in="SourceGraphic" in2="effect1_dropShadow_549_396" result="shape"/>
</filter>
</defs>
</svg>
