<svg width="1280" height="285" viewBox="0 0 1280 285" fill="none" xmlns="http://www.w3.org/2000/svg">
<path d="M1216.98 62.5013C1285.48 93.5013 1208.15 0 1279.5 0V284.501H1C1 120.141 -20.3691 174.112 33.9814 140.302C46.2133 132.693 78.402 81.3319 108.981 80.3808C139.561 79.4296 196.709 123.946 237.481 120.141C278.254 116.336 389.288 173.404 399.481 181.964C409.675 190.525 507.402 191.283 517.333 161.803C540.981 91.6071 666.981 181.964 783.981 181.964C828.488 181.964 816.288 233.42 856.481 241.501C942.094 258.713 1008.25 152.006 1018.98 152.007C1024.32 152.007 1007.48 168.001 1089.98 181.964C1164.48 181.964 1108.48 126.001 1129.98 120.001C1157.58 121.24 1184.15 47.6437 1216.98 62.5013Z" fill="#3D859E"/>
</svg>
