<svg xmlns="http://www.w3.org/2000/svg" fill="none" viewBox="0 0 1280 289.43859649122805" style="max-height: 500px" width="1280" height="289.43859649122805">
<path fill="#4A8DA1" d="M21.0001 45.7344C-47.4753 84.2195 -48 101.998 -0.999924 114.999L-1 291.499H1344.47C1344.47 -93.5 1298.5 123 1244 138.999L1089.45 74.2344C1007.45 57.2232 933.926 50.458 919.982 45.7344C845.482 20.4981 774.409 138.596 764.482 101.998C740.842 14.8524 619.482 74.2345 528.982 101.998C438.482 129.762 437.679 198.966 397.5 208.998C272.389 248.731 360 26.7344 128.5 26.7344C22.0001 153.998 96.6702 3.20558 21.0001 45.7344Z"/>
<path fill="#ABBACB" d="M807.809 139.942C807.145 128.735 810.093 114.667 822.645 102.97L832.028 125.269L820.357 142.249C816.4 148.006 808.221 146.915 807.809 139.942Z"/>
<path fill="#CED8E3" d="M1006.81 95.5696C985.606 113.703 868.932 178.214 804.174 114.87C779.221 90.4626 762.16 51.5671 774.032 18.7432C780.605 0.570365 804.333 3.34159 862.485 27.4059C892.046 39.6385 924.6 81.7357 1006.81 54.2896C1033.35 45.4317 1064.57 -5.54267 1114.89 0.495461L1085.56 46.7877C1062.2 43.4942 1041.96 104.271 1085.56 112.248C1056.99 126.57 1030.49 114.061 1006.81 95.5696Z"/>
<path fill="#CED8E3" d="M964.797 64.6584C970.526 54.7229 985.687 58.4947 986.093 69.9566L964.797 64.6584Z"/>
<path fill="#CED8E3" d="M984.812 95.6416C987.982 111.977 970.581 124.543 956.071 116.396L984.812 95.6416Z"/>
<path fill="#CED8E3" d="M952.771 27.8954C939.069 33.4215 929.545 44.825 921.705 63.4496L956.718 73.9121L965.557 53.4538L956.93 44.1496L966.736 45.6269C971.079 35.3276 963.137 23.7145 952.771 27.8954Z"/>
<path fill="#B3C2D2" d="M900.562 96.7412C900.915 95.5685 901.112 94.303 901.092 92.936C901.045 89.5652 897.675 90.9838 897.031 94.2928C896.411 97.4731 899.628 99.8436 900.562 96.7412Z"/>
<path fill="#B3C2D2" d="M910.811 97.6747C911.165 96.5021 911.361 95.2366 911.342 93.8696C911.295 90.4988 907.924 91.9174 907.28 95.2264C906.661 98.4067 909.877 100.777 910.811 97.6747Z"/>
<path fill="#B3C2D2" d="M921.566 99.4814C921.919 98.3087 922.116 97.0432 922.097 95.6763C922.049 92.3054 918.679 93.7241 918.035 97.0331C917.416 100.213 920.632 102.584 921.566 99.4814Z"/>
<ellipse fill="#1E1E1E" transform="rotate(15.1884 827.889 61.6301)" ry="6.46323" rx="4.20839" cy="61.6301" cx="827.889"/>
<path fill="#FFFFFB" d="M804.625 114.912C869.472 177.04 985.655 113.278 1006.81 95.3248C1006.83 95.336 1006.84 95.3472 1006.86 95.3584L1006.94 95.2757C916.568 130.661 888.39 117.836 840.83 96.191C823.08 88.1125 802.63 78.8054 775.24 70.3174C781.321 87.1254 792.074 102.888 804.625 114.912Z" clip-rule="evenodd" fill-rule="evenodd"/>
<g filter="url(#filter0_b_0_1)">
<path fill="#CED8E3" d="M900.459 164.881C883.517 158.047 864.198 144.843 864.973 124.186L903.337 133.174L910.483 154.641C912.678 161.234 906.903 167.481 900.459 164.881Z"/>
</g>
<path fill="#9AABBE" d="M810.791 120.343C815.767 124.002 824.209 129.735 827.807 131.504L825.977 134.066L824.697 135.896C824.697 135.896 810.608 125.649 810.059 122.721C810.16 122.046 810.242 121.624 810.791 120.343Z"/>
<path fill="#B7C3D0" d="M963.757 120.709C970.93 117.268 982.691 111.648 987.177 108.633L987.562 110.002C987.562 110.002 970.344 122.722 967.233 122.722C966.136 122.173 965.953 121.99 963.757 120.709Z"/>
<path fill="#B7C3D0" d="M924.96 56.1817C930.297 57.4805 940.153 61.0594 940.153 61.0594C940.412 61.3701 940.314 61.8409 939.952 62.0216L939.865 62.0649C939.865 62.0649 925.509 60.1694 923.747 58.7074C924.171 57.5761 924.536 57.0302 924.96 56.1817Z"/>
<path fill="#F2F2F0" d="M864.402 141.568C864.402 141.568 865.552 138.171 864.951 124.186C865.529 129.38 865.126 132.785 869.891 142.117L864.402 141.568Z"/>
<path fill="#A6B8CC" d="M1059.8 82.1162C1061.48 96.1807 1069.05 108.747 1085.56 111.732C1057.19 125.786 1030.86 113.692 1007.3 95.6275V95.321C1026.7 105.796 1049.01 98.4362 1059.8 82.1162Z" clip-rule="evenodd" fill-rule="evenodd"/>
<path fill="url(#paint0_linear_0_1)" d="M781.967 85.16C777.698 77.1136 774.39 68.6005 772.378 59.9483C803.676 56.0893 824.978 78.1594 816.463 87.2327C810.609 93.4707 803.245 90.8497 795.691 88.1611C791.087 86.5226 786.413 84.859 781.967 85.16Z" clip-rule="evenodd" fill-rule="evenodd"/>
<path fill="white" d="M777.124 65.9266L774.57 59.5833C776.729 59.3584 778.904 59.3319 781.067 59.5041L782.064 59.5834L777.124 65.9266Z"/>
<path fill="white" d="M785.175 80.2715L783.156 85.071L788.468 85.9437L785.175 80.2715Z"/>
<path fill="white" d="M795.055 82.1012L791.869 87.1362L797 88.6749L795.055 82.1012Z"/>
<path fill="white" d="M803.471 85.212L801.018 90.0641L806.582 91.2502L803.471 85.212Z"/>
<path fill="white" d="M811.854 85.0298L811.538 90.4577L811.586 90.4406C813.115 89.8878 814.522 89.0444 815.73 87.9568L811.854 85.0298Z"/>
<path fill="white" d="M787.875 66.7985L787.004 59.9609L787.558 60.0286C790.023 60.3302 792.461 60.8276 794.848 61.516L787.875 66.7985Z"/>
<path fill="white" d="M798.12 70.0253L799.645 63.3293L803.133 64.8886L806.393 66.7873L798.12 70.0253Z"/>
<path fill="white" d="M806.711 75.1195L810.079 69.4085L810.447 69.6973C812.138 71.0244 813.655 72.5587 814.964 74.2643L806.711 75.1195Z"/>
<path fill="#F7E7D8" d="M379.028 194.51L343.947 98.534C345.97 96.4645 352.627 92.3841 371.648 85.501C394.297 77.3052 399.661 75.4756 401.902 77.5625L447.263 204.969C443.825 207.996 433.893 210.124 414.006 205.256C394.119 200.389 381.152 196.973 379.028 194.51Z"/>
<path fill="#DAD0C6" d="M385.721 192.135L354.767 104.621C354.56 104.035 353.919 102.741 353.716 97.4688C353.535 92.7768 357.208 98.9803 358.7 103.198L388.411 187.198C388.783 188.252 388.411 187.197 389.778 191.064C390.399 192.821 385.687 194.13 385.721 192.135Z"/>
<path fill="#DAD0C6" d="M385.721 192.135L354.767 104.621C354.56 104.035 353.919 102.741 353.716 97.4688C353.535 92.7768 357.208 98.9803 358.7 103.198L388.411 187.198C388.783 188.252 388.411 187.197 389.778 191.064C390.399 192.821 385.687 194.13 385.721 192.135Z"/>
<path fill="#DAD0C6" d="M400.038 197.959L369.084 110.444C368.877 109.858 368.236 108.564 368.033 103.292C367.852 98.6001 371.525 104.804 373.017 109.021L402.728 193.021C403.101 194.075 402.728 193.021 404.095 196.887C404.717 198.644 400.004 199.953 400.038 197.959Z"/>
<path fill="#DAD0C6" d="M435.729 202.099L404.775 114.585C404.567 113.999 403.927 112.705 403.724 107.433C403.543 102.741 407.216 108.944 408.707 113.162L438.418 197.162C438.791 198.216 438.419 197.161 439.786 201.028C440.407 202.785 435.695 204.094 435.729 202.099Z"/>
<path fill="#DAD0C6" d="M425.423 201.366L394.469 113.851C394.262 113.266 393.621 111.972 393.418 106.699C393.237 102.007 396.91 108.211 398.402 112.428L428.113 196.428C428.486 197.483 428.113 196.428 429.48 200.294C430.102 202.052 425.389 203.36 425.423 201.366Z"/>
<path fill="#DAD0C6" d="M413.422 199.511L382.468 111.997C382.261 111.411 381.621 110.117 381.417 104.845C381.236 100.153 384.909 106.356 386.401 110.574L416.112 194.574C416.485 195.628 416.112 194.573 417.479 198.44C418.101 200.197 413.388 201.506 413.422 199.511Z"/>
<path fill-opacity="0.61" fill="#DAD0C6" d="M388.889 145.287C403.985 141.229 415.071 135.038 420.865 133.716L422.321 137.835L364.367 158.807L361.938 151.942L359.268 144.39L373.375 135.414C374.973 139.224 381.056 147.392 388.889 145.287Z"/>
<path fill-opacity="0.1" fill="black" d="M388.889 145.287C403.985 141.229 415.071 135.038 420.865 133.716L422.321 137.835L364.367 158.807L361.938 151.942L359.268 144.39L373.375 135.414C374.973 139.224 381.056 147.392 388.889 145.287Z"/>
<path fill-opacity="0.1" fill="black" d="M403.134 157.941C418.23 153.883 421.627 153.573 427.421 152.25L428.877 156.369L370.923 177.341L368.494 170.476L365.824 162.925L379.931 153.948C381.529 157.758 395.301 160.047 403.134 157.941Z"/>
<path fill="#DAD0C6" d="M363.159 163.889C362.188 161.143 364.466 156.963 365.637 156.024L420.261 136.257C420.927 136.016 422.575 137.278 425.534 140.544C428.492 143.81 428.79 147.625 426.873 148.577C424.812 147 418.797 147.102 414.515 147.629C408.034 148.425 400.525 152.691 391.865 155.825C384.938 158.331 370.306 162.852 368.918 169.549C367.787 169.184 364.13 166.635 363.159 163.889Z"/>
<path fill="#DAD0C6" d="M356.847 146.04C355.875 143.294 358.154 139.114 359.324 138.174L413.948 118.408C414.615 118.167 416.263 119.428 419.222 122.694C422.18 125.96 422.478 129.776 420.56 130.728C418.5 129.15 412.485 129.253 408.202 129.779C401.721 130.576 394.213 134.841 385.553 137.975C378.625 140.482 363.994 145.002 362.605 151.699C361.474 151.334 357.818 148.786 356.847 146.04Z"/>
<path fill="#DAD0C6" d="M369.472 181.737C368.501 178.991 370.779 174.811 371.95 173.871L426.574 154.105C427.24 153.864 428.889 155.126 431.847 158.392C434.806 161.657 435.103 165.473 433.186 166.425C431.125 164.848 425.11 164.95 420.828 165.476C414.347 166.273 406.839 170.538 398.179 173.672C391.251 176.179 376.619 180.699 375.231 187.397C374.1 187.031 370.443 184.483 369.472 181.737Z"/>
<rect fill="#DAD0C6" transform="matrix(0.940329 -0.340267 0.333458 0.942765 345.671 105.946)" height="32.039" width="62.341"/>
<path fill-opacity="0.78" fill="#C7BBAE" d="M354.231 132.274L345.733 108.247L403.783 83.2954L408.153 95.652C394.144 99.9473 375.05 106.156 368.208 110.181C361.366 114.205 361.353 124.792 364.223 128.658L354.231 132.274Z"/>
<path fill="#F5EADF" d="M379.991 119.855C369.865 123.519 356.757 128.521 352.498 131.352C350.076 133.003 349.388 135.73 350.021 139.218C350.653 142.706 353.517 144.147 355.294 143.505C362.298 139.938 378.171 132.129 385.631 129.429C393.092 126.729 405.334 122.816 411.431 121.642C412.037 121.939 424 120.526 421.033 115.07C416.46 106.658 416.857 108.813 411.786 109.899C401.308 112.141 390.116 116.191 379.991 119.855Z"/>
<path fill="#E8DCCF" d="M368.334 129.658C358.209 133.322 361.567 125.396 357.308 128.228C349.315 131.12 349.196 135.19 349.829 138.678C350.461 142.166 353.675 144.864 355.451 144.222C362.455 140.655 378.38 132.992 385.841 130.292C393.302 127.593 405.628 123.648 411.725 122.475C412.331 122.772 422.804 120.078 421.327 115.903C419.142 109.724 414.361 115.326 409.782 116.983C399.702 120.631 378.46 125.994 368.334 129.658Z"/>
<path fill="#F5EADF" d="M369.307 89.65C359.182 93.314 346.073 98.3157 341.814 101.147C339.393 102.798 338.704 105.525 339.337 109.013C339.969 112.501 342.833 113.942 344.61 113.3C351.614 109.733 367.487 101.924 374.948 99.2241C382.408 96.5243 394.65 92.6108 400.747 91.437C401.353 91.734 413.316 90.3206 410.349 84.8649C405.776 76.4534 406.173 78.608 401.102 79.6934C390.624 81.9363 379.432 85.986 369.307 89.65Z"/>
<path fill="#E8DCCF" d="M357.512 100.987C347.005 104.789 350.593 96.8581 346.154 99.7399C337.859 102.742 337.674 106.788 338.273 110.245C338.872 113.702 341.805 115.089 343.649 114.422C350.933 110.766 367.437 102.753 375.179 99.951C382.922 97.1494 395.617 93.0656 401.928 91.8022C402.549 92.0878 413.881 90.6016 412.421 86.4747C410.261 80.3686 405.24 86.0122 400.488 87.7315C390.027 91.5169 368.02 97.1847 357.512 100.987Z"/>
<path fill="#CBBFB3" d="M334.273 81.0665L392.499 60.8782C396.292 59.5633 400.193 56.9283 406.151 59.2276C415.62 62.8813 418.438 68.5153 416.988 80.1339C416.586 83.3563 399.343 94.8785 395.707 81.3467L349.092 98.2797C355.079 109.306 336.742 112.581 332.693 111.673C329.222 110.894 324.296 104.565 322.658 99.7377C321.253 95.6002 322.226 85.2434 334.273 81.0665Z"/>
<path fill="#A49A8F" d="M341.91 99.5644C340.322 97.1343 336.618 97.3495 336.276 98.5059C336.235 96.9722 338.672 93.9413 340.877 94.518C343.361 95.1678 345.526 96.0719 345.97 100.419C346.275 103.406 341.248 105.482 339.613 105.816C340.319 104.27 343.548 102.069 341.91 99.5644Z"/>
<path fill="#A49A8F" d="M339.614 105.815C330.344 102.975 330.244 99.2945 331.066 96.5192C331.77 94.1395 334.977 90.5833 338.511 89.9531C335.989 89.9023 329.015 91.9957 328.581 95.8694C328.148 99.743 327.075 106.481 339.614 105.815Z"/>
<path fill="#A49A8F" d="M403.559 78.5153C402.922 75.6718 405.631 73.1011 406.692 73.6477C405.627 72.5588 401.783 72.2568 400.673 74.2736C399.422 76.546 398.573 78.7594 401.367 82.0853C403.286 84.3708 408.236 82.1137 409.603 81.1432C408.013 80.5944 404.215 81.4463 403.559 78.5153Z"/>
<path fill="#A49A8F" d="M409.603 81.1438C413.975 72.3768 411.419 69.7632 408.873 68.4512C406.689 67.3263 401.939 67.2268 399.051 69.3868C400.755 67.4995 407.062 63.8236 410.123 66.1788C413.185 68.5341 418.731 72.3964 409.603 81.1438Z"/>
<path fill="#A49A8F" d="M362.187 78.2889C353.128 81.5672 344.909 86.0899 338.934 89.0262L363.582 80.1073L392.226 69.742C387.986 70.5019 371.247 75.0106 362.187 78.2889Z"/>
<path fill-opacity="0.48" fill="#B7A798" d="M343.479 91.2529C341.83 89.991 338.571 89.4152 337.602 89.5078L354.255 83.4815C354.438 84.706 356.245 87.4076 364.677 87.4537C373.109 87.4998 382.726 83.2458 395.445 80.9663L349.057 98.5264C347.885 96.6277 345.127 92.5147 343.479 91.2529Z"/>
<path fill-opacity="0.55" fill="#CBBFB3" d="M390.736 175.101C383.361 178.501 377.169 183.779 375.686 185.842C376.463 189.401 378.073 194.12 380.784 195.914C383.495 197.709 396.945 201.335 403.176 202.212C403.086 196.266 405.072 183.008 413.735 177.538C422.398 172.068 432.103 172.038 435.873 172.707L432.935 165.891C422.699 162.16 398.111 171.702 390.736 175.101Z"/>
<path fill="#3D859E" d="M1216.98 68.5013C1285.48 99.5013 1208.15 6 1279.5 6V290.501H1C1 126.141 -20.3691 180.112 33.9814 146.302C46.2133 138.693 78.402 87.3319 108.981 86.3808C139.561 85.4296 196.709 129.946 237.481 126.141C278.254 122.336 389.288 179.404 399.481 187.964C409.675 196.525 507.402 197.283 517.333 167.803C540.981 97.6071 666.981 187.964 783.981 187.964C828.488 187.964 816.288 239.42 856.481 247.501C942.094 264.713 1008.25 158.006 1018.98 158.007C1024.32 158.007 1007.48 174.001 1089.98 187.964C1164.48 187.964 1108.48 132.001 1129.98 126.001C1157.58 127.24 1184.15 53.6437 1216.98 68.5013Z"/>
<defs>
<filter color-interpolation-filters="sRGB" filterUnits="userSpaceOnUse" height="55.6569" width="60.3652" y="117.007" x="857.772" id="filter0_b_0_1">
<feFlood result="BackgroundImageFix" flood-opacity="0"/>
<feGaussianBlur stdDeviation="3.58951" in="BackgroundImageFix"/>
<feComposite result="effect1_backgroundBlur_0_1" operator="in" in2="SourceAlpha"/>
<feBlend result="shape" in2="effect1_backgroundBlur_0_1" in="SourceGraphic" mode="normal"/>
</filter>
<linearGradient gradientUnits="userSpaceOnUse" y2="91.0736" x2="795.364" y1="59.5" x1="795.364" id="paint0_linear_0_1">
<stop stop-color="#FCEAEA"/>
<stop stop-color="#E07D7D" offset="1"/>
</linearGradient>
</defs>
</svg>