<svg width="1280" height="339" viewBox="0 0 1280 339" fill="none" xmlns="http://www.w3.org/2000/svg">
<path d="M53.2958 107.158C-15.5637 144.645 69.7266 0 -2 0L-1.99989 339H1287.9C1277.34 218.341 1342.54 190.606 1287.9 149.721C1275.6 140.519 1299.03 142.859 1268.29 141.709C1237.55 140.559 1175.55 234.911 1093.09 218.341C1010.63 201.771 920.915 162.169 917 176C899.905 236.393 839.609 282.168 829.625 246.519C805.852 161.632 691.354 251.229 621.464 194.257C551.574 137.284 482.87 258.504 442.466 268.276C442.466 268.276 312.712 201.455 229.779 218.341C179.341 218.341 129.39 65.7316 53.2958 107.158Z" fill="#3A7386"/>
</svg>
