<svg xmlns="http://www.w3.org/2000/svg" fill="none" viewBox="0 0 1401.782 389" style="max-height: 500px" width="1401.782" height="389">
<path fill="#35798F" d="M147.821 139.833C78.9631 177.253 71.7248 0 0 0V389.003H1401.5C1401.5 105.503 1422.73 221.178 1368.1 180.366C1355.8 171.181 1330.49 222.096 1299.75 220.948C1269.01 219.799 1281.37 165.026 1240.39 160.434C1199.4 155.841 1067.82 146.628 1063.91 160.434C1046.81 220.718 823.86 239.105 813.877 203.52C790.105 118.786 788.812 196.907 671.201 196.907C626.462 196.907 638.726 259.019 598.322 268.773C512.262 289.55 528.977 187.736 403.168 226.37C277.359 265.004 399.931 122.978 317 139.833C242.111 139.833 255.652 190.162 234.039 182.919C206.299 184.415 180.823 121.898 147.821 139.833Z"/>
</svg>