<svg width="1280" height="579" viewBox="0 0 1280 579" fill="none" xmlns="http://www.w3.org/2000/svg">
<g filter="url(#filter0_f_0_1)">
<path d="M-54.8134 304.982V166.351C18.4036 185.799 -143.125 -7.35631 -54.8134 8.9823C130.687 43.3018 112.195 113.482 300.695 92.9825C412.623 80.8101 493.311 82.7732 545.195 92.9825C855.195 153.982 1046.69 72.4237 1144.19 50.482C1286.19 18.5304 1344.02 75.6684 1370.19 82.9823L1286.19 304.982H-54.8134Z" fill="#C6A47C"/>
</g>
<g filter="url(#filter1_f_0_1)">
<path d="M-36.5981 377.222L-36.5981 132C3.16457 162.907 14 219.5 384.5 169C563.332 144.625 993.761 145.882 1200.5 169C1640 169 1399.2 299.038 1407 377.222H-36.5981Z" fill="url(#paint0_linear_0_1)"/>
</g>
<path d="M-83 454.686V235C-57.8193 267.601 60.6333 337.001 260.2 313.628C465.815 289.546 748.473 340.659 797 465L-83 454.686Z" fill="url(#paint1_linear_0_1)"/>
<path d="M1345 455V317C1319.83 349.693 1284.51 383.264 1098.01 344.821C895.434 303.065 503.333 349.257 423 436L1345 455Z" fill="url(#paint2_linear_0_1)"/>
<ellipse cx="48.1467" cy="20.5393" rx="48.1467" ry="20.5393" transform="matrix(0.999347 0.0361216 -0.0373071 0.999304 1134.02 346.727)" fill="#E2BF94"/>
<path d="M130.547 330.488C138.223 337.384 126.131 347.292 115.862 348.747C110.83 349.459 103.185 350.766 91.0705 353.256C49.8798 352.997 36.5699 331.633 38.9208 321.078C41.2717 310.522 71.308 313.791 105.101 321.078C119.44 324.17 126.895 327.208 130.547 330.488Z" fill="#E2BF94"/>
<path d="M106.119 338.063C101.976 337.832 101.554 334.614 101.861 333.034C98.516 341.538 85.5351 344.055 79.4628 344.25C76.8337 340.27 69.1862 340.378 65.6911 340.929C63.6969 334.94 59.4935 333.875 57.6411 334.092C58.7144 324.439 53.9623 318.978 51.4521 317.454C57.4849 311.91 56.3742 303.35 55.0647 299.763C62.2314 297.094 64.291 291.756 64.425 289.42C71.6021 291.097 78.9284 285.646 81.6943 282.711C88.8861 284.133 93.8024 282.958 95.3616 282.193C99.6654 279.62 104.537 284.513 106.434 287.281C114.793 286.467 115.296 291.287 114.503 293.799C120.688 294.654 123.31 298.761 123.847 300.708C132.158 305.259 131.151 311.124 129.608 313.488C133.776 317.809 133.993 329.494 133.581 334.796C132.341 338.305 129.429 339.251 128.128 339.285L106.119 338.063Z" fill="#86BEF1"/>
<path d="M133.458 325.606C133.464 319.855 130.861 314.279 129.603 313.57C127.943 319.868 110.567 324.654 102.545 326.764L101.984 330.886C113.822 332.822 128.547 328.208 133.458 325.606Z" fill="#C0E1FF"/>
<path d="M102.269 314.607C108.273 309.573 112.966 297.949 114.516 293.562C119.317 294.787 122.767 296.896 123.843 300.789C122.31 309.394 108.727 319.013 103.125 322.323C103.603 318.515 102.969 315.605 102.269 314.607Z" fill="#C0E1FF"/>
<path d="M98.0114 309.579C102.651 301.146 101.269 286.756 98.9719 281.517C102.819 282.369 105.244 285.379 106.732 287.752C110.177 295.611 103.762 307.449 100.797 311.97C100.797 311.97 100.02 310.804 99.2696 310.288C98.9416 310.062 98.0114 309.579 98.0114 309.579Z" fill="#C0E1FF"/>
<path d="M90.0475 306.9C88.9032 299.68 84.1857 286.447 81.6895 282.793C83.6132 283.22 86.8499 283.4 88.4683 283.489C93.4424 287.344 93.8759 302.427 93.5714 307.735C92.5795 306.913 90.587 306.93 90.0475 306.9Z" fill="#C0E1FF"/>
<path d="M81.5411 308.025C77.9348 302.969 68.3272 291.21 64.4205 289.502C67.0098 289.645 69.2755 289.771 70.9304 289.224C74.1854 289.085 86.1273 307.322 85.48 307.286C84.9621 307.257 83.196 307.478 81.5411 308.025Z" fill="#C0E1FF"/>
<path d="M64.4206 289.502C66.9552 290.601 69.3983 293.293 72.4523 296.657L62.5282 294.189C62.5282 294.189 63.2131 293.039 63.6271 292.014C64.0411 290.988 64.4206 289.502 64.4206 289.502Z" fill="#4B8AC3"/>
<path d="M101.515 333.416C109.308 306.245 92.8017 304.178 81.596 307.07C78.4887 306.897 74.9408 328.745 73.5826 339.213C71.899 338.374 69.6641 337.334 74.1934 339.886C78.7227 342.438 79.1529 343.995 79.4583 344.332C93.7144 344.868 100.109 337.172 101.515 333.416Z" fill="url(#paint3_linear_0_1)"/>
<path d="M55.0598 299.845C59.8052 302.026 65.1432 305.198 67.3358 306.598C63.8366 305.333 58.8206 304.096 56.0686 304.901C55.9293 302.941 55.7219 301.838 55.0598 299.845Z" fill="#4B8AC3"/>
<path d="M63.264 315.317C60.6746 315.173 55.3332 315.835 51.4474 317.536C53.64 318.936 54.5196 320.582 55.4879 322.019C57.4759 319.062 60.0012 317.479 63.264 315.317Z" fill="#4B8AC3"/>
<path d="M102.888 326.465C103.965 312.211 93.2512 307.66 89.4553 305.909C102.762 306.009 105.25 319.247 104.83 326.572C100.985 342.652 85.4634 345.305 79.4581 344.333C93.3133 342.802 100.452 334.955 102.888 326.465Z" fill="#4B8AC3"/>
<path d="M93.0862 327.517C97.012 321.345 90.9685 315.619 87.7221 313.481C91.8277 312.174 95.7556 318.719 96.041 321.291C96.6831 327.078 92.5311 331.533 90.1863 332.787C85.3939 334.821 81.8422 332.963 80.5127 331.611C87.4163 333.528 90.998 329.957 93.0862 327.517Z" fill="#4B8AC3"/>
<path d="M78.5806 320.095L77.756 319.89L77.7399 319.954L77.7339 320.02L78.5806 320.095ZM88.2489 327.022L88.4748 327.841L88.5405 327.822L88.6025 327.794L88.2489 327.022ZM87.4841 317.714L87.9551 317.005L87.9036 316.971L87.8476 316.945L87.4841 317.714ZM82.2828 323.403L81.5403 323.818L81.5465 323.829L81.5529 323.839L82.2828 323.403ZM83.8551 321.17C83.7321 321.624 83.9996 322.09 84.4527 322.212C84.9058 322.335 85.3728 322.066 85.4958 321.613L83.8551 321.17ZM90.9932 313.927C89.3627 313.154 86.6582 312.42 84.0353 312.997C82.7063 313.289 81.3965 313.919 80.2818 315.047C79.1693 316.174 78.2908 317.755 77.756 319.89L79.4051 320.3C79.881 318.401 80.6318 317.11 81.4903 316.241C82.3464 315.374 83.3493 314.887 84.3975 314.657C86.5291 314.188 88.8376 314.788 90.2629 315.463L90.9932 313.927ZM77.7339 320.02C77.5745 321.785 77.8854 324.37 79.493 326.226C81.1733 328.165 84.0484 329.068 88.4748 327.841L88.0231 326.203C84.0027 327.318 81.8953 326.4 80.7789 325.111C79.5898 323.739 79.2899 321.69 79.4272 320.17L77.7339 320.02ZM88.6025 327.794C90.1651 327.076 91.6054 325.447 91.8205 323.397C92.0428 321.278 90.939 318.986 87.9551 317.005L87.013 318.422C89.6552 320.176 90.2656 321.926 90.1296 323.222C89.9865 324.587 88.9962 325.744 87.8953 326.249L88.6025 327.794ZM87.8476 316.945C87.0531 316.57 86.0736 316.437 85.1256 316.511C84.1738 316.585 83.1779 316.875 82.3564 317.429C81.5223 317.991 80.8585 318.837 80.6602 319.976C80.4646 321.101 80.7431 322.389 81.5403 323.818L83.0254 322.987C82.3504 321.778 82.2268 320.888 82.3352 320.265C82.4409 319.657 82.7872 319.187 83.3053 318.837C83.836 318.48 84.5344 318.262 85.255 318.205C85.9794 318.149 86.6505 318.261 87.1205 318.483L87.8476 316.945ZM81.5529 323.839C82.3159 325.116 83.847 325.853 85.2894 325.576C86.0304 325.434 86.7231 325.026 87.2375 324.33C87.7455 323.644 88.0482 322.722 88.1135 321.583L86.4161 321.488C86.3645 322.388 86.1341 322.966 85.8713 323.321C85.6148 323.668 85.2988 323.844 84.9717 323.907C84.2778 324.04 83.4349 323.672 83.0128 322.966L81.5529 323.839ZM88.1135 321.583C88.1752 320.508 87.443 319.506 86.487 319.226C85.9648 319.073 85.3746 319.138 84.8641 319.516C84.3775 319.876 84.0496 320.454 83.8551 321.17L85.4958 321.613C85.6307 321.116 85.8009 320.935 85.8739 320.881C85.9229 320.845 85.9536 320.842 86.0061 320.857C86.082 320.879 86.1955 320.95 86.29 321.085C86.3819 321.216 86.4234 321.361 86.4161 321.488L88.1135 321.583Z" fill="#4B8AC3"/>
<path d="M83.8027 308.214C79.7036 307.487 70.3442 309.264 72.6274 320.31C73.0382 313.149 80.3974 308.025 83.8027 308.214Z" fill="#C0E1FF"/>
<path d="M57.6366 334.174C59.9971 331.264 64.2327 326.09 64.9654 323.898C65.0011 323.73 65.037 323.566 65.0732 323.405C65.0651 323.545 65.0281 323.711 64.9654 323.898C63.9975 328.459 63.2253 335.561 63.6402 337.064C62.4186 335.718 60.568 334.017 57.6366 334.174Z" fill="#4B8AC3"/>
<path d="M1231.68 356.77C1239.89 361.216 1240.11 367.509 1239.19 370.1L1207.77 360.184L1181.81 335.627C1185.82 333.134 1197.05 333.387 1202.16 333.825C1210.42 334.288 1217.44 341.627 1219.92 345.239C1222 350.61 1228.62 355.164 1231.68 356.77Z" fill="#F1C5C2"/>
<path d="M1227.7 358.024C1235.59 361.728 1237.06 365.947 1236.81 367.594L1207.4 362.773L1185.87 337.332C1190.15 336.486 1199.36 336.13 1203.59 337.274C1211.26 338.428 1216.11 344.917 1217.49 347.486C1219.73 353.41 1225.23 356.979 1227.7 358.024Z" fill="#FFDEDE"/>
<path d="M1219.99 360.097C1232.69 363.302 1239.9 368.688 1241.62 372.182C1241.49 374.349 1239.07 373.7 1237.88 373.104C1220.77 363.267 1201.22 370.217 1193.58 374.922C1182.1 379.35 1171.73 369.468 1167.98 363.973C1159.75 366.229 1154.66 360.735 1153.15 357.706C1144.9 357.061 1142.13 353.237 1141.78 351.405C1133.83 345.524 1133.28 343.228 1133.99 342.815C1134.45 341.211 1140.36 341.437 1143.26 341.75C1147.51 338.365 1152.32 338.937 1154.2 339.646C1158.9 334.837 1165.76 336.068 1168.61 337.284C1173.09 333.006 1179.82 333.157 1182.62 333.768C1191.05 335.211 1198.63 343.498 1201.32 348.632C1204.31 354.235 1214.12 358.183 1219.99 360.097Z" fill="#F1C5C2"/>
<path d="M1200.22 367.659C1203.63 366.038 1215.11 367.513 1221.59 368.179C1205.75 368.377 1201.13 371.786 1199.96 372.173C1192.58 376.289 1187.39 377.093 1182.96 375.523C1174.62 372.563 1168.78 366.121 1167.99 363.812C1174.83 353.868 1171.09 342.093 1168.6 337.349C1168.86 336.91 1169.09 336.867 1169.57 336.497C1169.95 336.209 1170.06 336.072 1170.77 335.659C1173.84 336.737 1174.73 348.186 1175.24 353.801C1176.48 361.117 1181.53 365.78 1183.9 367.196C1188.86 370.735 1196.84 368.979 1200.22 367.659Z" fill="#CC8B86"/>
<path d="M1158.31 356.022C1161.7 361.104 1166.71 362.004 1168.8 361.819L1169.51 361.406C1169.26 362.479 1168.7 363.474 1168.45 363.838C1166.15 365.339 1161.51 364.354 1159.49 363.561C1156.42 362.483 1153.75 359.239 1153.15 357.77C1156.22 349.246 1155.12 342.254 1154.2 339.711C1154.2 339.711 1154.45 339.273 1154.69 339.06C1154.94 338.847 1155.65 338.434 1155.65 338.434C1157.55 340.534 1157.39 346.76 1157.09 349.385C1156.7 352.806 1157.75 355.235 1158.31 356.022Z" fill="#CC8B86"/>
<path d="M1144.85 350.057C1144.84 353.318 1151.07 356.596 1153.85 357.583C1150.12 358.46 1146.31 356.556 1145.21 355.739C1142.75 353.789 1141.96 352.31 1141.78 351.47C1142.93 350.629 1143.17 344.528 1143.26 341.815C1143.26 341.588 1143.7 341.381 1143.98 341.176C1144.26 340.971 1144.42 340.968 1144.7 340.763C1144.26 345.087 1144.61 348.836 1144.85 350.057Z" fill="#CC8B86"/>
<path d="M1136.88 344.627C1136.78 346.253 1140.39 350.26 1142 351.483C1140.54 351.4 1137.15 347.813 1135.84 346.607C1133.56 344.668 1133.72 343.544 1133.74 343.093C1134.3 341.538 1136.67 341.596 1137.98 341.518C1137.01 342.37 1136.76 343.941 1136.88 344.627Z" fill="#CC8B86"/>
<path d="M1218.3 361.426C1227.4 363.295 1234.77 367.182 1236.24 369.68C1231.86 365.81 1219.74 364.451 1215.61 364.219C1210.37 363.246 1210.51 363.48 1209.02 362.717C1207.81 361.381 1209.15 359.251 1209.74 358.228C1212.4 359.963 1212.62 360.258 1218.3 361.426Z" fill="#FFE2E0"/>
<path d="M1197.36 358.077C1203.59 361.688 1203.32 357.053 1202.41 354.284C1199.58 349.053 1192.68 343.471 1189.58 341.335C1183.51 338.095 1183.39 342.195 1184.09 344.65C1185.55 348.174 1193.54 355.07 1197.36 358.077Z" fill="#FFE2E0"/>
<path d="M1168.03 343.269C1170.58 350.116 1167.25 348.736 1165.27 347.191L1159.77 342.806C1158.09 339.994 1160.76 339.011 1162.3 338.871C1164.17 338.432 1166.9 341.62 1168.03 343.269Z" fill="#FFE2E0"/>
<path d="M1150.93 348.424C1155.97 350.338 1155.02 346.616 1153.92 344.515C1153.44 343.507 1151.84 341.41 1149.28 341.085C1146.72 340.76 1146.13 342.493 1146.16 343.401C1146.25 345.036 1149.38 347.431 1150.93 348.424Z" fill="#FFE2E0"/>
<path d="M1139.96 343.053C1141.98 343.166 1142.1 344.532 1141.91 345.2C1140.96 345.751 1138.94 346.483 1138.47 345.007C1138 343.532 1139.27 343.09 1139.96 343.053Z" fill="#FFE2E0"/>
<path d="M-37.3871 393.483C-28.9622 388.279 13.4822 383.224 30.3034 384.561C46.1418 385.819 73.1175 400.679 90.3676 407.025C101.165 408.146 108.266 408.85 103.456 409.743C100.625 410.269 96.0183 409.104 90.3676 407.025C75.4177 405.473 53.3799 403.124 46.0519 398.371C33.4311 390.185 8.10818 392.84 -4.89047 393.023L-37.3871 393.483Z" fill="#E2BF94"/>
<path d="M350.992 420.088C448.174 407.764 584.7 419.342 672.492 427.96C679.489 428.15 823.492 420.088 847.492 420.088C887.093 420.088 1279.99 430.671 1359.99 465.35C1481.41 517.986 1347.71 514.066 1292.71 531.275C1271.72 537.843 1224.01 559.866 1169.99 559.319C1082.46 558.431 976.705 534.44 928.992 559.319C851.835 599.55 713.155 565.799 690.492 559.319C596.492 532.439 376.786 579.865 322.5 571.5C268.214 563.136 161.615 527.389 123.492 531.275C-14.5083 545.344 -172.47 571.697 -61.5079 476.174C6.66313 417.488 229.514 435.492 350.992 420.088Z" fill="url(#paint4_linear_0_1)"/>
<path d="M32.6843 473.657C-9.78975 487.189 100.472 503.509 273.03 515.532C131.451 500.752 206.645 470.098 206.645 470.098C206.645 470.098 224.648 459.341 327.145 460.598C219.495 456.926 75.1583 460.125 32.6843 473.657Z" fill="white" fill-opacity="0.21"/>
<path d="M1242.36 466.43C1284.78 477.367 1174.47 491.068 1001.89 501.451C1143.51 488.911 1115.41 468.152 1057.35 464.484C990.32 460.248 956.498 453.868 854.003 455.22C961.659 451.876 1199.93 455.494 1242.36 466.43Z" fill="white" fill-opacity="0.21"/>
<defs>
<filter id="filter0_f_0_1" x="-90" y="0" width="1468.19" height="312.982" filterUnits="userSpaceOnUse" color-interpolation-filters="sRGB">
<feFlood flood-opacity="0" result="BackgroundImageFix"/>
<feBlend mode="normal" in="SourceGraphic" in2="BackgroundImageFix" result="shape"/>
<feGaussianBlur stdDeviation="4" result="effect1_foregroundBlur_0_1"/>
</filter>
<filter id="filter1_f_0_1" x="-42.5981" y="126" width="1514.49" height="257.222" filterUnits="userSpaceOnUse" color-interpolation-filters="sRGB">
<feFlood flood-opacity="0" result="BackgroundImageFix"/>
<feBlend mode="normal" in="SourceGraphic" in2="BackgroundImageFix" result="shape"/>
<feGaussianBlur stdDeviation="3" result="effect1_foregroundBlur_0_1"/>
</filter>
<linearGradient id="paint0_linear_0_1" x1="743.674" y1="44.7536" x2="730.153" y2="328.268" gradientUnits="userSpaceOnUse">
<stop stop-color="#FFE3C1"/>
<stop offset="1" stop-color="#FFC278"/>
</linearGradient>
<linearGradient id="paint1_linear_0_1" x1="219.169" y1="318.058" x2="271.445" y2="508.247" gradientUnits="userSpaceOnUse">
<stop stop-color="#FFE3C1"/>
<stop offset="1" stop-color="#FFC278"/>
</linearGradient>
<linearGradient id="paint2_linear_0_1" x1="860" y1="333.264" x2="1233.92" y2="458.7" gradientUnits="userSpaceOnUse">
<stop stop-color="#FFDFB7"/>
<stop offset="1" stop-color="#FFC885"/>
</linearGradient>
<linearGradient id="paint3_linear_0_1" x1="90.4004" y1="334.716" x2="102.413" y2="334.745" gradientUnits="userSpaceOnUse">
<stop stop-color="#86BEF1"/>
<stop offset="1" stop-color="#68A8E2"/>
</linearGradient>
<linearGradient id="paint4_linear_0_1" x1="655.492" y1="505.201" x2="655.492" y2="548.003" gradientUnits="userSpaceOnUse">
<stop stop-color="#55B4D7"/>
<stop offset="1" stop-color="#55B4D7" stop-opacity="0.2"/>
</linearGradient>
</defs>
</svg>
