<svg xmlns="http://www.w3.org/2000/svg" fill="none" viewBox="0 19.214876033057852 1280 412.4793388429752" style="max-height: 500px" width="1280" height="412.4793388429752">
<g filter="url(#filter0_f_0_1)">
<path fill="#C6A47C" d="M-54.8134 304.982V166.351C18.4036 185.799 -143.125 -7.35631 -54.8134 8.9823C130.687 43.3018 112.195 113.482 300.695 92.9825C412.623 80.8101 493.311 82.7732 545.195 92.9825C855.195 153.982 1046.69 72.4237 1144.19 50.482C1286.19 18.5304 1344.02 75.6684 1370.19 82.9823L1286.19 304.982H-54.8134Z"/>
</g>
<g filter="url(#filter1_f_0_1)">
<path fill="url(#paint0_linear_0_1)" d="M-36.5977 377.222L-36.5976 132C3.16506 162.907 14.0005 219.5 384.5 169C563.332 144.625 993.762 145.882 1200.5 169C1640 169 1399.2 299.038 1407 377.222H-36.5977Z"/>
</g>
<path fill="url(#paint1_linear_0_1)" d="M-83 454.686V235C-57.8193 267.601 60.6333 337.001 260.2 313.628C465.815 289.546 748.473 340.659 797 465L-83 454.686Z"/>
<path fill="url(#paint2_linear_0_1)" d="M1345 455V317C1319.83 349.693 1284.51 383.264 1098.01 344.821C895.434 303.065 503.333 349.257 423 436L1345 455Z"/>
<ellipse fill="#E2BF94" transform="matrix(0.999347 0.0361216 -0.0373071 0.999304 1134.02 346.728)" ry="20.5393" rx="48.1467" cy="20.5393" cx="48.1467"/>
<path fill="#E2BF94" d="M130.546 330.488C138.223 337.384 126.13 347.292 115.861 348.747C110.829 349.459 103.185 350.766 91.07 353.256C49.8793 352.997 36.5695 331.633 38.9204 321.078C41.2713 310.522 71.3075 313.791 105.101 321.078C119.439 324.17 126.894 327.208 130.546 330.488Z"/>
<path fill="#86BEF1" d="M106.119 338.063C101.976 337.832 101.554 334.614 101.861 333.034C98.516 341.538 85.5351 344.055 79.4628 344.25C76.8337 340.27 69.1862 340.378 65.6911 340.929C63.6969 334.94 59.4935 333.875 57.6411 334.092C58.7144 324.439 53.9623 318.978 51.4521 317.454C57.4849 311.91 56.3742 303.35 55.0647 299.763C62.2314 297.094 64.291 291.756 64.425 289.42C71.6021 291.097 78.9284 285.646 81.6943 282.711C88.8861 284.133 93.8024 282.958 95.3616 282.193C99.6654 279.62 104.537 284.513 106.434 287.281C114.793 286.467 115.296 291.287 114.503 293.799C120.688 294.654 123.31 298.761 123.847 300.708C132.158 305.259 131.151 311.124 129.608 313.488C133.776 317.809 133.993 329.494 133.581 334.796C132.341 338.305 129.429 339.251 128.128 339.285L106.119 338.063Z"/>
<path fill="#C0E1FF" d="M133.458 325.605C133.463 319.855 130.861 314.279 129.603 313.57C127.942 319.868 110.567 324.653 102.545 326.764L101.984 330.886C113.822 332.821 128.546 328.208 133.458 325.605Z"/>
<path fill="#C0E1FF" d="M102.269 314.608C108.273 309.574 112.966 297.949 114.517 293.562C119.317 294.788 122.768 296.896 123.843 300.79C122.31 309.395 108.727 319.013 103.125 322.323C103.604 318.516 102.97 315.605 102.269 314.608Z"/>
<path fill="#C0E1FF" d="M98.0112 309.579C102.651 301.146 101.269 286.756 98.9717 281.517C102.819 282.369 105.244 285.379 106.732 287.752C110.177 295.611 103.762 307.449 100.796 311.97C100.796 311.97 100.02 310.804 99.2693 310.288C98.9413 310.062 98.0112 309.579 98.0112 309.579Z"/>
<path fill="#C0E1FF" d="M90.0475 306.9C88.9032 299.68 84.1857 286.446 81.6895 282.793C83.6132 283.219 86.8499 283.399 88.4683 283.489C93.4424 287.344 93.8759 302.427 93.5714 307.734C92.5795 306.913 90.587 306.93 90.0475 306.9Z"/>
<path fill="#C0E1FF" d="M81.5409 308.025C77.9345 302.969 68.3269 291.21 64.4202 289.502C67.0096 289.645 69.2753 289.771 70.9302 289.224C74.1852 289.085 86.1271 307.322 85.4797 307.286C84.9619 307.257 83.1958 307.478 81.5409 308.025Z"/>
<path fill="#4B8AC3" d="M64.4211 289.502C66.9556 290.601 69.3988 293.293 72.4528 296.657L62.5287 294.189C62.5287 294.189 63.2136 293.039 63.6276 292.014C64.0416 290.988 64.4211 289.502 64.4211 289.502Z"/>
<path fill="url(#paint3_linear_0_1)" d="M101.514 333.416C109.307 306.245 92.8012 304.178 81.5955 307.07C78.4883 306.897 74.9403 328.745 73.5821 339.213C71.8985 338.374 69.6636 337.334 74.1929 339.886C78.7222 342.438 79.1524 343.995 79.4578 344.332C93.7139 344.868 100.108 337.172 101.514 333.416Z"/>
<path fill="#4B8AC3" d="M55.0596 299.845C59.805 302.025 65.143 305.197 67.3356 306.597C63.8364 305.332 58.8204 304.095 56.0683 304.901C55.9291 302.94 55.7217 301.837 55.0596 299.845Z"/>
<path fill="#4B8AC3" d="M63.2635 315.317C60.6741 315.173 55.3327 315.835 51.4469 317.536C53.6395 318.936 54.5191 320.582 55.4875 322.019C57.4754 319.062 60.0007 317.479 63.2635 315.317Z"/>
<path fill="#4B8AC3" d="M102.888 326.465C103.965 312.211 93.2512 307.66 89.4553 305.909C102.762 306.009 105.25 319.247 104.83 326.572C100.985 342.652 85.4634 345.305 79.4581 344.333C93.3133 342.802 100.452 334.955 102.888 326.465Z"/>
<path fill="#4B8AC3" d="M93.0862 327.516C97.012 321.345 90.9685 315.619 87.7221 313.48C91.8277 312.173 95.7556 318.719 96.041 321.29C96.6831 327.077 92.5311 331.532 90.1863 332.787C85.3939 334.821 81.8422 332.962 80.5127 331.61C87.4163 333.527 90.998 329.956 93.0862 327.516Z"/>
<path fill="#4B8AC3" d="M78.5806 320.094L77.756 319.889L77.7399 319.953L77.7339 320.019L78.5806 320.094ZM88.2489 327.021L88.4748 327.84L88.5405 327.822L88.6025 327.793L88.2489 327.021ZM87.4841 317.713L87.9551 317.005L87.9036 316.971L87.8476 316.944L87.4841 317.713ZM82.2828 323.402L81.5403 323.817L81.5465 323.828L81.5529 323.839L82.2828 323.402ZM83.8551 321.17C83.7321 321.623 83.9996 322.09 84.4527 322.212C84.9058 322.334 85.3728 322.066 85.4958 321.613L83.8551 321.17ZM90.9932 313.926C89.3627 313.154 86.6582 312.42 84.0353 312.996C82.7063 313.288 81.3965 313.919 80.2818 315.047C79.1693 316.173 78.2908 317.755 77.756 319.889L79.4051 320.299C79.881 318.4 80.6318 317.109 81.4903 316.24C82.3464 315.374 83.3493 314.887 84.3975 314.656C86.5291 314.188 88.8376 314.787 90.2629 315.462L90.9932 313.926ZM77.7339 320.019C77.5745 321.784 77.8854 324.37 79.493 326.225C81.1733 328.164 84.0484 329.068 88.4748 327.84L88.0231 326.202C84.0027 327.317 81.8953 326.399 80.7789 325.111C79.5898 323.738 79.2899 321.689 79.4272 320.169L77.7339 320.019ZM88.6025 327.793C90.1651 327.076 91.6054 325.446 91.8205 323.396C92.0428 321.278 90.939 318.985 87.9551 317.005L87.013 318.422C89.6552 320.175 90.2656 321.926 90.1296 323.222C89.9865 324.586 88.9962 325.743 87.8953 326.249L88.6025 327.793ZM87.8476 316.944C87.0531 316.57 86.0736 316.436 85.1256 316.51C84.1738 316.585 83.1779 316.874 82.3564 317.428C81.5223 317.99 80.8585 318.836 80.6602 319.976C80.4646 321.1 80.7431 322.389 81.5403 323.817L83.0254 322.987C82.3504 321.777 82.2268 320.887 82.3352 320.264C82.4409 319.656 82.7872 319.186 83.3053 318.837C83.836 318.479 84.5344 318.261 85.255 318.205C85.9794 318.148 86.6505 318.261 87.1205 318.482L87.8476 316.944ZM81.5529 323.839C82.3159 325.115 83.847 325.852 85.2894 325.575C86.0304 325.433 86.7231 325.025 87.2375 324.33C87.7455 323.643 88.0482 322.721 88.1135 321.582L86.4161 321.488C86.3645 322.387 86.1341 322.965 85.8713 323.321C85.6148 323.668 85.2988 323.843 84.9717 323.906C84.2778 324.039 83.4349 323.671 83.0128 322.965L81.5529 323.839ZM88.1135 321.582C88.1752 320.507 87.443 319.505 86.487 319.225C85.9648 319.072 85.3746 319.137 84.8641 319.515C84.3775 319.875 84.0496 320.454 83.8551 321.17L85.4958 321.613C85.6307 321.116 85.8009 320.935 85.8739 320.881C85.9229 320.845 85.9536 320.841 86.0061 320.857C86.082 320.879 86.1955 320.95 86.29 321.084C86.3819 321.215 86.4234 321.361 86.4161 321.488L88.1135 321.582Z"/>
<path fill="#C0E1FF" d="M83.8029 308.214C79.7038 307.488 70.3445 309.264 72.6276 320.31C73.0384 313.149 80.3976 308.025 83.8029 308.214Z"/>
<path fill="#4B8AC3" d="M57.6369 334.174C59.9974 331.264 64.2329 326.09 64.9657 323.898C65.0013 323.73 65.0373 323.566 65.0734 323.405C65.0654 323.545 65.0283 323.711 64.9657 323.898C63.9978 328.459 63.2256 335.561 63.6405 337.064C62.4189 335.718 60.5682 334.017 57.6369 334.174Z"/>
<path fill="#F1C5C2" d="M1231.68 356.77C1239.89 361.216 1240.11 367.509 1239.19 370.1L1207.77 360.184L1181.81 335.627C1185.82 333.134 1197.05 333.387 1202.16 333.825C1210.42 334.288 1217.44 341.627 1219.92 345.239C1222 350.61 1228.62 355.164 1231.68 356.77Z"/>
<path fill="#FFDEDE" d="M1227.7 358.025C1235.59 361.728 1237.06 365.948 1236.81 367.595L1207.4 362.774L1185.87 337.333C1190.15 336.486 1199.36 336.131 1203.59 337.274C1211.26 338.429 1216.11 344.918 1217.49 347.487C1219.73 353.41 1225.23 356.98 1227.7 358.025Z"/>
<path fill="#F1C5C2" d="M1219.99 360.098C1232.7 363.302 1239.9 368.689 1241.62 372.182C1241.49 374.349 1239.07 373.7 1237.88 373.105C1220.77 363.267 1201.22 370.217 1193.58 374.922C1182.1 379.35 1171.73 369.468 1167.98 363.973C1159.75 366.229 1154.66 360.735 1153.15 357.706C1144.9 357.062 1142.13 353.238 1141.78 351.406C1133.83 345.525 1133.28 343.229 1133.99 342.816C1134.45 341.211 1140.36 341.437 1143.26 341.751C1147.51 338.365 1152.32 338.938 1154.2 339.647C1158.9 334.838 1165.76 336.068 1168.61 337.285C1173.09 333.007 1179.82 333.158 1182.62 333.768C1191.05 335.212 1198.63 343.499 1201.32 348.633C1204.31 354.236 1214.12 358.183 1219.99 360.098Z"/>
<path fill="#CC8B86" d="M1200.22 367.659C1203.63 366.039 1215.11 367.513 1221.6 368.179C1205.75 368.377 1201.13 371.787 1199.96 372.174C1192.59 376.29 1187.39 377.093 1182.96 375.523C1174.62 372.564 1168.78 366.121 1167.99 363.812C1174.83 353.869 1171.09 342.094 1168.6 337.349C1168.86 336.911 1169.09 336.867 1169.57 336.498C1169.95 336.209 1170.06 336.072 1170.77 335.659C1173.84 336.737 1174.73 348.186 1175.25 353.802C1176.48 361.118 1181.53 365.78 1183.91 367.197C1188.86 370.736 1196.84 368.98 1200.22 367.659Z"/>
<path fill="#CC8B86" d="M1158.31 356.021C1161.7 361.103 1166.71 362.004 1168.8 361.818L1169.51 361.406C1169.26 362.479 1168.7 363.474 1168.45 363.837C1166.15 365.339 1161.51 364.354 1159.49 363.561C1156.42 362.483 1153.75 359.238 1153.15 357.77C1156.22 349.246 1155.12 342.254 1154.2 339.711C1154.2 339.711 1154.45 339.272 1154.69 339.059C1154.94 338.846 1155.65 338.434 1155.65 338.434C1157.55 340.533 1157.39 346.76 1157.09 349.385C1156.7 352.806 1157.75 355.235 1158.31 356.021Z"/>
<path fill="#CC8B86" d="M1144.85 350.057C1144.84 353.318 1151.07 356.596 1153.85 357.582C1150.12 358.46 1146.31 356.555 1145.21 355.739C1142.75 353.789 1141.96 352.31 1141.78 351.469C1142.93 350.628 1143.18 344.527 1143.26 341.814C1143.26 341.588 1143.7 341.381 1143.98 341.175C1144.26 340.97 1144.42 340.968 1144.7 340.763C1144.26 345.087 1144.61 348.835 1144.85 350.057Z"/>
<path fill="#CC8B86" d="M1136.88 344.628C1136.78 346.253 1140.39 350.26 1142 351.483C1140.54 351.401 1137.15 347.814 1135.84 346.608C1133.56 344.668 1133.72 343.545 1133.74 343.093C1134.3 341.539 1136.67 341.596 1137.98 341.519C1137.01 342.37 1136.76 343.942 1136.88 344.628Z"/>
<path fill="#FFE2E0" d="M1218.3 361.426C1227.4 363.295 1234.77 367.182 1236.24 369.68C1231.86 365.81 1219.74 364.451 1215.61 364.219C1210.37 363.246 1210.51 363.48 1209.02 362.717C1207.81 361.381 1209.15 359.251 1209.74 358.228C1212.4 359.963 1212.62 360.258 1218.3 361.426Z"/>
<path fill="#FFE2E0" d="M1197.36 358.077C1203.59 361.688 1203.32 357.053 1202.41 354.284C1199.58 349.052 1192.68 343.471 1189.58 341.334C1183.51 338.095 1183.39 342.195 1184.09 344.65C1185.55 348.174 1193.54 355.069 1197.36 358.077Z"/>
<path fill="#FFE2E0" d="M1168.03 343.269C1170.58 350.116 1167.25 348.736 1165.27 347.191L1159.77 342.806C1158.09 339.994 1160.76 339.011 1162.3 338.871C1164.17 338.432 1166.9 341.62 1168.03 343.269Z"/>
<path fill="#FFE2E0" d="M1150.93 348.424C1155.98 350.338 1155.02 346.616 1153.92 344.515C1153.44 343.507 1151.84 341.41 1149.28 341.085C1146.73 340.76 1146.13 342.493 1146.16 343.401C1146.25 345.036 1149.38 347.431 1150.93 348.424Z"/>
<path fill="#FFE2E0" d="M1139.96 343.053C1141.98 343.166 1142.1 344.532 1141.91 345.2C1140.96 345.751 1138.94 346.483 1138.47 345.007C1138 343.532 1139.27 343.09 1139.96 343.053Z"/>
<path fill="#E2BF94" d="M-37.3869 393.483C-28.962 388.279 13.4824 383.224 30.3037 384.561C46.142 385.819 73.1177 400.679 90.3679 407.025C101.166 408.146 108.266 408.85 103.456 409.743C100.626 410.269 96.0185 409.104 90.3679 407.025C75.418 405.473 53.3802 403.124 46.0522 398.371C33.4314 390.185 8.10843 392.84 -4.89023 393.023L-37.3869 393.483Z"/>
<defs>
<filter color-interpolation-filters="sRGB" filterUnits="userSpaceOnUse" height="312.982" width="1468.19" y="0" x="-90" id="filter0_f_0_1">
<feFlood result="BackgroundImageFix" flood-opacity="0"/>
<feBlend result="shape" in2="BackgroundImageFix" in="SourceGraphic" mode="normal"/>
<feGaussianBlur result="effect1_foregroundBlur_0_1" stdDeviation="4"/>
</filter>
<filter color-interpolation-filters="sRGB" filterUnits="userSpaceOnUse" height="257.222" width="1514.49" y="126" x="-42.5977" id="filter1_f_0_1">
<feFlood result="BackgroundImageFix" flood-opacity="0"/>
<feBlend result="shape" in2="BackgroundImageFix" in="SourceGraphic" mode="normal"/>
<feGaussianBlur result="effect1_foregroundBlur_0_1" stdDeviation="3"/>
</filter>
<linearGradient gradientUnits="userSpaceOnUse" y2="328.268" x2="730.154" y1="44.7536" x1="743.675" id="paint0_linear_0_1">
<stop stop-color="#FFE3C1"/>
<stop stop-color="#FFC278" offset="1"/>
</linearGradient>
<linearGradient gradientUnits="userSpaceOnUse" y2="508.247" x2="271.445" y1="318.058" x1="219.169" id="paint1_linear_0_1">
<stop stop-color="#FFE3C1"/>
<stop stop-color="#FFC278" offset="1"/>
</linearGradient>
<linearGradient gradientUnits="userSpaceOnUse" y2="458.7" x2="1233.92" y1="333.264" x1="860" id="paint2_linear_0_1">
<stop stop-color="#FFDFB7"/>
<stop stop-color="#FFC885" offset="1"/>
</linearGradient>
<linearGradient gradientUnits="userSpaceOnUse" y2="334.745" x2="102.412" y1="334.716" x1="90.3999" id="paint3_linear_0_1">
<stop stop-color="#86BEF1"/>
<stop stop-color="#68A8E2" offset="1"/>
</linearGradient>
</defs>
</svg>