<svg width="138" height="202" viewBox="0 0 138 202" fill="none" xmlns="http://www.w3.org/2000/svg">
<path d="M58.9902 190.574C58.9902 187.979 35.3164 185.254 32.6436 191.872C33.5981 196.023 60.3266 198.618 58.9902 190.574Z" fill="#666666"/>
<path d="M106.079 194.74C106.079 192.14 89.8765 189.409 88.0471 196.04C88.7005 200.201 106.994 202.801 106.079 194.74Z" fill="#666666"/>
<path d="M29.019 175.87C44.1766 181.804 47.6611 185.015 47.8353 187.182L52.8007 189.522L49.6647 183.671C49.3511 177.43 44.7428 175.87 42.4779 175.87C41.2235 172.334 37.5996 169.889 35.9444 169.109C29.4632 165.781 28.627 163.475 29.019 162.738C30.9006 154.729 28.4292 153.59 26.6669 152.077C16.7361 143.547 16.7796 135.868 18.0428 133.094C20.1335 123.213 18.9139 115.975 18.0428 113.591C15.3249 109.535 10.7253 92.3115 8.76528 84.207C3.43398 76.6139 -1.31723 84.8104 1.18647 90.1878C9.75836 108.598 8.67817 121.089 7.06658 125.033C3.93052 133.042 2.97228 140.678 2.88517 143.495C0.480855 156.081 19.3059 170.323 29.019 175.87Z" fill="url(#paint0_linear_549_421)"/>
<path d="M57.6012 194.898L62.8279 194.898C69.9363 195.938 68.5774 192.211 67.0093 190.217C61.5735 183.352 66.2253 178.602 69.2307 177.085C74.3529 172.613 71.365 165.427 69.2307 162.393C62.7495 156.36 66.5302 148.785 69.2307 145.751C74.3529 135.349 69.8841 128.242 67.0093 125.988C60.2146 118.499 62.523 111.513 64.5266 108.956C68.0808 100.738 66.0075 95.5637 64.5266 94.0034C60.0316 89.3228 61.1728 82.7785 62.3053 80.0914C64.0824 73.6425 64.5266 64.7493 64.5266 61.1087C66.3037 53.7237 58.9079 37.4887 54.9878 30.2943C52.688 19.3728 58.9079 12.0484 62.3053 9.75139C66.8003 4.23861 62.6973 0.95347 60.0839 7.49141e-08C51.0939 2.0803 42.5742 13.782 39.4382 19.3728C33.4797 30.3983 38.6106 47.3701 41.9209 54.4778C47.0431 63.8391 46.3201 77.8811 45.3183 83.732C39.0462 95.0696 41.9209 112.119 44.1423 119.227C52.4005 137.43 51.3291 144.494 49.761 145.751C44.6388 156.88 45.7103 166.51 46.8863 169.934C47.9317 172.535 50.8064 180.206 49.761 182.676C48.9247 184.652 54.6393 191.647 57.6012 194.898Z" fill="url(#paint1_linear_549_421)"/>
<path d="M112.469 190.045C103.688 189.733 99.6634 193.035 98.7487 194.725C95.8217 195.766 84.9849 194.292 79.9323 193.425C71.4649 193.321 71.5259 189.308 72.6148 187.314C81.3958 183.05 83.4168 174.876 83.3297 171.322C77.5803 165.809 75.7073 160.271 75.4896 158.19C75.4896 154.55 80.6292 145.708 79.9323 142.978L74.3136 131.406C68.0414 115.388 76.9269 104.969 82.1537 101.762C89.9938 98.0176 90.9956 91.3607 90.5165 88.5003C76.7179 66.6572 81.0212 50.1014 84.8978 44.554C90.8563 35.9207 95.3077 40.9568 96.7886 44.554C96.475 49.1306 97.9647 56.169 98.7487 59.116C101.78 63.1726 101.231 68.8674 100.578 71.2078C98.5919 75.3684 99.7505 79.1823 100.578 80.5691C105.073 87.7461 106.197 95.868 106.197 99.0318C109.228 106.313 102.495 114.374 98.7487 117.494C93.8355 125.296 96.7015 134.44 98.7487 138.037C101.78 142.094 101.231 155.33 100.578 161.441C100.578 164.977 92.825 174.096 88.9485 178.213C86.7532 184.87 92.041 187.054 94.9593 187.314C109.072 185.13 112.512 174.789 112.469 169.892C110.692 162.403 115.126 158.97 117.565 158.19C121.642 155.07 120.222 146.749 119.002 142.978C111.894 133.513 113.166 127.159 114.69 125.165C118.454 121.109 119.133 118.361 119.002 117.494C115.135 108.861 117.391 102.456 119.002 100.332C121.407 93.363 123.227 90.4939 123.837 89.9304C130.214 89.2023 131.024 102.369 130.632 109.043C127.078 119.237 130.371 126.119 132.461 128.286C137.897 134.007 137.427 142.111 136.512 145.448C134.944 148.465 133.158 158.58 132.461 163.261C133.925 167.942 131.852 172.492 130.632 174.182C123.628 176.471 121.267 180.943 120.962 182.894C120.962 189.551 115.3 190.435 112.469 190.045Z" fill="url(#paint2_linear_549_421)"/>
<path d="M8.78725 127.677C16.941 111.971 6.72757 92.5718 0.891019 84.6406C-1.93143 90.9855 2.6458 97.5558 4.99785 100.243C7.8203 111.684 7.30633 119.399 6.69654 121.826C-0.934529 139.508 2.06704 151.123 4.68042 153.29C1.6489 148.298 6.26098 133.181 8.78725 127.677Z" fill="#202B14"/>
<path d="M10.1688 123.648C10.1237 123.984 10.0775 124.336 10.031 124.703C9.38325 131.843 12.8042 148.107 15.4103 155.763C7.69435 149.681 8.95427 133.196 10.031 124.703C10.0653 124.325 10.111 123.973 10.1688 123.648Z" fill="#202B14"/>
<path d="M32.9563 175.525C29.4021 171.468 17.0504 165.21 11.2139 161.873C13.5659 165.644 22.285 172.621 28.5135 176.825C31.9632 177.865 46.6687 187.14 52.6359 189.697C52.0087 183.976 47.5399 176.565 45.5798 176.825L47.3299 181.896C46.18 179.816 37.2683 176.782 32.9563 175.525Z" fill="#202B14"/>
<path d="M60.4865 76.0613C62.4727 74.3971 63.4483 67.5234 64.1452 64.0996C65.0599 67.09 64.1452 74.4578 63.2305 78.0116C60.3036 85.3967 62.6207 91.4035 64.1452 93.4838C67.9085 98.9966 66.323 104.969 65.0599 107.266C66.9416 102.377 62.0981 97.1677 59.4411 95.174C54.9461 89.2452 58.2651 79.9619 60.4865 76.0613Z" fill="#202B14"/>
<path d="M44.8464 122.219C41.0831 116.29 41.2241 102.456 41.7904 95.3047C41.7904 101.546 45.3255 112.077 47.0678 117.538C50.1754 125.268 51.2363 134.731 50.9279 140.476C50.9421 141.041 50.9046 141.548 50.8065 141.981C50.8585 141.515 50.8992 141.011 50.9279 140.476C50.8065 135.62 46.8752 126.45 44.8464 122.219Z" fill="#202B14"/>
<path d="M43.296 25.875C44.7595 15.8896 51.2232 9.83942 54.2722 8.0625C48.2091 15.0315 45.0382 26.0484 44.2107 30.6857C44.0016 34.5343 46.3014 40.9572 47.4774 43.6876C52.1815 52.7369 51.6153 63.0604 50.7441 67.0909C51.7895 60.642 48.0436 50.882 46.04 46.808C42.1722 37.0306 42.5991 28.7788 43.296 25.875Z" fill="#A3CF76"/>
<path d="M49.583 105.576C46.9696 99.7512 47.7972 93.2676 48.5376 90.7539C48.5376 96.2667 50.4541 101.545 51.4123 103.496C53.4419 107.535 52.6355 112.006 51.7594 114.371C51.6788 114.671 51.5647 114.948 51.4123 115.197C51.5249 114.963 51.6428 114.686 51.7594 114.371C52.4533 111.79 50.6756 107.556 49.583 105.576Z" fill="#A3CF76"/>
<path d="M51.8351 173.836C46.1902 164.475 47.9755 150.996 49.7613 145.752C44.9526 150.849 45.0572 164.605 46.8697 169.675C48.3331 172.796 49.6573 179.903 50.1364 183.067C51.2863 191.805 57.2094 196.719 62.9419 195.549C67.9243 195.549 69.231 193.469 67.9243 192.689C66.9382 192.1 64.0744 191.779 62.9419 191.779C56.7744 190.322 52.9675 179.21 51.8351 173.836Z" fill="#202B14"/>
<path d="M102.16 107.525C106.027 102.949 103.771 90.1028 102.16 84.252C108.327 93.4053 108.484 104.613 106.602 107.525C104.721 110.438 100.069 117.32 97.9782 120.397C94.6331 128.198 98.4045 134.569 99.6769 137.43C102.499 143.774 102.508 154.549 102.16 159.143C100.801 165.696 93.8404 173.921 90.3994 176.695C92.6208 172.925 94.1888 169.284 96.1489 165.124C99.9121 160.547 97.7169 150.648 96.1489 146.271C94.3324 141.2 91.7061 131.579 91.7061 126.768C91.7061 121.307 98.5009 112.119 102.16 107.525Z" fill="#202B14"/>
<path d="M76.8274 150.563C80.1726 147.13 79.2054 142.242 78.6392 140.031C82.0888 144.608 81.9671 148.829 81.1395 150.563C76.2264 155.347 76.7227 161.788 77.3325 163.045C73.9873 159.924 75.4336 152.513 76.8274 150.563Z" fill="#202B14"/>
<path d="M80.1498 115.197C78.1462 119.705 76.9092 130.825 81.7178 138.211C81.7178 134.007 80.1498 123.31 80.1498 115.197Z" fill="#A3CF76"/>
<path d="M88.1469 49.1484C86.0997 52.7023 83.2337 61.2662 88.1469 67.091C87.4064 64.6206 86.3698 57.5736 88.1469 49.1484Z" fill="#A3CF76"/>
<path d="M92.7512 78.2715C94.9726 82.5621 98.0825 92.7035 92.7512 98.9444C93.5788 95.0439 94.7374 85.4485 92.7512 78.2715Z" fill="#A3CF76"/>
<path d="M56.1336 165.384C58.1128 158.103 57.8759 148.265 56.1336 143.541C61.9132 152.772 61.1727 161.007 59.9531 165.384C54.7264 177.762 56.8741 186.751 57.7016 189.698C52.4749 186.265 53.9424 173.445 56.1336 165.384Z" fill="#202B14"/>
<path d="M85.1095 179.427C89.3954 176.099 87.5681 167.466 86.7405 163.045C89.0926 167.075 88.7006 166.425 89.4846 170.196C89.9027 176.125 86.5228 180.554 84.3885 182.158C80.4008 184.498 78.2276 187.792 77.6614 189.049C77.6614 190.817 81.7556 192.212 83.8028 192.689C85.1618 191.326 89.5958 191.601 91.6429 191.909C93.1064 190.349 101.574 188.919 105.625 188.399C117.646 185.538 122.413 180.467 121.629 181.378C121.002 182.106 120.826 184.758 120.651 185.928C120.129 189.569 115.12 190.999 112.681 191.259C106.931 190.323 103.055 192.602 101.835 193.859C96.7129 196.772 88.5504 195.593 85.1095 194.639C83.3324 194.535 78.7938 194.076 76.7467 193.859C70.0564 191.363 71.9749 187.228 73.8043 185.928C78.5084 184.784 83.3237 181.421 85.1095 179.427Z" fill="#202B14"/>
<path d="M115.178 123.778C118.942 121.489 118.101 115.673 117.578 113.246C120.087 116.991 120.579 122.737 120.144 124.948C117.74 129.94 114.873 131.622 113.741 131.839C111.65 127.366 113.828 124.601 115.178 123.778Z" fill="#202B14"/>
<path d="M125.419 176.696C126.595 173.533 129.391 166.763 132.736 164.475C133.912 167.118 132.475 176.696 125.419 176.696Z" fill="#202B14"/>
<path d="M122.801 96.9941C122.785 97.1875 122.762 97.3915 122.733 97.6055C121.484 109.258 122.702 120.819 124.5 125.078C129.785 138.912 127.399 149.132 124.5 152.642C129.308 145.361 125.371 132.099 122.801 126.378C117.366 115.462 121.991 103.148 122.733 97.6055C122.755 97.4017 122.777 97.1979 122.801 96.9941Z" fill="#A3CF76"/>
<path d="M120.026 163.045C118.632 165.169 116.001 170.014 116.628 172.406C117.761 170.759 120.026 166.581 120.026 163.045Z" fill="#A3CF76"/>
<path d="M72.3668 196.041C72.3668 193.441 56.1638 190.71 54.3345 197.341C54.9878 201.502 73.2815 204.102 72.3668 196.041Z" fill="#666666"/>
<path d="M90.1376 190.58C90.1376 187.98 73.9346 185.249 72.1052 191.88C72.7586 196.041 91.0522 198.641 90.1376 190.58Z" fill="#666666"/>
<defs>
<linearGradient id="paint0_linear_549_421" x1="26.65" y1="81.1309" x2="26.65" y2="189.522" gradientUnits="userSpaceOnUse">
<stop stop-color="#547D87"/>
<stop offset="1" stop-color="#00657D"/>
</linearGradient>
<linearGradient id="paint1_linear_549_421" x1="54.3785" y1="5.66375e-08" x2="54.3785" y2="195.078" gradientUnits="userSpaceOnUse">
<stop stop-color="#547D87"/>
<stop offset="1" stop-color="#00657D"/>
</linearGradient>
<linearGradient id="paint2_linear_549_421" x1="104.591" y1="39.7871" x2="104.591" y2="195.083" gradientUnits="userSpaceOnUse">
<stop stop-color="#547D87"/>
<stop offset="1" stop-color="#00657D"/>
</linearGradient>
</defs>
</svg>
