<svg width="62" height="65" viewBox="0 0 62 65" fill="none" xmlns="http://www.w3.org/2000/svg">
<path d="M18.7979 7.58304C18.9211 0.817347 27.6368 -1.82777 31.5338 3.71783L36.5586 10.8683C38.3018 13.349 41.4429 14.4322 44.3418 13.5525L52.6699 11.025C59.1654 9.05364 64.4063 16.5466 60.31 21.9481L55.1026 28.8147C53.2676 31.2343 53.2098 34.5637 54.9596 37.0537L59.9354 44.1344C63.8359 49.685 58.3589 56.9609 51.9394 54.7568L43.6365 51.906C40.7741 50.9232 37.6074 51.8842 35.7835 54.2893L30.493 61.2655C26.4025 66.6593 17.7768 63.6634 17.9001 56.8917L18.0574 48.2531C18.1127 45.2153 16.1974 42.4848 13.3176 41.496L5.14529 38.69C-1.28339 36.4828 -1.13735 27.3549 5.35818 25.3836L13.6863 22.8561C16.5852 21.9763 18.584 19.3332 18.6391 16.3067L18.7979 7.58304Z" fill="#679FAD"/>
</svg>
