<svg width="182" height="162" viewBox="0 0 182 162" fill="none" xmlns="http://www.w3.org/2000/svg">
<path d="M117.251 27.2514C119.331 23.6811 115.489 17.8407 110.798 12.7555C106.102 7.66534 104.838 0.453978 111.744 0.978729C121.28 1.70344 135.045 7.48524 136.399 8.39181C138.445 9.76222 148.026 28.1378 134.869 45.3361C138.26 47.0838 145.312 50.3582 146.391 49.4748C147.739 48.3704 155.483 44.4791 166.712 45.0172C177.941 45.5553 184.417 51.3766 180.676 61.7897C178.788 61.7469 174.91 61.9428 174.506 63.0685C174.001 64.4757 166.304 74.4209 138.573 68.591C139.54 72.9634 139.419 83.1937 131.193 89.1359C140.457 96.9118 145.574 108.282 134.576 130.069C123.578 151.856 109.9 159.018 106.259 161.205C102.618 163.392 106.166 149.097 107.615 147.711C109.065 146.326 116.097 128.516 114.354 126.301C112.611 124.086 110.64 107.491 116.291 96.1751C108.559 103.566 65.1758 116.58 44.1652 106.174C36.1327 122.353 3.98827 131.461 0.704868 126.469C-2.57854 121.476 10.005 100.577 22.5481 97.4561C20.5243 95.1404 13.2923 77.291 18.4498 70.8821C16.1227 69.4108 3.12659 59.6588 7.84541 51.8214C8.93515 49.6708 20.1642 50.209 26.2801 55.2654C30.5602 45.9994 61.344 34.4966 63.4345 33.9765C65.5251 33.4564 86.6183 16.2487 117.251 27.2514Z" fill="#22525E"/>
</svg>
