<svg width="323" height="181" viewBox="0 0 323 181" fill="none" xmlns="http://www.w3.org/2000/svg">
<path d="M56.6445 0.000769159C53.4694 -0.116827 43.7579 13.2793 39.2991 19.9921H74.1369C68.3061 16.3172 56.6445 7.17409 56.6445 0.000769159Z" fill="#778FA5"/>
<path d="M110.592 13.9648L100.449 23.8135L119.705 28.3704L123.38 25.2835L112.209 19.4037L110.592 13.9648Z" fill="#778FA5"/>
<path d="M44.8849 70.9992C41.063 68.4512 33.4487 61.5033 33.5663 54.0947L51.9406 56.2997L44.8849 70.9992Z" fill="#778FA5"/>
<path d="M115.295 61.7387L103.83 49.9791L119.411 46.1572L129.26 49.9791C124.605 51.4001 115.295 55.7413 115.295 61.7387Z" fill="#778FA5"/>
<path fill-rule="evenodd" clip-rule="evenodd" d="M33.5994 55.1326C34.1531 62.1451 41.2419 68.5715 44.8849 71.0002L46.8594 66.8866C42.7026 63.473 36.8055 57.9158 36.0045 54.3884L35.0875 54.2783L33.5994 55.1326Z" fill="#6D8294"/>
<path fill-rule="evenodd" clip-rule="evenodd" d="M105.057 51.2375L115.295 61.7381C115.295 59.8605 116.208 58.1452 117.604 56.6311L109.292 48.6387L106.812 49.2471L105.057 51.2375Z" fill="#6D8294"/>
<path fill-rule="evenodd" clip-rule="evenodd" d="M53.5437 1.83298C54.8291 0.667286 55.9111 -0.0263904 56.6444 0.000769159C56.6444 7.17409 68.306 16.3172 74.1368 19.9921H63.2205C59.3628 16.5158 53.5929 9.27339 53.5437 1.83298Z" fill="#6D8294"/>
<path fill-rule="evenodd" clip-rule="evenodd" d="M111.372 16.5896L110.592 13.9648L100.449 23.8135L105.899 25.1032L111.372 16.5896Z" fill="#6D8294"/>
<path d="M190.998 13.6715C180.768 12.7307 164 27.979 156.896 35.7208V38.3667C164.343 46.0594 181.591 60.6217 190.998 57.3291C186.393 51.4493 176.975 38.8959 176.152 35.7208C175.329 32.5456 185.707 19.6983 190.998 13.6715Z" fill="#778FA5"/>
<path d="M72.814 18.5221C49.3438 17.1992 -1.59491 19.051 -17 35.2793C-0.0955639 49.8318 19.3078 55.2706 44.5909 58.0635C69.0191 60.762 116.322 50.1811 124.409 47.1859C132.347 44.246 157.884 39.6204 163.069 40.8484C168.655 42.1714 169.978 32.6167 163.069 33.3517C156.16 34.0866 139.403 31.6046 124.409 27.3418C112.414 23.9315 85.6026 19.243 72.814 18.5221Z" fill="#A8C6E1"/>
<path fill-rule="evenodd" clip-rule="evenodd" d="M167.568 35.7206H-16.4833C-16.6558 35.5744 -16.828 35.4273 -17 35.2793C-1.59491 19.051 49.3438 17.1992 72.814 18.5221C85.6026 19.243 112.414 23.9315 124.409 27.3418C139.403 31.6046 156.16 34.0866 163.069 33.3517C165.643 33.0778 167.075 34.2324 167.568 35.7206Z" fill="#99B4CC"/>
<circle cx="1.81539" cy="32.6333" r="2.9399" fill="#3C3C3C"/>
<path d="M142.783 85.001C138.525 84.8433 125.498 102.812 119.517 111.817H166.247C158.426 106.887 142.783 94.623 142.783 85.001Z" fill="#778FA5"/>
<path d="M215.146 103.731L201.541 116.942L227.371 123.054L232.3 118.914L217.315 111.027L215.146 103.731Z" fill="#778FA5"/>
<path d="M127.01 180.234C121.883 176.817 111.67 167.497 111.827 157.56L136.474 160.517L127.01 180.234Z" fill="#778FA5"/>
<path d="M221.456 167.813L206.076 152.04L226.977 146.913L240.187 152.04C233.943 153.946 221.456 159.769 221.456 167.813Z" fill="#778FA5"/>
<path fill-rule="evenodd" clip-rule="evenodd" d="M111.872 158.951C112.614 168.358 122.123 176.978 127.01 180.236L129.658 174.717C124.083 170.139 116.173 162.685 115.098 157.953L113.867 157.806L111.872 158.951Z" fill="#6D8294"/>
<path fill-rule="evenodd" clip-rule="evenodd" d="M207.723 153.726L221.455 167.811C221.455 165.293 222.679 162.992 224.552 160.961L213.402 150.24L210.076 151.056L207.723 153.726Z" fill="#6D8294"/>
<path fill-rule="evenodd" clip-rule="evenodd" d="M138.625 87.4585C140.349 85.895 141.8 84.9646 142.783 85.001C142.783 94.623 158.426 106.887 166.247 111.817H151.604C146.43 107.153 138.69 97.4387 138.625 87.4585Z" fill="#6D8294"/>
<path fill-rule="evenodd" clip-rule="evenodd" d="M216.192 107.254L215.146 103.733L201.541 116.944L208.851 118.674L216.192 107.254Z" fill="#6D8294"/>
<path d="M323 103.339C309.277 102.077 286.786 122.531 277.256 132.915V136.464C287.246 146.783 310.381 166.316 323 161.899C316.822 154.012 304.19 137.174 303.086 132.915C301.981 128.656 315.902 111.423 323 103.339Z" fill="#778FA5"/>
<path d="M164.473 109.844C132.991 108.07 64.6637 110.554 44 132.321C66.6749 151.842 92.7017 159.137 126.615 162.883C159.382 166.503 222.833 152.31 233.68 148.292C244.328 144.349 278.582 138.144 285.537 139.792C293.029 141.566 294.804 128.75 285.537 129.736C276.27 130.722 253.792 127.392 233.68 121.674C217.591 117.1 181.627 110.811 164.473 109.844Z" fill="#A8C6E1"/>
<path fill-rule="evenodd" clip-rule="evenodd" d="M291.572 132.914H44.692C44.461 132.719 44.2303 132.522 44 132.323C64.6637 110.556 132.991 108.072 164.473 109.846C181.627 110.813 217.591 117.102 233.68 121.676C253.792 127.394 276.27 130.724 285.537 129.738C288.989 129.371 290.909 130.919 291.572 132.914Z" fill="#99B4CC"/>
<circle cx="69.2381" cy="128.773" r="3.94346" fill="#3C3C3C"/>
</svg>
