<svg width="186" height="246" viewBox="0 0 186 246" fill="none" xmlns="http://www.w3.org/2000/svg">
<g clip-path="url(#clip0_1320_2)">
<rect y="60" width="186" height="186" rx="93" fill="#A6D1F9"/>
<path d="M56.0225 450.2V110.991C59.3128 107.402 68.9855 102.915 94.6097 102.915C125.121 102.915 132.3 103.214 134.094 110.991V450.2C128.71 454.986 117.583 465.455 94.6097 465.455C71.6368 465.455 57.5181 458.875 56.0225 450.2Z" fill="#F7E7D8"/>
<path d="M55.1265 400.845V61.636C58.4168 58.0464 68.0895 53.5596 93.7137 53.5596C124.225 53.5596 131.404 53.8587 133.198 61.636V400.845C127.814 405.631 116.687 416.1 93.7137 416.1C70.7408 416.1 56.6221 409.519 55.1265 400.845Z" fill="#F7E7D8"/>
<path d="M62.3905 441.232V128.857C62.3905 126.766 62.1722 121.937 64.1565 105.021C65.9225 89.9667 67.6884 113.802 67.6884 128.857V428.687C67.6884 432.45 67.689 428.687 67.6885 442.486C67.6882 448.759 61.5076 447.504 62.3905 441.232Z" fill="#DAD0C6"/>
<path d="M76.7504 446.477V126.01C76.7504 123.865 76.532 118.911 78.5164 101.556C80.2823 86.1121 82.0483 110.565 82.0483 126.01V433.607C82.0483 437.468 82.0489 433.607 82.0483 447.764C82.0481 454.199 75.8674 452.912 76.7504 446.477Z" fill="#DAD0C6"/>
<path d="M92.9018 446.477V126.01C92.9018 123.865 92.6834 118.911 94.6678 101.556C96.4337 86.1121 98.1996 110.565 98.1996 126.01V433.607C98.1996 437.468 98.2003 433.607 98.1997 447.764C98.1994 454.199 92.0188 452.912 92.9018 446.477Z" fill="#DAD0C6"/>
<path d="M109.056 446.477V126.01C109.056 123.865 108.837 118.911 110.822 101.556C112.588 86.1121 114.353 110.565 114.353 126.01V433.607C114.353 437.468 114.354 433.607 114.354 447.764C114.353 454.199 108.173 452.912 109.056 446.477Z" fill="#DAD0C6"/>
<path d="M123.413 441.232V128.857C123.413 126.766 123.195 121.937 125.179 105.021C126.945 89.9667 128.711 113.802 128.711 128.857V428.687C128.711 432.45 128.712 428.687 128.711 442.486C128.711 448.759 122.531 447.504 123.413 441.232Z" fill="#DAD0C6"/>
<path d="M90.1242 68.8147C109.866 70.4425 125.72 67.9174 133.198 68.8147V74.199H55.1265V65.2252V55.3541L75.7661 50.8672C76.0653 55.9523 79.8801 67.9701 90.1242 68.8147Z" fill="#DAD0C6" fill-opacity="0.61"/>
<path d="M90.1242 68.8147C109.866 70.4425 125.72 67.9174 133.198 68.8147V74.199H55.1265V65.2252V55.3541L75.7661 50.8672C76.0653 55.9523 79.8801 67.9701 90.1242 68.8147Z" fill="black" fill-opacity="0.1"/>
<path d="M83.8425 347.899C91.9189 374.82 99.9953 407.126 134.096 407.126V457.379H55.1265V321.392V103.812H76.0034C76.3059 180.872 79.1105 332.126 83.8425 347.899Z" fill="black" fill-opacity="0.1"/>
<path d="M101.79 89.4547C121.532 91.0825 125.72 92.1468 133.198 93.0442V98.4285H55.1265V89.4547V79.5836L75.7661 75.0967C76.0653 80.1818 91.5461 88.6101 101.79 89.4547Z" fill="black" fill-opacity="0.1"/>
<path d="M51.5366 79.5832C51.5366 75.9937 56.0235 72.1051 57.8183 71.5068H131.403C132.301 71.5068 133.736 73.6605 135.89 78.6859C138.044 83.7112 136.787 88.2579 134.095 88.557C132.301 85.8649 125.074 83.4614 119.737 82.2754C111.661 80.4806 100.892 82.2754 89.2265 82.2754C79.8937 82.2754 60.5104 81.378 56.0235 88.557C54.827 87.6596 51.5366 83.1727 51.5366 79.5832Z" fill="#DAD0C6"/>
<path d="M51.5366 56.2512C51.5366 52.6617 56.0235 48.7731 57.8183 48.1748H131.403C132.301 48.1748 133.736 50.3285 135.89 55.3538C138.044 60.3791 136.787 64.9258 134.095 65.225C132.301 62.5328 125.074 60.1294 119.737 58.9433C111.661 57.1486 100.892 58.9433 89.2265 58.9433C79.8937 58.9433 60.5104 58.046 56.0235 65.225C54.827 64.3276 51.5366 59.8407 51.5366 56.2512Z" fill="#DAD0C6"/>
<path d="M51.5366 102.915C51.5366 99.3258 56.0235 95.4371 57.8183 94.8389H131.403C132.301 94.8389 133.736 96.9926 135.89 102.018C138.044 107.043 136.787 111.59 134.095 111.889C132.301 109.197 125.074 106.793 119.737 105.607C111.661 103.813 100.892 105.607 89.2265 105.607C79.8937 105.607 60.5104 104.71 56.0235 111.889C54.827 110.992 51.5366 106.505 51.5366 102.915Z" fill="#DAD0C6"/>
</g>
<rect x="60.2153" y="30.1504" width="69.8194" height="34.9097" fill="#DAD0C6"/>
<path d="M59.4214 60.3V32.5309L130.034 28.4883V42.7695C113.637 41.9761 91.1575 41.2583 82.4301 42.8451C73.7026 44.4319 69.7356 55.2751 71.3224 60.3H59.4214Z" fill="#C7BBAE" fill-opacity="0.78"/>
<path d="M91.2587 57.125C79.199 57.125 63.4896 57.3895 57.9358 58.7118C54.7622 59.5052 53.0168 62.0441 52.3821 65.8524C51.7474 69.6608 54.2332 72.1996 56.3489 72.1996C65.0763 71.1418 84.7527 69.026 93.6388 69.026C102.525 69.026 116.912 69.555 123.788 70.6128C124.317 71.1418 137.477 74.1291 136.382 67.4392C134.694 57.125 134.309 59.4798 128.549 58.7118C116.648 57.125 103.318 57.125 91.2587 57.125Z" fill="#F5EADF"/>
<path d="M75.2899 62.8477C63.2302 62.8477 69.7361 55.9716 64.1823 57.2939C54.6614 57.2939 53.0168 61.4196 52.3821 65.2279C51.7474 69.0363 54.1326 72.993 56.2483 72.993C64.9758 71.9352 84.652 69.9883 93.5381 69.9883C102.424 69.9883 116.912 70.5173 123.788 71.5752C124.317 72.1041 136.382 73.2276 136.382 68.4015C136.382 61.2609 129.241 65.2279 123.788 65.2279C111.782 65.2279 87.3496 62.8477 75.2899 62.8477Z" fill="#E8DCCF"/>
<path d="M91.2587 22.2148C79.199 22.2148 63.4896 22.4793 57.9358 23.8016C54.7622 24.5951 53.0168 27.1339 52.3821 30.9423C51.7474 34.7506 54.2332 37.2895 56.3489 37.2895C65.0763 36.2316 84.7527 34.1159 93.6388 34.1159C102.525 34.1159 116.912 34.6448 123.788 35.7027C124.317 36.2316 137.477 39.2189 136.382 32.5291C134.694 22.2148 134.309 24.5696 128.549 23.8016C116.648 22.2148 103.318 22.2148 91.2587 22.2148Z" fill="#F5EADF"/>
<path d="M74.5703 29.4586C62.0555 29.4586 68.8069 22.6628 63.0435 23.9697C53.1634 23.9697 51.4567 28.0471 50.798 31.8109C50.1393 35.5748 52.7189 38.084 54.9145 38.084C63.9713 37.0385 84.3902 34.9475 93.6116 34.9475C102.833 34.9475 117.763 35.4702 124.899 36.5157C125.448 37.0385 137.968 39.7171 137.968 34.9475C137.968 27.8903 130.558 31.8109 124.899 31.8109C112.439 31.8109 87.0851 29.4586 74.5703 29.4586Z" fill="#E8DCCF"/>
<path d="M57.4727 0.429965L126.493 1.3332C130.988 1.39203 136.092 0.138599 141.525 4.70379C150.158 11.958 151.03 18.7756 145.159 30.1424C143.531 33.295 121.021 38.7077 122.235 23.4946L66.6917 23.5612C68.8952 37.0791 48.31 33.6358 44.3745 31.2039C40.9998 29.1185 38.1628 20.8075 38.2354 15.2541C38.2977 10.4941 43.1927 0.243089 57.4727 0.429965Z" fill="#CBBFB3"/>
<path d="M58.6271 22.2152C57.8573 19.1364 53.8666 17.9838 53.0732 19.0416C53.6022 17.4548 57.308 15.2531 59.4205 16.6614C61.8007 18.2482 63.7486 19.9771 62.5941 24.5954C61.8007 27.769 55.7179 28.0335 53.8666 27.769C55.189 26.4467 59.4205 25.3888 58.6271 22.2152Z" fill="#A49A8F"/>
<path d="M53.8668 27.7685C45.1391 21.4213 46.4084 17.613 48.3125 15.0741C49.9452 12.8971 54.6597 10.4424 58.6267 11.1071C55.982 10.1197 47.8365 9.67897 45.9324 13.4873C44.0282 17.2956 40.3787 23.8015 53.8668 27.7685Z" fill="#A49A8F"/>
<path d="M131.582 23.5054C131.972 20.3558 135.792 18.7263 136.709 19.6798C135.991 18.1691 132.044 16.4345 130.119 18.0893C127.949 19.9538 126.226 21.9069 127.934 26.3504C129.108 29.404 135.177 28.9266 136.983 28.4389C135.509 27.2872 131.181 26.7519 131.582 23.5054Z" fill="#A49A8F"/>
<path d="M136.983 28.4395C144.874 21.0778 143.151 17.4521 140.952 15.1637C139.067 13.2015 134.088 11.3384 130.232 12.4807C132.737 11.1789 140.768 9.75072 143.121 13.2991C145.475 16.8476 149.888 22.8613 136.983 28.4395Z" fill="#A49A8F"/>
<path d="M87.9839 7.93359C77.1936 7.93359 66.8265 9.5204 59.4214 10.3138H88.7773H122.894C118.133 9.5204 98.7741 7.93359 87.9839 7.93359Z" fill="#A49A8F"/>
<path d="M63.3873 14.2815C62.1179 12.3773 58.8914 10.5789 57.8335 10.3145H77.6686C77.4041 11.6368 78.3033 15.0749 87.1894 18.2485C96.0755 21.4221 107.818 20.6287 122.099 23.0089L66.5609 23.8023C66.032 21.4221 64.6568 16.1856 63.3873 14.2815Z" fill="#B7A798" fill-opacity="0.48"/>
<defs>
<clipPath id="clip0_1320_2">
<rect y="60" width="186" height="186" rx="93" fill="white"/>
</clipPath>
</defs>
</svg>
