<svg width="217" height="208" viewBox="0 0 217 208" fill="none" xmlns="http://www.w3.org/2000/svg">
<rect x="16" y="22" width="186" height="186" rx="93" fill="#EFFFD0"/>
<path d="M123.988 105.527C120.994 104.267 120.245 95.1524 120.245 90.7529L184.071 93.7078C183.125 95.4413 183.677 99.9459 184.071 101.981C184.386 104.503 181.313 111.568 179.737 114.786C178.161 116.047 173.17 115.311 170.872 114.786C168.666 112.737 162.467 111.568 159.644 111.24C159.053 109.664 147.43 109.861 147.43 110.452C147.43 110.925 133.772 113.144 126.943 114.195C122.53 114.195 123.134 108.417 123.988 105.527Z" fill="#C9BCAB"/>
<path d="M117.093 88.1922C121.663 93.5504 142.636 107.891 152.552 114.392C155.861 115.495 163.386 109.467 166.735 106.315C167.365 105.37 179.605 97.3852 185.646 93.511C187.222 91.7774 199.173 85.1716 204.952 82.0854C209.522 78.1456 212.24 69.6749 213.028 65.932C217.756 60.889 215.786 52.9305 214.21 49.5817C215.944 44.3811 211.255 35.8579 208.694 32.2463C209.01 29.4097 203.835 24.104 201.209 21.8057C198.057 13.4533 190.308 11.3652 186.828 11.3652C180.84 4.43102 171.857 3.2228 168.114 3.48545C164.962 -0.769582 159.972 0.530569 157.87 1.71252C151.094 -2.22732 145.329 1.64685 143.293 4.07643C135.571 2.1853 129.832 5.65236 127.928 7.62229C115.478 10.9318 113.941 15.305 114.729 17.0779C107.165 19.2842 103.96 27.0589 103.303 30.6704C96.2118 35.2406 96.1461 42.4243 96.9997 45.4448C93.3751 48.1239 93.9135 53.6528 94.6358 56.0824C93.5326 57.1856 94.7015 60.7446 95.4238 62.3862C93.8478 65.3805 96.0804 68.7556 97.3937 70.0689C96.9209 76.0574 110.33 84.6463 117.093 88.1922Z" fill="url(#paint0_linear_1320_4)"/>
<path d="M97.0665 45.3333C94.7025 41.2359 98.6424 33.1198 103.37 30.7559C101.794 34.3805 108.723 49.2075 112.729 55.3799C114.502 60.5017 123.76 71.5333 125.139 72.7152C126.518 73.8972 133.807 86.7017 134.792 87.4897C135.777 88.2776 143.065 96.3543 144.444 100.491C145.823 104.628 153.8 113.887 153.012 114.478C152.532 114.838 143.065 104.628 141.883 102.264C140.938 100.373 135.317 93.0711 132.625 89.6566L113.911 65.8205C111.231 60.7775 101.138 50.3894 97.0665 45.3333Z" fill="#E7E7E7"/>
<path d="M114.992 17.1627C112.313 14.0108 121.493 8.69199 127.993 7.70703C126.102 10.7013 132.241 26.7496 135.13 34.104C135.13 42.3777 135.918 49.6664 136.706 52.8183C136.877 53.502 140.384 64.6378 141.828 70.3506C143.422 76.6544 145.374 82.0388 147.541 83.7461C148.644 86.7404 150.627 99.1772 151.481 105.021C151.875 108.37 153.957 114.95 153.012 114.477C151.83 113.886 148.526 106.794 148.526 106.4C148.526 106.006 146.753 91.4288 142.616 86.307C139.307 82.2095 136.772 75.6694 135.918 72.9115C136.234 69.9172 132.898 61.289 131.191 57.3491C126.936 51.3605 124.821 45.5296 124.296 43.3626C124.769 36.5861 118.013 23.4664 114.992 17.1627Z" fill="#E7E7E7"/>
<path d="M143.163 4.16151C149.072 -2.14223 156.033 0.155997 157.937 1.7976C153.524 5.10708 154.982 22.8758 156.558 33.7104C155.967 42.575 153.603 50.6517 156.558 67.838C155.376 75.4727 157.398 85.8653 156.558 91.4291C155.376 99.2608 154.982 110.34 153.209 114.477L152.421 101.87C152.421 94.975 152.618 79.5616 149.466 71.9269C150.254 68.924 148.087 59.1704 147.299 54.4426C147.615 50.1875 145.986 33.1017 145.133 25.0907C147.496 18.3142 145.133 8.49534 143.163 4.16151Z" fill="#E7E7E7"/>
<path d="M186.698 11.253C181.655 4.47649 171.923 3.24199 167.983 3.57032V10.7152C168.771 14.9703 166.736 22.0751 165.62 25.0957C165.62 29.6265 165.226 27.2626 165.226 32.1874C163.65 36.9152 163.518 42.825 163.65 44.5979L162.468 65.8731C161.522 71.7041 161.286 77.3643 161.286 79.4656C163.334 84.1934 161.351 92.9924 160.104 96.8009C159.631 100.426 156.427 109.815 154.982 114.28L155.573 114.083L156.164 113.886L157.346 113.295L163.65 96.8009C166.329 91.7579 166.079 84.9814 165.62 82.2235C165.304 79.5444 167.983 71.5202 169.362 67.843C170.466 65.7943 172.186 56.0892 172.908 51.4927C173.696 48.3408 175.206 42.6937 175.863 40.2641C176.809 36.9546 178.621 31.7934 179.409 29.6265C179.567 27.4202 184.531 16.3748 186.698 11.253Z" fill="#E7E7E7"/>
<path d="M208.564 32.3312C209.549 30.3613 204.296 24.0575 201.276 21.8906L198.912 30.1643C195.037 35.3649 191.519 43.3628 190.244 46.7117C186.146 50.9667 182.233 60.4355 180.788 64.638C179.843 67.4747 176.848 75.9322 175.47 79.8064C171.687 82.6431 168.903 88.868 167.984 91.6259C163.414 102.027 159.382 109.027 159.119 112.31L162.468 109.946C160.419 106.164 169.954 99.5056 171.727 92.6109C173.894 88.671 177.045 85.9131 177.439 84.7312C180.591 80.3974 180.985 77.8365 181.97 77.4425C183.546 73.1874 186.041 68.3152 187.092 66.4109C188.51 64.047 196.351 52.2931 200.094 46.7117C206.397 36.6257 207.776 31.7402 208.564 32.3312Z" fill="#E7E7E7"/>
<path d="M212.898 65.8201C218.217 60.8953 215.459 52.8186 214.277 49.4697C211.598 49.4697 205.478 56.1018 203.048 59.1224C198.793 61.959 196.022 65.8201 195.169 67.396C192.174 72.439 184.991 80.7915 181.773 84.3374C175.627 89.538 165.226 104.562 162.468 109.946C163.65 108.37 178.49 92.7424 184.728 87.0953C191.032 83.5494 190.441 80.3975 195.169 77.8366C198.32 74.5272 208.695 67.9213 212.898 65.8201Z" fill="#E7E7E7"/>
<path d="M97.46 69.957C93.7171 67.1991 93.5201 56.7585 94.5051 56.3645C94.8991 54.9855 101.697 60.5713 104.783 63.5918L122.907 84.867C124.645 86.7013 128.388 91.6261 132.362 95.7016C135.283 98.1269 150.582 110.209 152.618 114.28L122.907 90.0502C121.173 87.2135 114.073 80.7915 109.87 78.0336C105.668 75.2758 99.8239 71.0076 97.46 69.957Z" fill="#E7E7E7"/>
<path d="M80.6168 189.371C74.6174 189.371 73.7425 184.684 74.0549 182.34C69.9303 195.089 51.401 199.839 42.6519 200.62C38.5273 194.995 27.4972 195.777 22.4977 196.87C19.1231 188.246 12.9674 187.027 10.3115 187.496C11.0614 173.248 3.74962 165.623 0 163.592C8.24916 154.968 5.9369 142.501 3.74962 137.345C13.8736 132.845 16.4046 124.846 16.4046 121.409C26.9035 123.284 37.0275 114.691 40.7771 110.16C51.276 111.66 58.2753 109.535 60.4626 108.286C66.462 104.161 73.8987 110.942 76.8672 114.847C88.866 112.973 89.9909 120.003 89.0534 123.753C98.0525 124.503 102.177 130.315 103.115 133.127C115.488 139.126 114.52 147.813 112.489 151.406C118.863 157.406 120.144 174.529 119.988 182.34C118.488 187.59 114.363 189.215 112.489 189.371H80.6168Z" fill="#86BEF1"/>
<path d="M119.051 168.869C118.582 160.433 114.364 152.465 112.489 151.527C110.614 160.901 85.929 169.338 74.5239 173.088L74.0552 179.181C91.3034 181.056 112.176 173.088 119.051 168.869Z" fill="#C0E1FF"/>
<path d="M73.1182 155.276C81.3673 147.402 87.1792 129.966 89.054 123.404C96.0846 124.81 101.24 127.623 103.115 133.247C101.615 145.996 82.8047 161.213 74.993 166.525C75.3679 160.9 74.2118 156.682 73.1182 155.276Z" fill="#C0E1FF"/>
<path d="M66.5561 148.246C72.5554 135.497 69.3683 114.499 65.6187 107C71.2431 107.937 74.9927 112.156 77.3362 115.515C82.9606 126.764 74.6802 144.652 70.7744 151.527C70.7744 151.527 69.5568 149.88 68.4309 149.183C67.9387 148.879 66.5561 148.246 66.5561 148.246Z" fill="#C0E1FF"/>
<path d="M54.8384 144.964C52.5886 134.465 44.6832 115.436 40.7773 110.28C43.5896 110.749 48.2766 110.749 50.6201 110.749C58.1193 115.998 59.9941 138.09 59.9941 145.902C58.4943 144.777 55.6196 144.964 54.8384 144.964Z" fill="#C0E1FF"/>
<path d="M42.6521 147.308C37.0277 140.184 22.1854 123.716 16.4048 121.529C20.1544 121.529 23.4353 121.529 25.7788 120.591C30.4659 120.123 49.214 145.902 48.2765 145.902C47.5266 145.902 44.9956 146.371 42.6521 147.308Z" fill="#C0E1FF"/>
<path d="M16.405 121.53C20.1547 122.936 23.9043 126.686 28.5913 131.373L14.0615 128.561C14.0615 128.561 14.9549 126.818 15.4676 125.28C15.9803 123.742 16.405 121.53 16.405 121.53Z" fill="#4B8AC3"/>
<path d="M73.5863 182.93C82.5854 142.434 58.5878 140.746 42.652 145.902C38.1524 145.902 34.8403 178.243 33.7466 193.71C31.2469 192.616 27.9347 191.273 34.6841 194.647C41.4334 198.022 42.1833 200.272 42.652 200.74C63.2749 200.365 71.8678 188.554 73.5863 182.93Z" fill="url(#paint1_linear_1320_4)"/>
<path d="M3.74951 137.466C10.78 140.278 18.748 144.496 22.0289 146.371C16.8732 144.801 9.53017 143.395 5.62432 144.801C5.26099 141.936 4.87024 140.335 3.74951 137.466Z" fill="#4B8AC3"/>
<path d="M16.8733 159.495C13.1237 159.495 5.46819 160.901 0 163.714C3.28092 165.588 4.68702 167.932 6.20369 169.96C8.82842 165.46 12.3425 162.932 16.8733 159.495Z" fill="#4B8AC3"/>
<path d="M74.9923 172.619C75.3673 151.621 59.5251 145.818 53.9007 143.558C73.1175 142.621 77.8045 161.838 77.8045 172.619C73.5862 196.522 51.401 201.679 42.6519 200.741C62.5248 197.367 72.1801 185.273 74.9923 172.619Z" fill="#4B8AC3"/>
<path d="M60.9313 174.962C66.087 165.588 55.7756 158.089 52.0259 154.808C57.1817 152.933 64.056 161.838 64.6809 165.588C66.087 174.025 60.4626 180.899 57.1817 182.93C50.4324 186.305 45.1516 183.867 43.1206 181.993C53.2446 184.242 58.1191 178.712 60.9313 174.962Z" fill="#4B8AC3"/>
<path d="M39.3779 165.255L37.6139 164.924L37.5885 165.06L37.5841 165.197L39.3779 165.255ZM53.9077 174.629L54.4911 176.326L54.6288 176.279L54.757 176.21L53.9077 174.629ZM52.0328 161.037L52.951 159.495L52.8376 159.427L52.7155 159.377L52.0328 161.037ZM44.996 169.806L43.4741 170.757L43.488 170.78L43.5027 170.802L44.996 169.806ZM46.5259 166.296C46.3245 167.267 46.9479 168.217 47.9185 168.419C48.889 168.62 49.8391 167.997 50.0405 167.026L46.5259 166.296ZM55.0563 154.087C52.574 153.059 48.877 152.279 45.3761 153.622C41.7278 155.02 38.8166 158.51 37.6139 164.924L41.1419 165.586C42.1889 160.002 44.5084 157.799 46.6611 156.973C48.9611 156.091 51.6354 156.556 53.6838 157.403L55.0563 154.087ZM37.5841 165.197C37.4978 167.871 38.1713 171.806 40.7867 174.545C43.5723 177.462 48.0615 178.537 54.4911 176.326L53.3242 172.932C47.7551 174.846 44.9013 173.656 43.3826 172.066C41.6937 170.297 41.1017 167.482 41.1717 165.313L37.5841 165.197ZM54.757 176.21C57.1072 174.948 59.1778 172.277 59.3282 169.045C59.4852 165.669 57.5458 162.231 52.951 159.495L51.1146 162.579C54.9502 164.863 55.8199 167.215 55.7426 168.878C55.6586 170.684 54.4514 172.3 53.0583 173.048L54.757 176.21ZM52.7155 159.377C51.4229 158.845 49.8901 158.727 48.4497 158.924C47.0009 159.121 45.4874 159.659 44.2544 160.61C42.9955 161.581 42.0179 163.002 41.8076 164.853C41.601 166.671 42.1625 168.659 43.4741 170.757L46.518 168.855C45.486 167.204 45.2867 166.028 45.3742 165.258C45.458 164.521 45.8294 163.928 46.447 163.452C47.0904 162.956 47.9805 162.61 48.935 162.48C49.8979 162.349 50.768 162.457 51.3501 162.697L52.7155 159.377ZM43.5027 170.802C44.8272 172.788 47.3377 173.868 49.6598 173.277C52.2239 172.625 53.8276 170.2 53.8276 166.661H50.2381C50.2381 169.122 49.2608 169.675 48.7751 169.799C48.0475 169.984 47.0397 169.636 46.4893 168.811L43.5027 170.802ZM53.8276 166.661C53.8276 164.848 52.5292 163.204 50.8538 162.806C49.9188 162.584 48.8804 162.763 48.0277 163.483C47.227 164.159 46.761 165.164 46.5259 166.296L50.0405 167.026C50.1081 166.7 50.1897 166.49 50.2546 166.364C50.3186 166.24 50.3587 166.213 50.3433 166.226C50.3232 166.242 50.2696 166.277 50.1885 166.295C50.1115 166.312 50.0523 166.305 50.0247 166.298C50.0004 166.293 50.0061 166.289 50.0346 166.309C50.0626 166.328 50.0996 166.36 50.1359 166.407C50.2136 166.507 50.2381 166.604 50.2381 166.661H53.8276Z" fill="#4B8AC3"/>
<path d="M45.9325 147.401C39.9553 146.67 26.5923 150.038 30.8027 166.057C30.8027 155.518 41.0013 147.401 45.9325 147.401Z" fill="#C0E1FF"/>
<path d="M10.312 187.617C13.4783 183.156 19.1638 175.22 20.0401 171.946C20.0776 171.696 20.1159 171.452 20.1548 171.213C20.1548 171.42 20.115 171.666 20.0401 171.946C19.0206 178.715 18.4941 189.197 19.2174 191.367C17.3425 189.492 14.5303 187.149 10.312 187.617Z" fill="#4B8AC3"/>
<defs>
<linearGradient id="paint0_linear_1320_4" x1="155.051" y1="0.0253906" x2="155.051" y2="114.525" gradientUnits="userSpaceOnUse">
<stop offset="0.35" stop-color="#DFDBD2"/>
<stop offset="1" stop-color="#C9BCAB"/>
</linearGradient>
<linearGradient id="paint1_linear_1320_4" x1="57.6504" y1="185.742" x2="74.9924" y2="184.805" gradientUnits="userSpaceOnUse">
<stop stop-color="#86BEF1"/>
<stop offset="1" stop-color="#68A8E2"/>
</linearGradient>
</defs>
</svg>
