<svg width="195" height="281" viewBox="0 0 195 281" fill="none" xmlns="http://www.w3.org/2000/svg">
<g clip-path="url(#clip0_1320_5)">
<rect x="9" y="95" width="186" height="186" rx="93" fill="#FFF7C3"/>
<path d="M143.918 255.397C144.14 249.311 141.884 239.933 140.445 235.139C139.402 231.666 136.949 225.966 135.285 222.347C133.62 218.729 125.761 205.398 122.04 199.185C122.971 197.399 125.686 192.457 129.092 186.98C133.349 180.134 133.499 172.048 135.2 170.47C136.897 168.895 140.594 163.842 141.465 159.294C142.336 154.746 140.074 150.955 135.2 151.79C130.325 152.624 129.519 165.823 125.975 162.787C123.139 160.358 119.77 148.461 118.52 143.703C117.792 140.933 117.988 138.501 120.765 133.846C124.237 128.029 120.42 127.332 114.977 128.058C109.534 128.784 109.467 138.972 109.189 146.58C108.966 152.667 115.391 168.249 119.79 174.002C118.359 179.425 114.635 190.459 111.19 191.214C106.884 192.157 98.6111 179.965 94.8252 175.115C91.7964 171.235 91.4827 159.742 91.7045 154.48C93.4301 152.65 95.1338 144.591 98.1915 140.933C101.249 137.276 104.227 131.144 104.078 126.794C103.711 123.58 102.789 116.292 102.034 112.848C101.09 108.542 107.603 105.634 108.977 101.212C110.347 96.8023 111.531 88.168 106.295 91.0141C103.525 92.5195 102.822 106.642 96.4551 100.275C94.7186 97.9599 95.8498 94.6136 91.8245 91.0141C88.7726 88.285 86.9991 92.8781 85.6928 99.6999C84.3865 106.522 90.3375 112.376 91.0874 120.77C91.6874 127.486 87.9873 138.027 84.8788 141.95C79.9961 131.531 74.3114 114.622 75.6176 107.8C77.2505 99.2723 82.6325 73.2231 83.7211 67.5382C84.8096 61.8533 92.8894 49.8061 89.9743 40.408C88.0768 34.2902 80.3969 47.1482 79.0906 53.97C78.0456 59.4275 74.5685 67.669 73.3025 70.1768L65.965 61.1518C64.0415 58.6005 60.5269 62.4678 62.3847 67.5382C64.2426 72.6086 70.452 75.5945 73.3025 77.1226C72.1534 80.0457 69.5719 88.4802 68.614 93.4829C67.6561 98.4856 65.4813 103.687 64.5137 105.663C64.3685 106.421 62.801 107.221 57.6919 104.357C51.3054 100.777 52.5596 101.443 47.2558 100.854C42.0465 100.275 46.6962 108.646 52.4652 111.851C57.6745 114.746 61.0988 118.367 63.7154 119.065L73.8813 144.417C72.7 143.405 71.5661 149.134 68.614 143.703C67.0022 140.738 64.0415 136.741 60.5686 134.425C58.1606 132.82 57.9335 140.594 59.0346 143.51C60.2077 146.617 61.6954 148.08 62.6147 149.435C63.534 150.789 64.7927 153.075 67.5144 154.25C69.2148 154.985 70.4084 155.841 72.642 155.545C79.0906 152.947 75.7263 152.364 78.1938 154.25C80.6613 156.137 80.4235 163.125 79.9961 166.382C79.347 165.669 76.2513 163.779 69.0618 161.931C60.0749 159.621 52.5757 158.774 49.4913 156.416C46.407 154.057 43.8911 151.807 40.831 152.4C37.7708 152.993 44.8488 159.969 47.2558 162.787C49.1814 165.042 65.2356 170.628 74.6015 173.011C76.1965 173.785 83.206 177.061 85.6928 181.309C88.8013 186.619 95.6719 195.314 102.167 198.326C108.662 201.338 111.88 206.079 117.613 213.07C122.2 218.663 125.628 230.714 126.769 236.04L129.382 277.793C130.338 278.958 133.272 281.485 137.365 282.268C141.458 283.052 144.723 279.749 145.844 277.999C145.868 271.717 143.695 261.484 143.918 255.397Z" fill="url(#paint0_linear_1320_5)"/>
<path d="M136.971 269.867C140.676 258.291 130.412 229.929 124.816 217.195C123.466 215.459 120.768 212.863 122.501 217.195C124.816 222.984 129.447 238.612 131.762 246.715C133.614 253.198 132.534 264.658 131.762 269.867C131.955 274.691 133.267 281.444 136.971 269.867Z" fill="#D9D9D9" fill-opacity="0.46"/>
<path d="M138.709 229.35C137.319 225.183 126.939 207.548 121.923 199.252C122.888 202.339 125.396 209.555 127.711 213.722C130.605 218.932 138.709 241.505 139.866 247.872C140.792 252.966 139.48 273.147 138.709 282.601C139.094 282.408 140.445 281.907 142.76 281.444C145.075 280.981 146.04 279.707 146.233 279.128C146.426 278.55 146.696 275.308 146.233 266.973C145.654 256.555 143.918 254.818 143.918 251.924C143.918 249.03 140.445 234.56 138.709 229.35Z" fill="#AC4145"/>
<g filter="url(#filter0_d_1320_5)">
<path d="M142.76 158.735C143.223 156.42 140.445 152.368 138.709 151.789V156.998C138.709 159.777 132.342 166.645 130.026 169.732C130.952 170.658 125.589 190.184 121.923 199.252C124.238 195.393 130.374 186.518 131.763 184.203C133.152 181.887 134.464 174.363 135.236 170.89C138.709 166.838 142.181 161.629 142.76 158.735Z" fill="#A44839"/>
</g>
<path d="M122.475 129.881C122.475 128.119 119.47 127.862 116.714 128.058C115.611 128.058 112.555 130.468 113.382 141.626C114.426 155.714 124.854 163.944 128.263 163.944C128.545 163.944 126.61 161.008 124.129 159.246C121.649 157.484 119.029 139.659 119.029 137.897C119.029 136.135 122.475 132.302 122.475 129.881Z" fill="#C06045"/>
<path d="M110.347 93.3286C110.347 91.0134 108.804 90.4346 108.032 90.4346C108.225 90.8204 108.032 91.9395 108.032 93.3286C108.032 95.6439 106.874 98.538 105.717 100.853C104.649 102.988 99.9285 106.641 98.7709 108.378C97.6132 110.114 98.7709 122.269 98.1921 126.321C97.6132 130.373 93.5615 138.476 91.8251 139.634C90.0887 140.791 84.8793 163.365 87.7734 170.89C90.4825 177.934 94.7192 183.045 95.298 184.781C95.8768 186.518 105.138 190.57 105.717 191.148C106.18 191.611 108.804 191.534 109.768 191.148C106.874 191.148 96.4556 176.678 94.1404 172.626C92.2881 169.385 92.7898 158.928 92.9827 154.104C93.7545 150.438 95.8021 144.238 98.1921 141.37C101.086 137.897 103.401 131.916 103.98 128.058L102.244 110.693C103.98 107.799 107.453 104.326 108.611 102.59C109.768 100.853 110.347 96.2227 110.347 93.3286Z" fill="url(#paint1_linear_1320_5)"/>
<path d="M84.3003 179.573C81.522 176.331 80.4415 169.347 80.2486 166.26C80.0557 166.839 79.6698 167.418 76.7757 169.733C73.5416 172.32 60.5689 163.945 55.3596 162.208C50.1502 161.051 43.9762 155.841 40.3104 152.947C39.7316 154.105 45.1338 160.858 47.2561 162.787C48.4138 164.524 67.5147 171.469 74.4604 173.206C76.7757 173.785 81.7921 177.836 84.3003 179.573Z" fill="#BE5A42"/>
<g filter="url(#filter1_f_1320_5)">
<path d="M95.8764 95.6439C94.9503 91.4764 91.6318 90.4346 90.0883 90.4346C91.8247 90.4346 94.14 93.9075 94.14 96.2227C94.14 98.0749 96.6482 101.818 98.7705 102.011C98.1917 101.625 96.8025 99.8114 95.8764 95.6439Z" fill="#B9613B"/>
</g>
<path d="M90.0886 90.4349C92.8669 89.9718 95.8767 96.9951 97.0344 100.854L99.3496 102.011C97.999 101.818 91.825 103.169 91.2462 100.275C90.8829 98.4585 91.6321 92.7501 90.0886 90.4349Z" fill="#B75F3B"/>
<path d="M59.9898 146.58C55.8223 139.171 58.2533 135.389 59.9898 134.425C59.9898 137.319 60.5901 143.393 65.7779 147.738C68.0932 150.632 70.4084 153.526 76.7754 153.526C76.7754 154.452 72.9166 155.455 70.9872 155.841C69.0579 155.841 64.1572 153.989 59.9898 146.58Z" fill="#BE5A42"/>
<path d="M84.8792 64.3887C92.7511 48.645 90.8603 40.8503 88.9309 38.9209C88.352 47.0243 83.9145 56.8642 82.5639 59.7582C78.3193 72.1063 70.9876 105.253 70.9876 115.903C70.9876 126.553 79.4769 140.792 83.7215 147.738L84.8792 141.371C75.0393 120.534 75.4252 105.292 77.9334 99.6964L84.8792 64.3887Z" fill="#B3593B"/>
<g filter="url(#filter2_d_1320_5)">
<path d="M54.2021 113.009C45.8672 108.378 44.3623 103.362 44.9411 101.433C44.9411 106.063 57.4821 113.009 63.4632 115.903L64.042 119.376C63.1159 119.839 56.9033 115.324 54.2021 113.009Z" fill="#BE5A42"/>
</g>
<path d="M134.657 153.526C134.078 156.999 130.606 163.945 130.027 162.787C129.564 161.861 132.921 156.228 134.657 153.526Z" fill="white" fill-opacity="0.3"/>
<path d="M87.4551 103.553C86.9724 100.065 88.2172 92.4 89.1147 93.3325C89.8328 94.0785 88.3075 100.457 87.4551 103.553Z" fill="white" fill-opacity="0.42"/>
<path d="M66.729 144.351C63.9192 142.129 59.3075 135.962 60.5801 136.128C61.5982 136.261 65.1036 141.665 66.729 144.351Z" fill="white" fill-opacity="0.42"/>
<path d="M121.922 174.941C120.186 181.308 117.408 193.116 115.555 191.727C113.703 190.338 118.449 183.045 121.922 174.941Z" fill="white" fill-opacity="0.32"/>
<path d="M111.623 154.684C115.509 160.018 122.993 169.564 120.751 170.143C118.509 170.721 115.78 162.458 111.623 154.684Z" fill="white" fill-opacity="0.32"/>
<path d="M106.295 92.1709C107.452 94.4862 103.979 102.011 103.979 99.6955C103.979 97.8433 105.523 93.9073 106.295 92.1709Z" fill="white" fill-opacity="0.44"/>
<path d="M52.7038 108.018C50.1154 108.048 44.8632 101.638 46.946 102.649C48.6122 103.458 51.4788 106.565 52.7038 108.018Z" fill="white" fill-opacity="0.44"/>
<path d="M84.2487 174.817C82.9475 176.104 93.5358 189.08 97.6425 193.352C97.6481 192.316 91.6167 184.521 88.6155 181.053C87.5937 178.545 85.2898 173.787 84.2487 174.817Z" fill="white" fill-opacity="0.34"/>
<path d="M74.3872 135.053C69.8026 127.553 67.8209 117.511 68.6229 112.51C68.0796 112.788 66.6973 111.186 66.2614 115.796C66.0367 118.172 70.324 130.987 72.2719 136.546C72.6556 137.073 80.7554 145.471 74.3872 135.053Z" fill="white" fill-opacity="0.39"/>
</g>
<path d="M143.92 255.397C144.143 249.31 141.887 239.932 140.447 235.138C139.405 231.665 136.951 225.966 135.287 222.347C133.623 218.728 125.764 205.397 122.042 199.184C122.974 197.398 125.688 192.456 129.094 186.98C133.351 180.134 133.501 172.047 135.202 170.469C136.899 168.895 140.597 163.841 141.467 159.293C142.338 154.745 140.076 150.954 135.202 151.789C130.328 152.623 129.521 165.822 125.977 162.786C123.142 160.358 119.772 148.46 118.522 143.702C117.795 140.932 117.99 138.5 120.768 133.846C124.239 128.028 120.422 127.332 114.979 128.057C109.536 128.783 109.469 138.972 109.191 146.58C108.969 152.666 115.394 168.248 119.792 174.001C118.361 179.424 114.637 190.458 111.193 191.213C106.887 192.156 98.6133 179.964 94.8274 175.114C91.7987 171.234 91.485 159.741 91.7067 154.479C93.4323 152.649 95.1361 144.59 98.1938 140.932C101.251 137.275 104.229 131.143 104.08 126.793C103.713 123.579 102.791 116.292 102.036 112.847C101.093 108.541 107.605 105.633 108.979 101.211C110.349 96.8014 111.533 88.1671 106.297 91.0132C103.528 92.5187 102.824 106.641 96.4573 100.274C94.7209 97.9591 95.8521 94.6128 91.8267 91.0132C88.7748 88.2841 87.0013 92.8772 85.695 99.6991C84.3888 106.521 90.3397 112.375 91.0897 120.769C91.6897 127.485 87.9895 138.026 84.881 141.949C79.9983 131.53 74.3136 114.621 75.6199 107.799C77.2527 99.2715 82.6347 73.2222 83.7233 67.5373C84.8119 61.8525 92.8916 49.8053 89.9766 40.4071C88.079 34.2894 80.3991 47.1473 79.0928 53.9692C78.0478 59.4266 74.5707 67.6682 73.3047 70.176L65.9672 61.1509C64.0437 58.5997 60.5291 62.4669 62.387 67.5373C64.2449 72.6077 70.4542 75.5937 73.3047 77.1217C72.1557 80.0448 69.5742 88.4794 68.6162 93.482C67.6583 98.4847 65.4836 103.687 64.5159 105.662C64.3708 106.42 62.8032 107.22 57.6941 104.356C51.3077 100.776 52.5619 101.442 47.2581 100.853C42.0488 100.274 46.6984 108.646 52.4674 111.851C57.6767 114.745 61.101 118.366 63.7177 119.064L73.8835 144.416C72.7022 143.404 71.5683 149.133 68.6162 143.702C67.0044 140.737 64.0437 136.74 60.5708 134.424C58.1628 132.819 57.9358 140.593 59.0368 143.509C60.2099 146.616 61.6977 148.079 62.6169 149.434C63.5362 150.789 64.7949 153.075 67.5166 154.25C69.2171 154.984 70.4107 155.841 72.6443 155.544C79.0929 152.946 75.7286 152.363 78.1961 154.25C80.6635 156.137 80.4257 163.124 79.9983 166.381C79.3492 165.668 76.2536 163.778 69.064 161.93C60.0771 159.62 52.5779 158.774 49.4936 156.415C46.4092 154.056 43.8934 151.807 40.8332 152.399C37.7731 152.992 44.8511 159.968 47.2581 162.786C49.1837 165.041 65.2379 170.627 74.6038 173.01C76.1987 173.784 83.2082 177.06 85.695 181.308C88.8036 186.618 95.6742 195.314 102.169 198.325C108.665 201.337 111.882 206.079 117.615 213.07C122.202 218.663 125.631 230.713 126.772 236.039L129.475 276.121C130.43 277.286 130.484 276.261 135.984 274.261C139.9 272.837 145.281 269.25 146.402 267.5C146.426 261.218 143.698 261.483 143.92 255.397Z" fill="url(#paint2_linear_1320_5)"/>
<path d="M69.5789 70.0222C67.0655 69.403 63.5868 61.8811 65.3498 63.3819C66.7602 64.5824 68.7569 68.309 69.5789 70.0222Z" fill="white" fill-opacity="0.44"/>
<path d="M136.5 269.351C140.204 257.775 130.412 229.928 124.817 217.194C123.466 215.458 120.768 212.862 122.501 217.194C124.817 222.983 129.447 238.611 131.762 246.714C133.615 253.197 132.062 264.142 131.291 269.351C131.484 274.175 132.796 280.928 136.5 269.351Z" fill="#D9D9D9" fill-opacity="0.46"/>
<path d="M138.399 226.083C137.042 222.333 126.901 206.465 122 199C122.943 201.778 125.393 208.271 127.655 212.021C130.482 216.708 138.399 237.021 139.53 242.75C140.435 247.333 138.754 265.493 138 274C138.377 273.826 140.46 272.917 142.5 272C144.598 271.057 146.312 270.021 146.5 269.5C146.689 268.979 146.452 267.5 146 260C145.435 250.625 143.489 249 143.489 246.396C143.489 243.792 140.096 230.771 138.399 226.083Z" fill="#AC4145"/>
<g filter="url(#filter3_d_1320_5)">
<path d="M142.76 158.735C143.223 156.42 140.445 152.368 138.709 151.789V156.998C138.709 159.777 132.342 166.645 130.026 169.732C130.952 170.658 125.589 190.184 121.923 199.252C124.238 195.393 130.374 186.518 131.763 184.203C133.152 181.887 134.464 174.363 135.236 170.89C138.709 166.838 142.181 161.629 142.76 158.735Z" fill="#A44839"/>
</g>
<path d="M122.475 129.881C122.475 128.119 119.47 127.862 116.714 128.058C115.611 128.058 112.555 130.468 113.382 141.626C114.426 155.714 124.854 163.944 128.263 163.944C128.545 163.944 126.61 161.008 124.129 159.246C121.649 157.484 119.029 139.659 119.029 137.897C119.029 136.135 122.475 132.302 122.475 129.881Z" fill="#C06045"/>
<path d="M110.347 93.3286C110.347 91.0134 108.804 90.4346 108.032 90.4346C108.225 90.8204 108.032 91.9395 108.032 93.3286C108.032 95.6439 106.874 98.538 105.717 100.853C104.649 102.988 99.9285 106.641 98.7709 108.378C97.6132 110.114 98.7709 122.269 98.1921 126.321C97.6132 130.373 93.5615 138.476 91.8251 139.634C90.0887 140.791 84.8793 163.365 87.7734 170.89C90.4825 177.934 94.7192 183.045 95.298 184.781C95.8768 186.518 105.138 190.57 105.717 191.148C106.18 191.611 108.804 191.534 109.768 191.148C106.874 191.148 96.4556 176.678 94.1404 172.626C92.2881 169.385 92.7898 158.928 92.9827 154.104C93.7545 150.438 95.8021 144.238 98.1921 141.37C101.086 137.897 103.401 131.916 103.98 128.058L102.244 110.693C103.98 107.799 107.453 104.326 108.611 102.59C109.768 100.853 110.347 96.2227 110.347 93.3286Z" fill="url(#paint3_linear_1320_5)"/>
<path d="M84.3003 179.572C81.522 176.33 80.4415 169.346 80.2486 166.259C80.0557 166.838 79.6698 167.417 76.7757 169.732C73.5416 172.319 60.5689 163.944 55.3596 162.207C50.1502 161.05 43.9762 155.84 40.3104 152.946C39.7316 154.104 45.1338 160.857 47.2561 162.786C48.4138 164.523 67.5147 171.468 74.4604 173.205C76.7757 173.784 81.7921 177.835 84.3003 179.572Z" fill="#BE5A42"/>
<g filter="url(#filter4_f_1320_5)">
<path d="M95.8764 95.6439C94.9503 91.4764 91.6318 90.4346 90.0883 90.4346C91.8247 90.4346 94.14 93.9075 94.14 96.2227C94.14 98.0749 96.6482 101.818 98.7705 102.011C98.1917 101.625 96.8025 99.8114 95.8764 95.6439Z" fill="#B9613B"/>
</g>
<path d="M90.0886 90.4349C92.8669 89.9718 95.8767 96.9951 97.0344 100.854L99.3496 102.011C97.999 101.818 91.825 103.169 91.2462 100.275C90.8829 98.4585 91.6321 92.7501 90.0886 90.4349Z" fill="#B75F3B"/>
<path d="M59.9903 146.58C55.8228 139.171 58.2538 135.389 59.9903 134.425C59.9903 137.319 60.5905 143.393 65.7784 147.738C68.0937 150.632 70.4089 153.526 76.7759 153.526C76.7759 154.452 72.9171 155.455 70.9877 155.841C69.0583 155.841 64.1577 153.989 59.9903 146.58Z" fill="#BE5A42"/>
<path d="M84.8797 64.3878C92.7516 48.644 90.8608 40.8493 88.9314 38.9199C88.3525 47.0233 83.915 56.8632 82.5644 59.7573C78.3197 72.1053 70.9881 105.252 70.9881 115.902C70.9881 126.552 79.4774 140.791 83.722 147.737L84.8797 141.37C75.0398 120.533 75.4257 105.291 77.9339 99.6955L84.8797 64.3878Z" fill="#B3593B"/>
<g filter="url(#filter5_d_1320_5)">
<path d="M54.2021 113.008C45.8672 108.377 44.3623 103.361 44.9411 101.432C44.9411 106.062 57.4821 113.008 63.4632 115.902L64.042 119.375C63.1159 119.838 56.9033 115.323 54.2021 113.008Z" fill="#BE5A42"/>
</g>
<path d="M63.8674 60.445C63.925 60.4068 63.9831 60.3704 64.0417 60.3359C63.9735 60.3359 63.915 60.3685 63.8674 60.445C60.6981 62.5475 59.0908 70.2998 73.3027 77.1216C70.6016 74.9992 64.5047 69.7127 64.0417 65.5453C63.6605 62.114 63.6454 60.8016 63.8674 60.445Z" fill="#BE5A42"/>
<path d="M134.657 153.525C134.078 156.998 130.606 163.944 130.027 162.786C129.564 161.86 132.921 156.227 134.657 153.525Z" fill="white" fill-opacity="0.3"/>
<path d="M87.4556 103.553C86.9729 100.065 88.2177 92.4 89.1152 93.3325C89.8333 94.0785 88.308 100.457 87.4556 103.553Z" fill="white" fill-opacity="0.42"/>
<path d="M84.9717 54.9941C84.6035 50.45 87.6968 40.166 89.0961 41.2821C90.2155 42.175 86.8129 50.7955 84.9717 54.9941Z" fill="white" fill-opacity="0.42"/>
<path d="M66.729 144.35C63.9192 142.128 59.3075 135.961 60.5801 136.127C61.5982 136.26 65.1036 141.664 66.729 144.35Z" fill="white" fill-opacity="0.42"/>
<path d="M121.922 174.941C120.186 181.308 117.408 193.116 115.555 191.727C113.703 190.338 118.449 183.045 121.922 174.941Z" fill="white" fill-opacity="0.32"/>
<path d="M111.623 154.683C115.509 160.017 122.993 169.563 120.751 170.142C118.509 170.72 115.78 162.457 111.623 154.683Z" fill="white" fill-opacity="0.32"/>
<path d="M106.295 92.1709C107.452 94.4862 103.979 102.011 103.979 99.6955C103.979 97.8433 105.523 93.9073 106.295 92.1709Z" fill="white" fill-opacity="0.44"/>
<path d="M52.7038 108.018C50.1154 108.048 44.8632 101.638 46.946 102.649C48.6122 103.458 51.4788 106.565 52.7038 108.018Z" fill="white" fill-opacity="0.44"/>
<path d="M84.2487 174.816C82.9475 176.103 93.5358 189.079 97.6425 193.351C97.6481 192.315 91.6167 184.52 88.6155 181.052C87.5937 178.544 85.2898 173.786 84.2487 174.816Z" fill="white" fill-opacity="0.34"/>
<path d="M74.3877 135.053C69.8031 127.553 67.8214 117.511 68.6234 112.51C68.0801 112.788 66.6978 111.186 66.2619 115.796C66.0372 118.172 70.3245 130.987 72.2724 136.546C72.6561 137.073 80.7559 145.471 74.3877 135.053Z" fill="white" fill-opacity="0.39"/>
<defs>
<filter id="filter0_d_1320_5" x="114.744" y="151.789" width="35.2467" height="61.8209" filterUnits="userSpaceOnUse" color-interpolation-filters="sRGB">
<feFlood flood-opacity="0" result="BackgroundImageFix"/>
<feColorMatrix in="SourceAlpha" type="matrix" values="0 0 0 0 0 0 0 0 0 0 0 0 0 0 0 0 0 0 127 0" result="hardAlpha"/>
<feOffset dy="7.17902"/>
<feGaussianBlur stdDeviation="3.58951"/>
<feComposite in2="hardAlpha" operator="out"/>
<feColorMatrix type="matrix" values="0 0 0 0 0 0 0 0 0 0 0 0 0 0 0 0 0 0 0.25 0"/>
<feBlend mode="normal" in2="BackgroundImageFix" result="effect1_dropShadow_1320_5"/>
<feBlend mode="normal" in="SourceGraphic" in2="effect1_dropShadow_1320_5" result="shape"/>
</filter>
<filter id="filter1_f_1320_5" x="0.350662" y="0.696854" width="188.158" height="191.052" filterUnits="userSpaceOnUse" color-interpolation-filters="sRGB">
<feFlood flood-opacity="0" result="BackgroundImageFix"/>
<feBlend mode="normal" in="SourceGraphic" in2="BackgroundImageFix" result="shape"/>
<feGaussianBlur stdDeviation="44.8689" result="effect1_foregroundBlur_1320_5"/>
</filter>
<filter id="filter2_d_1320_5" x="37.652" y="101.433" width="33.569" height="32.3346" filterUnits="userSpaceOnUse" color-interpolation-filters="sRGB">
<feFlood flood-opacity="0" result="BackgroundImageFix"/>
<feColorMatrix in="SourceAlpha" type="matrix" values="0 0 0 0 0 0 0 0 0 0 0 0 0 0 0 0 0 0 127 0" result="hardAlpha"/>
<feOffset dy="7.17902"/>
<feGaussianBlur stdDeviation="3.58951"/>
<feComposite in2="hardAlpha" operator="out"/>
<feColorMatrix type="matrix" values="0 0 0 0 0 0 0 0 0 0 0 0 0 0 0 0 0 0 0.25 0"/>
<feBlend mode="normal" in2="BackgroundImageFix" result="effect1_dropShadow_1320_5"/>
<feBlend mode="normal" in="SourceGraphic" in2="effect1_dropShadow_1320_5" result="shape"/>
</filter>
<filter id="filter3_d_1320_5" x="114.744" y="151.789" width="35.2467" height="61.8209" filterUnits="userSpaceOnUse" color-interpolation-filters="sRGB">
<feFlood flood-opacity="0" result="BackgroundImageFix"/>
<feColorMatrix in="SourceAlpha" type="matrix" values="0 0 0 0 0 0 0 0 0 0 0 0 0 0 0 0 0 0 127 0" result="hardAlpha"/>
<feOffset dy="7.17902"/>
<feGaussianBlur stdDeviation="3.58951"/>
<feComposite in2="hardAlpha" operator="out"/>
<feColorMatrix type="matrix" values="0 0 0 0 0 0 0 0 0 0 0 0 0 0 0 0 0 0 0.25 0"/>
<feBlend mode="normal" in2="BackgroundImageFix" result="effect1_dropShadow_1320_5"/>
<feBlend mode="normal" in="SourceGraphic" in2="effect1_dropShadow_1320_5" result="shape"/>
</filter>
<filter id="filter4_f_1320_5" x="0.350662" y="0.696854" width="188.158" height="191.052" filterUnits="userSpaceOnUse" color-interpolation-filters="sRGB">
<feFlood flood-opacity="0" result="BackgroundImageFix"/>
<feBlend mode="normal" in="SourceGraphic" in2="BackgroundImageFix" result="shape"/>
<feGaussianBlur stdDeviation="44.8689" result="effect1_foregroundBlur_1320_5"/>
</filter>
<filter id="filter5_d_1320_5" x="37.652" y="101.432" width="33.569" height="32.3346" filterUnits="userSpaceOnUse" color-interpolation-filters="sRGB">
<feFlood flood-opacity="0" result="BackgroundImageFix"/>
<feColorMatrix in="SourceAlpha" type="matrix" values="0 0 0 0 0 0 0 0 0 0 0 0 0 0 0 0 0 0 127 0" result="hardAlpha"/>
<feOffset dy="7.17902"/>
<feGaussianBlur stdDeviation="3.58951"/>
<feComposite in2="hardAlpha" operator="out"/>
<feColorMatrix type="matrix" values="0 0 0 0 0 0 0 0 0 0 0 0 0 0 0 0 0 0 0.25 0"/>
<feBlend mode="normal" in2="BackgroundImageFix" result="effect1_dropShadow_1320_5"/>
<feBlend mode="normal" in="SourceGraphic" in2="effect1_dropShadow_1320_5" result="shape"/>
</filter>
<linearGradient id="paint0_linear_1320_5" x1="136.972" y1="283.181" x2="35.1007" y2="61.4945" gradientUnits="userSpaceOnUse">
<stop stop-color="#D74E61"/>
<stop offset="0.545" stop-color="#E58B49"/>
<stop offset="0.955" stop-color="#F9BF2A"/>
</linearGradient>
<linearGradient id="paint1_linear_1320_5" x1="99.0103" y1="90.4346" x2="99.0103" y2="191.886" gradientUnits="userSpaceOnUse">
<stop stop-color="#B9633B"/>
<stop offset="1" stop-color="#AA4A3A"/>
</linearGradient>
<linearGradient id="paint2_linear_1320_5" x1="136.972" y1="283.181" x2="35.1007" y2="61.4944" gradientUnits="userSpaceOnUse">
<stop stop-color="#D74E61"/>
<stop offset="0.545" stop-color="#E58B49"/>
<stop offset="0.955" stop-color="#F9BF2A"/>
</linearGradient>
<linearGradient id="paint3_linear_1320_5" x1="99.0103" y1="90.4346" x2="99.0103" y2="191.886" gradientUnits="userSpaceOnUse">
<stop stop-color="#B9633B"/>
<stop offset="1" stop-color="#AA4A3A"/>
</linearGradient>
<clipPath id="clip0_1320_5">
<rect x="9" y="95" width="186" height="186" rx="93" fill="white"/>
</clipPath>
</defs>
</svg>
