<svg width="126" height="495" viewBox="0 0 126 495" fill="none" xmlns="http://www.w3.org/2000/svg">
<path d="M26.0225 479.2V139.991C29.3128 136.402 38.9855 131.915 64.6097 131.915C95.1205 131.915 102.3 132.214 104.094 139.991V479.2C98.71 483.986 87.5825 494.455 64.6097 494.455C41.6368 494.455 27.5181 487.875 26.0225 479.2Z" fill="#F7E7D8"/>
<path d="M25.1265 429.845V90.636C28.4168 87.0464 38.0895 82.5596 63.7137 82.5596C94.2245 82.5596 101.404 82.8587 103.198 90.636V429.845C97.814 434.631 86.6865 445.1 63.7137 445.1C40.7408 445.1 26.6221 438.519 25.1265 429.845Z" fill="#F7E7D8"/>
<path d="M21.5364 486.379C21.5364 489.968 26.0233 493.857 27.818 494.455H101.403C102.3 494.455 103.736 492.301 105.89 487.276C108.044 482.251 106.787 477.704 104.095 477.405C102.3 480.097 95.0742 482.501 89.737 483.687C81.6606 485.481 70.8921 483.687 59.2262 483.687C49.8935 483.687 30.5101 484.584 26.0233 477.405C24.8268 478.302 21.5364 482.789 21.5364 486.379Z" fill="#DAD0C6"/>
<path d="M32.3905 470.232V157.857C32.3905 155.766 32.1722 150.937 34.1565 134.021C35.9225 118.967 37.6884 142.802 37.6884 157.857V457.687C37.6884 461.45 37.689 457.687 37.6885 471.486C37.6882 477.759 31.5076 476.504 32.3905 470.232Z" fill="#DAD0C6"/>
<path d="M46.7502 475.477V155.01C46.7502 152.865 46.5318 147.911 48.5162 130.556C50.2821 115.112 52.048 139.565 52.048 155.01V462.607C52.048 466.468 52.0486 462.607 52.0481 476.764C52.0478 483.199 45.8672 481.912 46.7502 475.477Z" fill="#DAD0C6"/>
<path d="M62.902 475.477V155.01C62.902 152.865 62.6836 147.911 64.668 130.556C66.4339 115.112 68.1999 139.565 68.1999 155.01V462.607C68.1999 466.468 68.2005 462.607 68.1999 476.764C68.1997 483.199 62.019 481.912 62.902 475.477Z" fill="#DAD0C6"/>
<path d="M79.0556 475.477V155.01C79.0556 152.865 78.8372 147.911 80.8216 130.556C82.5875 115.112 84.3534 139.565 84.3534 155.01V462.607C84.3534 466.468 84.3541 462.607 84.3535 476.764C84.3532 483.199 78.1726 481.912 79.0556 475.477Z" fill="#DAD0C6"/>
<path d="M93.4132 470.232V157.857C93.4132 155.766 93.1949 150.937 95.1792 134.021C96.9452 118.967 98.7111 142.802 98.7111 157.857V457.687C98.7111 461.45 98.7117 457.687 98.7112 471.486C98.7109 477.759 92.5303 476.504 93.4132 470.232Z" fill="#DAD0C6"/>
<path d="M60.1242 97.8147C79.8665 99.4425 95.7201 96.9174 103.198 97.8147V103.199H25.1265V94.2252V84.3541L45.7661 79.8672C46.0653 84.9523 49.8801 96.9701 60.1242 97.8147Z" fill="#DAD0C6" fill-opacity="0.61"/>
<path d="M60.1242 97.8147C79.8665 99.4425 95.7201 96.9174 103.198 97.8147V103.199H25.1265V94.2252V84.3541L45.7661 79.8672C46.0653 84.9523 49.8801 96.9701 60.1242 97.8147Z" fill="black" fill-opacity="0.1"/>
<path d="M53.8425 376.899C61.9189 403.82 69.9953 436.126 104.096 436.126V486.379H25.1265V350.392V132.812H46.0034C46.3059 209.872 49.1105 361.126 53.8425 376.899Z" fill="black" fill-opacity="0.1"/>
<path d="M71.7901 118.455C91.5324 120.083 95.7201 121.147 103.198 122.044V127.428H25.1265V118.455V108.584L45.7661 104.097C46.0653 109.182 61.5461 117.61 71.7901 118.455Z" fill="black" fill-opacity="0.1"/>
<path d="M21.5364 108.583C21.5364 104.994 26.0233 101.105 27.818 100.507H101.403C102.3 100.507 103.736 102.661 105.89 107.686C108.044 112.711 106.787 117.258 104.095 117.557C102.3 114.865 95.0742 112.461 89.737 111.275C81.6606 109.481 70.8921 111.275 59.2262 111.275C49.8935 111.275 30.5101 110.378 26.0233 117.557C24.8268 116.66 21.5364 112.173 21.5364 108.583Z" fill="#DAD0C6"/>
<path d="M21.5366 85.2512C21.5366 81.6617 26.0235 77.7731 27.8183 77.1748H101.403C102.301 77.1748 103.736 79.3285 105.89 84.3538C108.044 89.3791 106.787 93.9258 104.095 94.225C102.301 91.5328 95.0745 89.1294 89.7373 87.9433C81.6609 86.1486 70.8924 87.9433 59.2265 87.9433C49.8937 87.9433 30.5104 87.046 26.0235 94.225C24.827 93.3276 21.5366 88.8407 21.5366 85.2512Z" fill="#DAD0C6"/>
<path d="M21.5364 131.915C21.5364 128.326 26.0233 124.437 27.818 123.839H101.403C102.3 123.839 103.736 125.993 105.89 131.018C108.044 136.043 106.787 140.59 104.095 140.889C102.3 138.197 95.0742 135.793 89.737 134.607C81.6606 132.813 70.8921 134.607 59.2262 134.607C49.8935 134.607 30.5101 133.71 26.0233 140.889C24.8268 139.992 21.5364 135.505 21.5364 131.915Z" fill="#DAD0C6"/>
<rect x="25.1265" y="34.1006" width="78.9692" height="39.4846" fill="#DAD0C6"/>
<path d="M24.2285 68.2013V36.7931L104.095 32.2207V48.3735C85.5493 47.4761 60.1236 46.6643 50.2525 48.459C40.3813 50.2538 35.8944 62.5179 37.6892 68.2013H24.2285Z" fill="#C7BBAE" fill-opacity="0.78"/>
<path d="M60.2382 64.6113C46.5981 64.6113 28.83 64.9105 22.5484 66.4061C18.9589 67.3035 16.9848 70.1751 16.2669 74.4825C15.549 78.7899 18.3606 81.6615 20.7536 81.6615C30.6247 80.465 52.8797 78.072 62.9303 78.072C72.9809 78.072 89.2537 78.6702 97.0309 79.8667C97.6292 80.465 112.513 83.8438 111.275 76.2772C109.366 64.6113 108.93 67.2747 102.415 66.4061C88.9545 64.6113 73.8784 64.6113 60.2382 64.6113Z" fill="#F5EADF"/>
<path d="M42.1765 71.084C28.5363 71.084 35.8948 63.3067 29.6132 64.8024C18.8446 64.8024 16.9845 69.4687 16.2666 73.7761C15.5487 78.0836 18.2465 82.5589 20.6395 82.5589C30.5107 81.3624 52.7655 79.1604 62.8161 79.1604C72.8667 79.1604 89.2533 79.7587 97.0306 80.9552C97.6289 81.5534 111.274 82.8242 111.274 77.3656C111.274 69.2892 103.198 73.7761 97.0306 73.7761C83.4508 73.7761 55.8166 71.084 42.1765 71.084Z" fill="#E8DCCF"/>
<path d="M60.2382 25.127C46.5981 25.127 28.83 25.4261 22.5484 26.9217C18.9589 27.8191 16.9848 30.6907 16.2669 34.9981C15.549 39.3055 18.3606 42.1771 20.7536 42.1771C30.6247 40.9806 52.8797 38.5876 62.9303 38.5876C72.9809 38.5876 89.2537 39.1859 97.0309 40.3824C97.6292 40.9806 112.513 44.3594 111.275 36.7929C109.366 25.127 108.93 27.7903 102.415 26.9217C88.9545 25.127 73.8784 25.127 60.2382 25.127Z" fill="#F5EADF"/>
<path d="M41.3627 33.3189C27.2078 33.3189 34.844 25.6325 28.3253 27.1107C17.1504 27.1107 15.2201 31.7225 14.4751 35.9796C13.7301 40.2366 16.6477 43.0747 19.131 43.0747C29.3747 41.8921 52.4694 39.5271 62.8993 39.5271C73.3292 39.5271 90.216 40.1184 98.2868 41.3009C98.9076 41.8921 113.068 44.9218 113.068 39.5271C113.068 31.5451 104.687 35.9796 98.2868 35.9796C84.1946 35.9796 55.5175 33.3189 41.3627 33.3189Z" fill="#E8DCCF"/>
<path d="M22.0247 0.486311L100.09 1.50791C105.175 1.57446 110.947 0.156762 117.092 5.32022C126.856 13.5251 127.842 21.2362 121.202 34.0925C119.361 37.6583 93.9011 43.7803 95.2746 26.5736L32.4518 26.6489C34.9441 41.9383 11.6612 38.0438 7.20995 35.2931C3.39302 32.9345 0.184205 23.5343 0.266403 17.2532C0.336858 11.8694 5.87331 0.274945 22.0247 0.486311Z" fill="#CBBFB3"/>
<path d="M23.3307 25.1271C22.4601 21.6448 17.9464 20.3411 17.0491 21.5376C17.6473 19.7428 21.8388 17.2526 24.2281 18.8454C26.9202 20.6402 29.1235 22.5957 27.8176 27.8192C26.9202 31.4087 20.0403 31.7079 17.9464 31.4087C19.4421 29.9131 24.2281 28.7166 23.3307 25.1271Z" fill="#A49A8F"/>
<path d="M17.9463 31.4081C8.07492 24.2291 9.51048 19.9217 11.6642 17.0501C13.5109 14.5879 18.8432 11.8114 23.3301 12.5632C20.3388 11.4464 11.1258 10.948 8.97211 15.2554C6.81841 19.5628 2.69066 26.9213 17.9463 31.4081Z" fill="#A49A8F"/>
<path d="M105.846 26.5859C106.287 23.0235 110.609 21.1805 111.645 22.2589C110.833 20.5503 106.369 18.5883 104.192 20.46C101.738 22.5689 99.7888 24.7779 101.72 29.8037C103.048 33.2575 109.913 32.7175 111.955 32.1659C110.288 30.8633 105.392 30.2579 105.846 26.5859Z" fill="#A49A8F"/>
<path d="M111.955 32.1666C120.88 23.8402 118.931 19.7394 116.444 17.151C114.312 14.9317 108.681 12.8245 104.319 14.1164C107.152 12.6441 116.236 11.0287 118.898 15.0422C121.56 19.0556 126.552 25.8574 111.955 32.1666Z" fill="#A49A8F"/>
<path d="M56.5346 8.97363C44.3303 8.97363 32.6045 10.7684 24.229 11.6658H57.432H96.0192C90.6349 10.7684 68.7389 8.97363 56.5346 8.97363Z" fill="#A49A8F"/>
<path d="M28.7145 16.1529C27.2787 13.9992 23.6294 11.9651 22.4329 11.666H44.8673C44.5682 13.1616 45.5852 17.0503 55.6358 20.6398C65.6864 24.2293 78.9676 23.3319 95.1204 26.0241L32.304 26.9214C31.7058 24.2293 30.1503 18.3066 28.7145 16.1529Z" fill="#B7A798" fill-opacity="0.48"/>
</svg>
