<svg width="220" height="202" viewBox="0 0 220 202" fill="none" xmlns="http://www.w3.org/2000/svg">
<path d="M80.6168 190.371C74.6174 190.371 73.7425 185.684 74.0549 183.34C69.9303 196.089 51.401 200.839 42.6519 201.62C38.5273 195.995 27.4972 196.777 22.4977 197.87C19.1231 189.246 12.9674 188.027 10.3115 188.496C11.0614 174.248 3.74962 166.623 0 164.592C8.24916 155.968 5.9369 143.501 3.74962 138.345C13.8736 133.845 16.4046 125.846 16.4046 122.409C26.9035 124.284 37.0275 115.691 40.7771 111.16C51.276 112.66 58.2753 110.535 60.4626 109.286C66.462 105.161 73.8987 111.942 76.8672 115.847C88.866 113.973 89.9909 121.003 89.0534 124.753C98.0525 125.503 102.177 131.315 103.115 134.127C115.488 140.126 114.52 148.813 112.489 152.406C118.863 158.406 120.144 175.529 119.988 183.34C118.488 188.59 114.363 190.215 112.489 190.371H80.6168Z" fill="#86BEF1"/>
<path d="M119.051 169.869C118.582 161.433 114.364 153.465 112.489 152.527C110.614 161.901 85.929 170.338 74.5239 174.088L74.0552 180.181C91.3034 182.056 112.176 174.088 119.051 169.869Z" fill="#C0E1FF"/>
<path d="M73.1182 156.276C81.3673 148.402 87.1792 130.966 89.054 124.404C96.0846 125.81 101.24 128.623 103.115 134.247C101.615 146.996 82.8047 162.213 74.993 167.525C75.3679 161.9 74.2118 157.682 73.1182 156.276Z" fill="#C0E1FF"/>
<path d="M66.5561 149.246C72.5554 136.497 69.3683 115.499 65.6187 108C71.2431 108.937 74.9927 113.156 77.3362 116.515C82.9606 127.764 74.6802 145.652 70.7744 152.527C70.7744 152.527 69.5568 150.88 68.4309 150.183C67.9387 149.879 66.5561 149.246 66.5561 149.246Z" fill="#C0E1FF"/>
<path d="M54.8384 145.964C52.5886 135.465 44.6832 116.436 40.7773 111.28C43.5896 111.749 48.2766 111.749 50.6201 111.749C58.1193 116.998 59.9941 139.09 59.9941 146.902C58.4943 145.777 55.6196 145.964 54.8384 145.964Z" fill="#C0E1FF"/>
<path d="M42.6521 148.308C37.0277 141.184 22.1854 124.716 16.4048 122.529C20.1544 122.529 23.4353 122.529 25.7788 121.591C30.4659 121.123 49.214 146.902 48.2765 146.902C47.5266 146.902 44.9956 147.371 42.6521 148.308Z" fill="#C0E1FF"/>
<path d="M16.405 122.53C20.1547 123.936 23.9043 127.686 28.5913 132.373L14.0615 129.561C14.0615 129.561 14.9549 127.818 15.4676 126.28C15.9803 124.742 16.405 122.53 16.405 122.53Z" fill="#4B8AC3"/>
<path d="M73.5861 183.93C82.5852 143.434 58.5876 141.746 42.6517 146.902C38.1522 146.902 34.8401 179.243 33.7464 194.71C31.2467 193.616 27.9345 192.273 34.6838 195.647C41.4331 199.022 42.183 201.272 42.6517 201.74C63.2746 201.365 71.8675 189.554 73.5861 183.93Z" fill="url(#paint0_linear_0_1)"/>
<path d="M3.74951 138.466C10.78 141.278 18.748 145.496 22.0289 147.371C16.8732 145.801 9.53017 144.395 5.62432 145.801C5.26099 142.936 4.87024 141.335 3.74951 138.466Z" fill="#4B8AC3"/>
<path d="M16.8733 160.495C13.1237 160.495 5.46819 161.901 0 164.714C3.28092 166.588 4.68702 168.932 6.20369 170.96C8.82842 166.46 12.3425 163.932 16.8733 160.495Z" fill="#4B8AC3"/>
<path d="M74.9923 173.619C75.3673 152.621 59.5251 146.818 53.9007 144.558C73.1175 143.621 77.8045 162.838 77.8045 173.619C73.5862 197.522 51.401 202.679 42.6519 201.741C62.5248 198.367 72.1801 186.273 74.9923 173.619Z" fill="#4B8AC3"/>
<path d="M60.9313 175.962C66.087 166.588 55.7756 159.089 52.0259 155.808C57.1817 153.933 64.056 162.838 64.6809 166.588C66.087 175.025 60.4626 181.899 57.1817 183.93C50.4324 187.305 45.1516 184.867 43.1206 182.993C53.2446 185.242 58.1191 179.712 60.9313 175.962Z" fill="#4B8AC3"/>
<path d="M39.3779 166.255L37.6139 165.924L37.5885 166.06L37.5841 166.197L39.3779 166.255ZM53.9077 175.629L54.4911 177.326L54.6288 177.279L54.757 177.21L53.9077 175.629ZM52.0328 162.037L52.951 160.495L52.8376 160.427L52.7155 160.377L52.0328 162.037ZM44.996 170.806L43.4741 171.757L43.488 171.78L43.5027 171.802L44.996 170.806ZM46.5259 167.296C46.3245 168.267 46.9479 169.217 47.9185 169.419C48.889 169.62 49.8391 168.997 50.0405 168.026L46.5259 167.296ZM55.0563 155.087C52.574 154.059 48.877 153.279 45.3761 154.622C41.7278 156.02 38.8166 159.51 37.6139 165.924L41.1419 166.586C42.1889 161.002 44.5084 158.799 46.6611 157.973C48.9611 157.091 51.6354 157.556 53.6838 158.403L55.0563 155.087ZM37.5841 166.197C37.4978 168.871 38.1713 172.806 40.7867 175.545C43.5723 178.462 48.0615 179.537 54.4911 177.326L53.3242 173.932C47.7551 175.846 44.9013 174.656 43.3826 173.066C41.6937 171.297 41.1017 168.482 41.1717 166.313L37.5841 166.197ZM54.757 177.21C57.1072 175.948 59.1778 173.277 59.3282 170.045C59.4852 166.669 57.5458 163.231 52.951 160.495L51.1146 163.579C54.9502 165.863 55.8199 168.215 55.7426 169.878C55.6586 171.684 54.4514 173.3 53.0583 174.048L54.757 177.21ZM52.7155 160.377C51.4229 159.845 49.8901 159.727 48.4497 159.924C47.0009 160.121 45.4874 160.659 44.2544 161.61C42.9955 162.581 42.0179 164.002 41.8076 165.853C41.601 167.671 42.1625 169.659 43.4741 171.757L46.518 169.855C45.486 168.204 45.2867 167.028 45.3742 166.258C45.458 165.521 45.8294 164.928 46.447 164.452C47.0904 163.956 47.9805 163.61 48.935 163.48C49.8979 163.349 50.768 163.457 51.3501 163.697L52.7155 160.377ZM43.5027 171.802C44.8272 173.788 47.3377 174.868 49.6598 174.277C52.2239 173.625 53.8276 171.2 53.8276 167.661H50.2381C50.2381 170.122 49.2608 170.675 48.7751 170.799C48.0475 170.984 47.0397 170.636 46.4893 169.811L43.5027 171.802ZM53.8276 167.661C53.8276 165.848 52.5292 164.204 50.8538 163.806C49.9188 163.584 48.8804 163.763 48.0277 164.483C47.227 165.159 46.761 166.164 46.5259 167.296L50.0405 168.026C50.1081 167.7 50.1897 167.49 50.2546 167.364C50.3186 167.24 50.3587 167.213 50.3433 167.226C50.3232 167.242 50.2696 167.277 50.1885 167.295C50.1115 167.312 50.0523 167.305 50.0247 167.298C50.0004 167.293 50.0061 167.289 50.0346 167.309C50.0626 167.328 50.0996 167.36 50.1359 167.407C50.2136 167.507 50.2381 167.604 50.2381 167.661H53.8276Z" fill="#4B8AC3"/>
<path d="M45.9325 148.401C39.9553 147.67 26.5923 151.038 30.8027 167.057C30.8027 156.518 41.0013 148.401 45.9325 148.401Z" fill="#C0E1FF"/>
<path d="M10.312 188.617C13.4783 184.156 19.1638 176.22 20.0401 172.946C20.0776 172.696 20.1159 172.452 20.1548 172.213C20.1548 172.42 20.115 172.666 20.0401 172.946C19.0206 179.715 18.4941 190.197 19.2174 192.367C17.3425 190.492 14.5303 188.149 10.312 188.617Z" fill="#4B8AC3"/>
<path d="M126.988 105.527C123.993 104.267 123.245 95.1524 123.245 90.7529L187.07 93.7078C186.125 95.4413 186.676 99.9459 187.07 101.981C187.386 104.503 184.313 111.568 182.737 114.786C181.161 116.047 176.17 115.311 173.872 114.786C171.666 112.737 165.467 111.568 162.643 111.24C162.052 109.664 150.43 109.861 150.43 110.452C150.43 110.925 136.772 113.144 129.943 114.195C125.53 114.195 126.134 108.417 126.988 105.527Z" fill="#C9BCAB"/>
<path d="M120.093 88.1922C124.663 93.5504 145.636 107.891 155.551 114.392C158.861 115.495 166.386 109.467 169.735 106.315C170.365 105.37 182.605 97.3852 188.646 93.511C190.222 91.7774 202.173 85.1716 207.951 82.0854C212.522 78.1456 215.24 69.6749 216.028 65.932C220.756 60.889 218.786 52.9305 217.21 49.5817C218.943 44.3811 214.255 35.8579 211.694 32.2463C212.009 29.4097 206.835 24.104 204.208 21.8057C201.057 13.4533 193.308 11.3652 189.828 11.3652C183.839 4.43102 174.857 3.2228 171.114 3.48545C167.962 -0.769582 162.971 0.530569 160.87 1.71252C154.094 -2.22732 148.328 1.64685 146.293 4.07643C138.571 2.1853 132.832 5.65236 130.927 7.62229C118.477 10.9318 116.941 15.305 117.729 17.0779C110.164 19.2842 106.96 27.0589 106.303 30.6704C99.2115 35.2406 99.1459 42.4243 99.9995 45.4448C96.3748 48.1239 96.9133 53.6528 97.6356 56.0824C96.5324 57.1856 97.7012 60.7446 98.4235 62.3862C96.8476 65.3805 99.0802 68.7556 100.393 70.0689C99.9207 76.0574 113.329 84.6463 120.093 88.1922Z" fill="url(#paint1_linear_0_1)"/>
<path d="M100.066 45.3333C97.7025 41.2359 101.642 33.1198 106.37 30.7559C104.794 34.3805 111.723 49.2075 115.729 55.3799C117.502 60.5017 126.76 71.5333 128.139 72.7152C129.518 73.8972 136.807 86.7017 137.792 87.4897C138.777 88.2776 146.065 96.3543 147.444 100.491C148.823 104.628 156.8 113.887 156.012 114.478C155.532 114.838 146.065 104.628 144.883 102.264C143.938 100.373 138.317 93.0711 135.625 89.6566L116.911 65.8205C114.231 60.7775 104.138 50.3894 100.066 45.3333Z" fill="#E7E7E7"/>
<path d="M117.992 17.1627C115.313 14.0108 124.493 8.69199 130.994 7.70703C129.103 10.7013 135.241 26.7496 138.131 34.104C138.131 42.3777 138.919 49.6664 139.707 52.8183C139.878 53.502 143.384 64.6378 144.828 70.3506C146.422 76.6544 148.374 82.0388 150.541 83.7461C151.644 86.7404 153.627 99.1772 154.481 105.021C154.875 108.37 156.957 114.95 156.012 114.477C154.83 113.886 151.526 106.794 151.526 106.4C151.526 106.006 149.753 91.4288 145.616 86.307C142.307 82.2095 139.772 75.6694 138.919 72.9115C139.234 69.9172 135.898 61.289 134.191 57.3491C129.936 51.3605 127.821 45.5296 127.296 43.3626C127.769 36.5861 121.013 23.4664 117.992 17.1627Z" fill="#E7E7E7"/>
<path d="M146.163 4.16151C152.073 -2.14223 159.033 0.155997 160.937 1.7976C156.525 5.10708 157.982 22.8758 159.558 33.7104C158.967 42.575 156.603 50.6517 159.558 67.838C158.376 75.4727 160.398 85.8653 159.558 91.4291C158.376 99.2608 157.982 110.34 156.209 114.477L155.421 101.87C155.421 94.975 155.618 79.5616 152.467 71.9269C153.255 68.924 151.088 59.1704 150.3 54.4426C150.615 50.1875 148.986 33.1017 148.133 25.0907C150.497 18.3142 148.133 8.49534 146.163 4.16151Z" fill="#E7E7E7"/>
<path d="M189.697 11.253C184.654 4.47649 174.923 3.24199 170.983 3.57032V10.7152C171.771 14.9703 169.736 22.0751 168.619 25.0957C168.619 29.6265 168.225 27.2626 168.225 32.1874C166.649 36.9152 166.518 42.825 166.649 44.5979L165.467 65.8731C164.522 71.7041 164.285 77.3643 164.285 79.4656C166.334 84.1934 164.351 92.9924 163.103 96.8009C162.631 100.426 159.426 109.815 157.982 114.28L158.573 114.083L159.164 113.886L160.346 113.295L166.649 96.8009C169.328 91.7579 169.079 84.9814 168.619 82.2235C168.304 79.5444 170.983 71.5202 172.362 67.843C173.465 65.7943 175.186 56.0892 175.908 51.4927C176.696 48.3408 178.206 42.6937 178.863 40.2641C179.808 36.9546 181.621 31.7934 182.409 29.6265C182.566 27.4202 187.531 16.3748 189.697 11.253Z" fill="#E7E7E7"/>
<path d="M211.564 32.3312C212.549 30.3613 207.296 24.0575 204.275 21.8906L201.911 30.1643C198.036 35.3649 194.518 43.3628 193.244 46.7117C189.146 50.9667 185.233 60.4355 183.788 64.638C182.842 67.4747 179.848 75.9322 178.469 79.8064C174.687 82.6431 171.903 88.868 170.984 91.6259C166.413 102.027 162.382 109.027 162.119 112.31L165.468 109.946C163.419 106.164 172.953 99.5056 174.726 92.6109C176.893 88.671 180.045 85.9131 180.439 84.7312C183.591 80.3974 183.985 77.8365 184.97 77.4425C186.546 73.1874 189.041 68.3152 190.092 66.4109C191.51 64.047 199.35 52.2931 203.093 46.7117C209.397 36.6257 210.776 31.7402 211.564 32.3312Z" fill="#E7E7E7"/>
<path d="M215.898 65.8201C221.217 60.8953 218.459 52.8186 217.277 49.4697C214.598 49.4697 208.478 56.1018 206.048 59.1224C201.793 61.959 199.022 65.8201 198.169 67.396C195.174 72.439 187.991 80.7915 184.773 84.3374C178.627 89.538 168.226 104.562 165.468 109.946C166.65 108.37 181.49 92.7424 187.728 87.0953C194.032 83.5494 193.441 80.3975 198.169 77.8366C201.32 74.5272 211.695 67.9213 215.898 65.8201Z" fill="#E7E7E7"/>
<path d="M100.46 69.957C96.7171 67.1991 96.5201 56.7585 97.5051 56.3645C97.8991 54.9855 104.697 60.5713 107.783 63.5918L125.907 84.867C127.645 86.7013 131.388 91.6261 135.362 95.7016C138.283 98.1269 153.582 110.209 155.618 114.28L125.907 90.0502C124.173 87.2135 117.073 80.7915 112.87 78.0336C108.668 75.2758 102.824 71.0076 100.46 69.957Z" fill="#E7E7E7"/>
<defs>
<linearGradient id="paint0_linear_0_1" x1="57.6502" y1="186.742" x2="74.9922" y2="185.805" gradientUnits="userSpaceOnUse">
<stop stop-color="#86BEF1"/>
<stop offset="1" stop-color="#68A8E2"/>
</linearGradient>
<linearGradient id="paint1_linear_0_1" x1="158.051" y1="0.0253906" x2="158.051" y2="114.525" gradientUnits="userSpaceOnUse">
<stop offset="0.35" stop-color="#DFDBD2"/>
<stop offset="1" stop-color="#C9BCAB"/>
</linearGradient>
</defs>
</svg>
